<svg xmlns="http://www.w3.org/2000/svg" xmlns:xlink="http://www.w3.org/1999/xlink" width="150" height="150" preserveAspectRatio="xMidYMid meet" version="1.1" viewBox="0 0 600 600"><defs><path id="bOswM6JOO" d="M600 300C600 465.57 465.57 600 300 600C134.43 600 0 465.57 0 300C0 134.43 134.43 0 300 0C465.57 0 600 134.43 600 300Z"/><path id="e1BzMlKsO" d="M170.13 148.97C166.45 148.97 163.47 152.67 163.47 157.23C163.47 161.79 166.45 165.49 170.13 165.49C173.8 165.49 176.78 161.79 176.78 157.23C176.78 152.67 173.8 148.97 170.13 148.97Z"/><path id="dYybJeOyX" d="M444.02 115.99L444.52 116.06L445.01 116.16L445.51 116.3L446 116.45L446.48 116.64L446.96 116.85L447.44 117.09L447.91 117.35L448.38 117.63L448.83 117.93L449.28 118.26L449.73 118.61L450.16 118.97L450.59 119.36L451 119.77L451.4 120.19L451.8 120.63L452.18 121.09L452.54 121.56L452.9 122.05L453.24 122.55L453.57 123.06L453.88 123.59L454.18 124.13L454.46 124.68L454.72 125.24L454.96 125.8L455.19 126.38L455.4 126.96L455.59 127.56L455.76 128.15L455.91 128.76L456.04 129.37L456.14 129.98L456.23 130.59L456.29 131.21L456.32 131.83L456.34 132.45L456.34 479.4L456.33 480.02L456.3 480.64L456.25 481.26L456.18 481.87L456.09 482.49L455.99 483.09L455.86 483.7L455.72 484.29L455.56 484.89L455.38 485.47L455.18 486.05L454.97 486.62L454.74 487.17L454.49 487.72L454.23 488.26L453.95 488.79L453.65 489.3L453.34 489.8L453.02 490.29L452.68 490.76L452.32 491.22L451.95 491.66L451.56 492.08L451.16 492.49L450.75 492.88L450.32 493.24L449.88 493.59L449.42 493.92L448.95 494.22L448.47 494.51L447.98 494.76L447.48 495L446.96 495.21L446.43 495.4L445.89 495.55L445.34 495.69L444.77 495.79L444.2 495.86L443.62 495.91L443.02 495.93L150.16 495.93L149.66 495.91L149.16 495.88L148.66 495.82L148.17 495.73L147.67 495.62L147.19 495.49L146.7 495.34L146.22 495.16L145.74 494.96L145.27 494.74L144.81 494.49L144.35 494.23L143.9 493.94L143.45 493.64L143.02 493.31L142.6 492.96L142.18 492.6L141.78 492.21L141.39 491.81L141.01 491.38L140.64 490.94L140.28 490.48L139.94 490L139.61 489.5L139.3 488.99L139.01 488.46L138.73 487.91L138.46 487.34L138.22 486.76L137.99 486.17L137.78 485.56L137.59 484.93L137.42 484.29L137.27 483.63L137.14 482.96L137.04 482.27L136.96 481.58L136.89 480.87L136.86 480.14L136.85 479.4L136.85 132.45L136.86 131.83L136.89 131.21L136.96 130.59L137.04 129.98L137.14 129.37L137.27 128.76L137.42 128.15L137.59 127.56L137.78 126.96L137.99 126.38L138.22 125.8L138.46 125.24L138.73 124.68L139.01 124.13L139.3 123.59L139.61 123.06L139.94 122.55L140.28 122.05L140.64 121.56L141.01 121.09L141.39 120.63L141.78 120.19L142.18 119.77L142.6 119.36L143.02 118.97L143.45 118.61L143.9 118.26L144.35 117.93L144.81 117.63L145.27 117.35L145.74 117.09L146.22 116.85L146.7 116.64L147.19 116.45L147.67 116.3L148.17 116.16L148.66 116.06L149.16 115.99L149.66 115.94L150.16 115.93L443.02 115.93L443.52 115.94L444.02 115.99ZM150.16 479.4L443.02 479.4L443.02 198.53L150.16 198.53L150.16 479.4ZM256.65 182.01L443.02 182.01L443.02 132.45L256.65 132.45L256.65 182.01ZM150.16 182.01L243.34 182.01L243.34 132.45L150.16 132.45L150.16 182.01Z"/><path id="buSrPeGuv" d="M196.75 148.97C193.07 148.97 190.09 152.67 190.09 157.23C190.09 161.79 193.07 165.49 196.75 165.49C200.43 165.49 203.41 161.79 203.41 157.23C203.41 152.67 200.43 148.97 196.75 148.97Z"/><path id="diEayrt7n" d="M223.37 148.97C219.7 148.97 216.72 152.67 216.72 157.23C216.72 161.79 219.7 165.49 223.37 165.49C227.05 165.49 230.03 161.79 230.03 157.23C230.03 152.67 227.05 148.97 223.37 148.97Z"/><path id="gLsyucIAv" d="M170.13 242.1C166.13 242.1 163.47 239.99 163.47 236.84C163.47 236.84 163.47 236.84 163.47 236.84C163.47 233.68 166.13 231.58 170.13 231.58C176.78 231.58 230.03 231.58 236.69 231.58C240.68 231.58 243.34 233.68 243.34 236.84C243.34 236.84 243.34 236.84 243.34 236.84C243.34 239.99 240.68 242.1 236.69 242.1C223.37 242.1 176.78 242.1 170.13 242.1Z"/><path id="a2IGHRyw6b" d="M170.13 291.66C166.13 291.66 163.47 289.56 163.47 286.4C163.47 286.4 163.47 286.4 163.47 286.4C163.47 283.25 166.13 281.14 170.13 281.14C180.78 281.14 265.97 281.14 276.62 281.14C280.62 281.14 283.28 283.25 283.28 286.4C283.28 286.4 283.28 286.4 283.28 286.4C283.28 289.56 280.62 291.66 276.62 291.66C255.32 291.66 180.78 291.66 170.13 291.66Z"/><path id="bXGv8VSio" d="M263.31 242.1C259.32 242.1 256.65 239.99 256.65 236.84C256.65 236.84 256.65 236.84 256.65 236.84C256.65 233.68 259.32 231.58 263.31 231.58C268.64 231.58 311.23 231.58 316.56 231.58C320.55 231.58 323.22 233.68 323.22 236.84C323.22 236.84 323.22 236.84 323.22 236.84C323.22 239.99 320.55 242.1 316.56 242.1C305.91 242.1 268.64 242.1 263.31 242.1Z"/><path id="e4W5KQVoq" d="M303.25 291.66C299.25 291.66 296.59 289.56 296.59 286.4C296.59 286.4 296.59 286.4 296.59 286.4C296.59 283.25 299.25 281.14 303.25 281.14C305.91 281.14 327.21 281.14 329.87 281.14C333.86 281.14 336.53 283.25 336.53 286.4C336.53 286.4 336.53 286.4 336.53 286.4C336.53 289.56 333.86 291.66 329.87 291.66C324.55 291.66 305.91 291.66 303.25 291.66Z"/><path id="c1slyJ5zV4" d="M170.13 341.23C166.13 341.23 163.47 339.13 163.47 335.97C163.47 335.97 163.47 335.97 163.47 335.97C163.47 332.81 166.13 330.71 170.13 330.71C172.79 330.71 194.09 330.71 196.75 330.71C200.74 330.71 203.41 332.81 203.41 335.97C203.41 335.97 203.41 335.97 203.41 335.97C203.41 339.13 200.74 341.23 196.75 341.23C191.43 341.23 172.79 341.23 170.13 341.23Z"/><path id="a3PLqlwpy" d="M236.69 341.23C232.69 341.23 230.03 339.13 230.03 335.97C230.03 335.97 230.03 335.97 230.03 335.97C230.03 332.81 232.69 330.71 236.69 330.71C238.02 330.71 248.67 330.71 250 330.71C253.99 330.71 256.65 332.81 256.65 335.97C256.65 335.97 256.65 335.97 256.65 335.97C256.65 339.13 253.99 341.23 250 341.23C247.34 341.23 238.02 341.23 236.69 341.23Z"/><path id="ad69mwzlH" d="M356.5 291.66C352.5 291.66 349.84 289.56 349.84 286.4C349.84 286.4 349.84 286.4 349.84 286.4C349.84 283.25 352.5 281.14 356.5 281.14C360.49 281.14 392.44 281.14 396.43 281.14C400.43 281.14 403.09 283.25 403.09 286.4C403.09 286.4 403.09 286.4 403.09 286.4C403.09 289.56 400.43 291.66 396.43 291.66C388.44 291.66 360.49 291.66 356.5 291.66Z"/><path id="ajwWFDa62" d="M390.28 67.8L390.3 67.14L390.34 66.48L390.41 65.83L390.5 65.19L390.61 64.56L390.75 63.93L390.92 63.32L391.1 62.71L391.31 62.12L391.53 61.54L391.78 60.97L392.05 60.41L392.34 59.86L392.64 59.33L392.97 58.81L393.31 58.3L393.67 57.81L394.05 57.34L394.45 56.88L394.86 56.43L395.29 56.01L395.73 55.6L396.19 55.21L396.66 54.84L397.15 54.48L397.64 54.15L398.16 53.83L398.68 53.54L399.22 53.27L399.76 53.01L400.32 52.78L400.89 52.58L401.47 52.39L402.05 52.23L402.65 52.1L403.25 51.98L403.87 51.9L404.48 51.83L405.11 51.8L405.74 51.79L467.12 52.25L467.75 52.27L468.37 52.31L468.99 52.38L469.6 52.48L470.2 52.6L470.8 52.75L471.38 52.92L471.96 53.11L472.52 53.32L473.08 53.56L473.62 53.82L474.15 54.1L474.67 54.41L475.18 54.73L475.67 55.07L476.15 55.43L476.62 55.81L477.07 56.21L477.51 56.62L477.93 57.06L478.33 57.51L478.72 57.97L479.09 58.45L479.45 58.95L479.78 59.46L480.1 59.98L480.4 60.52L480.68 61.07L480.94 61.63L481.18 62.21L481.4 62.79L481.59 63.39L481.77 64L481.92 64.61L482.05 65.24L482.16 65.87L482.24 66.52L482.3 67.17L482.33 67.83L482.34 68.49L481.07 237.82L541.9 310.85L480.53 310.39L478.84 536.16L342.22 535.14L342.22 535.1L342.24 534.38L343.41 377.75L343.4 377.03L343.37 376.32L343.31 375.62L343.23 374.93L343.12 374.24L342.98 373.57L342.83 372.9L342.65 372.24L342.44 371.6L342.22 370.97L341.97 370.35L341.7 369.74L341.42 369.15L341.11 368.57L340.78 368L340.43 367.45L340.07 366.92L339.68 366.4L339.28 365.9L338.86 365.41L338.43 364.94L337.98 364.5L337.51 364.07L337.03 363.66L336.54 363.27L336.03 362.9L335.5 362.55L334.97 362.23L334.42 361.92L333.86 361.64L333.29 361.39L332.7 361.15L332.11 360.94L331.51 360.76L330.89 360.61L330.27 360.47L329.64 360.37L329 360.29L328.36 360.25L327.7 360.23L264.35 359.75L263.7 359.76L263.05 359.8L262.41 359.87L261.78 359.96L261.16 360.08L260.54 360.23L259.94 360.4L259.34 360.6L258.76 360.83L258.18 361.08L257.61 361.35L257.06 361.64L256.52 361.96L255.99 362.3L255.48 362.66L254.98 363.04L254.49 363.45L254.02 363.87L253.56 364.31L253.12 364.77L252.69 365.25L252.28 365.74L251.89 366.26L251.52 366.79L251.16 367.33L250.83 367.89L250.51 368.47L250.21 369.06L249.94 369.66L249.68 370.28L249.45 370.91L249.23 371.55L249.04 372.2L248.88 372.86L248.73 373.54L248.61 374.22L248.52 374.91L248.45 375.61L248.4 376.32L248.38 377.04L247.21 533.67L247.22 534.39L247.22 534.43L110.6 533.4L112.29 307.63L50.92 307.17L298.58 18.73L389.83 128.28L390.28 67.8Z"/></defs><g><g><g><use fill="purple" fill-opacity="1" opacity="1" xlink:href="#bOswM6JOO"/></g><g><g><use fill="#f5f5f5" fill-opacity="1" opacity="1" xlink:href="#e1BzMlKsO"/><g><use fill-opacity="0" stroke="#000" stroke-opacity="0" stroke-width="1" opacity="1" xlink:href="#e1BzMlKsO"/></g></g><g><use fill="#8d008d" fill-opacity="1" opacity="1" xlink:href="#dYybJeOyX"/><g><use fill-opacity="0" stroke="#f5f5f5" stroke-opacity="1" stroke-width="7" opacity="1" xlink:href="#dYybJeOyX"/></g></g><g><use fill="#f5f5f5" fill-opacity="1" opacity="1" xlink:href="#buSrPeGuv"/><g><use fill-opacity="0" stroke="#000" stroke-opacity="0" stroke-width="1" opacity="1" xlink:href="#buSrPeGuv"/></g></g><g><use fill="#f5f5f5" fill-opacity="1" opacity="1" xlink:href="#diEayrt7n"/><g><use fill-opacity="0" stroke="#000" stroke-opacity="0" stroke-width="1" opacity="1" xlink:href="#diEayrt7n"/></g></g><g><use fill="#f5f5f5" fill-opacity="1" opacity="1" xlink:href="#gLsyucIAv"/></g><g><use fill="#f5f5f5" fill-opacity="1" opacity="1" xlink:href="#a2IGHRyw6b"/></g><g><use fill="#fff" fill-opacity="1" opacity="1" xlink:href="#bXGv8VSio"/></g><g><use fill="#f5f5f5" fill-opacity="1" opacity="1" xlink:href="#e4W5KQVoq"/></g><g><use fill="#f5f5f5" fill-opacity="1" opacity="1" xlink:href="#c1slyJ5zV4"/></g><g><use fill="#f5f5f5" fill-opacity="1" opacity="1" xlink:href="#a3PLqlwpy"/></g><g><use fill="#f5f5f5" fill-opacity="1" opacity="1" xlink:href="#ad69mwzlH"/></g></g><g><use fill="#fff" fill-opacity=".13" opacity="1" xlink:href="#ajwWFDa62"/></g></g></g></svg>