<?xml version="1.0" encoding="UTF-8" standalone="no"?>
<!DOCTYPE svg PUBLIC "-//W3C//DTD SVG 1.1//EN" "http://www.w3.org/Graphics/SVG/1.1/DTD/svg11.dtd">
<svg preserveAspectRatio="xMidYMid meet" viewBox="0 0 120 120" width="144" height="144"><defs><path d="M110.55 1.33C115.14 1.33 118.85 5.05 118.85 9.63C118.85 31.44 118.85 88.56 118.85 110.37C118.85 114.95 115.14 118.67 110.55 118.67C88.67 118.67 31.33 118.67 9.45 118.67C4.86 118.67 1.15 114.95 1.15 110.37C1.15 88.56 1.15 31.44 1.15 9.63C1.15 5.05 4.86 1.33 9.45 1.33C31.33 1.33 88.67 1.33 110.55 1.33Z" id="adiODyQb"></path><path d="M56.2 12.08C53.28 12.08 51.65 12.08 51.33 12.08C47.65 12.08 44.71 15.39 44.91 19.36C45.52 33.92 48.99 65.35 66.69 65.35C84.38 65.35 87.86 33.92 88.46 19.36C88.66 15.39 85.72 12.08 82.05 12.08C81.72 12.08 80.1 12.08 77.17 12.08" id="a2sJ2agP3P"></path><path d="M66.62 65.11C66.62 80.72 66.62 89.39 66.62 91.13C66.62 100.93 58.81 108.9 49.19 108.9C48.34 108.9 41.56 108.9 40.71 108.9C32.56 108.9 25.81 102.84 24.61 94.87" id="e3mVHcxyvR"></path><path d="M53.06 15.1C52.19 15.1 51.46 14.31 51.46 13.37C51.46 13.12 51.46 11.1 51.46 10.85C51.46 9.91 52.19 9.12 53.06 9.12C53.42 9.12 56.25 9.12 56.6 9.12C57.47 9.12 58.2 9.91 58.2 10.85C58.2 11.1 58.2 13.12 58.2 13.37C58.2 14.31 57.47 15.1 56.6 15.1C55.89 15.1 53.42 15.1 53.06 15.1Z" id="a2VO5oYLPc"></path><path d="M76.64 15.1C75.77 15.1 75.03 14.31 75.03 13.37C75.03 13.12 75.03 11.1 75.03 10.85C75.03 9.91 75.77 9.12 76.64 9.12C76.99 9.12 79.82 9.12 80.18 9.12C81.04 9.12 81.78 9.91 81.78 10.85C81.78 11.1 81.78 13.12 81.78 13.37C81.78 14.31 81.04 15.1 80.18 15.1C79.47 15.1 76.99 15.1 76.64 15.1Z" id="f15YmiG9zp"></path><path d="M70.02 66.42C70.02 67.29 69.62 68.01 69.02 68.51C69.02 68.58 69.02 69.16 69.02 69.23C69.02 70.6 67.95 71.75 66.69 71.75C66.67 71.75 66.57 71.75 66.55 71.75C65.28 71.75 64.21 70.6 64.21 69.23C64.21 69.16 64.21 68.58 64.21 68.51C63.61 68.01 63.21 67.29 63.21 66.42C63.21 66.41 63.21 66.29 63.21 66.28C63.21 64.91 64.28 63.75 65.55 63.75C65.76 63.75 67.47 63.75 67.69 63.75C68.96 63.75 70.02 64.83 70.02 66.28C70.02 66.31 70.02 66.41 70.02 66.42Z" id="c1dzQn7Fu"></path><path d="M24.41 79C20.65 79 17.6 82.29 17.6 86.35C17.6 90.41 20.65 93.71 24.41 93.71C28.17 93.71 31.22 90.41 31.22 86.35C31.22 82.29 28.17 79 24.41 79Z" id="c5h94GdA9m"></path></defs><g><g><g><use xlink:href="#adiODyQb" opacity="1" fill="#ffffff" fill-opacity="0"></use><g><use xlink:href="#adiODyQb" opacity="1" fill-opacity="0" stroke="#600060" stroke-width="2" stroke-opacity="1"></use></g></g><g><use xlink:href="#a2sJ2agP3P" opacity="1" fill="#ffffff" fill-opacity="0"></use><g><use xlink:href="#a2sJ2agP3P" opacity="1" fill-opacity="0" stroke="#600060" stroke-width="2" stroke-opacity="1"></use></g></g><g><use xlink:href="#e3mVHcxyvR" opacity="1" fill="#000000" fill-opacity="0"></use><g><use xlink:href="#e3mVHcxyvR" opacity="1" fill-opacity="0" stroke="#600060" stroke-width="2" stroke-opacity="1"></use></g></g><g><use xlink:href="#a2VO5oYLPc" opacity="1" fill="#600060" fill-opacity="1"></use><g><use xlink:href="#a2VO5oYLPc" opacity="1" fill-opacity="0" stroke="#000000" stroke-width="1" stroke-opacity="0"></use></g></g><g><use xlink:href="#f15YmiG9zp" opacity="1" fill="#600060" fill-opacity="1"></use><g><use xlink:href="#f15YmiG9zp" opacity="1" fill-opacity="0" stroke="#000000" stroke-width="1" stroke-opacity="0"></use></g></g><g><use xlink:href="#c1dzQn7Fu" opacity="1" fill="#600060" fill-opacity="1"></use><g><use xlink:href="#c1dzQn7Fu" opacity="1" fill-opacity="0" stroke="#000000" stroke-width="1" stroke-opacity="0"></use></g></g><g><use xlink:href="#c5h94GdA9m" opacity="1" fill="#000000" fill-opacity="0"></use><g><use xlink:href="#c5h94GdA9m" opacity="1" fill-opacity="0" stroke="#600060" stroke-width="2.5" stroke-opacity="1"></use></g></g></g></g></svg>