<svg xmlns="http://www.w3.org/2000/svg" xmlns:xlink="http://www.w3.org/1999/xlink" width="16" height="16" preserveAspectRatio="xMidYMid meet" version="1.1" viewBox="0 0 640 640"><defs><path id="dEBUOjqC5" d="M287.42 17.21C308.95 13.14 331.05 13.14 352.58 17.21C359.43 18.5 357.53 18.14 366.91 19.92C378.47 22.1 386.84 32.2 386.84 43.97C386.84 123.7 386.84 337.44 386.84 415.88C386.84 430.66 374.87 442.63 360.1 442.63C338.71 442.63 302.48 442.63 281.39 442.63C265.8 442.63 253.16 429.99 253.16 414.4C253.16 336.25 253.16 122.98 253.16 43.07C253.16 31.82 261.16 22.17 272.2 20.08C281.76 18.28 280.57 18.5 287.42 17.21Z"/><path id="aZ9Sfs01R" d="M320.37 461.4C364.65 461.53 411.87 441.54 462.05 401.44C474.52 391.48 490.58 408.23 480.11 420.27C422.19 486.86 368.93 520.09 320.33 519.95C273.31 519.81 219.99 487.57 160.35 423.2C148.92 410.87 165.33 392.7 178.76 402.82C230.42 441.75 277.62 461.28 320.37 461.4Z"/><path id="g1OswOx9my" d="M296.84 527.89L343.16 527.89L343.16 622.63L296.84 622.63L296.84 527.89Z"/></defs><g><g><g><g><filter id="shadow11950678" width="176.68" height="472.13" x="232.16" y="-6.5" filterUnits="userSpaceOnUse" primitiveUnits="userSpaceOnUse"><feFlood/><feComposite in2="SourceAlpha" operator="in"/><feGaussianBlur stdDeviation="2.24"/><feOffset dx="-1" dy="2" result="afterOffset"/><feFlood flood-color="#212121" flood-opacity=".5"/><feComposite in2="afterOffset" operator="in"/><feMorphology operator="dilate" radius="4"/><feComposite in2="SourceAlpha" operator="out"/></filter><path id="f535PQL0JR" fill="#fff" fill-opacity="1" d="M287.42 17.21C308.95 13.14 331.05 13.14 352.58 17.21C359.43 18.5 357.53 18.14 366.91 19.92C378.47 22.1 386.84 32.2 386.84 43.97C386.84 123.7 386.84 337.44 386.84 415.88C386.84 430.66 374.87 442.63 360.1 442.63C338.71 442.63 302.48 442.63 281.39 442.63C265.8 442.63 253.16 429.99 253.16 414.4C253.16 336.25 253.16 122.98 253.16 43.07C253.16 31.82 261.16 22.17 272.2 20.08C281.76 18.28 280.57 18.5 287.42 17.21Z" filter="url(#shadow11950678)"/></g><use fill="#600060" fill-opacity="1" opacity="1" xlink:href="#dEBUOjqC5"/><g><use fill-opacity="0" stroke="#212121" stroke-opacity="1" stroke-width="1" opacity="1" xlink:href="#dEBUOjqC5"/></g></g><g><g><filter id="shadow13344412" width="347.99" height="142.55" x="146.51" y="388.41" filterUnits="userSpaceOnUse" primitiveUnits="userSpaceOnUse"><feFlood/><feComposite in2="SourceAlpha" operator="in"/><feGaussianBlur stdDeviation="1"/><feOffset dx="1" dy="1" result="afterOffset"/><feFlood flood-color="#000" flood-opacity=".5"/><feComposite in2="afterOffset" operator="in"/><feMorphology operator="dilate" radius="2"/><feComposite in2="SourceAlpha" operator="out"/></filter><path id="k20ntbPMWM" fill="#fff" fill-opacity="1" d="M320.37 461.4C364.65 461.53 411.87 441.54 462.05 401.44C474.52 391.48 490.58 408.23 480.11 420.27C422.19 486.86 368.93 520.09 320.33 519.95C273.31 519.81 219.99 487.57 160.35 423.2C148.92 410.87 165.33 392.7 178.76 402.82C230.42 441.75 277.62 461.28 320.37 461.4Z" filter="url(#shadow13344412)"/></g><use fill="#600060" fill-opacity="1" opacity="1" xlink:href="#aZ9Sfs01R"/><g><use fill-opacity="0" stroke="#212121" stroke-opacity="1" stroke-width="1" opacity="1" xlink:href="#aZ9Sfs01R"/></g></g><g><g><filter id="shadow2964381" width="81.32" height="129.74" x="279.84" y="510.89" filterUnits="userSpaceOnUse" primitiveUnits="userSpaceOnUse"><feFlood/><feComposite in2="SourceAlpha" operator="in"/><feGaussianBlur stdDeviation="2"/><feOffset dx="1" dy="1" result="afterOffset"/><feFlood flood-color="#000" flood-opacity=".5"/><feComposite in2="afterOffset" operator="in"/><feMorphology operator="dilate" radius="3"/><feComposite in2="SourceAlpha" operator="out"/></filter><path id="aajwDz34W" fill="#fff" fill-opacity="1" d="M296.84 527.89L343.16 527.89L343.16 622.63L296.84 622.63L296.84 527.89Z" filter="url(#shadow2964381)"/></g><use fill="#600060" fill-opacity="1" opacity="1" xlink:href="#g1OswOx9my"/><g><use fill-opacity="0" stroke="#600060" stroke-opacity="1" stroke-width="1" opacity="1" xlink:href="#g1OswOx9my"/></g></g></g></g></svg>