<svg xmlns="http://www.w3.org/2000/svg" xmlns:xlink="http://www.w3.org/1999/xlink" width="62" height="62" version="1.1" viewBox="0 0 120 120"><defs><path id="aevHZzcIW" d="m110.87 1.5c4.58 0 8.3 3.71 8.3 8.3v100.74c0 4.58-3.72 8.29-8.3 8.29h-101.11c-4.58 0-8.3-3.71-8.3-8.29v-100.74c0-4.59 3.72-8.3 8.3-8.3h101.11z"/><path id="amxsKPE1t" d="m67.65 28.66 0.68 0.07 0.67 0.11 0.68 0.14 0.67 0.17 0.67 0.2 0.67 0.23 0.67 0.26 0.66 0.29 0.67 0.32 0.66 0.35 0.66 0.38 0.66 0.41 0.65 0.45 0.66 0.47 0.65 0.51 0.65 0.53 0.65 0.57 0.64 0.59 0.65 0.63 0.64 0.66 0.64 0.69 0.64 0.72 0.64 0.75 0.63 0.78 0.64 0.81 0.63 0.84 0.63 0.87 0.63 0.9 0.62 0.94 0.63 0.96 0.62 0.99 0.62 1.03 0.62 1.05 0.62 1.09 0.61 1.12 0.61 1.14 0.62 1.18 0.61 1.21 0.59 0.16 0.59 0.18 0.57 0.2 0.57 0.22 0.56 0.23 0.56 0.26 0.54 0.27 0.53 0.29 0.52 0.31 0.51 0.33 0.5 0.34 0.48 0.35 0.48 0.37 0.46 0.39 0.45 0.4 0.43 0.41 0.43 0.43 0.41 0.44 0.39 0.46 0.38 0.46 0.37 0.48 0.35 0.49 0.33 0.5 0.32 0.51 0.3 0.51 0.28 0.53 0.27 0.54 0.25 0.55 0.23 0.55 0.22 0.57 0.19 0.57 0.18 0.58 0.16 0.58 0.13 0.59 0.12 0.59 0.1 0.6 0.07 0.61 0.06 0.61 0.03 0.61 0.01 0.62-0.01 0.74-0.05 0.74-0.07 0.73-0.11 0.72-0.13 0.71-0.16 0.7-0.19 0.69-0.22 0.68-0.24 0.67-0.26 0.66-0.3 0.64-0.31 0.63-0.34 0.61-0.37 0.6-0.38 0.59-0.41 0.57-0.43 0.55-0.45 0.54-0.47 0.52-0.49 0.5-0.51 0.48-0.53 0.46-0.54 0.44-0.56 0.43-0.58 0.4-0.6 0.38-0.61 0.35-0.62 0.34-0.64 0.31-0.66 0.29-0.66 0.26-0.68 0.24-0.69 0.21-0.7 0.18-0.72 0.16-0.72 0.13-0.73 0.11-0.74 0.07-0.75 0.04-0.76 0.02h-53.95l-0.82-0.02-0.81-0.05-0.8-0.08-0.79-0.11-0.77-0.14-0.77-0.17-0.76-0.2-0.74-0.23-0.73-0.25-0.72-0.29-0.7-0.31-0.69-0.33-0.67-0.36-0.65-0.39-0.64-0.41-0.62-0.43-0.6-0.46-0.59-0.47-0.56-0.5-0.55-0.52-0.52-0.54-0.51-0.56-0.48-0.57-0.46-0.6-0.43-0.61-0.42-0.63-0.39-0.64-0.36-0.66-0.34-0.68-0.31-0.69-0.28-0.7-0.26-0.71-0.23-0.73-0.2-0.74-0.17-0.75-0.15-0.76-0.11-0.77-0.08-0.78-0.05-0.79-0.01-0.79 0.01-0.53 0.02-0.53 0.04-0.53 0.06-0.52 0.07-0.53 0.09-0.53 0.1-0.52 0.12-0.52 0.28-1.04 0.17-0.52 0.17-0.51 0.19-0.5 0.21-0.51 0.21-0.49 0.23-0.5 0.25-0.48 0.25-0.49 0.27-0.47 0.28-0.47 0.29-0.46 0.31-0.46 0.31-0.45 0.33-0.44 0.34-0.43 0.35-0.43 0.36-0.41 0.37-0.41 0.37-0.39 0.39-0.39 0.4-0.37 0.41-0.37 0.84-0.7 0.44-0.33 0.44-0.31 0.45-0.31 0.46-0.29 0.46-0.28 0.47-0.27v-0.53l0.02-0.56 0.03-0.55 0.06-0.54 0.08-0.54 0.1-0.53 0.12-0.53 0.14-0.51 0.16-0.51 0.18-0.5 0.2-0.49 0.22-0.49 0.24-0.47 0.26-0.46 0.27-0.45 0.29-0.44 0.31-0.43 0.32-0.41 0.34-0.4 0.35-0.39 0.37-0.38 0.38-0.36 0.4-0.35 0.41-0.33 0.42-0.32 0.44-0.3 0.44-0.29 0.46-0.26 0.47-0.26 0.48-0.23 0.49-0.22 0.5-0.19 0.51-0.18 0.51-0.16 0.53-0.14 0.53-0.12 0.54-0.1 0.55-0.08 0.55-0.05 0.56-0.04 0.57-0.01h0.03 0.03 0.03 0.03l0.04 0.01h0.03 0.03 0.04l0.03 0.01h0.03l0.04 0.01h0.04 0.03l0.04 0.01h0.03l0.04 0.01h0.04l0.03 0.01 0.08 0.01h0.04l0.04 0.01h0.04l0.03 0.01h0.04l0.04 0.01h0.04l0.04 0.01h0.04 0.04l0.04 0.01h0.04 0.04l0.04 0.01h0.04 0.04 0.04 0.04 0.04 0.04l0.01 0.01 0.02 0.01 0.04 0.04h0.01l0.01 0.01h0.01l0.02 0.02h0.01l0.01 0.01h0.01 0.01l0.01 0.01h0.01 0.01l0.01 0.01h0.01 0.01 0.01l0.01 0.01h0.01 0.01 0.01 0.01 0.01 0.01 0.01l0.01 0.01h0.01 0.01 0.01 0.02 0.01 0.02 0.07 0.03 0.03 0.03 0.02 0.03 0.03 0.03 0.02 0.03 0.03 0.02 0.03 0.02l0.03 0.01h0.03 0.02 0.03 0.02l0.03 0.01h0.02 0.03l0.02 0.01h0.03 0.02l0.03 0.01h0.03l0.02 0.01h0.03l0.03 0.01h0.02l0.09 0.03h0.02l0.12 0.04h0.01 0.01 0.01 0.02l0.01 0.01h0.01 0.01 0.02l0.01 0.01h0.01 0.02l0.01 0.01h0.02l0.01 0.01h0.02l0.01 0.01 0.12 0.04h0.02l0.01 0.01h0.02 0.01l0.02 0.01h0.01l0.01 0.01h0.02 0.01 0.01l0.02 0.01h0.01 0.01 0.01 0.01 0.01l0.04 0.02 0.03 0.01 0.04 0.02h0.02l0.03 0.01 0.04 0.02h0.03l0.02 0.01h0.03l0.02 0.01h0.03l0.02 0.01 0.03 0.01h0.02l0.03 0.01h0.02l0.05 0.01 0.03 0.01h0.02l0.03 0.01h0.02l0.03 0.01h0.02l0.03 0.01h0.02l0.03 0.01 0.02 0.01h0.02l0.03 0.01 0.02 0.01h0.02l0.02 0.01 0.03 0.01 0.06 0.03h0.02 0.02 0.02 0.01 0.01 0.01 0.02 0.01 0.02 0.01 0.02 0.01l0.01 0.01h0.02 0.01 0.02 0.01l0.02 0.01h0.02 0.01 0.02l0.01 0.01h0.02l0.01 0.01h0.02 0.01l0.01 0.01h0.02l0.01 0.01 0.02 0.01h0.01l0.02 0.02 0.02 0.01h0.01l0.03 0.03 0.15 0.05 0.02 0.01 0.09 0.03 0.02 0.01 0.03 0.01 0.02 0.01 0.03 0.01 0.02 0.01 0.03 0.01 0.04 0.02 0.03 0.01 0.04 0.02 0.03 0.01 0.06 0.03 0.03 0.01 0.18 0.09 0.03 0.01 0.1 0.05h0.01 0.01 0.01 0.01l0.01 0.01h0.01 0.01 0.01l0.01 0.01h0.01l0.01 0.01h0.01 0.01l0.01 0.01h0.01l0.01 0.01 0.08 0.04h0.01l0.01 0.01h0.01l0.01 0.01h0.01 0.01l0.01 0.01h0.01 0.01l0.01 0.01h0.01 0.01 0.01 0.01 0.01 0.01l0.38-0.48 0.8-0.94 0.41-0.45 0.42-0.45 0.88-0.86 0.45-0.41 0.46-0.4 0.47-0.4 0.48-0.38 0.49-0.37 0.5-0.36 0.5-0.35 0.51-0.34 0.52-0.32 1.06-0.62 0.54-0.29 1.1-0.54 0.56-0.25 0.57-0.24 0.57-0.23 0.57-0.22 0.58-0.2 0.59-0.19 0.59-0.18 0.6-0.16 0.6-0.15 0.6-0.13 0.61-0.13 0.61-0.11 0.61-0.09 0.62-0.08 0.62-0.07 0.62-0.05 0.62-0.03 0.63-0.03h0.63l0.68 0.01 0.68 0.05zm-2.84 3.15-1.08 0.08-0.54 0.06-0.53 0.07-0.54 0.08-0.53 0.09-0.53 0.11-0.53 0.12-0.53 0.13-0.52 0.14-0.52 0.15-0.52 0.17-0.51 0.17-0.51 0.19-0.51 0.2-0.5 0.21-0.5 0.22-0.49 0.23-0.49 0.24-0.48 0.26-0.47 0.26-0.47 0.27-0.92 0.58-0.45 0.31-0.44 0.31-0.86 0.66-0.42 0.34-0.41 0.36-0.4 0.36-0.39 0.37-0.38 0.38-0.37 0.39-0.36 0.4-0.35 0.41-0.34 0.41-0.33 0.43 0.22 0.19 0.21 0.19 0.22 0.2 0.21 0.21 0.4 0.42 0.57 0.66 0.18 0.23 0.18 0.24 0.17 0.23 0.17 0.24 0.16 0.25 0.15 0.24 0.15 0.25 0.15 0.26 0.14 0.25 0.14 0.26 0.13 0.26 0.24 0.54 0.11 0.27 0.11 0.28 0.1 0.27 0.18 0.56 0.09 0.29 0.21 0.87 0.05 0.29 0.05 0.3 0.05 0.29 0.04 0.3 0.03 0.31 0.02 0.3 0.02 0.31 0.01 0.3v0.31 0.06 0.06l-0.02 0.12-0.01 0.05-0.01 0.06-0.01 0.05-0.02 0.06-0.02 0.05-0.02 0.06-0.03 0.05-0.02 0.05-0.06 0.1-0.03 0.04-0.04 0.05-0.03 0.05-0.2 0.2-0.04 0.03-0.05 0.04-0.05 0.03-0.04 0.03-0.1 0.06-0.06 0.02-0.05 0.03-0.05 0.02-0.06 0.02-0.05 0.02-0.12 0.02-0.05 0.01-0.12 0.02h-0.06-0.06-0.06-0.06l-0.24-0.04-0.05-0.01-0.06-0.02-0.05-0.02-0.06-0.02-0.05-0.03-0.05-0.02-0.2-0.12-0.04-0.04-0.05-0.03-0.2-0.2-0.06-0.1-0.04-0.04-0.02-0.05-0.06-0.1-0.02-0.05-0.02-0.06-0.02-0.05-0.02-0.06-0.02-0.05-0.01-0.06-0.01-0.05-0.02-0.12v-0.06-0.06-0.28l-0.01-0.27-0.02-0.28-0.03-0.27-0.03-0.28-0.04-0.26-0.04-0.27-0.05-0.27-0.12-0.52-0.07-0.26-0.08-0.25-0.08-0.26-0.09-0.25-0.1-0.24-0.1-0.25-0.1-0.24-0.12-0.24-0.24-0.46-0.26-0.46-0.14-0.22-0.3-0.42-0.32-0.42-0.17-0.2-0.17-0.19-0.17-0.2-0.37-0.37-0.19-0.17-0.2-0.18-0.2-0.17-0.2-0.16-0.21-0.16-0.21-0.15-0.22-0.15-0.22-0.14-0.12-0.04-0.02-0.02-0.09-0.03-0.02-0.02-0.03-0.01-0.03-0.02-0.02-0.01-0.03-0.01-0.03-0.02-0.02-0.01-0.03-0.02-0.02-0.01-0.03-0.02-0.02-0.01-0.05-0.03-0.03-0.02-0.03-0.01-0.02-0.02-0.03-0.01-0.02-0.02-0.03-0.01-0.02-0.01-0.03-0.02-0.03-0.01-0.02-0.02-0.06-0.02-0.03-0.02-0.02-0.01-0.15-0.05-0.05-0.05h-0.01l-0.01-0.01h-0.01v-0.01h-0.01l-0.01-0.01h-0.01l-0.01-0.01h-0.01v-0.01h-0.01l-0.01-0.01h-0.01l-0.01-0.01h-0.01-0.01l-0.01-0.01h-0.01-0.01-0.01-0.01l-0.01-0.01h-0.01-0.01l-0.03-0.02-0.03-0.01-0.12-0.08-0.03-0.01-0.06-0.04-0.04-0.01-0.03-0.02-0.03-0.01-0.03-0.02-0.03-0.01-0.03-0.02-0.06-0.02-0.03-0.02-0.09-0.03-0.03-0.02-0.18-0.06-0.03-0.02-0.12-0.04-0.04-0.01-0.18-0.06h-0.13l-0.09-0.03h-0.03l-0.04-0.01-0.06-0.02h-0.03l-0.06-0.02h-0.03l-0.03-0.01h-0.03l-0.06-0.02h-0.03l-0.03-0.01h-0.03l-0.03-0.01-0.06-0.01h-0.03l-0.03-0.01h-0.03l-0.03-0.01h-0.03l-0.03-0.01h-0.03l-0.04-0.01-0.03-0.01h-0.03l-0.03-0.01h-0.03l-0.15-0.05h-0.03l-0.03-0.01h-0.41l-0.15-0.05-0.04-0.01h-0.03l-0.03-0.01-0.04-0.01h-0.03l-0.04-0.01h-0.03l-0.03-0.01h-0.04-0.03l-0.04-0.01h-0.04-0.03l-0.04-0.01h-0.03-0.04-0.03l-0.04-0.01h-0.03-0.04-0.03-0.04-0.03-0.04-0.03l-0.04-0.01h-0.03-0.03-0.04-0.03-0.03-0.03-0.04-0.06l-0.43 0.01-0.43 0.03-0.43 0.04-0.42 0.06-0.42 0.07-0.41 0.1-0.4 0.1-0.4 0.12-0.39 0.14-0.39 0.15-0.38 0.17-0.37 0.18-0.36 0.19-0.36 0.21-0.34 0.21-0.34 0.24-0.33 0.24-0.32 0.26-0.3 0.26-0.3 0.28-0.29 0.29-0.27 0.3-0.26 0.31-0.25 0.32-0.24 0.33-0.23 0.34-0.21 0.35-0.2 0.36-0.19 0.37-0.17 0.37-0.16 0.38-0.14 0.39-0.24 0.8-0.09 0.41-0.08 0.41-0.06 0.43-0.04 0.42-0.03 0.43-0.01 0.44v2.39l-0.81 0.4-0.42 0.21-0.42 0.22-0.82 0.48-0.4 0.26-0.39 0.28-0.38 0.28-0.38 0.3-0.37 0.31-0.36 0.32-0.35 0.33-0.35 0.34-0.33 0.35-0.33 0.36-0.32 0.37-0.31 0.37-0.3 0.39-0.29 0.39-0.28 0.4-0.27 0.41-0.26 0.42-0.48 0.84-0.44 0.88-0.2 0.44-0.19 0.45-0.34 0.9-0.15 0.46-0.14 0.46-0.12 0.46-0.11 0.47-0.1 0.47-0.08 0.46-0.07 0.47-0.05 0.47-0.04 0.47-0.03 0.47v0.47l0.01 0.68 0.04 0.67 0.07 0.66 0.09 0.65 0.12 0.64 0.15 0.64 0.17 0.62 0.19 0.62 0.22 0.6 0.24 0.6 0.27 0.58 0.28 0.57 0.31 0.55 0.33 0.55 0.35 0.52 0.36 0.52 0.39 0.5 0.41 0.48 0.42 0.47 0.45 0.45 0.45 0.44 0.48 0.42 0.49 0.4 0.51 0.38 0.53 0.36 0.53 0.34 0.56 0.33 0.56 0.3 0.58 0.28 0.59 0.26 0.6 0.24 0.62 0.21 0.62 0.19 0.64 0.17 0.64 0.14 0.66 0.12 0.66 0.09 0.67 0.07 0.68 0.04 0.69 0.01h53.82l0.63-0.01 0.63-0.04 0.62-0.06 0.62-0.08 0.61-0.11 0.59-0.14 0.59-0.15 0.58-0.18 0.57-0.2 0.56-0.22 0.54-0.24 0.54-0.25 0.52-0.28 0.51-0.3 0.49-0.32 0.49-0.33 0.46-0.35 0.46-0.37 0.43-0.39 0.43-0.4 0.4-0.42 0.39-0.43 0.37-0.44 0.35-0.46 0.34-0.48 0.31-0.48 0.3-0.5 0.27-0.51 0.25-0.53 0.24-0.53 0.21-0.54 0.19-0.56 0.17-0.56 0.14-0.57 0.12-0.58 0.09-0.59 0.07-0.6 0.05-0.6 0.02-0.61-0.01-0.62-0.01-0.53-0.03-0.54-0.05-0.53-0.07-0.53-0.08-0.52-0.11-0.52-0.12-0.51-0.15-0.51-0.16-0.5-0.17-0.5-0.2-0.49-0.21-0.48-0.23-0.47-0.24-0.47-0.26-0.46-0.27-0.45-0.29-0.44-0.3-0.43-0.32-0.42-0.33-0.41-0.34-0.4-0.36-0.38-0.37-0.38-0.38-0.36-0.39-0.35-0.41-0.34-0.42-0.32-0.43-0.31-0.44-0.3-0.44-0.28-0.46-0.26-0.47-0.25-0.48-0.24-0.49-0.21-0.5-0.2-0.5-0.19-0.51-0.16-0.52-0.15-0.53-0.13-0.53-0.11h-0.02-0.03l-0.04-0.01h-0.06l-0.06-0.01-0.08-0.01-0.09-0.01-0.1-0.01-0.22-0.02-0.13-0.01-0.14-0.02-0.3-0.02-0.17-0.02-0.17-0.01-0.18-0.01-0.19-0.01-0.19-0.02-0.2-0.01-0.21-0.01h-0.21l-0.21-0.01-0.23-0.01h-0.22-0.23-0.24-0.24-0.24l-0.24 0.01-0.75 0.03-0.25 0.02-0.26 0.02-0.25 0.02-0.26 0.03-0.25 0.03-0.26 0.04-0.25 0.03h-0.27-0.05-0.05l-0.05-0.01h-0.05l-0.15-0.03-0.05-0.02-0.05-0.01-0.1-0.04-0.04-0.02-0.05-0.03-0.05-0.02-0.04-0.03-0.05-0.03-0.04-0.02-0.04-0.04-0.05-0.03-0.04-0.03-0.15-0.15-0.04-0.05-0.06-0.08-0.03-0.05-0.03-0.04-0.09-0.15-0.02-0.05-0.02-0.06-0.02-0.05-0.02-0.06-0.02-0.05-0.01-0.06-0.02-0.06-0.02-0.12v-0.06l-0.01-0.06v-0.06-0.06l0.01-0.05v-0.06l0.03-0.18 0.02-0.05 0.01-0.06 0.02-0.05 0.02-0.06 0.02-0.05 0.06-0.1 0.02-0.05 0.03-0.05 0.04-0.05 0.03-0.05 0.04-0.04 0.03-0.05 0.12-0.12 0.05-0.04 0.04-0.03 0.05-0.04 0.2-0.12 0.05-0.02 0.06-0.03 0.05-0.02 0.06-0.02 0.12-0.02 0.06-0.02 0.17-0.02 0.17-0.01 0.18-0.02 0.17-0.02 0.17-0.01 0.17-0.02 0.34-0.02 0.17-0.02 0.68-0.04h0.16l0.17-0.01 0.16-0.01h0.17l0.16-0.01h0.16 0.16 0.16l0.16-0.01h0.16 0.15 0.15l0.16 0.01h0.15 0.14 0.15l0.15 0.01h0.14l0.14 0.01h0.14l0.14 0.01 0.26 0.02h0.13l0.26 0.02 0.12 0.01-0.09-0.86-0.12-0.86-0.15-0.84-0.19-0.84-0.21-0.82-0.25-0.81-0.27-0.8-0.3-0.78-0.34-0.78-0.36-0.75-0.38-0.75-0.42-0.72-0.43-0.71-0.47-0.7-0.49-0.67-0.51-0.66-0.53-0.64-0.56-0.62-0.58-0.59-0.6-0.58-0.62-0.56-0.64-0.53-0.66-0.51-0.68-0.48-0.7-0.47-0.71-0.43-0.74-0.41-0.74-0.39-0.76-0.36-0.78-0.33-0.79-0.3-0.81-0.27-0.81-0.24-0.83-0.22-0.84-0.18-0.86-0.15-0.86-0.12-0.87-0.08-0.88-0.05-0.89-0.02h-0.54l-0.53 0.02z"/><path id="diPBSfA60" d="m64.45 53.43 0.7 0.28 0.66 0.38 0.59 0.46 0.52 0.55 0.45 0.61 0.36 0.68 0.27 0.72 0.17 0.78 0.06 0.81v2.33h0.4l0.25 0.02 0.24 0.06 0.22 0.09 0.22 0.13 0.19 0.15 0.17 0.18 0.15 0.2 0.12 0.22 0.09 0.23 0.05 0.25 0.02 0.26v7.01l0.02 0.29-0.03 0.28-0.07 0.26-0.11 0.23-0.14 0.22-0.17 0.19-0.2 0.15-0.23 0.13-0.24 0.1-0.27 0.05-0.28 0.02h-11.41l-0.25-0.01-0.24-0.06-0.23-0.1-0.21-0.12-0.19-0.15-0.18-0.18-0.14-0.2-0.12-0.22-0.09-0.23-0.06-0.25-0.02-0.26v-7.01l0.02-0.26 0.06-0.25 0.09-0.23 0.12-0.22 0.14-0.2 0.18-0.18 0.19-0.15 0.21-0.13 0.23-0.09 0.24-0.06 0.25-0.02h0.4v-2.47l0.05-0.81 0.17-0.78 0.27-0.72 0.36-0.68 0.45-0.61 0.53-0.55 0.59-0.46 0.65-0.38 0.7-0.28 0.75-0.17 0.78-0.06 0.78 0.06 0.75 0.17zm-7.26 8.77-0.13 0.08-0.11 0.08-0.1 0.08-0.07 0.09-0.05 0.09-0.03 0.1-0.01 0.1v7.01l0.01 0.15 0.03 0.13 0.06 0.12 0.08 0.1 0.1 0.08 0.11 0.06 0.13 0.04 0.14 0.01h11.41l0.14-0.01 0.13-0.04 0.11-0.06 0.1-0.08 0.08-0.1 0.06-0.12 0.03-0.13 0.01-0.15v-7.01l-0.01-0.15-0.03-0.13-0.06-0.12-0.08-0.1-0.1-0.08-0.11-0.06-0.13-0.03-0.14-0.02h-11.41l-0.16 0.07zm3.44-6.15-0.75 1.14-0.27 1.37v2.47h6.89v-2.47l-0.27-1.37-0.75-1.14-1.1-0.78-1.32-0.28-1.33 0.28-1.1 0.78z"/></defs><use fill="none" fill-opacity="0" xlink:href="#aevHZzcIW"/><use fill-opacity="0" stroke="#600060" stroke-width="2" xlink:href="#aevHZzcIW"/><use fill="#600060" xlink:href="#amxsKPE1t"/><use fill-opacity="0" stroke="#000" stroke-opacity="0" xlink:href="#amxsKPE1t"/><use fill="#600060" xlink:href="#diPBSfA60"/><use fill-opacity="0" stroke="#000" stroke-opacity="0" xlink:href="#diPBSfA60"/></svg>