<?xml version="1.0" encoding="UTF-8" standalone="no"?>
<!DOCTYPE svg PUBLIC "-//W3C//DTD SVG 1.1//EN" "http://www.w3.org/Graphics/SVG/1.1/DTD/svg11.dtd">
<svg preserveAspectRatio="xMidYMid meet" viewBox="0 0 120 120" width="144" height="144"><defs><path d="M110.87 1.5C115.45 1.5 119.17 5.21 119.17 9.8C119.17 31.6 119.17 88.73 119.17 110.54C119.17 115.12 115.45 118.83 110.87 118.83C88.99 118.83 31.64 118.83 9.76 118.83C5.18 118.83 1.46 115.12 1.46 110.54C1.46 88.73 1.46 31.6 1.46 9.8C1.46 5.21 5.18 1.5 9.76 1.5C31.64 1.5 88.99 1.5 110.87 1.5Z" id="bd8z9YW7c"></path><path d="M67.65 28.66L68.33 28.73L69 28.84L69.68 28.98L70.35 29.15L71.02 29.35L71.69 29.58L72.36 29.84L73.02 30.13L73.69 30.45L74.35 30.8L75.01 31.18L75.67 31.59L76.32 32.04L76.98 32.51L77.63 33.02L78.28 33.55L78.93 34.12L79.57 34.71L80.22 35.34L80.86 36L81.5 36.69L82.14 37.41L82.78 38.16L83.41 38.94L84.05 39.75L84.68 40.59L85.31 41.46L85.94 42.36L86.56 43.3L87.19 44.26L87.81 45.25L88.43 46.28L89.05 47.33L89.67 48.42L90.28 49.54L90.89 50.68L91.51 51.86L92.12 53.07L92.71 53.23L93.3 53.41L93.87 53.61L94.44 53.83L95 54.06L95.56 54.32L96.1 54.59L96.63 54.88L97.15 55.19L97.66 55.52L98.16 55.86L98.64 56.21L99.12 56.58L99.58 56.97L100.03 57.37L100.46 57.78L100.89 58.21L101.3 58.65L101.69 59.11L102.07 59.57L102.44 60.05L102.79 60.54L103.12 61.04L103.44 61.55L103.74 62.06L104.02 62.59L104.29 63.13L104.54 63.68L104.77 64.23L104.99 64.8L105.18 65.37L105.36 65.95L105.52 66.53L105.65 67.12L105.77 67.71L105.87 68.31L105.94 68.92L106 69.53L106.03 70.14L106.04 70.76L106.03 71.5L105.98 72.24L105.91 72.97L105.8 73.69L105.67 74.4L105.51 75.1L105.32 75.79L105.1 76.47L104.86 77.14L104.6 77.8L104.3 78.44L103.99 79.07L103.65 79.68L103.28 80.28L102.9 80.87L102.49 81.44L102.06 81.99L101.61 82.53L101.14 83.05L100.65 83.55L100.14 84.03L99.61 84.49L99.07 84.93L98.51 85.36L97.93 85.76L97.33 86.14L96.72 86.49L96.1 86.83L95.46 87.14L94.8 87.43L94.14 87.69L93.46 87.93L92.77 88.14L92.07 88.32L91.35 88.48L90.63 88.61L89.9 88.72L89.16 88.79L88.41 88.83L87.65 88.85L33.7 88.85L32.88 88.83L32.07 88.78L31.27 88.7L30.48 88.59L29.71 88.45L28.94 88.28L28.18 88.08L27.44 87.85L26.71 87.6L25.99 87.31L25.29 87L24.6 86.67L23.93 86.31L23.28 85.92L22.64 85.51L22.02 85.08L21.42 84.62L20.83 84.15L20.27 83.65L19.72 83.13L19.2 82.59L18.69 82.03L18.21 81.46L17.75 80.86L17.32 80.25L16.9 79.62L16.51 78.98L16.15 78.32L15.81 77.64L15.5 76.95L15.22 76.25L14.96 75.54L14.73 74.81L14.53 74.07L14.36 73.32L14.21 72.56L14.1 71.79L14.02 71.01L13.97 70.22L13.96 69.43L13.97 68.9L13.99 68.37L14.03 67.84L14.09 67.32L14.16 66.79L14.25 66.26L14.35 65.74L14.47 65.22L14.61 64.7L14.75 64.18L14.92 63.66L15.09 63.15L15.28 62.65L15.49 62.14L15.7 61.65L15.93 61.15L16.18 60.67L16.43 60.18L16.7 59.71L16.98 59.24L17.27 58.78L17.58 58.32L17.89 57.87L18.22 57.43L18.56 57L18.91 56.57L19.27 56.16L19.64 55.75L20.01 55.36L20.4 54.97L20.8 54.6L21.21 54.23L21.63 53.88L22.05 53.53L22.49 53.2L22.93 52.89L23.38 52.58L23.84 52.29L24.3 52.01L24.77 51.74L24.77 51.21L24.79 50.65L24.82 50.1L24.88 49.56L24.96 49.02L25.06 48.49L25.18 47.96L25.32 47.45L25.48 46.94L25.66 46.44L25.86 45.95L26.08 45.46L26.32 44.99L26.58 44.53L26.85 44.08L27.14 43.64L27.45 43.21L27.77 42.8L28.11 42.4L28.46 42.01L28.83 41.63L29.21 41.27L29.61 40.92L30.02 40.59L30.44 40.27L30.88 39.97L31.32 39.68L31.78 39.42L32.25 39.16L32.73 38.93L33.22 38.71L33.72 38.52L34.23 38.34L34.74 38.18L35.27 38.04L35.8 37.92L36.34 37.82L36.89 37.74L37.44 37.69L38 37.65L38.57 37.64L38.6 37.64L38.63 37.64L38.66 37.64L38.69 37.64L38.73 37.65L38.76 37.65L38.79 37.65L38.83 37.65L38.86 37.66L38.89 37.66L38.93 37.67L38.97 37.67L39 37.67L39.04 37.68L39.07 37.68L39.11 37.69L39.15 37.69L39.18 37.7L39.26 37.71L39.3 37.71L39.34 37.72L39.38 37.72L39.41 37.73L39.45 37.73L39.49 37.74L39.53 37.74L39.57 37.75L39.61 37.75L39.65 37.75L39.69 37.76L39.73 37.76L39.77 37.76L39.81 37.77L39.85 37.77L39.89 37.77L39.93 37.77L39.97 37.77L40.01 37.77L40.05 37.77L40.06 37.78L40.08 37.79L40.09 37.8L40.1 37.81L40.11 37.82L40.12 37.83L40.13 37.83L40.14 37.84L40.15 37.84L40.16 37.85L40.17 37.86L40.18 37.86L40.19 37.87L40.2 37.87L40.21 37.87L40.22 37.88L40.23 37.88L40.24 37.88L40.25 37.89L40.26 37.89L40.27 37.89L40.28 37.89L40.29 37.9L40.3 37.9L40.31 37.9L40.32 37.9L40.33 37.9L40.34 37.9L40.35 37.9L40.36 37.9L40.37 37.91L40.38 37.91L40.39 37.91L40.4 37.91L40.42 37.91L40.43 37.91L40.45 37.91L40.52 37.91L40.55 37.91L40.58 37.91L40.61 37.91L40.63 37.91L40.66 37.91L40.69 37.91L40.72 37.91L40.74 37.91L40.77 37.91L40.8 37.91L40.82 37.91L40.85 37.91L40.87 37.91L40.9 37.92L40.93 37.92L40.95 37.92L40.98 37.92L41 37.92L41.03 37.93L41.05 37.93L41.08 37.93L41.1 37.94L41.13 37.94L41.15 37.94L41.18 37.95L41.21 37.95L41.23 37.96L41.26 37.96L41.29 37.97L41.31 37.97L41.34 37.98L41.37 37.99L41.4 38L41.42 38L41.45 38.01L41.48 38.02L41.51 38.03L41.54 38.04L41.55 38.04L41.56 38.04L41.57 38.04L41.59 38.04L41.6 38.05L41.61 38.05L41.62 38.05L41.64 38.05L41.65 38.06L41.66 38.06L41.68 38.06L41.69 38.07L41.71 38.07L41.72 38.08L41.74 38.08L41.75 38.09L41.78 38.1L41.84 38.12L41.87 38.13L41.89 38.13L41.9 38.14L41.92 38.14L41.93 38.14L41.95 38.15L41.96 38.15L41.97 38.16L41.99 38.16L42 38.16L42.01 38.16L42.03 38.17L42.04 38.17L42.05 38.17L42.06 38.17L42.07 38.17L42.08 38.17L42.1 38.18L42.12 38.19L42.15 38.2L42.17 38.21L42.19 38.22L42.21 38.22L42.24 38.23L42.26 38.24L42.28 38.25L42.31 38.25L42.33 38.26L42.36 38.26L42.38 38.27L42.41 38.27L42.43 38.28L42.46 38.29L42.48 38.29L42.51 38.3L42.53 38.3L42.58 38.31L42.61 38.32L42.63 38.32L42.66 38.33L42.68 38.33L42.71 38.34L42.73 38.34L42.76 38.35L42.78 38.35L42.81 38.36L42.83 38.37L42.85 38.37L42.88 38.38L42.9 38.39L42.92 38.39L42.94 38.4L42.97 38.41L42.99 38.42L43.01 38.43L43.03 38.44L43.05 38.44L43.07 38.44L43.09 38.44L43.1 38.44L43.11 38.44L43.12 38.44L43.14 38.44L43.15 38.44L43.17 38.44L43.18 38.44L43.2 38.44L43.21 38.44L43.22 38.45L43.24 38.45L43.25 38.45L43.27 38.45L43.28 38.45L43.3 38.46L43.32 38.46L43.33 38.46L43.35 38.46L43.36 38.47L43.38 38.47L43.39 38.48L43.41 38.48L43.42 38.48L43.43 38.49L43.45 38.49L43.46 38.5L43.48 38.51L43.49 38.51L43.5 38.52L43.51 38.53L43.53 38.54L43.54 38.54L43.55 38.55L43.56 38.56L43.57 38.57L43.6 38.58L43.63 38.59L43.66 38.6L43.69 38.61L43.72 38.62L43.74 38.63L43.77 38.64L43.8 38.65L43.83 38.66L43.85 38.67L43.88 38.68L43.9 38.69L43.93 38.7L43.95 38.71L43.98 38.72L44 38.73L44.02 38.74L44.05 38.75L44.07 38.76L44.09 38.77L44.12 38.78L44.14 38.79L44.16 38.8L44.18 38.81L44.21 38.82L44.23 38.83L44.25 38.84L44.27 38.85L44.29 38.86L44.31 38.87L44.33 38.88L44.35 38.89L44.39 38.91L44.42 38.92L44.46 38.94L44.48 38.95L44.52 38.97L44.53 38.97L44.54 38.97L44.55 38.97L44.56 38.97L44.57 38.98L44.58 38.98L44.59 38.98L44.6 38.98L44.61 38.99L44.62 38.99L44.63 39L44.64 39L44.65 39L44.66 39.01L44.67 39.01L44.68 39.02L44.7 39.03L44.74 39.05L44.76 39.06L44.77 39.06L44.78 39.07L44.79 39.07L44.8 39.08L44.81 39.08L44.82 39.08L44.83 39.09L44.84 39.09L44.85 39.09L44.86 39.1L44.87 39.1L44.88 39.1L44.89 39.1L44.9 39.1L44.91 39.1L44.92 39.1L45.3 38.62L45.7 38.15L46.1 37.68L46.51 37.23L46.93 36.78L47.37 36.35L47.81 35.92L48.26 35.51L48.72 35.11L49.19 34.71L49.67 34.33L50.16 33.96L50.66 33.6L51.16 33.25L51.67 32.91L52.19 32.59L52.72 32.28L53.25 31.97L53.79 31.68L54.34 31.41L54.89 31.14L55.45 30.89L56.02 30.65L56.59 30.42L57.16 30.2L57.74 30L58.33 29.81L58.92 29.63L59.52 29.47L60.12 29.32L60.72 29.19L61.33 29.06L61.94 28.95L62.55 28.86L63.17 28.78L63.79 28.71L64.41 28.66L65.03 28.63L65.66 28.6L66.29 28.6L66.97 28.61L67.65 28.66ZM64.81 31.81L64.27 31.85L63.73 31.89L63.19 31.95L62.66 32.02L62.12 32.1L61.59 32.19L61.06 32.3L60.53 32.42L60 32.55L59.48 32.69L58.96 32.84L58.44 33.01L57.93 33.18L57.42 33.37L56.91 33.57L56.41 33.78L55.91 34L55.42 34.23L54.93 34.47L54.45 34.73L53.98 34.99L53.51 35.26L53.05 35.55L52.59 35.84L52.14 36.15L51.7 36.46L51.27 36.79L50.84 37.12L50.42 37.46L50.01 37.82L49.61 38.18L49.22 38.55L48.84 38.93L48.47 39.32L48.11 39.72L47.76 40.13L47.42 40.54L47.09 40.97L47.31 41.16L47.52 41.35L47.74 41.55L47.95 41.76L48.15 41.97L48.35 42.18L48.54 42.4L48.73 42.62L48.92 42.84L49.1 43.07L49.28 43.31L49.45 43.54L49.62 43.78L49.78 44.03L49.93 44.27L50.08 44.52L50.23 44.78L50.37 45.03L50.51 45.29L50.64 45.55L50.76 45.82L50.88 46.09L50.99 46.36L51.1 46.64L51.2 46.91L51.29 47.19L51.38 47.47L51.47 47.76L51.54 48.05L51.61 48.34L51.68 48.63L51.73 48.92L51.78 49.22L51.83 49.51L51.87 49.81L51.9 50.12L51.92 50.42L51.94 50.73L51.95 51.03L51.95 51.34L51.95 51.4L51.95 51.46L51.94 51.52L51.93 51.58L51.92 51.63L51.91 51.69L51.9 51.74L51.88 51.8L51.86 51.85L51.84 51.91L51.81 51.96L51.79 52.01L51.76 52.06L51.73 52.11L51.7 52.15L51.66 52.2L51.63 52.25L51.59 52.29L51.55 52.33L51.51 52.37L51.47 52.41L51.43 52.45L51.39 52.48L51.34 52.52L51.29 52.55L51.25 52.58L51.2 52.61L51.15 52.64L51.09 52.66L51.04 52.69L50.99 52.71L50.93 52.73L50.88 52.75L50.82 52.76L50.76 52.77L50.71 52.78L50.65 52.79L50.59 52.8L50.53 52.8L50.47 52.8L50.41 52.8L50.35 52.8L50.29 52.79L50.23 52.78L50.17 52.77L50.11 52.76L50.06 52.75L50 52.73L49.95 52.71L49.89 52.69L49.84 52.66L49.79 52.64L49.74 52.61L49.69 52.58L49.64 52.55L49.59 52.52L49.55 52.48L49.5 52.45L49.46 52.41L49.42 52.37L49.38 52.33L49.34 52.29L49.3 52.25L49.27 52.2L49.24 52.15L49.2 52.11L49.18 52.06L49.15 52.01L49.12 51.96L49.1 51.91L49.08 51.85L49.06 51.8L49.04 51.74L49.02 51.69L49.01 51.63L49 51.58L48.99 51.52L48.98 51.46L48.98 51.4L48.98 51.34L48.98 51.06L48.97 50.79L48.95 50.51L48.92 50.24L48.89 49.96L48.85 49.7L48.81 49.43L48.76 49.16L48.7 48.9L48.64 48.64L48.57 48.38L48.49 48.13L48.41 47.87L48.32 47.62L48.22 47.38L48.12 47.13L48.02 46.89L47.9 46.65L47.78 46.42L47.66 46.19L47.53 45.96L47.4 45.73L47.26 45.51L47.11 45.3L46.96 45.09L46.8 44.88L46.64 44.67L46.47 44.47L46.3 44.28L46.13 44.08L45.95 43.9L45.76 43.71L45.57 43.54L45.37 43.36L45.17 43.19L44.97 43.03L44.76 42.87L44.55 42.72L44.33 42.57L44.11 42.43L44.08 42.42L44.05 42.41L44.02 42.4L43.99 42.39L43.97 42.37L43.94 42.36L43.91 42.35L43.88 42.34L43.86 42.32L43.83 42.31L43.8 42.29L43.78 42.28L43.75 42.27L43.72 42.25L43.7 42.24L43.67 42.22L43.65 42.21L43.62 42.19L43.6 42.18L43.55 42.15L43.52 42.13L43.49 42.12L43.47 42.1L43.44 42.09L43.42 42.07L43.39 42.06L43.37 42.05L43.34 42.03L43.31 42.02L43.29 42L43.26 41.99L43.23 41.98L43.2 41.96L43.18 41.95L43.15 41.94L43.12 41.93L43.09 41.92L43.06 41.91L43.03 41.9L43.03 41.9L43.02 41.89L43.01 41.88L43 41.87L42.99 41.86L42.98 41.85L42.97 41.85L42.97 41.85L42.96 41.84L42.95 41.84L42.95 41.83L42.94 41.83L42.93 41.82L42.92 41.82L42.91 41.81L42.9 41.81L42.9 41.8L42.89 41.8L42.88 41.79L42.87 41.79L42.86 41.78L42.85 41.78L42.84 41.78L42.83 41.77L42.82 41.77L42.81 41.77L42.8 41.77L42.79 41.77L42.78 41.76L42.77 41.76L42.76 41.76L42.73 41.74L42.7 41.73L42.67 41.71L42.64 41.69L42.61 41.67L42.58 41.65L42.55 41.64L42.52 41.62L42.49 41.6L42.45 41.59L42.42 41.57L42.39 41.56L42.36 41.54L42.33 41.53L42.3 41.51L42.27 41.5L42.24 41.49L42.21 41.47L42.18 41.46L42.15 41.45L42.12 41.44L42.09 41.42L42.06 41.41L42.03 41.4L42 41.39L41.97 41.38L41.94 41.37L41.91 41.36L41.88 41.34L41.85 41.33L41.82 41.32L41.79 41.31L41.76 41.3L41.72 41.29L41.69 41.28L41.66 41.27L41.63 41.26L41.6 41.25L41.54 41.23L41.41 41.23L41.38 41.22L41.35 41.21L41.32 41.2L41.29 41.2L41.25 41.19L41.22 41.18L41.19 41.17L41.16 41.17L41.13 41.16L41.1 41.15L41.07 41.15L41.04 41.14L41.01 41.14L40.98 41.13L40.95 41.12L40.92 41.12L40.89 41.11L40.86 41.11L40.83 41.1L40.77 41.09L40.74 41.09L40.71 41.08L40.68 41.08L40.65 41.07L40.62 41.07L40.59 41.06L40.56 41.06L40.52 41.05L40.49 41.04L40.46 41.04L40.43 41.03L40.4 41.03L40.37 41.02L40.34 41.01L40.31 41L40.28 40.99L40.25 40.98L40.22 40.98L40.19 40.97L39.78 40.97L39.75 40.96L39.72 40.95L39.69 40.94L39.66 40.93L39.63 40.92L39.59 40.91L39.56 40.91L39.53 40.9L39.49 40.89L39.46 40.89L39.42 40.88L39.39 40.88L39.36 40.87L39.32 40.87L39.29 40.87L39.25 40.86L39.21 40.86L39.18 40.86L39.14 40.85L39.11 40.85L39.07 40.85L39.04 40.85L39 40.84L38.97 40.84L38.93 40.84L38.9 40.84L38.86 40.84L38.83 40.84L38.79 40.84L38.76 40.84L38.72 40.83L38.69 40.83L38.66 40.83L38.62 40.83L38.59 40.83L38.56 40.83L38.53 40.83L38.49 40.83L38.43 40.83L38 40.84L37.57 40.87L37.14 40.91L36.72 40.97L36.3 41.04L35.89 41.14L35.49 41.24L35.09 41.36L34.7 41.5L34.31 41.65L33.93 41.82L33.56 42L33.2 42.19L32.84 42.4L32.5 42.61L32.16 42.85L31.83 43.09L31.51 43.35L31.21 43.61L30.91 43.89L30.62 44.18L30.35 44.48L30.09 44.79L29.84 45.11L29.6 45.44L29.37 45.78L29.16 46.13L28.96 46.49L28.77 46.86L28.6 47.23L28.44 47.61L28.3 48L28.18 48.4L28.06 48.8L27.97 49.21L27.89 49.62L27.83 50.05L27.79 50.47L27.76 50.9L27.75 51.34L27.75 53.73L26.94 54.13L26.52 54.34L26.1 54.56L25.69 54.8L25.28 55.04L24.88 55.3L24.49 55.58L24.11 55.86L23.73 56.16L23.36 56.47L23 56.79L22.65 57.12L22.3 57.46L21.97 57.81L21.64 58.17L21.32 58.54L21.01 58.91L20.71 59.3L20.42 59.69L20.14 60.09L19.87 60.5L19.61 60.92L19.37 61.34L19.13 61.76L18.91 62.2L18.69 62.64L18.49 63.08L18.3 63.53L18.13 63.98L17.96 64.43L17.81 64.89L17.67 65.35L17.55 65.81L17.44 66.28L17.34 66.75L17.26 67.21L17.19 67.68L17.14 68.15L17.1 68.62L17.07 69.09L17.07 69.56L17.08 70.24L17.12 70.91L17.19 71.57L17.28 72.22L17.4 72.86L17.55 73.5L17.72 74.12L17.91 74.74L18.13 75.34L18.37 75.94L18.64 76.52L18.92 77.09L19.23 77.64L19.56 78.19L19.91 78.71L20.27 79.23L20.66 79.73L21.07 80.21L21.49 80.68L21.94 81.13L22.39 81.57L22.87 81.99L23.36 82.39L23.87 82.77L24.4 83.13L24.93 83.47L25.49 83.8L26.05 84.1L26.63 84.38L27.22 84.64L27.82 84.88L28.44 85.09L29.06 85.28L29.7 85.45L30.34 85.59L31 85.71L31.66 85.8L32.33 85.87L33.01 85.91L33.7 85.92L87.52 85.92L88.15 85.91L88.78 85.87L89.4 85.81L90.02 85.73L90.63 85.62L91.22 85.48L91.81 85.33L92.39 85.15L92.96 84.95L93.52 84.73L94.06 84.49L94.6 84.24L95.12 83.96L95.63 83.66L96.12 83.34L96.61 83.01L97.07 82.66L97.53 82.29L97.96 81.9L98.39 81.5L98.79 81.08L99.18 80.65L99.55 80.21L99.9 79.75L100.24 79.27L100.55 78.79L100.85 78.29L101.12 77.78L101.37 77.25L101.61 76.72L101.82 76.18L102.01 75.62L102.18 75.06L102.32 74.49L102.44 73.91L102.53 73.32L102.6 72.72L102.65 72.12L102.67 71.51L102.66 70.89L102.65 70.36L102.62 69.82L102.57 69.29L102.5 68.76L102.42 68.24L102.31 67.72L102.19 67.21L102.04 66.7L101.88 66.2L101.71 65.7L101.51 65.21L101.3 64.73L101.07 64.26L100.83 63.79L100.57 63.33L100.3 62.88L100.01 62.44L99.71 62.01L99.39 61.59L99.06 61.18L98.72 60.78L98.36 60.4L97.99 60.02L97.61 59.66L97.22 59.31L96.81 58.97L96.39 58.65L95.96 58.34L95.52 58.04L95.08 57.76L94.62 57.5L94.15 57.25L93.67 57.01L93.18 56.8L92.68 56.6L92.18 56.41L91.67 56.25L91.15 56.1L90.62 55.97L90.09 55.86L90.07 55.86L90.04 55.86L90 55.85L89.94 55.85L89.88 55.84L89.8 55.83L89.71 55.82L89.61 55.81L89.5 55.8L89.39 55.79L89.26 55.78L89.12 55.76L88.97 55.75L88.82 55.74L88.65 55.72L88.48 55.71L88.3 55.7L88.11 55.69L87.92 55.67L87.72 55.66L87.51 55.65L87.3 55.65L87.09 55.64L86.86 55.63L86.64 55.63L86.41 55.63L86.17 55.63L85.93 55.63L85.69 55.63L85.45 55.64L85.2 55.65L84.95 55.66L84.7 55.67L84.45 55.69L84.19 55.71L83.94 55.73L83.68 55.76L83.43 55.79L83.17 55.83L82.92 55.86L82.65 55.86L82.6 55.86L82.55 55.86L82.5 55.85L82.45 55.85L82.4 55.84L82.35 55.83L82.3 55.82L82.25 55.8L82.2 55.79L82.15 55.77L82.1 55.75L82.06 55.73L82.01 55.7L81.96 55.68L81.92 55.65L81.87 55.62L81.83 55.6L81.79 55.56L81.74 55.53L81.7 55.5L81.66 55.46L81.62 55.42L81.59 55.39L81.55 55.35L81.51 55.3L81.48 55.26L81.45 55.22L81.42 55.17L81.39 55.13L81.36 55.08L81.33 55.03L81.3 54.98L81.28 54.93L81.26 54.87L81.24 54.82L81.22 54.76L81.2 54.71L81.19 54.65L81.17 54.59L81.16 54.53L81.15 54.47L81.15 54.41L81.14 54.35L81.14 54.29L81.14 54.23L81.15 54.18L81.15 54.12L81.16 54.06L81.17 54L81.18 53.94L81.2 53.89L81.21 53.83L81.23 53.78L81.25 53.72L81.27 53.67L81.3 53.62L81.33 53.57L81.35 53.52L81.38 53.47L81.42 53.42L81.45 53.37L81.49 53.33L81.52 53.28L81.56 53.24L81.6 53.2L81.64 53.16L81.69 53.12L81.73 53.09L81.78 53.05L81.83 53.02L81.88 52.99L81.93 52.96L81.98 52.93L82.03 52.91L82.09 52.88L82.14 52.86L82.2 52.84L82.26 52.83L82.32 52.82L82.38 52.8L82.55 52.78L82.72 52.77L82.9 52.75L83.07 52.73L83.24 52.72L83.41 52.7L83.58 52.69L83.75 52.68L83.92 52.66L84.09 52.65L84.26 52.64L84.43 52.63L84.6 52.62L84.76 52.62L84.93 52.61L85.09 52.6L85.26 52.6L85.42 52.59L85.58 52.59L85.74 52.59L85.9 52.59L86.06 52.58L86.22 52.58L86.37 52.58L86.52 52.58L86.68 52.59L86.83 52.59L86.97 52.59L87.12 52.59L87.27 52.6L87.41 52.6L87.55 52.61L87.69 52.61L87.83 52.62L87.96 52.63L88.09 52.64L88.22 52.64L88.35 52.65L88.48 52.66L88.6 52.67L88.51 51.81L88.39 50.95L88.24 50.11L88.05 49.27L87.84 48.45L87.59 47.64L87.32 46.84L87.02 46.06L86.68 45.28L86.32 44.53L85.94 43.78L85.52 43.06L85.09 42.35L84.62 41.65L84.13 40.98L83.62 40.32L83.09 39.68L82.53 39.06L81.95 38.47L81.35 37.89L80.73 37.33L80.09 36.8L79.43 36.29L78.75 35.81L78.05 35.34L77.34 34.91L76.6 34.5L75.86 34.11L75.1 33.75L74.32 33.42L73.53 33.12L72.72 32.85L71.91 32.61L71.08 32.39L70.24 32.21L69.38 32.06L68.52 31.94L67.65 31.86L66.77 31.81L65.88 31.79L65.34 31.79L64.81 31.81Z" id="aWUw4SuPb"></path><path d="M64.45 53.43L65.15 53.71L65.81 54.09L66.4 54.55L66.92 55.1L67.37 55.71L67.73 56.39L68 57.11L68.17 57.89L68.23 58.7L68.23 61.03L68.63 61.03L68.88 61.05L69.12 61.11L69.34 61.2L69.56 61.33L69.75 61.48L69.92 61.66L70.07 61.86L70.19 62.08L70.28 62.31L70.33 62.56L70.35 62.82L70.35 69.83L70.37 70.12L70.34 70.4L70.27 70.66L70.16 70.89L70.02 71.11L69.85 71.3L69.65 71.45L69.42 71.58L69.18 71.68L68.91 71.73L68.63 71.75L57.22 71.75L56.97 71.74L56.73 71.68L56.5 71.58L56.29 71.46L56.1 71.31L55.92 71.13L55.78 70.93L55.66 70.71L55.57 70.48L55.51 70.23L55.49 69.97L55.49 62.96L55.51 62.7L55.57 62.45L55.66 62.22L55.78 62L55.92 61.8L56.1 61.62L56.29 61.47L56.5 61.34L56.73 61.25L56.97 61.19L57.22 61.17L57.62 61.17L57.62 58.7L57.67 57.89L57.84 57.11L58.11 56.39L58.47 55.71L58.92 55.1L59.45 54.55L60.04 54.09L60.69 53.71L61.39 53.43L62.14 53.26L62.92 53.2L63.7 53.26L64.45 53.43ZM57.19 62.2L57.06 62.28L56.95 62.36L56.85 62.44L56.78 62.53L56.73 62.62L56.7 62.72L56.69 62.82L56.69 69.83L56.7 69.98L56.73 70.11L56.79 70.23L56.87 70.33L56.97 70.41L57.08 70.47L57.21 70.51L57.35 70.52L68.76 70.52L68.9 70.51L69.03 70.47L69.14 70.41L69.24 70.33L69.32 70.23L69.38 70.11L69.41 69.98L69.42 69.83L69.42 62.82L69.41 62.67L69.38 62.54L69.32 62.42L69.24 62.32L69.14 62.24L69.03 62.18L68.9 62.15L68.76 62.13L57.35 62.13L57.19 62.2ZM60.63 56.05L59.88 57.19L59.61 58.56L59.61 61.03L66.5 61.03L66.5 58.56L66.23 57.19L65.48 56.05L64.38 55.27L63.06 54.99L61.73 55.27L60.63 56.05Z" id="g31sOXU4FD"></path></defs><g><g><g><use xlink:href="#bd8z9YW7c" opacity="1" fill="#ffffff" fill-opacity="0"></use><g><use xlink:href="#bd8z9YW7c" opacity="1" fill-opacity="0" stroke="#600060" stroke-width="2" stroke-opacity="1"></use></g></g><g><use xlink:href="#aWUw4SuPb" opacity="1" fill="#600060" fill-opacity="1"></use><g><use xlink:href="#aWUw4SuPb" opacity="1" fill-opacity="0" stroke="#000000" stroke-width="1" stroke-opacity="0"></use></g></g><g><use xlink:href="#g31sOXU4FD" opacity="1" fill="#600060" fill-opacity="1"></use><g><use xlink:href="#g31sOXU4FD" opacity="1" fill-opacity="0" stroke="#000000" stroke-width="1" stroke-opacity="0"></use></g></g></g></g></svg>