<svg xmlns="http://www.w3.org/2000/svg" xmlns:xlink="http://www.w3.org/1999/xlink" width="62" height="62" version="1.1" viewBox="0 0 120 120"><defs><path id="eRNcStffM" d="m110.87 1.5c4.58 0 8.3 3.71 8.3 8.3v100.74c0 4.58-3.72 8.29-8.3 8.29h-101.11c-4.58 0-8.3-3.71-8.3-8.29v-100.74c0-4.59 3.72-8.3 8.3-8.3h101.11z"/><path id="h1aEcQa4Su" d="m69.73 23.06c11.99 0 21.71 12.7 21.71 28.36 0 0.59-0.02 1.18-0.05 1.76 8.66 2.38 15.03 10.36 15.03 19.84 0 11.35-9.14 20.56-20.42 20.56h-51.21c-11.28 0-20.42-9.21-20.42-20.56 0-9.9 6.95-18.17 16.2-20.12 0.83-10.74 7.76-19.11 16.2-19.11 1.85 0 3.63 0.4 5.29 1.14 3.94-7.18 10.39-11.87 17.67-11.87z"/><path id="bbUlP95xM" d="m49.4 54.67-16.07 12.93 16.07 12.94v-8.41h21.99v8.41l16.07-12.94-16.07-12.93v8.41h-21.99v-8.41z"/></defs><use fill="#fff" fill-opacity="0" xlink:href="#eRNcStffM"/><use fill-opacity="0" stroke="#600060" stroke-width="2" xlink:href="#eRNcStffM"/><use fill="#fff" fill-opacity="0" xlink:href="#h1aEcQa4Su"/><use fill-opacity="0" stroke="#600060" stroke-width="2" xlink:href="#h1aEcQa4Su"/><use fill="#fff" fill-opacity="0" xlink:href="#bbUlP95xM"/><use fill-opacity="0" stroke="#600060" stroke-width="2" xlink:href="#bbUlP95xM"/></svg>