<svg xmlns="http://www.w3.org/2000/svg" xmlns:xlink="http://www.w3.org/1999/xlink" width="144" height="144" version="1.1" viewBox="0 0 120 120"><defs><path id="b1lo7zuvLE" d="m110.55 1.33c4.59 0 8.3 3.72 8.3 8.3v100.74c0 4.58-3.71 8.3-8.3 8.3h-101.1c-4.59 0-8.3-3.72-8.3-8.3v-100.74c0-4.58 3.71-8.3 8.3-8.3h101.1z"/><path id="b3ZN88Cv4g" d="m96.8 14.77 0.12 0.01 0.24 0.06 0.12 0.04 0.11 0.04 0.12 0.05 0.12 0.06 0.11 0.06 0.11 0.07 0.11 0.08 0.11 0.07 0.11 0.09 0.1 0.09 0.11 0.09 0.1 0.1 0.09 0.1 0.1 0.11 0.18 0.22 0.08 0.12 0.09 0.12 0.08 0.12 0.21 0.39 0.18 0.42 0.05 0.14 0.04 0.14 0.05 0.14 0.06 0.3 0.03 0.14 0.02 0.15 0.02 0.3v0.15 83.8 0.15 0.14l-0.02 0.15-0.01 0.15-0.02 0.15-0.03 0.15-0.03 0.14-0.03 0.15-0.04 0.14-0.05 0.14-0.04 0.14-0.06 0.14-0.05 0.13-0.12 0.26-0.14 0.26-0.08 0.12-0.08 0.11-0.08 0.12-0.18 0.22-0.09 0.1-0.1 0.1-0.2 0.18-0.22 0.16-0.22 0.14-0.12 0.07-0.13 0.05-0.12 0.05-0.13 0.05-0.13 0.04-0.13 0.03-0.28 0.04-0.28 0.02h-70.73l-0.36-0.03-0.12-0.02-0.24-0.06-0.12-0.04-0.11-0.04-0.12-0.05-0.11-0.05-0.12-0.06-0.11-0.06-0.1-0.07-0.22-0.16-0.1-0.08-0.2-0.18-0.18-0.2-0.18-0.22-0.16-0.24-0.07-0.12-0.08-0.13-0.06-0.13-0.07-0.14-0.06-0.14-0.05-0.14-0.1-0.3-0.04-0.16-0.03-0.15-0.04-0.17-0.02-0.16-0.04-0.34v-0.18l-0.01-0.17v-83.8l0.01-0.15v-0.15l0.04-0.3 0.02-0.14 0.04-0.15 0.03-0.15 0.04-0.14 0.15-0.42 0.06-0.14 0.07-0.14 0.06-0.13 0.08-0.13 0.07-0.13 0.16-0.24 0.09-0.12 0.27-0.33 0.2-0.2 0.1-0.09 0.22-0.18 0.1-0.07 0.11-0.08 0.12-0.07 0.11-0.06 0.12-0.06 0.11-0.05 0.24-0.08 0.24-0.06 0.12-0.01 0.12-0.02h0.12 70.73 0.12l0.12 0.02zm-70.97 87.77h70.73v-67.84h-70.73v67.84zm25.72-71.83h45.01v-11.97h-45.01v11.97zm-25.72 0h22.5v-11.97h-22.5v11.97z"/><path id="g4Sq3GPCC" d="m30.65 22.73c-0.89 0-1.61 0.89-1.61 2 0 1.1 0.72 1.99 1.61 1.99s1.61-0.89 1.61-1.99c0-1.11-0.72-2-1.61-2z"/><path id="aXQuGuzc" d="m37.08 22.73c-0.89 0-1.61 0.89-1.61 2 0 1.1 0.72 1.99 1.61 1.99s1.61-0.89 1.61-1.99c0-1.11-0.72-2-1.61-2z"/><path id="c1goEhiqVm" d="m43.51 22.73c-0.89 0-1.61 0.89-1.61 2 0 1.1 0.72 1.99 1.61 1.99s1.61-0.89 1.61-1.99c0-1.11-0.72-2-1.61-2z"/><path id="a1pU3UvUPx" d="m30.65 46.67c-0.96 0-1.61-0.8-1.61-1.99 0-1.2 0.65-2 1.61-2h16.08c0.96 0 1.6 0.8 1.6 2 0 1.19-0.64 1.99-1.6 1.99h-16.08z"/><path id="dB1cPAPO9" d="m30.65 58.64c-0.96 0-1.61-0.79-1.61-1.99s0.65-2 1.61-2h25.72c0.97 0 1.61 0.8 1.61 2s-0.64 1.99-1.61 1.99h-25.72z"/><path id="bSzcrl57q" d="m53.16 46.67c-0.97 0-1.61-0.8-1.61-1.99 0-1.2 0.64-2 1.61-2h12.86c0.96 0 1.6 0.8 1.6 2 0 1.19-0.64 1.99-1.6 1.99h-12.86z"/><path id="d8IVlTzke" d="m62.8 58.64c-0.96 0-1.61-0.79-1.61-1.99s0.65-2 1.61-2h6.43c0.97 0 1.61 0.8 1.61 2s-0.64 1.99-1.61 1.99h-6.43z"/><path id="a2NX5lXxW0" d="m30.65 70.61c-0.96 0-1.61-0.79-1.61-1.99s0.65-2 1.61-2h6.43c0.97 0 1.61 0.8 1.61 2s-0.64 1.99-1.61 1.99h-6.43z"/><path id="a69UUHqHL9" d="m46.73 70.61c-0.97 0-1.61-0.79-1.61-1.99s0.64-2 1.61-2h3.21c0.97 0 1.61 0.8 1.61 2s-0.64 1.99-1.61 1.99h-3.21z"/><path id="bn8SOyAT4" d="m75.66 58.64c-0.96 0-1.61-0.79-1.61-1.99s0.65-2 1.61-2h9.65c0.96 0 1.6 0.8 1.6 2s-0.64 1.99-1.6 1.99h-9.65z"/></defs><use fill="#fff" fill-opacity="0" xlink:href="#b1lo7zuvLE"/><use fill-opacity="0" stroke="#a434b7" stroke-width="2" xlink:href="#b1lo7zuvLE"/><use fill="#000" fill-opacity="0" xlink:href="#b3ZN88Cv4g"/><use fill-opacity="0" stroke="#a434b7" xlink:href="#b3ZN88Cv4g"/><use fill="#a434b7" xlink:href="#g4Sq3GPCC"/><use fill-opacity="0" stroke="#000" stroke-opacity="0" xlink:href="#g4Sq3GPCC"/><use fill="#a434b7" xlink:href="#aXQuGuzc"/><use fill-opacity="0" stroke="#000" stroke-opacity="0" xlink:href="#aXQuGuzc"/><use fill="#a434b7" xlink:href="#c1goEhiqVm"/><use fill-opacity="0" stroke="#000" stroke-opacity="0" xlink:href="#c1goEhiqVm"/><use fill="#a434b7" xlink:href="#a1pU3UvUPx"/><use fill="#a434b7" xlink:href="#dB1cPAPO9"/><use fill="#a434b7" xlink:href="#bSzcrl57q"/><use fill="#a434b7" xlink:href="#d8IVlTzke"/><use fill="#a434b7" xlink:href="#a2NX5lXxW0"/><use fill="#a434b7" xlink:href="#a69UUHqHL9"/><use fill="#a434b7" xlink:href="#bn8SOyAT4"/></svg>