<svg xmlns="http://www.w3.org/2000/svg" xmlns:xlink="http://www.w3.org/1999/xlink" width="62" height="62" version="1.1" viewBox="0 0 120 120"><defs><path id="adiODyQb" d="m110.55 1.33c4.59 0 8.3 3.72 8.3 8.3v100.74c0 4.58-3.71 8.3-8.3 8.3h-101.1c-4.59 0-8.3-3.72-8.3-8.3v-100.74c0-4.58 3.71-8.3 8.3-8.3h101.1z"/><path id="a2sJ2agP3P" d="m56.2 12.08h-4.87c-3.68 0-6.62 3.31-6.42 7.28 0.61 14.56 4.08 45.99 21.78 45.99 17.69 0 21.17-31.43 21.77-45.99 0.2-3.97-2.74-7.28-6.41-7.28h-4.88"/><path id="e3mVHcxyvR" d="m66.62 65.11v26.02c0 9.8-7.81 17.77-17.43 17.77h-8.48c-8.15 0-14.9-6.06-16.1-14.03"/><path id="a2VO5oYLPc" d="m53.06 15.1c-0.87 0-1.6-0.79-1.6-1.73v-2.52c0-0.94 0.73-1.73 1.6-1.73h3.54c0.87 0 1.6 0.79 1.6 1.73v2.52c0 0.94-0.73 1.73-1.6 1.73h-3.54z"/><path id="f15YmiG9zp" d="m76.64 15.1c-0.87 0-1.61-0.79-1.61-1.73v-2.52c0-0.94 0.74-1.73 1.61-1.73h3.54c0.86 0 1.6 0.79 1.6 1.73v2.52c0 0.94-0.74 1.73-1.6 1.73h-3.54z"/><path id="c1dzQn7Fu" d="m70.02 66.42c0 0.87-0.4 1.59-1 2.09v0.72c0 1.37-1.07 2.52-2.33 2.52h-0.14c-1.27 0-2.34-1.15-2.34-2.52v-0.72c-0.6-0.5-1-1.22-1-2.09v-0.14c0-1.37 1.07-2.53 2.34-2.53h2.14c1.27 0 2.33 1.08 2.33 2.53v0.14z"/><path id="c5h94GdA9m" d="m24.41 79c-3.76 0-6.81 3.29-6.81 7.35s3.05 7.36 6.81 7.36 6.81-3.3 6.81-7.36-3.05-7.35-6.81-7.35z"/></defs><use fill="#fff" fill-opacity="0" xlink:href="#adiODyQb"/><use fill-opacity="0" stroke="#600060" stroke-width="2" xlink:href="#adiODyQb"/><use fill="#fff" fill-opacity="0" xlink:href="#a2sJ2agP3P"/><use fill-opacity="0" stroke="#600060" stroke-width="2" xlink:href="#a2sJ2agP3P"/><use fill="#000" fill-opacity="0" xlink:href="#e3mVHcxyvR"/><use fill-opacity="0" stroke="#600060" stroke-width="2" xlink:href="#e3mVHcxyvR"/><use fill="#600060" xlink:href="#a2VO5oYLPc"/><use fill-opacity="0" stroke="#000" stroke-opacity="0" xlink:href="#a2VO5oYLPc"/><use fill="#600060" xlink:href="#f15YmiG9zp"/><use fill-opacity="0" stroke="#000" stroke-opacity="0" xlink:href="#f15YmiG9zp"/><use fill="#600060" xlink:href="#c1dzQn7Fu"/><use fill-opacity="0" stroke="#000" stroke-opacity="0" xlink:href="#c1dzQn7Fu"/><use fill="#000" fill-opacity="0" xlink:href="#c5h94GdA9m"/><use fill-opacity="0" stroke="#600060" stroke-width="2.5" xlink:href="#c5h94GdA9m"/></svg>