<svg xmlns="http://www.w3.org/2000/svg" xmlns:xlink="http://www.w3.org/1999/xlink" width="16" height="16" version="1.1" viewBox="0 0 640 640"><defs><path id="dEBUOjqC5" d="m287.42 17.21c21.53-4.07 43.63-4.07 65.16 0 6.85 1.29 4.95 0.93 14.33 2.71 11.56 2.18 19.93 12.28 19.93 24.05v371.91c0 14.78-11.97 26.75-26.74 26.75h-78.71c-15.59 0-28.23-12.64-28.23-28.23v-371.33c0-11.25 8-20.9 19.04-22.99 9.56-1.8 8.37-1.58 15.22-2.87z"/><path id="aZ9Sfs01R" d="m320.37 461.4c44.28 0.13 91.5-19.86 141.68-59.96 12.47-9.96 28.53 6.79 18.06 18.83-57.92 66.59-111.18 99.82-159.78 99.68-47.02-0.14-100.34-32.38-159.98-96.75-11.43-12.33 4.98-30.5 18.41-20.38 51.66 38.93 98.86 58.46 141.61 58.58z"/><path id="g1OswOx9my" d="m296.84 527.89h46.32v94.74h-46.32v-94.74z"/></defs><filter id="shadow11950678" width="176.68" height="472.13" x="232.16" y="-6.5" filterUnits="userSpaceOnUse"><feFlood/><feComposite in2="SourceAlpha" operator="in"/><feGaussianBlur stdDeviation="2.24"/><feOffset dx="-1" dy="2" result="afterOffset"/><feFlood flood-color="#212121" flood-opacity=".5"/><feComposite in2="afterOffset" operator="in"/><feMorphology operator="dilate" radius="4"/><feComposite in2="SourceAlpha" operator="out"/></filter><path id="f535PQL0JR" fill="#fff" d="m287.42 17.21c21.53-4.07 43.63-4.07 65.16 0 6.85 1.29 4.95 0.93 14.33 2.71 11.56 2.18 19.93 12.28 19.93 24.05v371.91c0 14.78-11.97 26.75-26.74 26.75h-78.71c-15.59 0-28.23-12.64-28.23-28.23v-371.33c0-11.25 8-20.9 19.04-22.99 9.56-1.8 8.37-1.58 15.22-2.87z" filter="url(#shadow11950678)"/><use fill="#600060" xlink:href="#dEBUOjqC5"/><use fill-opacity="0" stroke="#212121" xlink:href="#dEBUOjqC5"/><filter id="shadow13344412" width="347.99" height="142.55" x="146.51" y="388.41" filterUnits="userSpaceOnUse"><feFlood/><feComposite in2="SourceAlpha" operator="in"/><feGaussianBlur stdDeviation="1"/><feOffset dx="1" dy="1" result="afterOffset"/><feFlood flood-color="#000" flood-opacity=".5"/><feComposite in2="afterOffset" operator="in"/><feMorphology operator="dilate" radius="2"/><feComposite in2="SourceAlpha" operator="out"/></filter><path id="k20ntbPMWM" fill="#fff" d="m320.37 461.4c44.28 0.13 91.5-19.86 141.68-59.96 12.47-9.96 28.53 6.79 18.06 18.83-57.92 66.59-111.18 99.82-159.78 99.68-47.02-0.14-100.34-32.38-159.98-96.75-11.43-12.33 4.98-30.5 18.41-20.38 51.66 38.93 98.86 58.46 141.61 58.58z" filter="url(#shadow13344412)"/><use fill="#600060" xlink:href="#aZ9Sfs01R"/><use fill-opacity="0" stroke="#212121" xlink:href="#aZ9Sfs01R"/><filter id="shadow2964381" width="81.32" height="129.74" x="279.84" y="510.89" filterUnits="userSpaceOnUse"><feFlood/><feComposite in2="SourceAlpha" operator="in"/><feGaussianBlur stdDeviation="2"/><feOffset dx="1" dy="1" result="afterOffset"/><feFlood flood-color="#000" flood-opacity=".5"/><feComposite in2="afterOffset" operator="in"/><feMorphology operator="dilate" radius="3"/><feComposite in2="SourceAlpha" operator="out"/></filter><path id="aajwDz34W" fill="#fff" d="m296.84 527.89h46.32v94.74h-46.32v-94.74z" filter="url(#shadow2964381)"/><use fill="#600060" xlink:href="#g1OswOx9my"/><use fill-opacity="0" stroke="#600060" xlink:href="#g1OswOx9my"/></svg>