<?xml version="1.0" encoding="UTF-8" standalone="no"?>
<!DOCTYPE svg PUBLIC "-//W3C//DTD SVG 1.1//EN" "http://www.w3.org/Graphics/SVG/1.1/DTD/svg11.dtd">
<svg preserveAspectRatio="xMidYMid meet" viewBox="0 0 120 120" width="144" height="144"><defs><path d="M162.75 147.5L290.75 147.5L290.75 275.5L162.75 275.5L162.75 147.5Z" id="ciiZWmCYs"></path><clipPath id="cliplXMfN6MQQ"><use xlink:href="#ciiZWmCYs" opacity="1"></use></clipPath><path d="M107.75 5.63C112.03 5.63 115.5 9.1 115.5 13.38C115.5 33.83 115.5 87.42 115.5 107.87C115.5 112.15 112.03 115.63 107.75 115.63C87.3 115.63 33.7 115.63 13.25 115.63C8.97 115.63 5.5 112.15 5.5 107.87C5.5 87.42 5.5 33.83 5.5 13.38C5.5 9.1 8.97 5.63 13.25 5.63C33.7 5.63 87.3 5.63 107.75 5.63Z" id="gb34TyWTK"></path><path d="M115.5 19.47L5.5 19.47" id="hJnqWCPd8"></path><path d="M18.19 11.5C18.19 13.16 16.85 14.5 15.19 14.5C13.54 14.5 12.19 13.16 12.19 11.5C12.19 9.84 13.54 8.5 15.19 8.5C16.85 8.5 18.19 9.84 18.19 11.5Z" id="cHpqFYBGb"></path><path d="M28.19 11.5C28.19 13.16 26.85 14.5 25.19 14.5C23.54 14.5 22.19 13.16 22.19 11.5C22.19 9.84 23.54 8.5 25.19 8.5C26.85 8.5 28.19 9.84 28.19 11.5Z" id="dZ3lVVCpk"></path><path d="M95.5 70.88C95.5 90.19 79.82 105.88 60.5 105.88C41.18 105.88 25.5 90.19 25.5 70.88C25.5 51.56 41.18 35.88 60.5 35.88C79.82 35.88 95.5 51.56 95.5 70.88Z" id="fWvbPXTs6"></path><path d="M60.5 35.03L60.5 31.83L60.5 30.1" id="aplUVhHCy"></path><path d="M31.23 44.47L37.83 38.53L39.75 40.66L33.16 46.6L31.23 44.47Z" id="dNUlCZFfO"></path><path d="M37.56 44.66L36.39 43.26L34.74 41.3" id="e2pklwoNgs"></path><path d="M64 70.29C64 72.22 62.43 73.79 60.5 73.79C58.57 73.79 57 72.22 57 70.29C57 68.35 58.57 66.79 60.5 66.79C62.43 66.79 64 68.35 64 70.29Z" id="bjYq6XmHx"></path><path d="M60.5 43.01L60.5 41.17L60.5 39.6" id="g1Yldu1Cmy"></path><path d="M60.5 102.47L60.5 100.64L60.5 99.06" id="b5whlaaaY1"></path><path d="M33.23 70.29L29.23 70.29" id="bwCKSIC"></path><path d="M92 70.29L88 70.29" id="a1id8SzC8"></path><path d="M60.5 44.66L60.5 44.66L62.63 69.62L58.38 69.62L60.5 44.66Z" id="bcgCWyIIl"></path><path d="M54.88 29.75L65.63 29.75L65.63 34L54.88 34L54.88 29.75Z" id="e5k6gXsxhZ"></path></defs><g><g><g><g clip-path="url(#cliplXMfN6MQQ)" opacity="1"></g></g><g><use xlink:href="#gb34TyWTK" opacity="1" fill="#ffffff" fill-opacity="0"></use><g><use xlink:href="#gb34TyWTK" opacity="1" fill-opacity="0" stroke="#600060" stroke-width="2" stroke-opacity="1"></use></g></g><g><g><use xlink:href="#hJnqWCPd8" opacity="1" fill-opacity="0" stroke="#600060" stroke-width="2" stroke-opacity="1"></use></g></g><g><use xlink:href="#cHpqFYBGb" opacity="1" fill="#600060" fill-opacity="1"></use></g><g><use xlink:href="#dZ3lVVCpk" opacity="1" fill="#600060" fill-opacity="1"></use></g><g><use xlink:href="#fWvbPXTs6" opacity="1" fill="#600060" fill-opacity="0"></use><g><use xlink:href="#fWvbPXTs6" opacity="1" fill-opacity="0" stroke="#600060" stroke-width="2" stroke-opacity="1"></use></g></g><g><g><use xlink:href="#aplUVhHCy" opacity="1" fill-opacity="0" stroke="#600060" stroke-width="5" stroke-opacity="1"></use></g></g><g><use xlink:href="#dNUlCZFfO" opacity="1" fill="#600060" fill-opacity="1"></use></g><g><g><use xlink:href="#e2pklwoNgs" opacity="1" fill-opacity="0" stroke="#600060" stroke-width="4" stroke-opacity="1"></use></g></g><g><use xlink:href="#bjYq6XmHx" opacity="1" fill="#600060" fill-opacity="1"></use></g><g><g><use xlink:href="#g1Yldu1Cmy" opacity="1" fill-opacity="0" stroke="#600060" stroke-width="2" stroke-opacity="1"></use></g></g><g><g><use xlink:href="#b5whlaaaY1" opacity="1" fill-opacity="0" stroke="#600060" stroke-width="2" stroke-opacity="1"></use></g></g><g><g><use xlink:href="#bwCKSIC" opacity="1" fill-opacity="0" stroke="#600060" stroke-width="2" stroke-opacity="1"></use></g></g><g><g><use xlink:href="#a1id8SzC8" opacity="1" fill-opacity="0" stroke="#600060" stroke-width="2" stroke-opacity="1"></use></g></g><g><use xlink:href="#bcgCWyIIl" opacity="1" fill="#600060" fill-opacity="1"></use></g><g><use xlink:href="#e5k6gXsxhZ" opacity="1" fill="#600060" fill-opacity="1"></use></g></g></g></svg>