<svg xmlns="http://www.w3.org/2000/svg" xmlns:xlink="http://www.w3.org/1999/xlink" width="640" height="640" version="1.1" viewBox="0 0 640 640"><defs><path id="bXnlAjDeF" d="m555.64 18.85 0.78 0.12 0.79 0.16 0.77 0.21 0.78 0.25 0.76 0.29 0.76 0.33 0.76 0.37 0.74 0.41 0.74 0.45 0.72 0.48 0.71 0.52 0.7 0.55 0.68 0.58 0.67 0.61 0.66 0.64 0.63 0.67 0.62 0.69 0.6 0.72 0.59 0.75 0.56 0.77 0.53 0.79 0.52 0.81 0.49 0.83 0.47 0.85 0.44 0.87 0.42 0.88 0.39 0.9 0.36 0.91 0.33 0.92 0.3 0.94 0.26 0.94 0.24 0.95 0.2 0.96 0.17 0.97 0.13 0.97 0.1 0.97 0.05 0.98 0.02 0.98v547.82l-0.01 0.98-0.05 0.98-0.08 0.97-0.11 0.97-0.13 0.97-0.17 0.96-0.2 0.95-0.22 0.95-0.26 0.93-0.28 0.92-0.31 0.91-0.33 0.9-0.37 0.88-0.39 0.87-0.41 0.85-0.44 0.83-0.47 0.81-0.49 0.79-0.52 0.77-0.54 0.75-0.56 0.72-0.59 0.7-0.61 0.66-0.63 0.64-0.65 0.62-0.68 0.58-0.7 0.55-0.71 0.51-0.74 0.48-0.76 0.45-0.78 0.41-0.8 0.37-0.81 0.33-0.84 0.29-0.85 0.26-0.87 0.2-0.89 0.17-0.91 0.11-0.92 0.08-0.94 0.02h-462.43l-0.79-0.02-0.78-0.06-0.79-0.09-0.78-0.14-0.78-0.17-0.77-0.21-0.77-0.24-0.76-0.28-0.75-0.31-0.75-0.35-0.73-0.39-0.72-0.42-0.71-0.45-0.7-0.48-0.69-0.52-0.67-0.54-0.65-0.58-0.64-0.61-0.62-0.64-0.6-0.67-0.58-0.7-0.56-0.73-0.54-0.76-0.52-0.78-0.49-0.81-0.47-0.84-0.44-0.87-0.41-0.89-0.39-0.92-0.36-0.94-0.33-0.96-0.3-0.99-0.27-1.02-0.23-1.03-0.21-1.06-0.16-1.08-0.13-1.1-0.1-1.13-0.06-1.14-0.02-1.17v-547.82l0.02-0.98 0.06-0.98 0.1-0.97 0.13-0.97 0.16-0.97 0.21-0.96 0.23-0.95 0.27-0.94 0.3-0.94 0.33-0.92 0.36-0.91 0.39-0.9 0.41-0.88 0.44-0.87 0.47-0.85 0.49-0.83 0.52-0.81 0.54-0.79 0.56-0.77 0.58-0.75 0.6-0.72 0.62-0.69 0.64-0.67 0.65-0.64 0.67-0.61 0.69-0.58 0.7-0.55 0.71-0.52 0.72-0.48 0.73-0.45 0.75-0.41 0.75-0.37 0.76-0.33 0.77-0.29 0.77-0.25 0.78-0.21 0.78-0.16 0.79-0.12 0.78-0.07 0.79-0.03h462.43l0.79 0.03 0.79 0.07zm-464.01 573.81h462.43v-443.47h-462.43v443.47zm168.16-469.56h294.27v-78.26h-294.27v78.26zm-168.16 0h147.14v-78.26h-147.14v78.26z"/><path id="b16UDlor6c" d="m123.16 70.92c-5.8 0-10.51 5.84-10.51 13.05 0 7.2 4.71 13.04 10.51 13.04 5.81 0 10.51-5.84 10.51-13.04 0-7.21-4.7-13.05-10.51-13.05z"/><path id="j2u1WFF5Si" d="m165.2 70.92c-5.8 0-10.51 5.84-10.51 13.05 0 7.2 4.71 13.04 10.51 13.04 5.81 0 10.51-5.84 10.51-13.04 0-7.21-4.7-13.05-10.51-13.05z"/><path id="c7UsUR2I2E" d="m207.24 70.92c-5.8 0-10.51 5.84-10.51 13.05 0 7.2 4.71 13.04 10.51 13.04s10.51-5.84 10.51-13.04c0-7.21-4.71-13.05-10.51-13.05z"/><path id="c1boodGWCg" d="m123.16 227.45c-6.3 0-10.51-5.22-10.51-13.05 0-7.82 4.21-13.04 10.51-13.04h105.1c6.31 0 10.51 5.22 10.51 13.04 0 7.83-4.2 13.05-10.51 13.05h-105.1z"/><path id="d1liwdssHy" d="m123.16 305.71c-6.3 0-10.51-5.22-10.51-13.05 0-7.82 4.21-13.04 10.51-13.04h168.16c6.3 0 10.51 5.22 10.51 13.04 0 7.83-4.21 13.05-10.51 13.05h-168.16z"/><path id="b15hLnAhby" d="m270.3 227.45c-6.31 0-10.51-5.22-10.51-13.05 0-7.82 4.2-13.04 10.51-13.04h84.08c6.3 0 10.51 5.22 10.51 13.04 0 7.83-4.21 13.05-10.51 13.05h-84.08z"/><path id="h4Wymxj8OK" d="m333.36 305.71c-6.31 0-10.51-5.22-10.51-13.05 0-7.82 4.2-13.04 10.51-13.04h42.04c6.3 0 10.51 5.22 10.51 13.04 0 7.83-4.21 13.05-10.51 13.05h-42.04z"/><path id="bebWeExyj" d="m123.16 383.97c-6.3 0-10.51-5.22-10.51-13.05 0-7.82 4.21-13.04 10.51-13.04h42.04c6.31 0 10.51 5.22 10.51 13.04 0 7.83-4.2 13.05-10.51 13.05h-42.04z"/><path id="g1rW2sspKo" d="m228.26 383.97c-6.31 0-10.51-5.22-10.51-13.05 0-7.82 4.2-13.04 10.51-13.04h21.02c6.3 0 10.51 5.22 10.51 13.04 0 7.83-4.21 13.05-10.51 13.05h-21.02z"/><path id="j5IOriAF4" d="m417.44 305.71c-6.31 0-10.51-5.22-10.51-13.05 0-7.82 4.2-13.04 10.51-13.04h63.05c6.31 0 10.51 5.22 10.51 13.04 0 7.83-4.2 13.05-10.51 13.05h-63.05z"/></defs><use fill-opacity="0" stroke="#600060" stroke-width="2" xlink:href="#bXnlAjDeF"/><use fill="#fff" stroke="#600060" stroke-width="2" xlink:href="#b16UDlor6c"/><use fill-opacity="0" stroke="#600060" stroke-opacity="0" xlink:href="#b16UDlor6c"/><use fill="#fff" stroke="#600060" stroke-width="2" xlink:href="#j2u1WFF5Si"/><use fill-opacity="0" stroke="#600060" stroke-opacity="0" xlink:href="#j2u1WFF5Si"/><use fill="#fff" stroke="#600060" stroke-width="2" xlink:href="#c7UsUR2I2E"/><use fill-opacity="0" stroke="#600060" stroke-opacity="0" xlink:href="#c7UsUR2I2E"/><use fill="#fff" stroke="#600060" stroke-opacity="1" class="first-line" xlink:href="#c1boodGWCg"/><use fill="#fff" stroke="#600060" stroke-opacity="1" class="second-line" xlink:href="#d1liwdssHy"/><use fill="#fff" stroke="#600060" stroke-opacity="1" xlink:href="#b15hLnAhby"/><use fill="#fff" stroke="#600060" stroke-opacity="0" xlink:href="#h4Wymxj8OK"/><use fill="#fff" stroke="#600060" stroke-opacity="0" xlink:href="#bebWeExyj"/><use fill="#fff" stroke="#600060" stroke-opacity="0" xlink:href="#g1rW2sspKo"/><use fill="#fff" stroke="#600060" stroke-opacity="0" xlink:href="#j5IOriAF4"/></svg>