<svg xmlns="http://www.w3.org/2000/svg" xmlns:xlink="http://www.w3.org/1999/xlink" width="454" height="680" preserveAspectRatio="xMidYMid meet" version="1.1" viewBox="0 0 454 680"><defs><path id="nIsDj8XVn" d="M137.66 10.16L140.43 10.53L143.16 11.03L145.86 11.68L148.52 12.45L151.13 13.35L153.71 14.38L156.24 15.54L158.72 16.81L161.15 18.2L163.53 19.71L165.86 21.33L168.13 23.06L170.34 24.89L172.49 26.83L174.58 28.87L176.6 31.01L178.56 33.25L180.45 35.57L182.26 37.99L184.01 40.49L185.67 43.08L187.26 45.75L188.77 48.5L190.19 51.32L191.54 54.22L192.79 57.19L193.95 60.22L195.03 63.32L196.01 66.48L196.89 69.7L197.68 72.97L198.36 76.3L198.95 79.68L199.43 83.11L199.8 86.58L200.07 90.09L200.22 93.65L200.26 97.24L200.18 100.83L200 104.38L199.7 107.92L199.29 111.43L198.78 114.92L198.16 118.4L197.44 121.86L196.63 125.33L195.71 128.78L194.7 132.25L193.59 135.71L192.4 139.19L191.11 142.68L189.74 146.19L188.28 149.73L186.75 153.29L185.13 156.88L183.43 160.5L181.66 164.16L179.82 167.87L177.9 171.62L175.91 175.43L173.86 179.29L171.74 183.21L169.56 187.19L167.32 191.24L165.03 195.36L162.67 199.56L160.26 203.83L157.8 208.19L155.29 212.64L152.74 217.18L150.14 221.82L147.49 226.55L144.81 231.39L142.08 236.34L139.32 241.4L136.53 246.58L133.7 251.87L130.85 257.29L128.05 251.85L125.27 246.52L122.53 241.32L119.81 236.23L117.14 231.26L114.5 226.39L111.9 221.63L109.34 216.97L106.83 212.41L104.37 207.94L101.95 203.55L99.58 199.25L97.27 195.04L95.01 190.89L92.81 186.82L90.66 182.82L88.58 178.88L86.57 175L84.62 171.18L82.74 167.41L80.93 163.68L79.19 160L77.53 156.36L75.95 152.76L74.44 149.18L73.02 145.64L71.68 142.11L70.43 138.61L69.27 135.12L68.2 131.64L67.22 128.17L66.34 124.7L65.55 121.23L64.87 117.76L64.28 114.28L63.8 110.78L63.43 107.27L63.17 103.73L63.01 100.17L62.97 96.58L63.05 92.99L63.23 89.44L63.53 85.93L63.94 82.46L64.45 79.04L65.07 75.67L65.79 72.34L66.6 69.08L67.52 65.87L68.53 62.71L69.63 59.63L70.83 56.6L72.11 53.65L73.48 50.76L74.93 47.95L76.46 45.22L78.08 42.57L79.77 40L81.53 37.51L83.37 35.11L85.28 32.8L87.26 30.59L89.3 28.47L91.41 26.45L93.58 24.53L95.81 22.71L98.1 21L100.44 19.41L102.84 17.92L105.28 16.55L107.77 15.3L110.31 14.17L112.9 13.17L115.52 12.29L118.19 11.54L120.89 10.93L123.63 10.45L126.4 10.1L129.2 9.9L132.03 9.84L134.86 9.93L137.66 10.16ZM129.17 51.21L127.86 51.37L126.56 51.6L125.28 51.89L124.02 52.24L122.77 52.66L121.55 53.14L120.34 53.67L119.16 54.26L118 54.91L116.87 55.61L115.76 56.37L114.68 57.18L113.62 58.04L112.59 58.95L111.6 59.91L110.63 60.91L109.69 61.96L108.79 63.05L107.91 64.19L107.08 65.37L106.28 66.58L105.51 67.84L104.79 69.14L104.1 70.47L103.45 71.83L102.84 73.23L102.28 74.67L101.75 76.13L101.28 77.62L100.84 79.14L100.46 80.69L100.12 82.26L99.82 83.86L99.58 85.48L99.39 87.12L99.25 88.79L99.16 90.47L99.12 92.17L99.14 93.87L99.21 95.55L99.34 97.22L99.52 98.86L99.74 100.48L100.02 102.08L100.35 103.66L100.72 105.21L101.14 106.74L101.6 108.24L102.11 109.7L102.66 111.14L103.26 112.55L103.89 113.92L104.57 115.26L105.28 116.56L106.03 117.82L106.82 119.05L107.65 120.23L108.51 121.38L109.4 122.48L110.33 123.54L111.29 124.55L112.28 125.52L113.29 126.44L114.34 127.31L115.42 128.13L116.52 128.89L117.65 129.61L118.8 130.27L119.98 130.87L121.17 131.42L122.39 131.9L123.63 132.33L124.89 132.7L126.17 133L127.46 133.24L128.77 133.42L130.1 133.53L131.44 133.57L132.78 133.54L134.11 133.44L135.42 133.28L136.72 133.05L138 132.76L139.26 132.41L140.5 131.99L141.73 131.51L142.93 130.98L144.11 130.39L145.27 129.74L146.41 129.04L147.51 128.28L148.6 127.47L149.65 126.61L150.68 125.7L151.68 124.74L152.65 123.74L153.59 122.69L154.49 121.6L155.36 120.46L156.2 119.28L157 118.06L157.76 116.81L158.49 115.51L159.18 114.18L159.83 112.82L160.43 111.42L161 109.98L161.52 108.52L162 107.03L162.43 105.51L162.82 103.96L163.16 102.39L163.45 100.79L163.7 99.17L163.89 97.53L164.03 95.86L164.12 94.18L164.15 92.48L164.13 90.78L164.06 89.1L163.94 87.43L163.76 85.79L163.53 84.17L163.26 82.56L162.93 80.99L162.56 79.44L162.14 77.91L161.67 76.41L161.17 74.95L160.61 73.51L160.02 72.1L159.39 70.73L158.71 69.39L158 68.09L157.24 66.83L156.45 65.6L155.63 64.42L154.77 63.27L153.88 62.17L152.95 61.11L151.99 60.1L151 59.13L149.98 58.21L148.93 57.34L147.86 56.52L146.76 55.76L145.63 55.04L144.48 54.38L143.3 53.78L142.1 53.23L140.88 52.75L139.64 52.32L138.38 51.95L137.11 51.65L135.81 51.41L134.5 51.23L133.18 51.12L131.84 51.08L130.49 51.11L129.17 51.21Z"/><path id="fxg73dv7n" d="M206.2 353.72L159.53 265.52L63.58 264.08L14.29 350.85L60.96 439.06L156.91 440.5L206.2 353.72Z"/><path id="a4oXkHVKA" d="M161.72 353.06L136.71 303.73L85.24 302.96L58.77 351.52L83.77 400.84L135.25 401.61L161.72 353.06Z"/></defs><g><g><g><g><use fill-opacity="0" stroke="#1C401A" stroke-opacity="1" stroke-width="1" opacity="1" xlink:href="#nIsDj8XVn"/></g></g><g><g><use fill-opacity="0" stroke="#d4d3d3" stroke-opacity="1" stroke-width="2" opacity="1" xlink:href="#fxg73dv7n"/></g></g><g><g><use fill-opacity="0" stroke="#d4d3d3" stroke-opacity="1" stroke-width="2" opacity="1" xlink:href="#a4oXkHVKA"/></g></g></g></g></svg>