<svg xmlns="http://www.w3.org/2000/svg" xmlns:xlink="http://www.w3.org/1999/xlink" width="405.37" height="355.11" preserveAspectRatio="xMidYMid meet" version="1.1" viewBox="117.222 145.667 409.366 359.111"><defs><path id="a3g9f1pSC" d="M482.22 299.11C482.22 258.22 449.78 224.44 408.89 223.11C394.67 177.78 352.44 146.67 304.44 146.67C246.67 146.67 198.67 191.56 194.67 248.44C152 252.44 118.22 288.89 118.22 332.89C118.22 379.56 156 417.33 202.67 417.33C203.23 417.33 206.04 417.33 211.11 417.33L211.11 400.44C206.04 400.44 203.23 400.44 202.67 400.44C165.33 400.44 135.11 370.22 135.11 332.89C135.11 298.22 161.33 269.78 194.67 265.78C195.56 274.67 197.33 284 200 292.44C201.6 291.91 214.4 287.64 216 287.11C212.89 277.33 211.11 267.11 211.11 256.89C211.11 205.78 252.89 164 304 164C343.11 164 377.78 188.44 391.11 224.44C376.89 227.11 364 233.78 353.33 243.56C354.49 244.8 363.73 254.76 364.89 256C374.67 247.11 386.67 241.33 400 240C400.4 240 403.6 240 404 240C404.44 240 404.89 240 405.33 240C437.78 240 464.44 266.67 464.44 299.11C464.44 301.33 464.44 304 464 307.11C463.91 307.67 463.47 310.49 462.67 315.56C467.47 316.36 470.13 316.8 470.67 316.89C491.11 320 506.67 337.78 506.67 358.67C506.67 381.78 487.56 400.89 464.44 400.89C462.19 400.89 450.93 400.89 430.67 400.89L430.67 417.78C450.93 417.78 462.19 417.78 464.44 417.78C496.89 417.78 523.56 391.11 523.56 358.67C524.44 331.56 507.11 308.89 482.22 301.78C482.22 300.89 482.22 300 482.22 299.11Z"/><path id="e2P4PQodm" d="M245.33 358.22L245.33 459.56L397.33 459.56L397.33 358.22L346.67 358.22L346.67 341.33L397.78 341.33L398.47 341.35L399.16 341.39L399.85 341.46L400.52 341.55L401.18 341.68L401.84 341.82L402.48 342L403.12 342.19L403.74 342.42L404.35 342.66L404.95 342.93L405.54 343.22L406.12 343.53L406.68 343.86L407.22 344.22L407.75 344.59L408.27 344.98L408.77 345.4L409.26 345.83L409.72 346.28L410.17 346.74L410.6 347.23L411.02 347.73L411.41 348.25L411.78 348.78L412.14 349.32L412.47 349.88L412.78 350.46L413.07 351.05L413.34 351.65L413.58 352.26L413.81 352.88L414 353.52L414.18 354.16L414.32 354.82L414.45 355.48L414.54 356.15L414.61 356.84L414.65 357.53L414.67 358.22L414.67 460L423.11 460L423.78 460.01L424.44 460.06L425.09 460.12L425.74 460.22L426.39 460.34L427.03 460.49L427.66 460.66L428.28 460.86L428.9 461.08L429.5 461.32L430.09 461.58L430.68 461.87L431.25 462.18L431.81 462.51L432.36 462.86L432.9 463.23L433.42 463.62L433.92 464.02L434.41 464.45L434.89 464.89L435.35 465.35L435.79 465.82L436.21 466.31L436.62 466.82L437 467.34L437.36 467.87L437.71 468.41L438.03 468.97L438.33 469.54L438.61 470.13L438.87 470.72L439.1 471.32L439.3 471.93L439.48 472.56L439.64 473.19L439.77 473.82L439.87 474.47L439.94 475.12L439.99 475.78L440 476.44L440 484.89L439.99 485.59L439.94 486.27L439.87 486.96L439.78 487.63L439.66 488.29L439.51 488.95L439.34 489.59L439.14 490.23L438.92 490.85L438.67 491.47L438.41 492.07L438.12 492.65L437.8 493.23L437.47 493.79L437.12 494.33L436.74 494.87L436.35 495.38L435.94 495.88L435.51 496.37L435.06 496.83L434.59 497.28L434.1 497.71L433.6 498.13L433.09 498.52L432.56 498.89L432.01 499.25L431.45 499.58L430.88 499.89L430.29 500.18L429.69 500.45L429.08 500.7L428.45 500.92L427.82 501.11L427.17 501.29L426.52 501.43L425.85 501.56L425.18 501.65L424.5 501.72L423.81 501.76L423.11 501.78L220 501.78L219.3 501.76L218.61 501.72L217.93 501.65L217.26 501.56L216.59 501.43L215.94 501.29L215.29 501.11L214.66 500.92L214.04 500.7L213.42 500.45L212.82 500.18L212.24 499.89L211.66 499.58L211.1 499.25L210.55 498.89L210.02 498.52L209.51 498.13L209.01 497.71L208.52 497.28L208.06 496.83L207.61 496.37L207.17 495.88L206.76 495.38L206.37 494.87L205.99 494.33L205.64 493.79L205.31 493.23L205 492.65L204.71 492.07L204.44 491.47L204.19 490.85L203.97 490.23L203.77 489.59L203.6 488.95L203.45 488.29L203.33 487.63L203.24 486.96L203.17 486.27L203.13 485.59L203.11 484.89L203.11 476.44L203.13 475.75L203.17 475.06L203.24 474.38L203.33 473.7L203.45 473.04L203.6 472.38L203.77 471.74L203.97 471.1L204.19 470.48L204.44 469.87L204.71 469.27L205 468.68L205.31 468.11L205.64 467.55L205.99 467L206.37 466.47L206.76 465.95L207.17 465.45L207.61 464.97L208.06 464.5L208.52 464.05L209.01 463.62L209.51 463.21L210.02 462.81L210.55 462.44L211.1 462.08L211.66 461.75L212.24 461.44L212.82 461.15L213.42 460.88L214.04 460.64L214.66 460.42L215.29 460.22L215.94 460.05L216.59 459.9L217.26 459.78L217.93 459.68L218.61 459.61L219.3 459.57L220 459.56L228.44 459.56L228.44 358.22L228.46 357.53L228.5 356.84L228.57 356.15L228.67 355.48L228.79 354.82L228.93 354.16L229.11 353.52L229.3 352.88L229.53 352.26L229.77 351.65L230.04 351.05L230.33 350.46L230.64 349.88L230.97 349.32L231.33 348.78L231.7 348.25L232.1 347.73L232.51 347.23L232.94 346.74L233.39 346.28L233.86 345.83L234.34 345.4L234.84 344.98L235.36 344.59L235.89 344.22L236.43 343.86L237 343.53L237.57 343.22L238.16 342.93L238.76 342.66L239.37 342.42L239.99 342.19L240.63 342L241.27 341.82L241.93 341.68L242.59 341.55L243.27 341.46L243.95 341.39L244.64 341.35L245.33 341.33L296 341.33L296 358.22L245.33 358.22ZM220 485.33L423.11 485.33L423.11 476.89L220 476.89L220 485.33Z"/><path id="bWNLy5LgS" d="M355.56 301.33C342.22 283.73 334.81 273.96 333.33 272C327.56 264.44 315.56 264.44 309.78 272C308.3 273.96 300.89 283.73 287.56 301.33L300.89 311.56L313.33 295.56L313.33 404L300.89 388L287.56 398.22C300.89 415.82 308.3 425.6 309.78 427.56C312.89 431.56 316.89 433.78 321.78 433.78C326.67 433.78 330.67 431.56 333.78 427.56C335.26 425.6 342.67 415.82 356 398.22L342.67 388L330.22 404L330.22 295.56L342.22 311.56L355.56 301.33Z"/></defs><g><g><use fill="#a434b7" fill-opacity="1" opacity="1" xlink:href="#a3g9f1pSC"/><g><use fill-opacity="0" stroke="#000" stroke-opacity="0" stroke-width="1" opacity="1" xlink:href="#a3g9f1pSC"/></g></g><g><use fill="#a434b7" fill-opacity="1" opacity="1" xlink:href="#e2P4PQodm"/><g><use fill-opacity="0" stroke="#000" stroke-opacity="0" stroke-width="1" opacity="1" xlink:href="#e2P4PQodm"/></g></g><g><use fill="#a434b7" fill-opacity="1" opacity="1" xlink:href="#bWNLy5LgS"/><g><use fill-opacity="0" stroke="#000" stroke-opacity="0" stroke-width="1" opacity="1" xlink:href="#bWNLy5LgS"/></g></g></g></svg>