<svg xmlns="http://www.w3.org/2000/svg" xmlns:xlink="http://www.w3.org/1999/xlink" width="624.94" height="588.94" class="wordpress-animated-bg" version="1.1" viewBox="0 0 624.94 588.94"><defs><path id="a" d="m516.98 160.73 8.87 0.9 8.77 1.25 8.65 1.59 8.53 1.92 8.4 2.26 8.27 2.57 8.12 2.88 7.97 3.19 7.82 3.49 7.65 3.78 7.48 4.06 7.31 4.35 7.11 4.61 6.93 4.87 6.73 5.13 6.51 5.38 6.31 5.63 6.09 5.85 5.85 6.09 5.62 6.3 5.38 6.52 5.14 6.73 4.87 6.92 4.61 7.12 4.34 7.3 4.07 7.49 3.78 7.65 3.49 7.81 3.19 7.98 2.88 8.12 2.57 8.27 2.25 8.4 1.93 8.53 1.59 8.65 1.25 8.77 0.9 8.87 0.54 8.97 0.19 9.07-0.19 9.07-0.54 8.98-0.9 8.87-1.25 8.77-1.59 8.65-1.93 8.53-2.25 8.41-2.57 8.26-2.88 8.13-3.19 7.97-3.49 7.82-3.78 7.65-4.07 7.48-4.34 7.3-4.61 7.12-4.87 6.92-5.13 6.73-5.38 6.52-5.63 6.3-5.85 6.09-6.09 5.86-6.3 5.62-6.52 5.38-6.73 5.13-6.92 4.87-7.12 4.61-7.3 4.34-7.49 4.07-7.65 3.78-7.81 3.48-7.98 3.19-8.12 2.89-8.27 2.57-8.4 2.25-8.53 1.92-8.65 1.59-8.77 1.25-8.87 0.9-8.97 0.55-9.07 0.18-9.07-0.18-8.98-0.55-8.87-0.9-8.77-1.25-8.65-1.59-8.53-1.92-8.41-2.25-8.26-2.57-8.13-2.89-7.97-3.19-7.82-3.48-7.65-3.78-7.48-4.07-7.3-4.34-7.12-4.61-6.93-4.87-6.72-5.13-6.52-5.38-6.31-5.63-6.08-5.85-5.86-6.09-5.62-6.3-5.38-6.52-5.13-6.73-4.87-6.92-4.61-7.12-4.34-7.3-4.07-7.48-3.78-7.65-3.48-7.82-3.19-7.97-2.89-8.13-2.57-8.26-2.25-8.41-1.92-8.53-1.59-8.65-1.25-8.77-0.9-8.87-0.55-8.98-0.18-9.07 0.18-9.07 0.55-8.97 0.9-8.87 1.25-8.77 1.59-8.65 1.92-8.53 2.25-8.4 2.57-8.27 2.89-8.12 3.19-7.98 3.48-7.81 3.78-7.65 4.07-7.49 4.34-7.3 4.61-7.12 4.87-6.92 5.13-6.73 5.38-6.52 5.62-6.3 5.86-6.09 6.08-5.85 6.31-5.63 6.52-5.38 6.72-5.13 6.93-4.87 7.12-4.61 7.3-4.35 7.48-4.06 7.65-3.78 7.82-3.49 7.97-3.19 8.13-2.88 8.26-2.57 8.41-2.26 8.53-1.92 8.65-1.59 8.77-1.25 8.87-0.9 8.98-0.55 9.07-0.18 9.07 0.18zm-74.04 414.46 1.37 0.39 1.37 0.38 1.38 0.37 1.38 0.35 1.39 0.35 2.78 0.68 1.4 0.32 1.4 0.31 1.4 0.3 2.82 0.58 1.41 0.27 2.84 0.52 1.43 0.24 2.86 0.46 1.43 0.21 1.44 0.21 1.44 0.19 1.45 0.18 1.44 0.18 1.45 0.16 1.46 0.16 1.46 0.14 1.46 0.13 1.46 0.12 1.47 0.12 1.46 0.1 1.48 0.09 1.47 0.08 1.48 0.07 1.48 0.06 1.48 0.05 1.49 0.03 1.48 0.03 1.49 0.02h1.5l1.77-0.01 1.77-0.02 1.76-0.04 1.76-0.05 1.75-0.07 1.76-0.08 1.74-0.1 1.75-0.11 1.74-0.13 1.73-0.14 1.74-0.16 1.72-0.17 1.73-0.18 1.72-0.2 1.71-0.22 1.71-0.23 1.71-0.24 1.7-0.26 1.7-0.27 1.69-0.28 1.69-0.3 3.36-0.64 1.67-0.34 1.67-0.36 1.66-0.37 1.66-0.38 1.65-0.39 1.64-0.41 1.65-0.42 1.63-0.44 1.63-0.45 1.63-0.46 1.62-0.48 1.61-0.48 1.61-0.51 1.6-0.51 1.6-0.53 1.59-0.54 1.58-0.55-0.04-0.06-0.04-0.07-0.04-0.06-0.04-0.07-0.03-0.06-0.04-0.07-0.04-0.06-0.04-0.07-0.04-0.06-0.08-0.14-0.03-0.06-0.08-0.14-0.04-0.06-0.03-0.07-0.08-0.14-0.03-0.07-0.04-0.06-0.04-0.07-0.03-0.07-0.04-0.07-0.03-0.07-0.04-0.07-0.03-0.07-0.04-0.07-0.03-0.07-0.04-0.07-0.03-0.07-0.03-0.08-0.04-0.07-0.03-0.07-0.03-0.08-0.03-0.07-0.04-0.07-0.03-0.08-0.03-0.07-0.03-0.08-0.03-0.07-62.41-170.97-60.94 177.01zm-131.11-274.02-0.8 1.92-0.78 1.93-0.76 1.94-0.74 1.95-0.72 1.96-0.7 1.96-0.68 1.98-0.67 1.99-0.64 1.99-0.62 2-0.61 2.01-0.58 2.02-0.56 2.03-0.54 2.04-0.52 2.04-0.5 2.06-0.49 2.06-0.45 2.07-0.44 2.08-0.42 2.08-0.39 2.09-0.38 2.1-0.35 2.11-0.33 2.11-0.31 2.13-0.29 2.12-0.26 2.14-0.24 2.14-0.22 2.15-0.2 2.16-0.17 2.16-0.16 2.17-0.12 2.17-0.11 2.19-0.08 2.18-0.06 2.2-0.04 2.2-0.01 2.2 0.09 6.01 0.26 5.96 0.43 5.92 0.6 5.87 0.76 5.82 0.93 5.76 1.09 5.71 1.24 5.66 1.4 5.59 1.56 5.53 1.71 5.47 1.85 5.39 2 5.33 2.15 5.26 2.28 5.18 2.43 5.11 2.56 5.02 2.7 4.95 2.83 4.86 2.96 4.77 3.08 4.68 3.21 4.6 3.33 4.49 3.45 4.41 3.57 4.3 3.68 4.2 3.8 4.1 3.91 3.99 4.01 3.89 4.12 3.77 4.22 3.66 4.32 3.55 4.42 3.43 4.52 3.3 4.61 3.19 4.7 3.06 4.79 2.93 4.87 2.8 4.96 2.67 5.04 2.53-96.85-265.36-0.84 1.9zm365.39-17.61 0.12 0.98 0.07 0.5 0.05 0.49 0.12 1 0.05 0.5 0.06 0.5 0.05 0.5 0.1 1.02 0.04 0.51 0.05 0.51 0.04 0.51 0.08 1.04 0.04 0.51 0.04 0.53 0.06 1.04 0.04 0.53 0.03 0.53 0.02 0.53 0.03 0.53 0.02 0.53 0.03 0.54 0.04 1.08 0.01 0.54 0.02 0.54 0.01 0.55 0.02 0.55 0.01 0.55v0.55l0.01 0.55 0.01 0.56v1.12l-0.01 1.04-0.03 1.09-0.05 1.13-0.07 1.17-0.08 1.21-0.11 1.24-0.12 1.29-0.15 1.32-0.16 1.37-0.19 1.4-0.2 1.45-0.22 1.48-0.24 1.52-0.26 1.56-0.28 1.6-0.3 1.64-0.32 1.68-0.34 1.72-0.36 1.76-0.38 1.8-0.39 1.84-0.42 1.88-0.43 1.91-0.46 1.96-0.47 1.99-0.49 2.04-0.51 2.07-0.54 2.12-0.55 2.15-0.57 2.19-0.59 2.23-0.6 2.27-0.63 2.31-0.65 2.35-0.67 2.39-0.68 2.43-0.71 2.47-0.72 2.51-0.75 2.55-0.76 2.58-62.01 179.29 4.49-2.69 4.41-2.81 4.34-2.91 4.25-3.02 4.18-3.13 4.08-3.23 4.01-3.34 3.91-3.43 3.83-3.53 3.73-3.63 3.64-3.72 3.55-3.81 3.44-3.91 3.35-3.99 3.25-4.07 3.14-4.16 3.04-4.25 2.93-4.32 2.82-4.4 2.71-4.48 2.59-4.56 2.48-4.62 2.37-4.7 2.24-4.76 2.13-4.83 2-4.9 1.88-4.96 1.75-5.02 1.62-5.08 1.49-5.14 1.36-5.19 1.22-5.24 1.08-5.3 0.95-5.35 0.81-5.39 0.66-5.44 0.53-5.48 0.37-5.52 0.23-5.56 0.07-5.6-0.02-2.65-0.05-2.64-0.08-2.62-0.12-2.62-0.15-2.61-0.18-2.6-0.22-2.6-0.24-2.58-0.28-2.57-0.31-2.57-0.35-2.55-0.37-2.54-0.41-2.53-0.44-2.53-0.47-2.51-0.5-2.5-0.53-2.49-0.56-2.48-0.59-2.46-0.62-2.46-0.65-2.44-0.68-2.43-0.71-2.42-0.73-2.4-0.77-2.4-0.8-2.38-0.82-2.36-0.85-2.36-0.88-2.34-0.91-2.32-0.94-2.31-0.96-2.3-0.99-2.29-1.02-2.26-1.04-2.26-1.08-2.24-1.09-2.22-1.13-2.21-1.15-2.2-1.17-2.17 0.06 0.48zm-188.85-106.33-5.24 0.33-5.19 0.47-5.16 0.6-5.12 0.73-5.08 0.85-5.03 0.98-4.99 1.1-4.94 1.22-4.89 1.34-4.84 1.46-4.8 1.58-4.73 1.69-4.69 1.8-4.62 1.92-4.57 2.03-4.51 2.13-4.44 2.25-4.39 2.34-4.32 2.45-4.25 2.55-4.18 2.66-4.11 2.75-4.05 2.84-3.97 2.95-3.89 3.03-3.82 3.13-3.74 3.22-3.66 3.3-3.58 3.39-3.49 3.48-3.41 3.56-3.33 3.65-3.23 3.72-3.15 3.8-3.06 3.88-2.96 3.95-2.87 4.03-2.77 4.1 0.36 0.01 0.35 0.01 0.36 0.01 1.75 0.05h0.35l0.34 0.01 0.35 0.01 1.02 0.03h0.34l0.34 0.01 0.33 0.01h0.33l0.34 0.01 0.33 0.01h0.32l0.33 0.01 0.32 0.01h0.32l0.32 0.01h0.32l0.32 0.01h0.62l0.31 0.01h0.62l0.3 0.01h3.67l1.66-0.01 1.69-0.03 1.72-0.03 1.75-0.04 1.77-0.04 1.79-0.06 1.8-0.06 1.81-0.06 1.82-0.07 5.46-0.24 1.8-0.09 1.79-0.09 1.76-0.09 1.75-0.09 1.72-0.1 1.68-0.1 1.65-0.09 1.61-0.1 1.57-0.1 1.52-0.09 1.47-0.1 1.4-0.09 1.35-0.09 1.29-0.09 1.21-0.08 1.14-0.08 1.07-0.08 0.98-0.07 0.9-0.06 0.81-0.06 0.71-0.05 0.61-0.05 0.52-0.04 0.4-0.03 0.3-0.02 0.18-0.02h0.06l0.8-0.02 0.76 0.05 0.73 0.1 0.69 0.16 0.65 0.2 0.62 0.25 0.58 0.3 0.54 0.34 0.51 0.38 0.46 0.42 0.43 0.45 0.39 0.47 0.35 0.51 0.31 0.53 0.27 0.55 0.23 0.57 0.19 0.58 0.16 0.6 0.11 0.61 0.07 0.61 0.02 0.62-0.01 0.61-0.05 0.62-0.1 0.61-0.13 0.6-0.18 0.59-0.23 0.57-0.26 0.56-0.31 0.54-0.35 0.52-0.4 0.49-0.43 0.46-0.49 0.43-0.52 0.39-0.58 0.36-0.61 0.31-0.66 0.28-0.71 0.22-0.75 0.18-0.8 0.13h-0.08l-0.1 0.02-0.14 0.01-0.18 0.02-0.21 0.03-0.25 0.02-0.28 0.03-0.32 0.04-0.35 0.03-0.39 0.05-0.41 0.04-0.45 0.04-0.47 0.05-0.5 0.05-0.53 0.06-0.56 0.05-0.58 0.06-0.61 0.06-0.63 0.06-0.65 0.06-0.68 0.06-0.69 0.06-0.72 0.06-0.74 0.07-0.75 0.06-0.78 0.07-0.78 0.06-0.81 0.07-0.82 0.06-0.83 0.06-0.85 0.07-1.72 0.12-0.88 0.06-0.89 0.06-0.9 0.05-0.9 0.06-0.91 0.05-0.92 0.05 73.96 219.91 44.42-133.23-31.61-86.68-0.82-0.05-0.81-0.05-0.82-0.06-0.8-0.05-0.81-0.06-1.58-0.12-0.78-0.06-0.77-0.07-0.76-0.06-0.74-0.06-0.74-0.07-0.72-0.06-0.71-0.07-0.69-0.06-0.68-0.07-0.66-0.06-0.64-0.06-0.63-0.06-0.6-0.06-0.59-0.06-0.56-0.06-0.54-0.06-0.52-0.05-0.49-0.06-0.47-0.05-0.44-0.05-0.41-0.04-0.39-0.04-0.36-0.05-0.33-0.03-0.29-0.04-0.27-0.03-0.23-0.02-0.2-0.03-0.17-0.02-0.13-0.01-0.09-0.02h-0.08l-0.8-0.08-0.75-0.14-0.7-0.18-0.66-0.24-0.62-0.29-0.57-0.33-0.53-0.38-0.48-0.41-0.44-0.44-0.39-0.48-0.35-0.51-0.31-0.54-0.27-0.55-0.22-0.58-0.18-0.59-0.14-0.61-0.1-0.61-0.05-0.63-0.02-0.62 0.03-0.63 0.07-0.63 0.11-0.62 0.15-0.61 0.19-0.6 0.23-0.59 0.27-0.56 0.31-0.55 0.35-0.52 0.39-0.49 0.42-0.47 0.47-0.43 0.5-0.39 0.54-0.36 0.59-0.31 0.61-0.26 0.66-0.22 0.69-0.16 0.73-0.11 0.77-0.05 0.8 0.02h0.06l0.19 0.02 0.3 0.02 0.41 0.03 0.52 0.04 0.62 0.05 0.73 0.05 0.81 0.06 0.91 0.06 1 0.07 1.07 0.08 1.16 0.08 1.22 0.08 1.3 0.09 1.35 0.09 1.42 0.09 1.47 0.1 1.53 0.09 1.57 0.1 1.61 0.1 1.65 0.09 1.68 0.1 1.71 0.1 1.73 0.09 1.76 0.09 1.77 0.09 1.78 0.09 1.79 0.08 1.78 0.08 1.79 0.08 1.78 0.07 1.77 0.06 1.75 0.06 1.74 0.06 1.71 0.04 1.68 0.04 1.65 0.03 1.61 0.03 1.56 0.01h3.14l1.65-0.01 1.69-0.03 1.72-0.03 1.75-0.04 1.76-0.04 1.79-0.06 3.62-0.12 1.82-0.07 3.64-0.16 1.81-0.08 1.8-0.09 1.79-0.09 1.77-0.09 1.74-0.09 1.72-0.1 1.69-0.1 1.65-0.09 1.61-0.1 1.57-0.1 1.52-0.09 1.46-0.1 1.41-0.09 1.35-0.09 1.29-0.09 1.21-0.08 1.15-0.08 1.06-0.08 0.98-0.07 0.9-0.06 0.81-0.06 0.71-0.05 0.62-0.05 0.51-0.04 0.41-0.03 0.29-0.02 0.18-0.02h0.06l0.8-0.02 0.77 0.05 0.72 0.1 0.7 0.16 0.65 0.2 0.62 0.25 0.57 0.3 0.55 0.34 0.5 0.38 0.46 0.42 0.43 0.45 0.39 0.47 0.35 0.51 0.31 0.53 0.27 0.55 0.23 0.57 0.19 0.58 0.15 0.6 0.11 0.61 0.07 0.61 0.02 0.62-0.01 0.61-0.06 0.62-0.09 0.61-0.14 0.6-0.18 0.59-0.22 0.57-0.27 0.56-0.31 0.54-0.35 0.52-0.4 0.49-0.44 0.46-0.48 0.43-0.53 0.39-0.57 0.36-0.61 0.31-0.67 0.28-0.7 0.22-0.75 0.18-0.8 0.13h-0.08l-0.1 0.02-0.14 0.01-0.18 0.02-0.21 0.03-0.25 0.02-0.28 0.03-0.32 0.04-0.35 0.03-0.38 0.05-0.41 0.04-0.45 0.04-0.47 0.05-0.5 0.05-0.53 0.06-0.56 0.05-0.58 0.06-0.6 0.06-0.63 0.06-0.66 0.06-0.67 0.06-0.7 0.06-0.71 0.06-0.74 0.07-0.75 0.06-0.77 0.07-0.79 0.06-0.81 0.07-0.82 0.06-0.83 0.06-0.84 0.07-0.86 0.06-0.87 0.06-0.88 0.06-0.89 0.06-0.89 0.05-0.91 0.06-1.82 0.1 73.38 218.23 20.26-67.64 0.76-1.97 0.74-1.95 0.73-1.94 0.7-1.92 0.69-1.91 0.66-1.88 0.65-1.87 0.63-1.86 0.6-1.83 0.59-1.82 0.57-1.8 0.55-1.79 0.53-1.76 0.52-1.75 0.49-1.74 0.47-1.71 0.46-1.7 0.43-1.69 0.42-1.66 0.39-1.65 0.38-1.64 0.36-1.61 0.34-1.6 0.32-1.58 0.29-1.57 0.29-1.54 0.26-1.53 0.24-1.52 0.22-1.5 0.2-1.48 0.19-1.46 0.16-1.45 0.15-1.43 0.12-1.41 0.11-1.4 0.09-1.38 0.07-1.36 0.04-1.35 0.03-1.33 0.01-1.31-0.01-1.87-0.05-1.84-0.08-1.81-0.12-1.78-0.14-1.76-0.17-1.73-0.2-1.7-0.23-1.67-0.25-1.65-0.28-1.63-0.3-1.6-0.33-1.57-0.35-1.55-0.37-1.52-0.39-1.5-0.4-1.48-0.43-1.46-0.45-1.43-0.46-1.41-0.47-1.38-0.49-1.37-0.51-1.34-0.52-1.32-0.52-1.31-0.54-1.28-0.55-1.26-0.56-1.24-0.56-1.23-0.57-1.2-0.58-1.19-0.58-1.16-0.59-1.15-0.59-1.14-0.59-1.11-0.59-1.1-0.59-1.08-0.59-1.07-0.59-1.05-0.58-1.04-0.58-1.02-0.77-1.25-0.77-1.24-0.76-1.23-0.76-1.22-0.75-1.22-0.74-1.2-0.74-1.21-0.73-1.19-0.72-1.19-0.71-1.18-0.7-1.18-0.69-1.18-0.67-1.17-0.66-1.17-0.65-1.16-0.63-1.17-0.62-1.16-0.6-1.16-0.58-1.16-0.57-1.15-0.54-1.16-0.53-1.16-0.5-1.16-0.48-1.16-0.46-1.17-0.44-1.16-0.41-1.17-0.38-1.17-0.36-1.18-0.34-1.18-0.3-1.19-0.28-1.19-0.25-1.19-0.21-1.21-0.19-1.21-0.16-1.22-0.12-1.22-0.08-1.23-0.06-1.25-0.02-1.25 0.03-1.39 0.08-1.39 0.13-1.39 0.18-1.37 0.23-1.36 0.28-1.35 0.33-1.34 0.37-1.32 0.42-1.3 0.47-1.29 0.52-1.26 0.55-1.24 0.6-1.23 0.65-1.19 0.68-1.17 0.73-1.15 0.77-1.11 0.81-1.08 0.85-1.05 0.88-1.02 0.92-0.99 0.96-0.94 1-0.91 1.03-0.87 1.06-0.83 1.1-0.78 1.14-0.75 1.16-0.69 1.19-0.65 1.23-0.6 1.25-0.55 1.29-0.5 1.31-0.45 1.34-0.39 1.37-0.33 1.39-0.28 1.42-0.22 1.44-0.16 1.46-0.09 1.49-0.04h0.07l0.06 0.01h0.33l0.06 0.01h0.13l0.07 0.01h0.13l0.06 0.01h0.07l0.06 0.01h0.13l0.07 0.01h0.07l0.06 0.01 0.07 0.01h0.06l0.07 0.01h0.06l0.07 0.01h0.06l0.07 0.01 0.06 0.01 0.13 0.01h0.07l0.06 0.01h0.07l0.06 0.01 0.07 0.01h0.06l0.07 0.01h0.06l0.07 0.01-2.73-2.46-2.78-2.41-2.82-2.36-2.86-2.31-2.9-2.26-2.95-2.21-2.98-2.15-3.03-2.1-3.07-2.05-3.1-1.99-3.15-1.94-3.18-1.88-3.22-1.83-3.25-1.77-3.29-1.71-3.33-1.65-3.35-1.59-3.4-1.53-3.42-1.47-3.46-1.41-3.49-1.35-3.52-1.29-3.55-1.22-3.58-1.16-3.6-1.09-3.64-1.03-3.66-0.96-3.69-0.89-3.72-0.83-3.74-0.76-3.76-0.68-3.79-0.62-3.81-0.55-3.84-0.48-3.85-0.41-3.88-0.33-3.9-0.26-3.92-0.19-3.94-0.11-3.95-0.04-5.3 0.07z"/><path id="b" d="m239.06 63c20.27 0 36.71 18.01 36.71 40.22 0 0.84-0.02 1.67-0.07 2.49 14.64 3.38 25.41 14.69 25.41 28.13 0 16.1-15.46 29.16-34.53 29.16h-86.61c-19.07 0-34.53-13.06-34.53-29.16 0-14.04 11.75-25.76 27.39-28.53 1.41-15.22 13.13-27.1 27.4-27.1 3.13 0 6.14 0.57 8.95 1.63 6.66-10.2 17.56-16.84 29.88-16.84z"/><path id="c" d="m301.44 270.38c0 2.75-2.24 5-5 5s-5-2.25-5-5c0-2.76 2.24-5 5-5s5 2.24 5 5z"/><path id="e" d="m232.44 121c0 2.76-2.24 5-5 5s-5-2.24-5-5 2.24-5 5-5 5 2.24 5 5z"/><path id="f" d="m519.25 22.38v-0.13l0.02-0.26 0.02-0.12 0.03-0.12 0.03-0.13 0.03-0.11 0.04-0.12 0.05-0.12 0.1-0.22 0.12-0.22 0.21-0.3 0.08-0.1 0.09-0.09 0.08-0.09 0.09-0.08 0.1-0.09 0.09-0.08 0.1-0.07 0.11-0.08 0.1-0.07 0.22-0.12 0.12-0.06 0.36-0.15 0.13-0.04 0.12-0.04 0.26-0.06 0.14-0.02 0.13-0.02 0.28-0.02h13.82l0.13 0.01 0.14 0.01 0.14 0.02 0.13 0.02 0.26 0.06 0.13 0.04 0.12 0.04 0.36 0.15 0.12 0.06 0.22 0.12 0.11 0.07 0.1 0.08 0.1 0.07 0.1 0.08 0.09 0.09 0.09 0.08 0.09 0.09 0.08 0.09 0.08 0.1 0.21 0.3 0.18 0.33 0.04 0.11 0.05 0.12 0.04 0.12 0.03 0.11 0.03 0.13 0.03 0.12 0.02 0.12 0.02 0.26v32.94l13.54 14.06h-13.54v43.75h-30.14v-30.64l-0.01-0.13-0.01-0.14-0.02-0.14-0.06-0.26-0.04-0.13-0.04-0.12-0.04-0.13-0.05-0.12-0.12-0.24-0.06-0.11-0.07-0.11-0.08-0.11-0.07-0.11-0.08-0.1-0.18-0.2-0.09-0.09-0.2-0.18-0.1-0.08-0.11-0.08-0.11-0.07-0.11-0.08-0.48-0.24-0.13-0.04-0.13-0.05-0.13-0.04-0.13-0.03-0.28-0.06-0.14-0.02-0.28-0.02h-14.26l-0.15 0.01-0.14 0.01-0.14 0.02-0.13 0.03-0.14 0.03-0.13 0.03-0.14 0.04-0.12 0.05-0.13 0.04-0.12 0.06-0.13 0.06-0.12 0.06-0.11 0.06-0.11 0.08-0.11 0.07-0.11 0.08-0.1 0.08-0.2 0.18-0.09 0.09-0.18 0.2-0.08 0.1-0.08 0.11-0.21 0.33-0.06 0.12-0.1 0.24-0.05 0.13-0.04 0.12-0.09 0.39-0.02 0.14-0.01 0.14-0.01 0.13-0.01 0.14v30.35l0.01 0.14v0.01h-30.15v-43.75h-13.54l54.17-56.25 20.31 21.09z"/><path id="g" d="m503.94 63c0 2.76-2.24 5-5 5s-5-2.24-5-5 2.24-5 5-5 5 2.24 5 5z"/><path id="h" d="m503.94 149.94c0 2.76-2.24 5-5 5s-5-2.24-5-5 2.24-5 5-5 5 2.24 5 5z"/><path id="i" d="M 498.94,149.94 V 63"/><path id="j" d="m31.9 665v-130h132v130zm16.5-16.25 24.75-24.37 16.5 8.12 24.75-32.5 33 43.33v-92.08h-99zm30.06-79.17 0.58 0.06 0.58 0.08 0.57 0.1 0.56 0.12 0.55 0.15 0.54 0.17 0.53 0.18 0.53 0.21 0.51 0.22 0.5 0.25 0.49 0.26 0.48 0.28 0.47 0.3 0.45 0.31 0.44 0.34 0.43 0.34 0.42 0.37 0.4 0.38 0.38 0.39 0.37 0.41 0.35 0.42 0.34 0.43 0.32 0.45 0.3 0.46 0.29 0.47 0.26 0.49 0.25 0.49 0.23 0.51 0.21 0.51 0.19 0.53 0.17 0.53 0.14 0.54 0.13 0.55 0.11 0.56 0.08 0.57 0.06 0.57 0.03 0.58 0.01 0.59-0.01 0.59-0.03 0.58-0.06 0.57-0.08 0.57-0.11 0.56-0.13 0.55-0.14 0.54-0.17 0.53-0.19 0.53-0.21 0.51-0.23 0.51-0.25 0.49-0.26 0.49-0.29 0.47-0.3 0.46-0.32 0.45-0.34 0.43-0.35 0.42-0.37 0.41-0.38 0.39-0.4 0.38-0.42 0.37-0.43 0.34-0.44 0.34-0.45 0.31-0.47 0.3-0.48 0.28-0.49 0.26-0.5 0.25-0.51 0.22-0.53 0.21-0.53 0.18-0.54 0.17-0.55 0.15-0.56 0.12-0.57 0.1-0.58 0.08-0.58 0.06-0.59 0.04-0.59 0.01-0.6-0.01-0.59-0.04-0.58-0.06-0.57-0.08-0.57-0.1-0.56-0.12-0.55-0.15-0.55-0.17-0.53-0.18-0.52-0.21-0.52-0.22-0.5-0.25-0.49-0.26-0.48-0.28-0.47-0.3-0.45-0.31-0.44-0.34-0.43-0.34-0.41-0.37-0.4-0.38-0.39-0.39-0.37-0.41-0.35-0.42-0.33-0.43-0.32-0.45-0.31-0.46-0.28-0.47-0.27-0.49-0.25-0.49-0.23-0.51-0.21-0.51-0.18-0.53-0.17-0.53-0.15-0.54-0.13-0.55-0.1-0.56-0.08-0.57-0.06-0.57-0.04-0.58-0.01-0.59 0.01-0.59 0.04-0.58 0.06-0.57 0.08-0.57 0.1-0.56 0.13-0.55 0.15-0.54 0.17-0.53 0.18-0.53 0.21-0.51 0.23-0.51 0.25-0.49 0.27-0.49 0.28-0.47 0.31-0.46 0.32-0.45 0.33-0.43 0.35-0.42 0.37-0.41 0.39-0.39 0.4-0.38 0.41-0.37 0.43-0.34 0.44-0.34 0.45-0.31 0.47-0.3 0.48-0.28 0.49-0.26 0.5-0.25 0.52-0.22 0.52-0.21 0.53-0.18 0.55-0.17 0.55-0.15 0.56-0.12 0.57-0.1 0.57-0.08 0.58-0.06 0.59-0.04 0.6-0.01 0.59 0.01z"/><path id="k" d="m103.4 595c0 2.76-2.24 5-5 5s-5-2.24-5-5 2.24-5 5-5 5 2.24 5 5z"/><path id="l" d="m420.18 595c0 2.76-2.24 5-5 5s-5-2.24-5-5 2.24-5 5-5 5 2.24 5 5z"/><path id="n" d="m46.99 330.01 0.32 0.04 0.3 0.06 0.15 0.04 0.14 0.04 0.26 0.1 0.13 0.06 0.13 0.07 0.12 0.07 0.11 0.07 0.12 0.08 0.11 0.08 0.11 0.09 0.1 0.09 0.3 0.3 0.27 0.33 0.09 0.12 0.16 0.24 0.09 0.13 0.08 0.13 0.07 0.13 0.16 0.28 0.07 0.14 0.08 0.14 0.07 0.15 0.07 0.14 0.08 0.15 0.07 0.15 0.07 0.16 0.07 0.15 2.24 5.93h75.19l0.16 0.01 0.15 0.02 0.16 0.02 0.3 0.08 0.14 0.04 0.15 0.06 0.28 0.12 0.14 0.07 0.26 0.16 0.13 0.09 0.36 0.3 0.12 0.11 0.11 0.12 0.2 0.24 0.1 0.13 0.1 0.14 0.09 0.14 0.16 0.28 0.08 0.15 0.07 0.16 0.06 0.15 0.07 0.17 0.05 0.16 0.1 0.34 0.04 0.17 0.03 0.17 0.03 0.18 0.04 0.36v0.19l0.01 0.18v81.3l-0.01 0.19v0.18l-0.02 0.19-0.02 0.18-0.03 0.17-0.03 0.18-0.04 0.17-0.1 0.34-0.05 0.16-0.07 0.16-0.06 0.16-0.07 0.15-0.16 0.3-0.08 0.14-0.09 0.14-0.3 0.39-0.1 0.12-0.11 0.11-0.24 0.22-0.12 0.1-0.12 0.09-0.26 0.18-0.13 0.07-0.28 0.14-0.14 0.06-0.15 0.05-0.14 0.05-0.15 0.04-0.15 0.03-0.16 0.03-0.15 0.02-0.16 0.01h-115.63l-0.15-0.01-0.16-0.02-0.3-0.06-0.15-0.04-0.15-0.05-0.14-0.05-0.14-0.06-0.28-0.14-0.13-0.07-0.39-0.27-0.12-0.1-0.12-0.11-0.22-0.22-0.11-0.12-0.2-0.26-0.09-0.13-0.18-0.28-0.08-0.15-0.14-0.3-0.07-0.16-0.12-0.32-0.05-0.17-0.08-0.34-0.03-0.18-0.03-0.17-0.02-0.18-0.02-0.19-0.01-0.18v-81.67l0.01-0.19 0.04-0.36 0.03-0.18 0.03-0.17 0.08-0.34 0.05-0.17 0.06-0.16 0.06-0.17 0.07-0.15 0.07-0.16 0.07-0.15 0.08-0.14 0.27-0.42 0.1-0.13 0.1-0.12 0.22-0.24 0.11-0.11 0.24-0.2 0.13-0.1 0.13-0.09 0.26-0.16 0.14-0.07 0.42-0.18 0.45-0.12 0.15-0.02 0.16-0.02 0.15-0.01h2.01l2.24-5.93 0.05-0.15 0.06-0.16 0.05-0.15 0.06-0.15 0.06-0.14 0.07-0.15 0.06-0.14 0.21-0.42 0.08-0.13 0.07-0.13 0.09-0.13 0.08-0.12 0.09-0.12 0.08-0.12 0.1-0.11 0.09-0.11 0.1-0.11 0.2-0.2 0.11-0.1 0.11-0.09 0.12-0.09 0.11-0.08 0.12-0.08 0.13-0.07 0.12-0.07 0.13-0.07 0.14-0.06 0.28-0.1 0.15-0.04 0.14-0.04 0.32-0.06 0.32-0.04 0.17-0.01h25.81z"/><path id="o" d="m76.68 385c0 2.76-2.24 5-5 5s-5-2.24-5-5 2.24-5 5-5 5 2.24 5 5z"/><path id="p" d="m273.96 385c0 2.76-2.24 5-5 5s-5-2.24-5-5 2.24-5 5-5 5 2.24 5 5z"/><path id="q" d="m270.05 385h-198.37"/></defs><use width="100%" height="100%" fill-opacity="0" transform="translate(-94.495 -11.558)" xlink:href="#b"/><g transform="translate(-94.495 -11.558)"><use width="100%" height="100%" fill-opacity="0" stroke="#0273d4" class="wp-line" xlink:href="#a"/></g><g transform="translate(-94.495 -11.558)"><g><use width="100%" height="100%" fill="#008c3a" xlink:href="#h"/></g><g><use width="100%" height="100%" fill-opacity="0" stroke="#008c3a" class="green-line" xlink:href="#i"/></g><g><use width="100%" height="100%" fill="#008c3a" xlink:href="#g"/></g><use width="100%" height="100%" fill-opacity="0" stroke="#008c3a" stroke-width="2" xlink:href="#f"/></g><g transform="translate(-94.495 -11.558)"><g><use width="100%" height="100%" fill="#600060" stroke-width=".864" transform="translate(-13.608 31.42)" xlink:href="#c"/></g><g><path fill="none" stroke="#600060" stroke-linejoin="round" stroke-width="1" d="m283.31 301.97-120.54-0.58249 0.57669-54.171"/></g><g><use width="100%" height="100%" fill="#600060" transform="translate(-64,126)" xlink:href="#e"/></g><use width="100%" height="100%" fill-opacity="0" stroke="#600060" stroke-width="1.104" transform="matrix(.82918 0 0 .98908 -23.238 125.86)" xlink:href="#b"/></g><g transform="translate(-94.495 -11.558)"><g><use width="100%" height="100%" fill="#f4b400" transform="translate(1.1848)" xlink:href="#p"/></g><g><g stroke-width="1.37" transform="matrix(.54882 0 0 .97058 120.34 11.327)"><use width="100%" height="100%" fill-opacity="0" stroke="#f4b400" stroke-width="1.37" class="yellow-line" xlink:href="#q"/></g></g><g><use width="100%" height="100%" fill="#f4b400" transform="translate(88)" xlink:href="#o"/></g><use width="100%" height="100%" fill-opacity="0" stroke="#f4b400" stroke-width=".981" transform="matrix(1.0487 0 0 .99 85.561 4.3)" xlink:href="#n"/></g><g transform="translate(-94.495 -11.558)"><g><use width="100%" height="100%" fill="#ff3102" stroke-width=".801" transform="translate(65.23 -73.244)" xlink:href="#k"/></g><g><path fill="none" stroke="#ff3102" stroke-linejoin="round" stroke-width="1" d="m164.16 521.99 0.10327-63.327 119.74 0.58248"/></g><g><use width="100%" height="100%" fill="#ff3102" stroke-width=".791" transform="translate(-131.36 -135.9)" xlink:href="#l"/></g><use width="100%" height="100%" fill-opacity="0" stroke="#ff3102" stroke-width="1.159" transform="matrix(.97645 0 0 .76224 64.682 66.182)" xlink:href="#j"/></g></svg>