<svg xmlns="http://www.w3.org/2000/svg" width="512.077" height="512.095" class="lp-square-logo"><defs><clipPath id="a"><path d="M16.149 185.08C-8.747 116.678 26.52 41.04 94.922 16.15c68.401-24.896 144.03 10.371 168.93 78.773 24.897 68.401-10.371 144.03-78.772 168.93-14.884 5.417-30.098 7.986-45.069 7.985-53.833-.005-104.38-33.24-123.86-86.757"/></clipPath></defs><g transform="matrix(1.9406 0 0 -1.9406 -528.167 530.012)"><circle cx="404.16" cy="-141.11" r="131.62" fill="none" stroke="#600062" stroke-linejoin="round" stroke-width=".515" transform="scale(1 -1)"/><g stroke="#600060" stroke-width=".687" clip-path="url(#a)" transform="translate(264 1.277)"><path fill="#600060" stroke-width=".687" d="M139.761 271.838c-53.743-.103-104.16-33.32-123.607-86.76-23.772-65.31 7.31-137.205 69.708-165.248C33.835 51.986 9.685 117.233 31.43 176.97c24.897 68.401 100.53 103.673 168.93 78.773a133.626 133.626 0 009.065-3.686 132.398 132.398 0 01-24.341 11.79c-14.964 5.446-30.272 8.013-45.32 7.984z"/></g></g><g fill="#600060" stroke-width=".687"><path d="M448.783 244.612c5.677 5.979 12.445 13.365 12.345 20.085-.148 9.995-10.48 21.143-17.266 28.667-10.835 12.015-22.688 23.204-34.122 34.638-27.314 27.314-54.368 54.917-81.968 81.941-10.15 9.935-21.93 22.25-35.81 26.87-7.88 2.624-13.672.287-20.23-4.917-7.539-5.983-14.15-13.594-20.932-20.376L79.037 239.757c-10.21-10.21-26.093 5.641-15.867 15.867l171.763 171.764c7.579 7.579 14.946 15.734 23.416 22.34 23.437 18.274 47.013 8.718 68.067-8.343 14.601-11.829 27.584-25.91 40.86-39.186l54.739-54.738c14.971-14.972 31.178-29.595 44.475-46.103 8.95-11.11 17.984-24.17 16.962-39.144-.917-13.434-9.924-24.119-18.802-33.466-9.95-10.477-25.811 5.394-15.867 15.866"/><path d="M265.554 318.951c37.031-37.03 52.905-53.498 89.823-90.641 29.425-29.604 31.786-75.62 2.24-106.2-22.268-23.047-45.69-53.19-79.475-57.22-22.702-2.71-44.845 5.536-61.155 21.339-35.998 35.606-83.615 83.981-121.168 120.096-8.695 9.304 6.928 25.031 15.987 15.988 9.062-9.041 56.101-55.269 74.187-73.355 16.744-16.744 32.732-35.695 51.068-50.747 17.555-14.41 43.985-15.321 62.338-1.87 10.404 7.625 19.187 18.466 28.257 27.536 10.388 10.388 22.196 20.099 26.706 34.629 5.801 18.687.376 38.302-13.104 52.19-39.272 40.331-86.198 85.673-120.792 120.268-10.21 10.21 5.902 26.354 16.128 16.128"/></g></svg>