<svg xmlns="http://www.w3.org/2000/svg" xmlns:xlink="http://www.w3.org/1999/xlink" width="640" height="640"><defs><path id="a" d="M375.22 83.06c78.14 0 141.49 80.72 141.49 180.3 0 3.75-.08 7.5-.28 11.18 56.44 15.14 97.94 65.86 97.94 126.1 0 72.19-59.58 130.72-133.08 130.72H147.46c-73.49 0-133.09-58.53-133.09-130.72 0-62.94 45.29-115.48 105.59-127.9 5.41-68.25 50.61-121.51 105.58-121.51 12.09 0 23.67 2.58 34.5 7.31 25.69-45.69 67.7-75.48 115.18-75.48z"/><path id="b" d="M258.9 293.59l-89.29 71.91 89.29 71.9v-46.74h122.2v46.74l89.3-71.9-89.3-71.91v46.74H258.9v-46.74z"/></defs><use fill-opacity="0" stroke="#600060" stroke-width="8" xlink:href="#a"/><use fill-opacity="0" stroke="#600060" stroke-width="7" xlink:href="#b"/></svg>