<svg xmlns="http://www.w3.org/2000/svg" xmlns:xlink="http://www.w3.org/1999/xlink" width="640" height="640"><defs><path id="a" d="M316.5 205.2l-.69-149.83 21.17 1.41 64.88 9.81-45.46 149.2-39.21 139.23-.69-149.82z"/><path id="b" d="M600.88 337.87c0 156.98-127.45 284.43-284.44 284.43S32 494.85 32 337.87C32 180.88 159.45 53.43 316.44 53.43s284.44 127.45 284.44 284.44z"/><path id="c" d="M316.44 52.43v-24"/><path id="d" d="M80.8 139.84l43.02-37.68 3.12 2.58-43.02 37.68-3.12-2.58z"/><path id="e" d="M116.37 134.29l-4.79-5-6.71-7"/><path id="f" d="M331.44 339c0 8.28-6.72 15-15 15-8.28 0-15-6.72-15-15 0-8.28 6.72-15 15-15 8.28 0 15 6.72 15 15z"/><path id="g" d="M316.44 107.93V75.69"/><path id="h" d="M316.44 598.87v-33.18"/><path id="i" d="M93.98 339H57.16"/><path id="j" d="M572.89 339h-36.82"/><path id="k" d="M279.9 24.43h73.08v4H279.9v-4z"/><path id="l" d="M325.19 324.67l-.19 1.61L396.21 84"/></defs><use fill="#600060" opacity=".39" xlink:href="#a"/><use fill-opacity="0" stroke="#600060" stroke-width="10" xlink:href="#b"/><use fill-opacity="0" stroke="#600060" stroke-width="16" xlink:href="#c"/><use fill="#600060" xlink:href="#d"/><use fill-opacity="0" stroke="#600060" stroke-width="11" xlink:href="#d"/><use fill-opacity="0" stroke="#600060" stroke-width="17" xlink:href="#e"/><use fill="#f5f5f5" xlink:href="#f"/><use fill-opacity="0" stroke="#600060" stroke-width="7" xlink:href="#f"/><use fill-opacity="0" stroke="#600060" stroke-width="6" xlink:href="#g"/><use fill-opacity="0" stroke="#600060" stroke-width="6" xlink:href="#h"/><use fill-opacity="0" stroke="#600060" stroke-width="6" xlink:href="#i"/><use fill-opacity="0" stroke="#600060" stroke-width="6" xlink:href="#j"/><g><use fill="#600060" xlink:href="#k"/><use fill-opacity="0" stroke="#600060" stroke-width="8" xlink:href="#k"/></g><g><use fill="#a434b7" xlink:href="#l"/><use fill-opacity="0" stroke="#600060" stroke-width="6" xlink:href="#l"/></g></svg>