<svg xmlns="http://www.w3.org/2000/svg" xmlns:xlink="http://www.w3.org/1999/xlink" width="640" height="640"><defs><path id="a" d="M371.81 59.87l4.56.63 4.56.88 4.54 1.14 4.53 1.39 4.51 1.64 4.51 1.9 4.49 2.14 4.48 2.4 4.46 2.66 4.46 2.9 4.44 3.16 4.43 3.41 4.41 3.67 4.41 3.91 4.39 4.17 4.38 4.42 4.36 4.68 4.36 4.92 4.34 5.18 4.33 5.43 4.31 5.69 4.31 5.94 4.29 6.19 4.28 6.44 4.26 6.69 4.25 6.95 4.25 7.2 4.22 7.45 4.22 7.71 4.2 7.96 4.19 8.21 4.18 8.46 4.17 8.72 4.15 8.97 4.14 9.22 4.13 9.48 4.12 9.72 4.1 9.98 4 1.32 3.95 1.49 3.89 1.64 3.84 1.81 3.77 1.96 3.71 2.11 3.64 2.25 3.58 2.4 3.5 2.55 3.43 2.67 3.36 2.81 3.27 2.94 3.2 3.07 3.11 3.19 3.03 3.3 2.93 3.42 2.85 3.53 2.75 3.64 2.66 3.75 2.56 3.84 2.46 3.94 2.35 4.03 2.25 4.13 2.14 4.21 2.04 4.29 1.91 4.37 1.81 4.44 1.68 4.52 1.56 4.59 1.44 4.65 1.32 4.71 1.19 4.76 1.05 4.83.93 4.87.79 4.91.65 4.96.51 5 .37 5.04.22 5.06.07 5.1-.1 6.15-.31 6.09-.51 6.01-.7 5.95-.9 5.87-1.08 5.79-1.27 5.7-1.45 5.61-1.62 5.52-1.8 5.41-1.97 5.3-2.13 5.2-2.29 5.08-2.44 4.96-2.6 4.83-2.75 4.71-2.89 4.56-3.03 4.43-3.16 4.29-3.3 4.13-3.43 3.98-3.55 3.82-3.67 3.66-3.78 3.48-3.9 3.32-4.01 3.13-4.11 2.95-4.21 2.76-4.3 2.57-4.4 2.37-4.49 2.17-4.57 1.96-4.65 1.75-4.72 1.53-4.8 1.31-4.87 1.08-4.92.85-4.99.62-5.05.37-5.09.12H143.23l-5.51-.13-5.44-.4-5.38-.67-5.32-.92-5.24-1.16-5.17-1.42-5.08-1.65-5.01-1.89-4.91-2.12-4.82-2.34-4.73-2.56-4.63-2.77-4.52-2.98-4.41-3.18-4.3-3.38-4.18-3.57-4.06-3.76-3.94-3.94-3.8-4.11-3.67-4.28-3.53-4.45-3.39-4.61-3.24-4.76-3.1-4.91-2.93-5.05-2.78-5.19-2.62-5.33-2.44-5.45-2.28-5.57-2.1-5.69-1.92-5.8-1.73-5.91-1.55-6.01-1.35-6.1-1.16-6.19-.96-6.28-.75-6.36-.54-6.43-.33-6.49-.11-6.57.06-4.36.17-4.37.27-4.37.39-4.36.49-4.36.59-4.34.7-4.33.8-4.31.9-4.3 1-4.27 1.09-4.24 1.19-4.22 1.28-4.18 1.37-4.15 1.47-4.12 1.55-4.07 1.64-4.02 1.72-3.99 1.81-3.93 1.88-3.88 1.97-3.82 2.05-3.76 2.12-3.71 2.2-3.64 2.28-3.57 2.34-3.5 2.42-3.42 2.48-3.35 2.56-3.28 2.61-3.18 2.69-3.11 2.74-3.01 2.81-2.92 2.86-2.83 2.92-2.73 2.98-2.63 3.03-2.53 3.09-2.42 3.13-2.31 3.19-2.2v-4.4l.08-4.59.23-4.55.38-4.5.53-4.44.68-4.39.81-4.33.96-4.27 1.09-4.2 1.22-4.13 1.36-4.06 1.48-3.97 1.6-3.9 1.72-3.81 1.84-3.71 1.96-3.63 2.06-3.53 2.17-3.43 2.28-3.32 2.38-3.22 2.48-3.11 2.57-2.99 2.67-2.87 2.76-2.75 2.84-2.62 2.92-2.49 3.01-2.36 3.08-2.22 3.16-2.08 3.23-1.93 3.29-1.79 3.36-1.63 3.42-1.47 3.49-1.32 3.53-1.15 3.59-.99 3.64-.82 3.69-.64 3.73-.46 3.76-.28 3.81-.09h.21l.21.01.21.01.22.01.22.02.22.02.22.02.23.02.23.03.24.03.23.03.24.04.24.03.24.04.25.04.25.04.25.04.25.04.25.04.26.04.25.04.26.04.26.04.26.04.27.04.26.04.27.03.26.04.27.03.27.04.27.03.27.02.27.03.27.02.27.02.27.02.28.01.27.01h.27l.28.01.06.08.07.07.07.08.07.06.07.07.06.06.07.06.07.05.07.05.07.05.07.05.06.04.07.04.07.03.07.04.07.03.07.03.06.02.07.03.07.02.07.02.07.02.07.01.06.02.07.01.07.01.07.01.07.01h.07l.06.01h.07l.07.01h.34l.07.01H190.29l.18.01h.18l.18.01.18.01h.17l.18.01.17.01.17.02.18.01.17.02.17.01.17.02.17.02.17.03.17.02.17.03.18.03.17.04.17.03.18.04.18.04.17.05.18.05.19.05.18.05.19.06.18.06.2.07.19.06.2.08.2.07.2.08.07.01h.07l.08.01.08.01.08.02.08.02.09.02.09.03.09.03.09.03.1.03.1.03.09.04.1.03.1.04.1.04.1.04.11.04.1.04.2.08.11.05.1.04.1.04.1.03.1.04.1.04.1.04.09.03.1.03.09.03.09.03.09.02.09.03.08.02.08.01.08.01.08.01.07.01h.07l.14.08.14.08.15.07.14.07.15.07.16.06.15.06.16.06.16.05.16.05.16.06.17.04.16.05.17.05.17.04.17.04.17.05.17.04.17.04.34.08.17.04.17.05.17.04.17.04.17.05.16.04.17.05.16.05.17.05.16.05.16.05.15.06.16.06.15.06.15.07.15.07.14.07.15.08.13.08H206.51l.09.01h.18l.09.01h.09l.1.01.1.01.1.01.1.01.1.01.1.01.1.02.1.02.11.02.1.02.1.02.1.03.1.03.1.03.1.03.1.04.1.04.1.04.09.04.09.05.1.05.08.06.09.05.09.07.08.06.08.07.07.07.08.08.07.08.2.08.2.08.2.08.19.09.19.08.19.08.18.08.18.09.18.08.18.08.17.08.17.09.17.08.17.08.16.08.17.09.16.08.15.08.16.08.15.09.16.08.15.08.15.08.15.09.14.08.15.08.14.08.15.08.14.09.14.08.14.08.14.08.14.09.14.08.13.08.14.08.14.09.14.08.13.08.14.08.07.01h.07l.06.01.07.01.07.02.07.02.07.02.07.03.06.03.07.02.07.04.07.03.07.04.07.03.06.04.07.04.07.04.07.04.07.04.13.08.07.04.07.05.07.04.07.03.06.04.07.04.07.03.07.04.07.03.07.03.06.03.07.02.07.02.07.02.07.02.07.01.06.01.07.01h.07l2.56-4 2.64-3.91 2.71-3.84 2.78-3.76 2.85-3.67 2.91-3.59 2.98-3.5 3.05-3.42 3.1-3.33 3.17-3.25 3.23-3.15 3.28-3.06 3.34-2.97 3.39-2.88 3.44-2.78 3.5-2.69 3.55-2.59 3.59-2.49 3.64-2.4 3.68-2.29 3.72-2.2 3.77-2.09 3.81-1.99 3.84-1.88 3.88-1.78 3.91-1.68 3.95-1.56 3.98-1.46 4.01-1.34 4.04-1.24 4.06-1.12 4.09-1.01 4.11-.9 4.13-.77 4.15-.67 4.17-.54 4.19-.43 4.2-.3 4.22-.19 4.23-.06 4.59.13 4.58.38zm-19.15 26.07l-3.62.26-3.62.37-3.61.47-3.61.58-3.6.68-3.59.77-3.57.88-3.57.98-3.54 1.07-3.53 1.17-3.51 1.27-3.49 1.36-3.46 1.45-3.43 1.55-3.41 1.64-3.38 1.74-3.35 1.82-3.31 1.91-3.27 2-3.24 2.09-3.2 2.17-3.16 2.27-3.11 2.34-3.07 2.43-3.02 2.51-2.97 2.6-2.92 2.67-2.86 2.76-2.81 2.84-2.76 2.91-2.69 2.99-2.63 3.07-2.57 3.14-2.5 3.22-2.44 3.29-2.36 3.37-2.3 3.43-2.22 3.51 1.49 1.58 1.46 1.62 1.43 1.66 1.4 1.69 1.38 1.73 1.34 1.76 1.31 1.79 1.29 1.83 1.25 1.85 1.22 1.89 1.19 1.92 1.15 1.96 1.12 1.98 1.09 2.01 1.05 2.03 1.02 2.07.98 2.09.94 2.12.91 2.15.88 2.17.83 2.19.8 2.22.76 2.25.71 2.26.68 2.29.64 2.31.6 2.33.56 2.35.51 2.37.48 2.39.43 2.41.39 2.43.34 2.44.3 2.46.26 2.48.21 2.49.16 2.51.12 2.52.07 2.53.02 2.55-.01.49-.02.49-.04.48-.06.48-.07.47-.09.47-.11.46-.11.45-.14.44-.14.44-.16.43-.18.42-.18.41-.2.4-.22.39-.22.38-.23.37-.25.36-.26.35-.27.33-.27.33-.29.31-.3.3-.31.28-.31.27-.33.25-.33.25-.34.22-.35.21-.35.19-.36.18-.37.16-.38.14-.38.13-.38.11-.39.08-.4.07-.4.05-.4.03-.41.01-.41-.01-.4-.03-.4-.05-.4-.07-.39-.08-.39-.11-.38-.13-.37-.14-.37-.16-.36-.18-.36-.19-.34-.21-.34-.22-.34-.25-.32-.25-.32-.27-.3-.28-.3-.3-.29-.31-.28-.33-.27-.33-.25-.35-.25-.36-.23-.37-.23-.38-.21-.39-.2-.4-.19-.41-.17-.42-.16-.43-.15-.44-.13-.44-.12-.45-.1-.46-.09-.47-.07-.47-.06-.48-.04-.48-.03-.49-.01-.49-.02-2.3-.07-2.29-.12-2.27-.16-2.26-.21-2.24-.26-2.23-.3-2.21-.34-2.19-.39-2.17-.43-2.15-.47-2.13-.52-2.11-.56-2.09-.6-2.07-.64-2.04-.68-2.01-.71-1.99-.76-1.97-.8-1.94-.83-1.9-.88-1.88-.9-1.86-.95-1.82-.98-1.78-1.02-1.76-1.05-1.72-1.09-1.69-1.12-1.66-1.15-1.62-1.19-1.58-1.22-1.55-1.25-1.51-1.29-1.47-1.31-1.43-1.34-1.39-1.38-1.35-1.4-1.31-1.43-1.26-1.46-1.22-1.49-1.18-.21-.08-.2-.09-.19-.09-.2-.1-.19-.1-.19-.1-.18-.1-.19-.11-.18-.11-.18-.11-.18-.12-.17-.11-.18-.12-.17-.12-.18-.12-.17-.12-.17-.12-.17-.13-.17-.12-.34-.25-.18-.12-.17-.12-.17-.13-.17-.12-.17-.12-.18-.12-.17-.11-.18-.12-.18-.11-.18-.12-.18-.11-.19-.1-.18-.11-.19-.1-.19-.1-.2-.1-.19-.09-.2-.09-.21-.08v-.01l-.01-.01-.01-.01-.02-.02-.01-.02-.02-.02-.03-.02-.02-.03-.03-.03-.03-.03-.04-.04-.03-.03-.04-.04-.04-.04-.04-.04-.05-.04-.05-.04-.04-.04-.05-.04-.06-.04-.05-.04-.06-.04-.05-.04-.06-.04-.06-.04-.06-.04-.06-.03-.06-.04-.07-.03-.06-.03-.07-.02-.06-.03-.07-.02-.07-.02-.06-.02-.07-.01-.07-.01-.07-.01h-.07l-.2-.16-.21-.16-.2-.16-.21-.15-.2-.14-.21-.15-.2-.14-.21-.13-.2-.14-.2-.13-.21-.12-.2-.13-.21-.12-.2-.12-.21-.11-.2-.12-.21-.11-.2-.11-.21-.1-.2-.11-.21-.1-.2-.1-.21-.1-.2-.09-.21-.1-.2-.09-.21-.09-.2-.09-.21-.09-.2-.09-.21-.09-.2-.08-.21-.09-.2-.08-.21-.09-.2-.08-.21-.09-.2-.08-.21-.08-.2-.08h-.91l-.21-.08-.2-.08-.21-.07-.2-.07-.2-.07-.21-.06-.2-.06-.21-.06-.2-.05-.21-.05-.2-.06-.21-.04-.2-.05-.21-.05-.2-.04-.21-.04-.2-.05-.21-.04-.2-.04-.41-.08-.21-.04-.2-.05-.21-.04-.2-.04-.21-.05-.2-.04-.21-.05-.2-.05-.21-.05-.2-.05-.21-.05-.2-.06-.21-.06-.2-.06-.2-.07-.21-.07-.2-.07-.21-.08-.2-.08h-2.74l-.2-.08-.21-.08-.21-.07-.22-.07-.22-.06-.22-.06-.22-.06-.23-.06-.23-.05-.23-.04-.23-.05-.23-.04-.23-.04-.24-.04-.24-.03-.23-.03-.24-.03-.24-.03-.24-.02-.24-.02-.24-.02-.24-.02-.23-.01-.24-.02-.24-.01-.24-.01-.23-.01-.24-.01-.23-.01h-.23l-.23-.01h-.68l-.22-.01h-1.06l-2.92.07-2.9.22-2.87.35-2.84.49-2.8.62-2.77.75-2.73.88-2.68 1.01-2.65 1.13-2.59 1.24-2.55 1.37-2.5 1.48-2.44 1.59-2.39 1.71-2.33 1.81-2.27 1.91-2.2 2.01-2.14 2.12-2.07 2.2-2 2.31-1.93 2.39-1.85 2.48-1.77 2.57-1.69 2.65-1.61 2.72-1.52 2.81-1.43 2.88-1.35 2.95-1.25 3.02-1.15 3.09-1.06 3.15-.95 3.22-.85 3.27-.75 3.33-.64 3.38-.53 3.43-.41 3.48-.3 3.52-.18 3.57-.06 3.6v19.77l-5.47 3.3-2.84 1.71-2.81 1.82-2.77 1.94-2.73 2.04-2.68 2.15-2.64 2.26-2.58 2.36-2.54 2.45-2.49 2.55-2.43 2.64-2.38 2.72-2.32 2.81-2.27 2.9-2.2 2.96-2.15 3.05-2.08 3.11-2.01 3.19-1.95 3.25-1.88 3.31-1.82 3.37-1.74 3.42-1.66 3.48-1.59 3.53-1.52 3.57-1.43 3.62-1.36 3.66-1.27 3.69-1.19 3.72-1.1 3.76-1.02 3.78-.93 3.81-.84 3.82-.74 3.85-.65 3.86-.56 3.87-.46 3.87-.36 3.88-.26 3.89-.15 3.88-.06 3.87.1 5.58.27 5.51.46 5.46.64 5.39.81 5.31.97 5.25 1.15 5.16 1.31 5.08 1.46 4.99 1.62 4.9 1.78 4.8 1.92 4.7 2.07 4.59 2.21 4.49 2.34 4.37 2.48 4.25 2.61 4.13 2.74 4 2.86 3.87 2.98 3.74 3.09 3.6 3.21 3.45 3.32 3.3 3.42 3.15 3.53 2.99 3.62 2.83 3.72 2.66 3.81 2.5 3.89 2.32 3.98 2.14 4.06 1.96 4.14 1.76 4.21 1.58 4.27 1.38 4.35 1.18 4.41.98 4.46.77 4.52.55 4.57.33 4.63.12h362.34l4.29-.11 4.23-.31 4.19-.51 4.14-.71 4.08-.9 4.02-1.1 3.96-1.28 3.9-1.46 3.83-1.63 3.75-1.81 3.68-1.98 3.6-2.14 3.51-2.31 3.43-2.46 3.34-2.61 3.25-2.76 3.15-2.91 3.05-3.04 2.94-3.19 2.84-3.31 2.73-3.44 2.61-3.56 2.49-3.69 2.38-3.8 2.24-3.91 2.12-4.02 1.99-4.12 1.85-4.22 1.71-4.31 1.57-4.41 1.43-4.49 1.27-4.57 1.13-4.65.96-4.73.81-4.79.64-4.87.47-4.92.31-4.98.13-5.04-.05-5.08-.07-4.44-.2-4.41-.33-4.39-.47-4.36-.59-4.32-.71-4.28-.84-4.24-.96-4.2-1.08-4.14-1.19-4.1-1.31-4.04-1.42-3.98-1.52-3.91-1.64-3.86-1.73-3.78-1.84-3.71-1.94-3.63-2.04-3.55-2.13-3.47-2.23-3.38-2.31-3.29-2.41-3.2-2.49-3.1-2.57-3-2.65-2.89-2.74-2.78-2.81-2.68-2.88-2.56-2.96-2.44-3.02-2.31-3.09-2.19-3.16-2.07-3.22-1.93-3.29-1.79-3.34-1.66-3.39-1.51-3.45-1.36-3.5-1.22-3.55-1.06-3.6-.9-.11-.01-.2-.02-.28-.04-.36-.05-.45-.06-.52-.07-.59-.08-.67-.09-.74-.1-.8-.1-.87-.1-.93-.11-.99-.11-1.05-.11-1.1-.11-1.16-.11-1.21-.1-1.25-.1-1.3-.09-1.35-.09-1.39-.08-1.42-.06-1.46-.06-1.49-.05-1.53-.03-1.55-.02h-1.59l-1.6.01-1.63.03-1.65.06-1.66.07-1.68.09-1.69.12-1.7.14-1.71.17-1.71.19-1.72.22-1.72.25-1.71.29-1.71.31h-1.82l-.34-.01-.34-.02-.34-.04-.34-.06-.34-.07-.34-.09-.33-.1-.33-.12-.33-.13-.33-.15-.32-.16-.32-.18-.31-.19-.31-.2-.31-.22-.3-.23-.3-.24-.28-.26-.29-.27-.27-.28-.27-.3-.27-.3-.25-.32-.25-.33-.24-.34-.23-.36-.22-.36-.21-.38-.2-.38-.2-.4-.18-.4-.17-.42-.16-.43-.15-.43-.14-.45-.13-.46-.11-.46-.1-.47-.09-.48-.08-.5-.06-.49-.04-.49-.02-.5-.01-.49v-.49l.02-.48.04-.49.05-.48.07-.47.08-.47.1-.47.11-.46.13-.45.13-.45.16-.44.16-.43.18-.43.19-.41.21-.41.21-.39.23-.39.24-.38.25-.36.26-.35.28-.34.28-.33.29-.31.31-.3.31-.29.33-.27.33-.25.34-.24.35-.22.36-.21.37-.19.38-.17.38-.15.39-.13.4-.11.41-.1 1.16-.16 1.16-.15 1.16-.14 1.16-.14 1.15-.13 1.16-.12 1.15-.11 1.15-.11 1.14-.1 1.15-.09 1.13-.08 1.14-.08 1.12-.07 1.12-.06 1.12-.06 1.11-.05 1.1-.04 1.1-.04 1.09-.03 1.08-.02 1.07-.02 1.06-.01h3.13l1.02.01 1.01.02 1 .02.99.03.97.04.96.03.95.05.94.05.92.05.91.06.89.06.88.07.86.07.84.08.83.08-.59-7.14-.81-7.05-1.03-6.98-1.24-6.89-1.45-6.79-1.65-6.7-1.85-6.6-2.04-6.49-2.24-6.37-2.42-6.26-2.61-6.13-2.78-6-2.95-5.87-3.13-5.72-3.28-5.58-3.45-5.43-3.6-5.26-3.76-5.11-3.9-4.94-4.04-4.76-4.19-4.59-4.31-4.4-4.45-4.21-4.57-4.01-4.69-3.82-4.81-3.6-4.92-3.4-5.03-3.18-5.13-2.95-5.23-2.73-5.33-2.49-5.41-2.25-5.51-2.01-5.58-1.76-5.66-1.5-5.73-1.25-5.81-.97-5.86-.71-5.93-.42-5.98-.14-3.62.05-3.63.16z"/><path id="b" d="M336.43 247.87l2.11.26 2.08.35 2.06.46 2.03.55 1.99.65 1.97.74 1.93.82 1.9.92 1.86 1 1.82 1.08 1.78 1.16 1.74 1.25 1.7 1.32 1.65 1.39 1.6 1.47 1.55 1.54 1.51 1.61 1.45 1.68 1.4 1.74 1.34 1.8 1.28 1.87 1.23 1.92 1.16 1.98 1.1 2.03 1.04 2.09.97 2.14.9 2.18.84 2.23.76 2.28.69 2.31.61 2.36.54 2.4.46 2.43.38 2.46.3 2.5.22 2.53.13 2.55.04 2.58v26.71h3.93l.69.02.68.05.67.09.67.12.66.15.65.18.64.22.63.24.63.27.61.31.6.33.59.35.58.39.57.41.55.43.54.46.52.49.51.5.49.53.47.55.46.57.44.59.42.61.41.63.38.64.36.66.34.68.33.69.29.71.28.72.25.74.23.75.2.76.18.77.15.78.13.79.1.8.07.81.05.81.01.83v80.12l.08.94.05.92.01.91-.02.9-.05.89-.08.86-.11.86-.14.84-.17.82-.2.8-.23.79-.26.77-.28.75-.31.73-.34.71-.36.68-.39.67-.4.65-.44.62-.45.6-.48.58-.5.55-.52.53-.54.51-.56.47-.58.45-.6.43-.61.39-.63.37-.65.34-.67.31-.68.28-.69.25-.71.21-.72.19-.74.15-.75.12-.76.09-.77.05-.78.02H275.83l-.69-.02-.68-.05-.67-.09-.67-.12-.66-.15-.65-.18-.64-.22-.64-.24-.62-.27-.61-.31-.61-.33-.59-.36-.57-.38-.57-.41-.55-.43-.54-.46-.52-.49-.51-.5-.49-.53-.48-.55-.45-.57-.45-.59-.42-.61-.4-.63-.38-.64-.37-.66-.34-.68-.32-.7-.3-.7-.27-.73-.25-.73-.23-.75-.21-.76-.17-.77-.16-.78-.12-.79-.1-.8-.07-.81-.05-.82-.01-.82v-80.12l.01-.82.05-.82.07-.81.1-.8.12-.79.16-.78.17-.77.21-.76.23-.75.25-.73.27-.73.3-.7.32-.7.34-.68.37-.66.38-.64.4-.63.42-.61.45-.59.45-.57.48-.55.49-.53.51-.5.52-.49.54-.45.55-.44.57-.41.57-.38.59-.36.61-.33.61-.31.62-.27.64-.24.64-.22.65-.18.66-.15.67-.12.67-.09.68-.05.69-.02h3.93V310.5l.04-2.58.13-2.55.22-2.53.3-2.5.38-2.46.46-2.43.53-2.4.62-2.36.69-2.31.76-2.28.83-2.23.91-2.18.97-2.14 1.04-2.09 1.1-2.03 1.16-1.98 1.23-1.92 1.28-1.87 1.34-1.8 1.4-1.74 1.45-1.68 1.5-1.61 1.56-1.54 1.6-1.47 1.65-1.39 1.7-1.32 1.74-1.25 1.78-1.16 1.82-1.08 1.86-1 1.9-.92 1.93-.82 1.96-.74 2-.65 2.03-.55 2.05-.46 2.09-.35 2.1-.26 2.13-.16 2.15-.05 2.16.05 2.12.16zm-59.62 102.07l-.31.16-.31.16-.3.16-.29.17-.28.17-.28.17-.26.17-.26.17-.25.18-.24.18-.23.18-.23.18-.22.18-.21.19-.2.19-.19.18-.18.2-.18.19-.17.2-.16.19-.15.2-.14.2-.14.21-.12.2-.12.21-.11.21-.1.21-.1.21-.08.22-.08.21-.07.22-.06.22-.06.23-.04.22-.04.23-.03.23-.02.23-.01.23v80.71l.02.35.02.34.03.33.05.32.05.32.06.31.07.31.08.3.09.29.09.28.11.28.11.27.12.26.13.25.14.24.15.24.15.23.16.22.17.21.17.2.19.19.19.19.19.17.21.16.21.16.21.15.23.13.23.13.23.11.25.11.25.09.25.09.26.07.27.06.27.05.27.05.29.02.28.02.3.01h112.65l.29-.01.29-.02.28-.02.28-.05.27-.05.27-.06.26-.07.25-.09.25-.09.24-.11.24-.11.23-.13.22-.13.22-.15.21-.16.2-.16.2-.17.19-.19.18-.19.18-.2.17-.21.16-.22.15-.23.15-.24.13-.24.13-.25.13-.26.11-.27.1-.28.1-.28.09-.29.08-.3.07-.31.06-.31.05-.32.04-.32.04-.33.02-.34.02-.35v-80.82l-.02-.35-.02-.34-.04-.33-.04-.33-.05-.31-.06-.32-.07-.3-.08-.3-.09-.29-.1-.28-.1-.28-.11-.27-.13-.26-.13-.25-.13-.25-.15-.23-.15-.23-.16-.22-.17-.21-.18-.2-.18-.19-.19-.19-.2-.17-.2-.17-.21-.15-.22-.15-.22-.13-.23-.13-.24-.12-.24-.1-.25-.1-.25-.08-.26-.07-.27-.07-.27-.05-.28-.04-.28-.03-.29-.01-.29-.01H277.14l-.33.16zm53.92-81.72l-1.34.17-1.34.24-1.32.31-1.3.36-1.28.43-1.27.49-1.25.55-1.22.6-1.21.66-1.18.72-1.16.77-1.13.82-1.1.87-1.08.92-1.04.96-1.02 1.01-.98 1.06-.95 1.1-.92 1.14-.88 1.18-.84 1.22-.81 1.25-.76 1.29-.73 1.32-.68 1.36-.64 1.39-.6 1.41-.55 1.45-.51 1.47-.45 1.5-.41 1.52-.36 1.54-.3 1.56-.26 1.58-.2 1.6-.14 1.62-.09 1.63-.02 1.64v28.28h68.11v-28.28l-.03-1.64-.08-1.63-.15-1.62-.2-1.6-.25-1.58-.3-1.56-.36-1.54-.41-1.52-.46-1.5-.5-1.47-.55-1.45-.6-1.41-.64-1.39-.68-1.36-.73-1.32-.76-1.29-.81-1.25-.84-1.22-.88-1.18-.92-1.14-.95-1.1-.98-1.06-1.02-1.01-1.05-.96-1.07-.92-1.1-.87-1.14-.82-1.15-.77-1.18-.72-1.21-.66-1.22-.6-1.25-.55-1.27-.49-1.28-.43-1.31-.36-1.32-.31-1.33-.24-1.35-.17-1.36-.1-1.37-.04-1.37.04-1.36.1z"/></defs><use fill-opacity="0" stroke="#600060" stroke-width="3" xlink:href="#a"/><use fill-opacity="0" stroke="#600060" stroke-width="2" xlink:href="#b"/></svg>