<svg xmlns="http://www.w3.org/2000/svg" width="204" height="36"><defs><clipPath id="c" clipPathUnits="userSpaceOnUse"><path d="M16.149 185.079C-8.747 116.677 26.52 41.044 94.922 16.149 163.323-8.747 238.955 26.52 263.851 94.922c24.897 68.401-10.371 144.033-78.772 168.929-14.884 5.417-30.098 7.986-45.069 7.985-53.833-.005-104.383-33.24-123.861-86.757"/></clipPath><clipPath id="a" clipPathUnits="userSpaceOnUse"><path d="M62.116 228.601h186v-199h-186z"/></clipPath><clipPath id="b" clipPathUnits="userSpaceOnUse"><path d="M78.116 232.601h172v-181h-172z"/></clipPath></defs><g transform="matrix(.13661 0 0 -.13636 -37.18 37.243)"><circle cx="404.162" cy="-141.114" r="131.624" fill="none" stroke="#600062" stroke-linejoin="round" stroke-width=".75" transform="scale(1 -1)"/><g stroke="#600060" clip-path="url(#c)" transform="translate(263.999 1.277)"><path fill="#600060" stroke-width="1" d="M139.759 271.837c-53.743-.104-104.161-33.32-123.611-86.759-23.77-65.31 7.311-137.208 69.709-165.244-52.027 32.155-76.175 97.403-54.432 157.14 24.896 68.402 100.528 103.67 168.93 78.774a133.627 133.627 0 009.064-3.685 132.366 132.366 0 01-24.34 11.789c-14.964 5.446-30.272 8.014-45.32 7.985z"/></g></g><g style="line-height:1.25;-inkscape-font-specification:Orbitron;font-variant-ligatures:normal;font-variant-caps:normal;font-variant-numeric:normal;text-align:start" stroke-width=".307" aria-label="logicalphase" font-family="Orbitron" font-size="72" font-weight="400" letter-spacing="0" word-spacing="0"><path style="-inkscape-font-specification:Orbitron" fill="#111" d="M42.976 25.243q-1.203 0-2.069-.84-.842-.865-.842-2.066V6.753h1.973v15.584q0 .384.264.673.29.264.674.264h2.358v1.969zM50 25.243q-1.203 0-2.07-.84-.841-.865-.841-2.066v-8.116q0-1.2.842-2.041.866-.865 2.069-.865h8.371q1.227 0 2.07.865.865.84.865 2.04v8.117q0 1.2-.866 2.065-.842.84-2.069.84zm0-1.97h8.371q.385 0 .65-.263.289-.289.289-.673v-8.116q0-.384-.29-.648-.264-.289-.649-.289H50q-.385 0-.674.289-.265.264-.265.648v8.116q0 .384.265.673.289.264.674.264zM66.055 30.742v-1.993h8.708q.385 0 .65-.289.289-.264.289-.648v-2.57h-9.31q-1.203 0-2.069-.84-.842-.864-.842-2.065v-8.116q0-1.2.842-2.041.866-.865 2.069-.865h8.371q1.227 0 2.07.865.841.84.841 2.04v13.592q0 1.225-.842 2.065-.842.865-2.069.865zm.337-7.468h8.371q.385 0 .65-.264.289-.289.289-.673v-8.116q0-.384-.289-.648-.265-.289-.65-.289h-8.371q-.385 0-.674.289-.264.264-.264.648v8.116q0 .384.264.673.289.264.674.264zM80.19 25.243V11.315h1.973v13.928zm0-16.521V6.753h1.973v1.969zM87.729 25.243q-1.203 0-2.07-.84-.841-.865-.841-2.066v-8.116q0-1.2.842-2.041.866-.865 2.069-.865h11.258v1.97H87.73q-.385 0-.674.288-.264.264-.264.648v8.116q0 .384.264.673.289.264.674.264h11.306v1.969zM104.48 25.243q-1.203 0-2.07-.84-.841-.865-.841-2.066v-5.042h12.22V14.22q0-.384-.288-.648-.265-.289-.65-.289H101.57v-1.969h11.282q1.227 0 2.069.865.866.84.866 2.04v11.023zm0-1.97h9.31v-4.01H103.54v3.074q0 .384.265.673.289.264.674.264zM120.924 25.243q-1.203 0-2.069-.84-.842-.865-.842-2.066V6.753h1.973v15.584q0 .384.265.673.288.264.673.264h2.358v1.969z"/><path style="-inkscape-font-specification:Orbitron" fill="#5f6368" d="M125.344 30.766v-19.45h11.307q1.203 0 2.045.864.866.84.866 2.04v8.117q0 1.2-.866 2.065-.842.84-2.045.84h-9.334v5.524zm2.935-7.492h8.372q.385 0 .65-.264.288-.289.288-.673v-8.116q0-.384-.289-.648-.264-.289-.65-.289h-8.37q-.386 0-.674.289-.29.264-.29.648v8.116q0 .384.29.673.288.264.673.264zM141.32 25.243V6.753h1.972v4.562h9.334q1.178 0 2.045.865.866.84.866 2.04v11.023h-1.973V14.22q0-.384-.289-.648-.264-.289-.65-.289h-8.37q-.386 0-.674.289-.29.264-.29.648v11.022zM160.392 25.243q-1.203 0-2.07-.84-.841-.865-.841-2.066v-5.042h12.22V14.22q0-.384-.288-.648-.265-.289-.65-.289h-11.282v-1.969h11.282q1.227 0 2.07.865.865.84.865 2.04v11.023zm0-1.97h9.31v-4.01h-10.248v3.074q0 .384.264.673.289.264.674.264zM176.505 25.243q-1.202 0-2.068-.84-.842-.865-.842-2.066v-.192h1.972v.192q0 .384.265.673.289.264.673.264h8.372q.385 0 .65-.264.288-.289.288-.673V20.2q0-.384-.288-.648-.265-.288-.65-.288h-8.372q-1.202 0-2.068-.84-.842-.865-.842-2.066v-2.137q0-1.2.842-2.041.866-.865 2.068-.865h8.372q1.227 0 2.069.865.866.84.866 2.04v.193h-1.997v-.192q0-.384-.288-.648-.265-.289-.65-.289h-8.372q-.384 0-.673.289-.265.264-.265.648v2.137q0 .384.265.672.289.265.673.265h8.372q1.227 0 2.069.864.866.84.866 2.041v2.137q0 1.2-.866 2.065-.842.84-2.069.84zM192.694 25.243q-1.203 0-2.07-.84-.841-.865-.841-2.066v-8.116q0-1.2.842-2.041.866-.865 2.069-.865h8.371q1.227 0 2.069.865.866.84.866 2.04v5.044h-12.245v3.073q0 .384.265.673.289.264.674.264H204v1.969zm-.939-7.948h10.248V14.22q0-.384-.288-.648-.265-.289-.65-.289h-8.371q-.385 0-.674.289-.265.264-.265.648z"/></g><g><g fill="#600060"><path d="M31.596 17.265c.4.42.876.94.869 1.411-.01.703-.738 1.486-1.216 2.015-.763.844-1.597 1.63-2.402 2.434-1.923 1.919-3.827 3.858-5.77 5.757-.714.698-1.544 1.564-2.52 1.888-.555.185-.963.02-1.425-.345-.53-.42-.996-.955-1.473-1.432l-6.732-6.72-5.36-5.35c-.718-.716-1.836.397-1.116 1.116l12.09 12.069c.534.533 1.053 1.106 1.65 1.57 1.649 1.284 3.309.612 4.79-.586 1.028-.832 1.942-1.821 2.877-2.754l3.853-3.846c1.054-1.052 2.195-2.08 3.131-3.24.63-.78 1.266-1.698 1.194-2.75-.064-.944-.698-1.695-1.323-2.352-.7-.736-1.817.38-1.117 1.115"/><path d="M18.698 22.49c2.606-2.602 3.724-3.76 6.323-6.37 2.07-2.08 2.237-5.313.157-7.462-1.567-1.62-3.216-3.737-5.594-4.02-1.599-.19-3.157.388-4.305 1.499-2.534 2.502-5.886 5.901-8.53 8.439-.612.654.488 1.759 1.125 1.123.638-.635 3.95-3.883 5.223-5.154 1.178-1.177 2.304-2.508 3.595-3.566 1.235-1.012 3.096-1.076 4.388-.131.732.535 1.35 1.297 1.989 1.935.731.73 1.562 1.412 1.88 2.433.408 1.313.026 2.691-.923 3.667-2.764 2.834-6.067 6.02-8.503 8.451-.719.718.416 1.852 1.135 1.133"/></g></g></svg>