<svg xmlns="http://www.w3.org/2000/svg" width="1900" height="336"><defs><clipPath id="c" clipPathUnits="userSpaceOnUse"><path d="M16.149 185.079C-8.747 116.677 26.52 41.044 94.922 16.149 163.323-8.747 238.955 26.52 263.851 94.922c24.897 68.401-10.371 144.033-78.772 168.929-14.884 5.417-30.098 7.986-45.069 7.985-53.833-.005-104.383-33.24-123.861-86.757"/></clipPath><clipPath id="a" clipPathUnits="userSpaceOnUse"><path d="M62.116 228.601h186v-199h-186z"/></clipPath><clipPath id="b" clipPathUnits="userSpaceOnUse"><path d="M78.116 232.601h172v-181h-172z"/></clipPath></defs><g transform="matrix(1.27237 0 0 -1.27273 -346.292 347.6)"><circle cx="404.162" cy="-141.114" r="131.624" fill="none" stroke="#600062" stroke-linejoin="round" stroke-width=".75" transform="scale(1 -1)"/><g stroke="#600060" clip-path="url(#c)" transform="translate(263.999 1.277)"><path fill="#600060" stroke-width="1" d="M139.759 271.837c-53.743-.104-104.161-33.32-123.611-86.759-23.77-65.31 7.311-137.208 69.709-165.244-52.027 32.155-76.175 97.403-54.432 157.14 24.896 68.402 100.528 103.67 168.93 78.774a133.627 133.627 0 009.064-3.685 132.366 132.366 0 01-24.34 11.789c-14.964 5.446-30.272 8.014-45.32 7.985z"/></g></g><g style="line-height:1.25;-inkscape-font-specification:Orbitron;font-variant-ligatures:normal;font-variant-caps:normal;font-variant-numeric:normal;text-align:start" stroke-width=".307" aria-label="logicalphase" font-family="Orbitron" font-size="72" font-weight="400" letter-spacing="0" word-spacing="0"><path style="-inkscape-font-specification:Orbitron" fill="#111" d="M400.267 235.6q-11.203 0-19.27-7.845-7.841-8.068-7.841-19.274V63.028h18.372V208.48q0 3.586 2.465 6.275 2.689 2.466 6.274 2.466h21.957v18.377zM465.683 235.6q-11.202 0-19.268-7.845-7.842-8.068-7.842-19.274v-75.752q0-11.206 7.842-19.05 8.066-8.069 19.268-8.069h77.971q11.427 0 19.27 8.069 8.065 7.844 8.065 19.05v75.752q0 11.206-8.066 19.274-7.842 7.844-19.269 7.844zm0-18.378h77.971q3.585 0 6.05-2.466 2.689-2.69 2.689-6.275v-75.752q0-3.586-2.69-6.051-2.464-2.69-6.049-2.69h-77.97q-3.585 0-6.274 2.69-2.465 2.465-2.465 6.05v75.753q0 3.586 2.465 6.275 2.689 2.466 6.273 2.466zM615.219 286.922v-18.601h81.108q3.584 0 6.049-2.69 2.689-2.465 2.689-6.051V235.6h-86.71q-11.202 0-19.268-7.845-7.842-8.068-7.842-19.274v-75.752q0-11.206 7.842-19.05 8.066-8.069 19.269-8.069h77.97q11.427 0 19.27 8.069 7.841 7.844 7.841 19.05V259.58q0 11.43-7.842 19.274-7.842 8.068-19.268 8.068zm3.137-69.7h77.97q3.585 0 6.05-2.466 2.689-2.69 2.689-6.275v-75.752q0-3.586-2.689-6.051-2.465-2.69-6.05-2.69h-77.97q-3.585 0-6.274 2.69-2.465 2.465-2.465 6.05v75.753q0 3.586 2.465 6.275 2.689 2.466 6.274 2.466zM746.872 235.6V105.61h18.372V235.6zm0-154.194V63.028h18.372v18.378zM817.081 235.6q-11.202 0-19.268-7.845-7.842-8.068-7.842-19.274v-75.752q0-11.206 7.842-19.05 8.066-8.069 19.268-8.069H921.94v18.378H817.08q-3.584 0-6.273 2.69-2.465 2.465-2.465 6.05v75.753q0 3.586 2.465 6.275 2.689 2.466 6.273 2.466h105.306v18.377zM973.093 235.6q-11.202 0-19.268-7.845-7.842-8.068-7.842-19.274v-47.065h113.82v-28.687q0-3.586-2.69-6.051-2.464-2.69-6.049-2.69H945.983V105.61h105.081q11.427 0 19.27 8.069 8.065 7.844 8.065 19.05v102.87zm0-18.378h86.71v-37.428h-95.448v28.687q0 3.586 2.465 6.275 2.689 2.466 6.273 2.466zM1126.256 235.6q-11.203 0-19.269-7.845-7.842-8.068-7.842-19.274V63.028h18.373V208.48q0 3.586 2.464 6.275 2.689 2.466 6.274 2.466h21.957v18.377z"/><path style="-inkscape-font-specification:Orbitron" fill="#5f6368" d="M1167.422 287.147V105.61h105.306q11.203 0 19.044 8.069 8.066 7.844 8.066 19.05v75.752q0 11.206-8.066 19.274-7.841 7.844-19.044 7.844h-86.933v51.548zm27.335-69.925h77.97q3.586 0 6.05-2.466 2.689-2.69 2.689-6.275v-75.752q0-3.586-2.689-6.051-2.464-2.69-6.05-2.69h-77.97q-3.585 0-6.274 2.69-2.688 2.465-2.688 6.05v75.753q0 3.586 2.688 6.275 2.689 2.466 6.274 2.466zM1316.208 235.6V63.027h18.373v42.582h86.933q10.979 0 19.045 8.069 8.066 7.844 8.066 19.05v102.87h-18.373V132.73q0-3.586-2.689-6.051-2.464-2.69-6.049-2.69h-77.97q-3.586 0-6.274 2.69-2.69 2.465-2.69 6.05V235.6zM1493.845 235.6q-11.203 0-19.269-7.845-7.841-8.068-7.841-19.274v-47.065h113.82v-28.687q0-3.586-2.69-6.051-2.464-2.69-6.049-2.69h-105.081V105.61h105.081q11.427 0 19.269 8.069 8.066 7.844 8.066 19.05v102.87zm0-18.378h86.71v-37.428h-95.448v28.687q0 3.586 2.465 6.275 2.688 2.466 6.273 2.466zM1643.923 235.6q-11.203 0-19.269-7.845-7.841-8.068-7.841-19.274v-1.793h18.372v1.793q0 3.586 2.465 6.275 2.688 2.466 6.273 2.466h77.971q3.585 0 6.05-2.466 2.688-2.69 2.688-6.275v-19.947q0-3.586-2.688-6.05-2.465-2.69-6.05-2.69h-77.97q-11.204 0-19.27-7.844-7.841-8.069-7.841-19.275V132.73q0-11.206 7.841-19.05 8.066-8.069 19.27-8.069h77.97q11.427 0 19.269 8.069 8.066 7.844 8.066 19.05v1.793h-18.597v-1.793q0-3.586-2.688-6.051-2.465-2.69-6.05-2.69h-77.97q-3.586 0-6.274 2.69-2.465 2.465-2.465 6.05v19.947q0 3.586 2.465 6.276 2.688 2.465 6.273 2.465h77.971q11.427 0 19.269 8.068 8.066 7.844 8.066 19.05v19.947q0 11.206-8.066 19.274-7.842 7.844-19.269 7.844zM1794.694 235.6q-11.202 0-19.268-7.845-7.842-8.068-7.842-19.274v-75.752q0-11.206 7.842-19.05 8.066-8.069 19.268-8.069h77.971q11.427 0 19.269 8.069 8.066 7.844 8.066 19.05v47.065h-114.044v28.687q0 3.586 2.465 6.275 2.688 2.466 6.273 2.466H1900v18.377zm-8.738-74.184h95.447v-28.687q0-3.586-2.688-6.051-2.465-2.69-6.05-2.69h-77.97q-3.586 0-6.274 2.69-2.465 2.465-2.465 6.05z"/></g><g><g fill="#600060"><path d="M294.273 161.14c3.722 3.922 8.16 8.766 8.094 13.173-.098 6.555-6.871 13.865-11.32 18.8-7.105 7.88-14.875 15.217-22.372 22.717-17.908 17.912-35.646 36.015-53.741 53.738-6.654 6.516-14.377 14.592-23.478 17.622-5.166 1.72-8.964.188-13.263-3.225-4.943-3.924-9.278-8.915-13.724-13.363l-62.702-62.719-49.911-49.926c-6.694-6.696-17.108 3.7-10.404 10.406l112.613 112.645c4.97 4.97 9.8 10.32 15.353 14.652 15.366 11.984 30.823 5.717 44.627-5.472 9.573-7.758 18.085-16.992 26.79-25.7l35.888-35.898c9.815-9.818 20.44-19.408 29.159-30.235 5.868-7.286 11.79-15.85 11.121-25.671-.6-8.81-6.507-15.818-12.328-21.948-6.523-6.871-16.922 3.537-10.402 10.405"/><path d="M174.144 209.902c24.278-24.285 34.686-35.085 58.89-59.444 19.292-19.415 20.84-49.592 1.469-69.648-14.6-15.114-29.956-34.883-52.107-37.527-14.884-1.776-29.402 3.63-40.095 13.995-23.601 23.352-54.82 55.077-79.443 78.764-5.701 6.101 4.542 16.416 10.481 10.484 5.941-5.929 36.782-36.246 48.64-48.107 10.978-10.981 21.46-23.41 33.481-33.28 11.51-9.45 28.838-10.048 40.871-1.227 6.822 5 12.58 12.11 18.527 18.059 6.81 6.812 14.551 13.18 17.509 22.71 3.804 12.256.246 25.12-8.591 34.228-25.748 26.45-56.515 56.186-79.198 78.876-6.694 6.696 3.87 17.284 10.574 10.578"/></g></g></svg>