<svg xmlns="http://www.w3.org/2000/svg" xmlns:xlink="http://www.w3.org/1999/xlink" width="202" height="216"><defs><path id="a" d="M0 268h268V0H0z"/></defs><g fill="none" fill-rule="evenodd" transform="translate(-36 -23)"><mask id="b" fill="#fff"><use xlink:href="#a"/></mask><g mask="url(#b)"><path fill="#D2E3FC" d="M77.74 196.73l-.39-.59.03-.2.09-.2c.34-.66.6-1.47.74-2.2a6.24 6.24 0 0 0-2.24-6.06l-.63-.46.33-.87c.45-1.16.47-2.34.1-3.5a4.98 4.98 0 0 0-1.9-2.53 5.8 5.8 0 0 0-5-.87c-.62.14-1.24.4-1.78.76-1.71 1.1-2.83 3.32-2.32 5.35.08.32.18.64.31.95.14.3.33.57.52.9l-.86.73a6.6 6.6 0 0 0-1.27 1.5c-1.1 1.85-.92 4.27.08 6.13l.2.4c.02.05-.65.82-.72.91a9.63 9.63 0 0 0-1.53 5.63c.03 2.9 2.1 5.63 4.58 6.99a9.54 9.54 0 0 0 9.2-.23 8.07 8.07 0 0 0 4.1-6.54 8.76 8.76 0 0 0-1.64-6"/><path fill="#4285F4" d="M36.34 68.98c.01.23.06.46.1.68v.97l-.02.11c-.04.71-.1 1.41.02 2v.73c-.05.43-.12.79-.06 1.13l.07.54v3.23c0 .09-.03.18-.03.26 0 .11.02.21.03.32l.07 43.92c0 .26-.03.51-.08.76-.13.63-.1 1.26-.04 1.9.01.18.12.38.07.54-.17.62.16 1.24-.02 1.85.16 1.95.06 3.9.1 5.85v10.04l.03 12.86-.02.69c0 .06.07.12.1.19.2.1.39.13.57.12l74.15-42.2V48.13c-.8.57-1.73 1-2.5 1.73a52 52 0 0 0-1.47 1.5 14.73 14.73 0 0 0-2.58 15.6c.2.46.48.92.9 1.26.21.19.37.44.57.69-.32.45-.72.78-1.08 1.15-.58.59-1.15 1.16-1.66 1.8-.79.97-1.34 2.06-1.91 3.14-.4.76-.73 1.55-1.03 2.35-1.5 3.94-1.5 10.27 1.33 13.7.25.31.48.64.74 1l-1.03.88c-.53.46-1.11.89-1.58 1.41-4.28 4.73-7.8 10.42-9.02 16.75-.07.38-.14.78-.32 1.13-.13-.02-.21-.02-.27-.05a9.7 9.7 0 0 0-3.9-1.28c-.29-.03-.58-.1-.8-.33.16-.57.3-1.15.48-1.71 1.12-3.5.98-7.63-1-10.8-2.27-3.58-7.16-5.73-11.32-5.67-.49 0-.97-.02-1.46 0-.33.01-.66.07-.99.12-.13.01-.27.11-.4-.04-.27-5.69-2.78-9.85-8.06-12.95l.3-.56c.37-.56.76-1.1 1.1-1.68 3.1-5.4 4.9-12.82 1.66-18.55a18.35 18.35 0 0 0-3.1-4.08 11.2 11.2 0 0 0-5.42-2.73 6.74 6.74 0 0 0-2.2-.22c-1.39.15-2.7.57-3.94 1.18-.96.47-1.94.93-2.88 1.46-1.26.71-2.63 1.17-3.9 1.87-.93.52-1.93.95-2.86 1.49-1.13.65-2.3 1.2-3.48 1.73-.57.26-1.12.56-1.68.84l-.2.43v2.8c0 .08-.01.17-.05.25.03.13.04.26.06.4v1.33l-.05.56c-.02.18.02.37.03.56a9.64 9.64 0 0 1-.02 1.3c-.02.37-.07.74-.05 1.1"/><path fill="#202124" d="M68.04 219.6a6.7 6.7 0 0 0 7.6-1.74 7.12 7.12 0 0 0 2-4.89c0-.67-.05-1.35-.2-2a5.75 5.75 0 0 0-.3-.95c-.05-.13-.29-.55-.14-.66.32-.22.77.86.82 1.03.25.97.47 1.94.47 2.95 0 3.17-.1 6.32-.3 9.48l-.17 2.7c-.05.92-.1 1.83-.2 2.74-.03.41-.31.5-.7.52-.6.02-1.2 0-1.79 0l-10.5.03c-.4 0-.82.03-1.12-.09-.24-.21-.22-.4-.23-.59-.14-2.72-.37-5.44-.56-8.16l-.14-2.4c-.07-1.45-.11-2.9-.2-4.35a6.5 6.5 0 0 1 .6-2.82c.12-.3.65-1.47 1.13-.97-.1.23-.26.44-.38.67-.99 1.94-1.1 4.53.17 6.39.33.48.75.97 1.2 1.36a9.44 9.44 0 0 0 2.94 1.74m37.93-27.04c-.32.47-.88.69-1.35.98-.91.55-1.84 1.12-2.73 1.72-1.35.92-2.76 1.76-4 2.83-.4.33-.86.6-1.29.9-1.24.87-2.47 1.76-3.73 2.63-.82.57-1.67 1.1-2.5 1.67-1.36.91-2.7 1.86-4.06 2.76-1.92 1.27-3.75 2.67-5.59 4.06-.25.19-.52.38-.79.56-.13.1-.55.31-.64.08-.07-.2.37-.48.5-.57 2.25-1.65 4.43-3.4 6.76-4.93 1.43-.94 2.78-2 4.22-2.9 2.27-1.45 4.38-3.09 6.6-4.6.76-.53 1.48-1.11 2.25-1.64a239.16 239.16 0 0 1 5.61-3.63c.13-.07.5-.34.64-.3.25.05.22.22.1.38m-67.62 46.4c-.31-.03-.13-.46.14-.6 1.62-.77 3-1.91 4.52-2.85 1.48-.92 2.93-1.9 4.33-2.94 1.08-.8 2.15-1.6 3.23-2.38l.55-.4c1.61-1.12 3.22-2.25 4.85-3.37a103.3 103.3 0 0 1 5.15-3.34c.46-.28.37.33.09.52-.37.25-.76.48-1.14.71a122.05 122.05 0 0 0-6.45 4.4c-.54.39-1.1.76-1.65 1.13-1.43.94-2.8 1.95-4.15 3-.97.76-2.01 1.4-3.04 2.08-1.46.95-2.96 1.84-4.38 2.85-.41.3-.84.55-1.28.8-.19.11-.42.35-.64.38h-.13"/><path fill="#202124" d="M70.32 211.12c.18-.23.42.05.46.24.05.21.01.53.01.74l.02 1.35c0 .25.07.75-.1.97-.13.19-.42.1-.52-.08-.1-.23 0-.63 0-.88v-1.4c.01-.25-.01-.54.05-.77a.53.53 0 0 1 .08-.17m-1.43-23.35a.3.3 0 0 0-.16.06c-.2.12-.34.37-.46.62l-.1.17c-.06.12-.13.24-.17.37a.43.43 0 0 0 .04.39.3.3 0 0 0 .25.13c.12 0 .24-.07.33-.19.26-.34.42-.8.48-1.05a.57.57 0 0 0-.04-.39c-.03-.05-.08-.09-.17-.1m-.55 13.5a.25.25 0 0 0-.18.08c-.15.15-.26.41-.35.62l-.09.2c-.07.15-.16.34-.08.5.06.12.17.19.3.19.04 0 .09 0 .14-.03a.47.47 0 0 0 .28-.27l.09-.22c.08-.2.17-.42.2-.62a.46.46 0 0 0-.11-.35.28.28 0 0 0-.2-.1m1.45-4.49c-.1 0-.18.04-.26.13-.22.24-.32.78-.3 1 .01.17.1.26.26.26.18 0 .4-.14.48-.26.11-.17.21-.64.1-.9-.04-.13-.12-.2-.28-.23m-2.12-2.77l.1-.17c.17-.25.39-.58.33-.82a.29.29 0 0 0-.13-.18.26.26 0 0 0-.13-.04c-.25 0-.45.4-.56.65l-.06.11-.08.14a1.2 1.2 0 0 0-.2.39v.11c.05.14.2.27.34.27h.05c.16-.04.23-.22.3-.36l.04-.1zm-2.18 6.32l.07-.13c.09-.17.2-.36.17-.54-.04-.24-.2-.27-.26-.27-.15 0-.33.12-.42.28l-.34.6-.13.24c-.1.18-.26.44-.14.63.04.05.08.08.12.1a.2.2 0 0 0 .13.04c.35 0 .68-.7.8-.95m5.37 3.29c-.09 0-.2.06-.31.17a.47.47 0 0 0-.14.2c-.05.24 0 .5.03.74l.03.18a.4.4 0 0 0 .39.38c.16 0 .33-.12.34-.42.01-.45 0-1-.18-1.18a.2.2 0 0 0-.16-.07m-5.43.44c-.41 0-.56.93-.58 1.04-.02.15.03.24.07.29.06.06.14.1.23.1.1 0 .2-.04.28-.12.09-.07.14-.27.2-.51l.04-.17.04-.1c.04-.1.1-.23-.03-.42a.4.4 0 0 0-.25-.1m10.05.98l-.06-.21-.02-.12c-.02-.14-.05-.3-.2-.36a.51.51 0 0 0-.18-.03c-.1 0-.19.04-.24.13a.65.65 0 0 0-.07.4l.02.14c.02.2.04.44.11.63.06.14.26.45.48.45.09 0 .15-.03.2-.09.1-.12.09-.33.06-.52a3.2 3.2 0 0 0-.1-.42m-.75-11.68c.09.1.22.23.37.23h.02c.14-.02.23-.07.26-.16.08-.21-.16-.6-.72-1.18l-.04.04-.04-.12c-.12-.13-.3-.33-.52-.33h-.01c-.08.03-.14.07-.17.12a.28.28 0 0 0 0 .22c.04.15.17.32.3.5.18.26.34.47.55.68m-3.54-1.98l-.18.04c-.1.07-.11.16-.13.3-.03.32-.05.76.15 1.04.08.1.18.16.29.16.14 0 .25-.1.3-.26a2.1 2.1 0 0 0-.17-1.15c-.04-.1-.17-.14-.26-.14m5.99 11.29c-.04-.24-.19-.47-.32-.7l-.12-.19-.05-.1c-.08-.15-.17-.33-.34-.4a.43.43 0 0 0-.18-.05.25.25 0 0 0-.22.1c-.07.1-.08.26-.02.41.14.4.4.73.64 1.01.1.13.3.26.43.26a.5.5 0 0 0 .14-.06c.05-.05.06-.14.04-.28m-2.66-5.55c-.15-.3-.3-.6-.47-.87-.05-.1-.11-.14-.18-.14-.05 0-.1.03-.15.08a.57.57 0 0 0-.14.38c.02.29.22.66.31.8.11.19.38.48.6.55a.4.4 0 0 0 .12.02h.04c.02 0 .1-.07.1-.08.06-.14-.06-.41-.23-.74m-.75 4.35c-.05-.2-.26-.6-.46-.6-.1 0-.18.1-.2.31-.07.36-.03.74.1 1.08.09.27.2.43.31.5l.1.01c.04 0 .09-.01.13-.04.28-.2.13-.78.05-1.13l-.03-.13zm-1.01-13.43a.81.81 0 0 0-.23-.2.43.43 0 0 0-.21-.07c-.07 0-.2.03-.22.24-.04.26.3.71.34.76.08.1.17.2.28.29.09.06.17.1.24.1a.5.5 0 0 0 .12-.05c.05-.05.07-.13.06-.24-.01-.33-.3-.72-.38-.83M182.84 193c-.05-.1-.33-.19-.41-.23l-.57-.27c-.99-.44-1.96-.91-2.93-1.4l-17.72-7.52v-.04c-.2-.06-.37-.13-.55-.2l-.21-.09-.12-.06v.01l-16.06-6.81c-.14-.06-.27-.14-.4-.11-.16.03-.45.34-.4.49.04.1.39.25.66.38l34.53 14.93a49 49 0 0 1 2 .8c.35.16.72.29 1.07.45.26.11.65.43.94.36.3-.07.3-.48.17-.7m-49.34-57.96c.3.17-.2 1.77-.24 2.1-.35 2.5-.24 5.1.22 7.58a35.42 35.42 0 0 0 7.14 15.73 32.07 32.07 0 0 0 4.53 4.34c.65.53 1.31 1.05 2 1.55.13.1.2.29.27.4-.12.39-.45.3-.66.42-.05.06-.1.12-.13.18l-4.77 12.27c-1.22 3.13-2.54 6.22-3.78 9.35-1.06 2.63-2 5.3-2.98 7.96l-.88 2.31c-1.23 3.2-2.52 6.36-3.79 9.54-.26.65-.73 1.65-1.5 1.8-1.05.2-1.63-.94-1.5-1.84.24-1.57 1.14-3.08 1.77-4.51 1.35-3.1 2.4-6.3 3.7-9.42 1.29-3.12 2.44-6.3 3.7-9.42 1.27-3.13 2.47-6.29 3.72-9.42 1.26-3.14 2.48-6.29 3.73-9.42.11-.3.38-.6.4-.92.01-.38-.36-.7-.62-.93a31.46 31.46 0 0 1-5.42-6.28c-.49-.76-.96-1.53-1.42-2.3a34.34 34.34 0 0 1-2.82-6.22c-.65-1.83-1-3.78-1.26-5.7-.3-2.15-.32-4.32-.21-6.48.04-.8.12-1.6.3-2.37.06-.25.34-.39.5-.3m84.22 44.93c.2 0 .31.1.16.38-.08.17-.18.33-.32.45-.33.3-.66.6-1.03.85-1.44.99-2.77 2.11-4.15 3.18-2.14 1.66-4.28 3.33-6.4 5-.7.55-1.36 1.15-2.06 1.71-2.6 2.1-5.24 4.15-7.83 6.26l-2.94 2.4-1.9 1.53c-1.09.85-2.18 1.67-3.26 2.52-.9.72-1.77 1.47-2.66 2.2-.1.08-.45.34-.6.26-.2-.11-.15-.61-.05-.77.2-.3.6-.5.88-.71 1.18-.9 2.4-1.75 3.54-2.7 2.02-1.66 4.06-3.3 6.08-4.95 1.48-1.21 3.03-2.32 4.54-3.5.76-.59 1.5-1.22 2.24-1.83.78-.63 1.58-1.23 2.33-1.9 1-.9 2.13-1.66 3.18-2.51a484.41 484.41 0 0 1 8.93-7.12c.17-.13.34-.29.5-.44.12-.12.55-.3.82-.3m-47.95-59.89c.01.04 0 .09-.03.15-.2.36-.93.28-1.26.25-.5-.05-.97-.18-1.45-.3-2.24-.53-4.39-1.57-6.7-1.82a9.75 9.75 0 0 0-2.02-.02 17.67 17.67 0 0 0-6.09 1.98c-1.84.9-3.68 1.84-5.48 2.82-1.31.71-2.6 1.48-3.89 2.21-.38.22-.77.44-1.18.63-.1.05-.41.1-.45-.06-.03-.14.3-.33.4-.4.43-.36.96-.6 1.44-.88 1.12-.64 2.22-1.3 3.33-1.94.22-.13.44-.27.67-.39 1.42-.73 2.83-1.5 4.27-2.18 2.34-1.11 4.82-2.39 7.46-2.45 2.52-.07 4.78.91 7.15 1.59 1.1.31 2.22.52 3.35.64.16.02.44.03.48.17m53.44 17.61c.56.03 1.1.15 1.35.24 1.84.67 3.33 2.12 5.43 1.7a5.53 5.53 0 0 0 3.05-1.96c.44-.52.83-1.1 1.2-1.67.17-.26.51-.5.6-.09.07.25-.13.56-.24.77a8.2 8.2 0 0 1-3 3.05 5.2 5.2 0 0 1-3.69.54c-1.64-.37-3-1.72-4.73-1.8-.33-.02-1.32.24-1.55-.06-.46-.6 1.34-.73 1.58-.72m-85.34-9.09c.44.12-.21.63-.37.76-1.06.91-1.98 1.9-2.66 3.13l-.75 1.37c-.18.32-.47 1.17-.85.49.22-.94.82-1.82 1.35-2.6a14.5 14.5 0 0 1 2.22-2.54c.18-.17.35-.36.57-.48.16-.08.34-.16.5-.12m68.9 20.37c.4-.49.85-.93 1.29-1.38.7-.74 1.46-1.43 2.2-2.12 1.12-1.04 2.15-2.1 3.44-2.92 1.13-.72 2.23-1.5 3.42-2.1.63-.33 1.25-.68 1.88-1 .3-.16.6-.3.9-.42.24-.1.66-.14.83-.34.22-.24-.35-.22-.47-.2-1.28.14-2.44.99-3.55 1.59a29.83 29.83 0 0 0-3.6 2.16l-1.32 1c-.97.73-1.87 1.58-2.77 2.41a28.48 28.48 0 0 0-3.08 3.38c-.36.46-.75.88-1.08 1.36-.13.19-.52.6-.31.82.35.35.84-.34.98-.55.4-.58.8-1.15 1.24-1.7"/><path fill="#202124" d="M237.14 119.65c-.09-.73-.12-1.46-.23-2.19-.1-.65-.23-1.3-.32-1.95-.2-1.38-.51-2.72-.86-4.06a48.81 48.81 0 0 0-2.1-6.61 39 39 0 0 0-4.45-7.85c-.83-1.17-1.95-2.17-2.98-3.16a39.87 39.87 0 0 0-5.6-4.39c-.5-.33-1.03-.63-1.56-.93a24.33 24.33 0 0 0-3.77-1.84 34.2 34.2 0 0 0-4.65-1.32c-.45-.1-1.01-.2-1.46-.06-.3.1-.1.37.12.41a52.7 52.7 0 0 1 3.51.77 22.08 22.08 0 0 1 2.83.96c.5.2 1 .41 1.5.64.42.2.84.39 1.25.6.48.25.94.54 1.4.84l1.34.95a53.9 53.9 0 0 1 6.49 5.47c.35.34.67.72.97 1.12a32.5 32.5 0 0 1 2.85 4.58c.62 1.2 1.35 2.37 1.86 3.62.23.58.4 1.19.58 1.79.35 1.14.61 2.3.95 3.45l.32 1.07c.18.63.37 1.27.5 1.91l.58 3.08c.11.54.17 1.09.23 1.64.08.95.17 1.92.2 2.89.03.49.05.98.06 1.48l.02 1.43a57.71 57.71 0 0 1-.3 7.1c-.2 2.26-.39 4.5-.71 6.75-.09.58-.24 1.16-.36 1.74l-.6 2.64c-.11.56-.23 1.12-.36 1.67-.46 2-1.13 3.95-1.78 5.9a30.2 30.2 0 0 1-.81 2.19 91.48 91.48 0 0 1-4.46 9.2c-.52.92-1.1 1.79-1.73 2.63l-1.34 1.8a45.31 45.31 0 0 1-2.53 3.11c-.85.95-1.68 1.95-2.65 2.8-.3.25-.59.5-.9.74a35.08 35.08 0 0 1-7.63 4.96c-.86.39-1.72.75-2.59 1.12l-1.35.54c-1.56.6-3.15 1.24-4.75 1.73a44.51 44.51 0 0 1-6.08 1.26c-1.52.2-3.05.38-4.58.5-.13.01-.88.13-.82-.16.02-.06.15-.13.2-.16.15-.1.32-.18.48-.28.25-.15.5-.32.74-.5.42-.35 1.04-.69 1.29-1.19a1.73 1.73 0 0 0-.6-.02c-.33.05-.5.2-.75.4a22.42 22.42 0 0 1-2.45 1.68c-.4.24-.84.38-1.29.45-.74.11-1.5.05-2.24.01-.78-.04-1.57-.02-2.34.11-.15.03-.93.22-.44.36.23.08.49.08.73.1.26.02.55-.02.8.05.27.07.3.32.3.57-.02.36-.05.73-.1 1.09-.18 1.28-.4 2.57-.57 3.86-.19 1.36-.34 2.72-.52 4.08l-.6 4.08c-.18 1.33-.33 2.66-.52 3.98l-.6 4.08c-.25 1.88-.48 3.76-.74 5.64l-.87 6.18-.29 2.1-.58 4.07-.52 3.76-.59 4.2-.2 1.5c-.06.5.59.7.97.77.34.06 1.39.03 1.46-.48l.45-3.18.63-4.53.3-2.43c.08-.77.17-1.55.28-2.32l.8-5.63c.18-1.36.33-2.73.51-4.1.26-1.87.56-3.74.81-5.62.2-1.4.35-2.8.52-4.2.1-.81.23-1.62.35-2.43l.52-3.86.49-3.87c.2-1.59.42-3.17.64-4.75l.21-1.59c.04-.27.02-.69.24-.9l1.13-.12.91-.08a78.26 78.26 0 0 0 5.3-.57c1.58-.23 3.16-.42 4.73-.73a30.2 30.2 0 0 0 3.75-.93c1.85-.6 3.64-1.38 5.48-2 1.4-.48 2.65-1.2 3.97-1.84 1.17-.56 2.24-1.3 3.27-2.06l1.5-1.12c.14-.1 1.25-1.07 1.33-1.02.22.13.15.71.16.88.04.35.04.7.06 1.06.04.5.05 1.02.07 1.52.1 2.24.14 4.48.23 6.71.1 2.15.29 4.3.38 6.45.1 2.37.08 4.77.28 7.14.12 1.74.16 3.49.25 5.24.07 1.4 1.94 1.41 2.25.12.02-1.04-.07-2.1-.15-3.19-.11-1.66-.1-3.34-.22-5.01-.25-3.49-.3-7-.45-10.48-.08-1.79-.1-3.58-.24-5.36-.1-1.4-.03-2.82-.2-4.23-.07-.7-.08-1.4-.07-2.1 0-.3-.06-.67 0-.97 0-.05.04-.1.07-.17l1.54-1.78c.26-.3.5-.6.74-.9.6-.81 1.28-1.56 1.9-2.35l.5-.64c.34-.44.65-.9.95-1.36 1.08-1.66 2.02-3.43 2.97-5.16.3-.53.58-1.05.84-1.58.58-1.21 1.02-2.47 1.54-3.7.29-.7.62-1.4.89-2.1l.38-1.07c.4-1.2.78-2.4 1.07-3.63.33-1.41.7-2.8 1.05-4.21.36-1.44.68-2.9.91-4.36.25-1.54.33-3.1.53-4.66.18-1.33.27-2.67.38-4 .06-.74.06-1.48.06-2.22.02-2.35.08-4.72-.2-7.06"/><path fill="#202124" d="M194.55 178.45a19.6 19.6 0 0 0 1.62-2.71 36.48 36.48 0 0 0 2.78-6.85c.19-.69.35-1.38.5-2.07.35-1.47.67-2.95 1.04-4.41a48.4 48.4 0 0 1 1.78-5.83 22.4 22.4 0 0 1 2.45-4.69l.08-.12a37.38 37.38 0 0 1-.89.12c-.47.08-.93.1-1.38.1l-1.12-.04c-2.2 0-4.37-.31-6.54-.66-.22-.03-.44-.12-.66-.14-.09 0-.36 0-.42.07-.1.13.12.22.23.29.25.17.5.36.76.5.8.44 1.63.82 2.46 1.2l2.44 1.12c-.2.2-.37.4-.57.54-1.92 1.47-3.74 3.07-5.69 4.5-.48.35-.88.8-1.35 1.16-1.2.94-2.42 1.85-3.63 2.78-.94.73-1.85 1.49-2.8 2.2a61.91 61.91 0 0 0-4.19 3.57c-.36.33-.71.67-1.12.94-.3.21-.67.62-1.07.56-.5-.08-1.06-.34-1.52-.53-1.58-.65-3.15-1.34-4.73-1.98a456.58 456.58 0 0 0-7.28-2.88c-1.83-.7-3.6-1.56-5.4-2.34-.9-.38-1.8-.73-2.68-1.11-1.03-.44-2.04-.9-3.06-1.35l-.87-.36c-.35-.16-.53-.29-.84 0-.06.06-.1.13-.14.2v-.03s-3.18 3.51-5.94 9.96c-.15.34-.32.68-.46 1.02-.13.32-.24.65-.36.97 0 0 0 .04-.03.1l-.15.5c-.16.5-.4 1.3-.67 2.25l-.66 2.55a141.93 141.93 0 0 0-.73 2.86c-.22.98-.41 1.98-.6 2.97-.42 2.14-.8 4.28-1.12 6.44a169.08 169.08 0 0 0-1.72 19.24l-.06 1.1c0 .09.68.41.77.46.27.15.55.3.83.42.47.23.93.47 1.38.73l.04.03c.67.5 1.1.45 1.73-.08l.64-.58c.45-.43.88-.9 1.3-1.38a52.3 52.3 0 0 0 2.53-3.25c1.33-1.82 2.7-3.62 3.86-5.55a44.42 44.42 0 0 0 2.33-4.46c.51-1.12.98-2.25 1.47-3.38a38.07 38.07 0 0 0 1.94-5.82c.05-.17.34-1.29.55-2.2l.63-3.6c.13-.96.25-1.95.26-2.76l2.77-.94c.12.12.03.29-.03.45-.23.59-.44 1.18-.68 1.77-.35.82-.61 1.67-.84 2.53-.11.57-.42 2.1-.6 3.14-.65 4.17-1.12 8.3-1.28 12.53-.08 1.85-.23 3.71-.27 5.57a246.3 246.3 0 0 0-.05 4.7s-.2 5.25.27 9.01c.03.37.13.7.4.93.44.38 1.07.59 1.58.86.28.15.58.28.87.42.38.19.83.5 1.24.2.4-.3.71-1.03.98-1.44.25-.37.52-.73.76-1.1 1.28-1.94 2.63-3.84 3.8-5.86 1.2-2.1 2.35-4.24 3.45-6.4l1.79-3.55a67.71 67.71 0 0 0 1.49-3.2 46.66 46.66 0 0 0 2.22-6.32 67.28 67.28 0 0 0 1.69-9.5c.08-.08.27-.09.38-.11 1.14-.23 2.31-.3 3.46-.48 1.95-.3 3.89-.74 5.79-1.28.37-.1.74-.24 1.1-.37.99-.36 2.46-.98 3.76-1.85m32.49-41.7c-.21-.12.02-1.06.05-1.22.27-1.5.74-2.95.98-4.46.25-1.58.37-3.19.43-4.8.03-.9.04-1.81.03-2.73a39.08 39.08 0 0 0-1.1-9.33 39.83 39.83 0 0 0-3.78-9.93 21.63 21.63 0 0 0-1.63-2.44 27.6 27.6 0 0 0-5.61-5.38 54.84 54.84 0 0 0-5.3-3.36c-.54-.3-1.07-.6-1.64-.83-.45-.18-1-.2-1.4-.5-.17-.13-.27-.55.02-.6.16-.04.43.12.58.18.24.09.49.16.72.26.55.23 1.09.48 1.62.76a44.49 44.49 0 0 1 6.75 4.33 26.14 26.14 0 0 1 6.04 6.54c1.3 1.99 2.14 4.32 2.96 6.54a37 37 0 0 1 2.17 10.18 60.82 60.82 0 0 1-.03 9.14c-.17 2.34-.38 4.89-1.36 7.05-.06.13-.28.73-.5.6m-36.18-44.97l.17.14c-.01.07 0 .16-.05.2-.1.1-.22.2-.35.26a21.2 21.2 0 0 0-5.86 3.58c-2.78 2.32-5.52 5.03-7.37 8.16a53.69 53.69 0 0 0-4 8.3c-1.06 2.79-1.48 5.9-1.89 8.85a55.32 55.32 0 0 0-.31 8.35c.02 1.68-.03 3.38.35 5.02.05.23.2 1.07-.04 1.21-.5.3-.56-1.33-.6-1.52-.23-1.24-.23-2.5-.25-3.75 0-1.04-.06-2.07-.06-3.1 0-.95.1-1.9.12-2.85.02-1.57.1-3.05.39-4.6.28-1.58.5-3.16.84-4.73.19-.84.4-1.68.65-2.5.9-2.86 2.4-5.45 3.79-8.09a21.2 21.2 0 0 1 3.02-4.41c.64-.72 1.31-1.4 1.99-2.1a32.18 32.18 0 0 1 3.68-3.37 19.71 19.71 0 0 1 5.56-3.05c.07-.02.15 0 .22 0m21.84 47.12c-.19.56-1 .91-1.5 1.06a51.7 51.7 0 0 0-3.84 1.2c-1.25.44-2.47.95-3.7 1.46a43.2 43.2 0 0 0-3.62 1.7 837.5 837.5 0 0 0-3.64 1.94l-1.42.78-.7.39c-.16.08-.35.27-.54.24-.19-.03-.3-.28-.22-.45.07-.17.32-.28.47-.36 2.48-1.28 4.83-2.77 7.39-3.9.97-.42 1.9-.94 2.86-1.38.97-.44 1.97-.77 2.99-1.08l1.75-.55c.77-.26 1.54-.52 2.33-.72.4-.1.74-.17.75-.65.03-2.55.07-5.1.03-7.65a80.4 80.4 0 0 0-.06-2.21c-.07-2.12.03-4.22.11-6.33.05-1.36.13-2.72.11-4.07 0-.95-.06-1.9-.03-2.85 0-.19-.06-1.15.3-1.06.33.08.2 1 .2 1.21l.01 1.6c.02 1.93-.07 3.88-.13 5.83l-.04 2.8v1.62c-.02.68-.02 1.36.03 2.04.15 2.18.14 4.34.14 6.52v1.92c.01.28.06.6 0 .87l-.03.08"/><path fill="#202124" d="M179.27 113.13c.04-.03.1-.03.16 0 .1.07.08.5.1.62.03.41-.01.83 0 1.25.05.97.1 1.93.2 2.89.37 3.7.34 7.42.6 11.13.18 2.77.38 5.55.55 8.33.05.8.12 1.61.2 2.42.08.66.15 1.31.19 1.97.02.37.04.76-.02 1.12-.04.27-.22.5-.4.23-.2-.28-.14-.81-.15-1.14-.09-2.7-.38-5.39-.57-8.08l-.15-2.4-.15-2.68c-.2-3.13-.27-6.26-.47-9.38a61.8 61.8 0 0 1-.21-4.64c-.01-.35-.07-.69-.07-1.03 0-.1.05-.52.2-.61m-35.19 107c.02.02.04.03.05.06.08.17-.07.48-.25.51-.21.05-.42-.03-.63-.07-.57-.1-1.16-.05-1.75-.09-1.48-.1-2.96-.11-4.44-.26-.78-.09-1.56-.14-2.34-.2-.37-.01-.95.12-1.27-.13-.45-.37.06-.89.35-1.13.44-.37.9-.7 1.34-1.05a344.12 344.12 0 0 0 3.62-3c.3-.24.62-.46.94-.68.54-.36.38-1.22.4-1.79.02-.3-.1-.83.24-1.01.37-.2.4.5.4.7v.5c.04.61 0 1.25-.23 1.83-.61.65-1.45 1.03-2.11 1.62-.7.61-1.43 1.16-2.13 1.77-.33.29-.67.55-1.02.82-.18.13-1.1.56-.97.83.08.17.52.16.67.18l.73.06c.5.04 1 .06 1.5.08.7.03 1.4.1 2.1.15.45.03.9.03 1.36.06.9.08 1.8.15 2.69.17.23 0 .53-.05.75.07m37.86-72.57c-.12.07-.18.2-.25.34-.16.27-.31.55-.45.83-.3.62-.52 1.27-.73 1.92-.13.39-.22.79-.37 1.17-.07.17-.12.41-.24.56-.28.32-.31-.2-.28-.38.03-.25.09-.5.16-.74a14.15 14.15 0 0 1 1.1-2.86c.2-.4.35-.95.69-1.26.34-.32.88-.15 1.3-.16 1.88-.01 3.75-.2 5.64-.1a44 44 0 0 1 1.62.1c.48.04.96.1 1.44.18.18.03.77.08.76.36-.03.49-2.03-.03-2.3-.05-.64-.04-1.28 0-1.92 0-1.66.02-3.32-.02-4.98-.02-.35 0-.7.03-1.04.06a.34.34 0 0 0-.15.05m4.45 5.06c-.49-.02-.97-.1-1.45-.18-.15-.03-.5.28-.62.36l-.58.43c-.21.16-.41.33-.65.45a.92.92 0 0 1-.38.12c-.59.01.04-.5.2-.62.25-.21.52-.43.79-.62.38-.27.85-.7 1.35-.64.57.07 1.13.19 1.7.19a10.12 10.12 0 0 0 3.2-.46c.25-.07.5-.17.75-.25.14-.04.33-.13.48-.09.17.04.22.26.13.38-.08.1-.25.17-.37.22-.28.12-.6.17-.89.25a11.36 11.36 0 0 1-3.66.46m-10.31-8.94c-.08-.1-.08-.22.1-.33.14-.08.32.04.44.1.45.23.92.4 1.38.62.89.4 1.8.77 2.7 1.17l1.46.7c.28.14-.07.4-.25.39-.29-.02-.55-.2-.8-.31-1.42-.67-2.88-1.21-4.29-1.9-.1-.05-.58-.23-.74-.44m.23 1.84c.21-.06.59.14.76.2.6.26 1.2.55 1.76.85.28.16.57.28.83.48.08.07.25.2.17.32-.12.19-.64 0-.78-.05-.67-.31-1.33-.64-2-.97a6.79 6.79 0 0 1-.76-.44c-.12-.08-.14-.33.02-.4m18.38-57.08a.6.6 0 0 1 .56.02c.35.2-.03.5-.21.66-.2.16-.87.58-.73.89.14.3 1.09.32.22.56-.3.08-.83 0-1.06-.2-.48-.38.26-1.06.52-1.33.2-.23.44-.49.7-.6m2.03 1.65c-.23-.37-.05-.94.38-1.08a1 1 0 0 1 .77.15c.32.26.43.77.1 1.05-.32.26-.92.28-1.2-.04l-.05-.08m-2.88-2.25c-.34.8-1.41.33-1.22-.46.2-.85 1.4-.5 1.25.35 0 .04-.02.08-.03.11m-22.72 49.42c0 .11-.08.25-.15.34-.2.28-.44.52-.68.76-.14.14-.32.34-.53.38-.22.04-.43-.17-.33-.38.09-.2.32-.34.46-.5l.36-.38c.19-.19.47-.59.78-.36a.2.2 0 0 1 .09.14m-10.76 82.09c.1.09.07.33.08.45.02.45.15.89.14 1.34 0 .13.02.43-.05.55-.17.27-.44-.1-.49-.27-.1-.36-.03-.83-.03-1.2 0-.2-.04-.38-.02-.57.02-.15.13-.42.34-.32a.1.1 0 0 1 .03.02"/><path fill="#202124" d="M180.71 152.73c-.08-.06-.04-.3-.03-.4a3.16 3.16 0 0 1 .51-1.15c.06-.08.14-.22.23-.27.1-.07.3-.04.29.16-.03.22-.24.54-.33.74-.12.24-.22.5-.37.7-.05.08-.19.28-.3.22m.8.61c-.07-.07 0-.3.02-.4a3.22 3.22 0 0 1 .91-1.32c.11-.05.31 0 .26.2-.05.21-.3.5-.42.69-.14.23-.27.46-.45.66-.06.06-.22.24-.32.17m10.8-4.46c.36-.27.37.7.37.9 0 .17-.04.52-.16.66-.3.32-.34-.52-.34-.65l.01-.6c.01-.1.01-.22.1-.29l.02-.02m13.87-67.12a6.95 6.95 0 0 0-1.34-1.18 9.18 9.18 0 0 0-4.08-1.4 8.13 8.13 0 0 0-8.12 4.18 9.57 9.57 0 0 0-.86 2.04 8.11 8.11 0 0 0-.41 3.25c.15 1.38.66 2.7 1.49 3.82a6.66 6.66 0 0 0 2.35 1.96 8.03 8.03 0 0 0 6.04.46 8.96 8.96 0 0 0 4-2.5c.08-.1.76-.88.4-.94-.16-.02-.34.25-.44.36a11.6 11.6 0 0 1-3.14 2.12 8.6 8.6 0 0 1-4.83.57 7.32 7.32 0 0 1-4.48-2.97 5.45 5.45 0 0 1-.46-.9 7.6 7.6 0 0 1-.02-5.46c.12-.32.26-.63.4-.94.08-.2.14-.48.37-.54.32-.1.25.53.25.68-.02.45.15 1.02.32 1.44.18.46.47.86.86 1.16.92.71 2.18.84 3.3.78.95-.06 1.88-.23 2.8-.48.2-.05.52-.2.66.02.1.15.06.4.07.56.01.61.12 1.23.43 1.77.48.83 1.27 0 1.82-.27.6-.3 1.3-.4 1.9-.01.43.27.64.85 1.06 1.07.12.07.27.04.45-.15.23-.24.44-.58.52-.9.68-2.53.47-5.55-1.3-7.6"/><path fill="#202124" d="M199.59 88.77c-.03-.18-.1-.37-.17-.48a1.7 1.7 0 0 0-1.74-.68c-.17.05-.58.25-.5.48.06.24.45.21.64.22.32.02.6.1.83.33.18.18.3.54.57.6.3.06.4-.24.37-.47M195 86.63a1.3 1.3 0 0 0-.12-.45c-.26-.5-.94-.81-1.45-.66-.15.04-.5.23-.46.44.06.23.4.2.55.22.27.02.5.1.7.32.15.17.23.51.47.57.24.06.34-.22.32-.44m-21.23 54.62c-.32-.19-.66-.32-1-.47l-1.74-.75c-2.05-.87-4.15-1.61-6.18-2.53a76.02 76.02 0 0 0-3.22-1.38c-1.7-.68-3.43-1.33-5.12-2.08-1.65-.74-3.27-1.57-4.9-2.37a24.4 24.4 0 0 0-2.62-1.14c-2.03-.74-3.97-1.72-6-2.48-1.14-.43-2.3-.83-3.4-1.36-.2-.1-.72-.2-.87.04-.12.17.1.62.12.82.13.79.3 1.57.45 2.35l.12.61a74.3 74.3 0 0 1 .9 4.58c.65 3.56 1.3 7.13 2.03 10.68.57 2.73 1.33 5.42 1.86 8.16.2.96.35 1.9.67 2.83.64.26 1.3.5 1.94.79 1.34.6 2.64 1.36 4.02 1.85.2.07 1 .45 1.08.05.08-.33-.67-.56-.88-.64-1.16-.49-2.3-1.04-3.46-1.54l-2.22-.97-.32-1.34-.4-1.85c-.23-1.1-.42-2.2-.69-3.3-.6-2.46-1.11-4.94-1.65-7.42-.64-2.87-1.08-5.77-1.7-8.64-.43-1.92-.76-3.85-1.25-5.75l-.19-.91c.88.34 1.57.62 2.27.87l1.53.58a341.36 341.36 0 0 0 6.7 2.84 72.11 72.11 0 0 1 3.88 1.76c1.6.77 3.22 1.5 4.87 2.17l1.51.62c1.74.71 3.44 1.5 5.16 2.24a119.3 119.3 0 0 0 3.16 1.31c.9.36 1.79.7 2.68 1.08.5.22.99.47 1.49.7.24.12.5.23.75.33.18.08.4.24.62.2.11 0 .31-.18.3-.3-.02-.12-.21-.2-.3-.24m7.59 13.27a.4.4 0 0 0-.25.1l-.77.55-1.87 1.35-1.05-.48c-.1-.38-.2-1.2-.23-1.32l-.3-1.43a116.4 116.4 0 0 1-.6-3.27c-.27-1.52-.53-3.05-.81-4.56-.03-.18-.53-2.93-.66-2.9-.38.1-.39.33-.35.66.16 1.54.49 3.06.74 4.59.36 2.21.83 4.4 1.2 6.61.18 1.03.36 2.06.56 3.08.68 3.63 1.39 7.27 2.06 10.9.05.23.32.93.6.53.09-.12.05-.4.02-.59l-.04-.22c-.5-2.6-1.02-5.18-1.53-7.78-.17-.88-.31-1.75-.42-2.63l-.19-1.02c.28.1.76.41 1.06.38.23-.03.47-.3.65-.41l.75-.52c.5-.35.98-.7 1.49-1.03.29-.19.37-.56-.06-.59m-37.25 65.56l.02.03-.02-.04z"/><path fill="#FFF" d="M167.46 169.68c-.01-.02-.06-.11-.08-.11h-.17l-.2.04a23.21 23.21 0 0 0-2.38 5.14l.18.21.04.02h.03c.25-.13.34-.37.43-.6l.54-1.2c.29-.67.57-1.32.88-1.97.13-.3.3-.58.45-.86l.29-.5c.02-.05 0-.1-.01-.17"/><path fill="#202124" d="M143.8 214.44c-.16.15-.6-.2-.77-.27-.3-.15-.66-.37-.99-.45-.18-.05-.25.1-.21.28.06.33.63.55.88.71l.56.35c.08.05.57.3.58.37.06.77.04 1.54.02 2.31v1.15c0 .3-.12 1.38.5 1.09.3-.14.18-.62.17-.87a64.39 64.39 0 0 1 0-3.17c.03-.69-.03-1.37-.08-2.05l-.05-.97c0-.44-.22-.41-.6-.4-.08.62 0 1.29 0 1.92m19.7 8.51c0 .06-.01.11-.03.16-.01.03-1.12-.44-1.24-.44-.27 0-.3.34-.15.52.12.14.3.25.46.34.26.13.78.25.96.5l.05.1.2 4.31-.02.08c-.18.43-.94.31-1.3.3-1-.06-2-.2-3-.2-1.75-.03-3.5-.04-5.26-.06-.15 0-.3.01-.44-.02a.6.6 0 0 1-.33-.18c-.1-.16.04-.26.16-.35l1.31-.9 5.02-3.72c.24-.18.46-.4.62-.63.1-.15.13-.3.07-.45-.2-.5-.68.13-.94.31-.44.33-.86.68-1.31 1-1.03.74-1.97 1.59-2.99 2.34l-1.56 1.11c-.4.3-.98.63-1.24 1.1-.11.2-.1.48.12.63.36.27.94.22 1.36.22.65 0 1.3-.02 1.95.01.81.05 1.62.16 2.43.18 1.08.03 2.16.02 3.23.06.51.03 1.02.09 1.53.15.32.04.82.12 1.05-.18.36-.45.16-.99.14-1.51-.04-1-.06-1.99-.12-2.99-.04-.54-.1-1.07-.16-1.6-.06-.68-.08-1.35-.11-2.02-.01-.17.08-.55-.06-.68-.23-.2-.46.1-.49.3-.03.29.02.59.03.87.01.42.13.93.06 1.34"/><path fill="#D2E3FC" d="M207.2 120.6c-.07-.2-.64-.32-.82-.39-1.9-.62-3.86-1.04-5.78-1.58-2-.56-4.02-1.13-6.02-1.71-1.37-.4-2.76-.77-4.11-1.24-1.35-.47-2.74-.81-4.1-1.27-.4-.13-.8-.24-1.22-.34-.12-.03-.36-.17-.48-.13-.58.22.13.6.35.67l4.82 1.45.59.18c1.16.39 2.34.73 3.5 1.1 2.74.87 5.52 1.53 8.29 2.25.94.25 1.88.51 2.81.78.48.14.96.3 1.44.43.16.05.66.15.74-.1a.14.14 0 0 0 0-.1m-.01 9.65c-.07-.21-.64-.32-.82-.39-1.9-.62-3.86-1.05-5.78-1.58l-6.02-1.72c-1.37-.4-2.76-.76-4.11-1.23-1.35-.47-2.74-.82-4.1-1.27-.4-.14-.8-.24-1.22-.34-.12-.03-.36-.17-.48-.13-.58.22.13.6.35.67l4.82 1.45.59.18c1.16.39 2.34.73 3.5 1.1 2.74.87 5.52 1.52 8.29 2.25.94.25 1.88.5 2.81.78l1.44.43c.16.05.66.15.74-.1a.14.14 0 0 0 0-.1"/><path fill="#FFF" d="M40.03 108.51c1.22.93 2.3 1.77 3.28 2.78.21.21.56 0 .57-.26 0-.3-.61-.67-.8-.86-.7-.66-1.46-1.24-2.2-1.82l-.23-.18c-.2-.15-1.24-.68-.9-.01.05.13.16.26.28.35m4.53 29.98c-.77-.9-1.68-1.67-2.6-2.45-.4-.35-.81-.72-1.27-1.01-.12-.08-.54-.4-.69-.36-.32.06-.22.37 0 .55l.72.6.4.31.53.42c.4.31.81.64 1.16 1 .47.48.9 1 1.32 1.51.18.22.31.61.59.73.51.23.6-.27.34-.62-.17-.25-.33-.47-.5-.68m-4.72-49.47l.03.08c.05.08.2.14.28.2.3.2.57.41.86.62.33.23.64.5.99.7.14.08.25.24.44.17.67-.27-.9-1.34-1.16-1.5-.34-.2-1.68-1.2-1.44-.27m8.61 7.61l.06-3.64c.02-1.53.05-3.06.05-4.59 0-2.4-.09-4.34-.26-6.14v-.36c-.01-.26-.02-.52-.17-.85-.01-.04-.02-.08-.07-.1l-.02-.01-.04-.03c-.03 0-.06 0-.06.02l-.05.37c-.03.23-.05.43-.05.62l.02 1.54c0 1.05.05 2.1.1 3.15.03.95.08 1.9.09 2.85.03 2.96-.07 5.97-.17 8.88-.11 3.21-.23 6.53-.16 9.8.02.74.06 1.48.1 2.22a64 64 0 0 1 .1 2.05c.06 2.11-.01 4.28-.08 6.38a178.4 178.4 0 0 0-.1 3.41c-.03 1.89-.02 3.78-.01 5.66 0 1.9.01 3.81-.02 5.8a182.06 182.06 0 0 0 0 8.05v1.07c.01 1.19.02 2.41.2 3.58.06.4.13.48.2.48.27 0 .39-1.48.39-1.5.01-.27-.03-.54-.06-.8a5.33 5.33 0 0 1-.07-.64l-.03-1.23-.06-2.32c-.02-1.35.03-2.71.07-4.04.03-.68.05-1.37.06-2.05a49.7 49.7 0 0 0-.04-3.58 90.24 90.24 0 0 1-.06-7.41c.07-2.24.1-4.52.12-6.72 0-1.05.02-2.1.04-3.16.02-1.68-.03-3.39-.08-5.04-.04-1.35-.08-2.7-.08-4.03 0-1.37.04-2.73.07-4.09.04-1.2.07-2.4.07-3.6m60.7 8.71a11.1 11.1 0 0 0-7.68-.76l-.1.04-.05.02.36.47c2.26-.76 4.93.03 7.1.67a.8.8 0 0 0 .26.05.4.4 0 0 0 .32-.17c.01-.02-.04-.13-.05-.14-.04-.08-.08-.15-.16-.18m-56.85 5.09l.04.04c.62-.64 1-1.5 1.5-2.22.62-.89 1.3-1.75 1.97-2.58a24.7 24.7 0 0 1 4.35-4.38c1.12-.82 2.35-1.46 3.47-2.28.18-.14.35-.29.5-.46-.08-.07-.4-.25-.54-.22l-.1.03c-.07.02-.13.03-.17.06-2.75 1.57-5.6 3.64-7.59 6.13a30.5 30.5 0 0 0-1.88 2.53c-.41.65-2.25 2.55-1.55 3.35m57.58-28.9a.46.46 0 0 0-.1-.15c-.25-.24-.88-.28-1.2-.28-.24 0-.47.02-.73.05-.44.04-1.08.15-1.32.54.32.4 1.04.28 1.48.24a5.43 5.43 0 0 1 1.66.04h.04c.3.01.27-.25.17-.44M97.23 117.7c-.52-.65-1.04-1.2-1.22-1.2a.35.35 0 0 0-.14.05c-.04.01-.1.04-.18.15.97.95 1.63 2.06 2.33 3.22l.12.2c.01.02.03.03.07.03l.1-.06.24-.2c.17-.13-.58-1.27-1.32-2.19m-31.78.38c-.36.06-.85.62-1.14.83-.5.36-1 .73-1.45 1.18-.31.31-.64.61-.97.9a18.8 18.8 0 0 0-1.66 1.68 44.92 44.92 0 0 0-3.56 4.85l-.46.7c-.25.34-.5.7-.7 1.07-.5.9-.97 1.8-1.44 2.7l-.48.95a3.6 3.6 0 0 0-.24.51l-1.13 3.38a.7.7 0 0 0-.01.3c0 .04 0 .09.08.19.35 0 .43-.24.51-.46l.04-.1c.34-.9.67-1.81.98-2.73 1.09-3.21 3.18-6.07 5.19-8.78a28.41 28.41 0 0 1 5.77-5.9l.97-.8c.33-.26.03-.52-.3-.47m-7.27-38.92c-.17-.61-1.84 1.11-2 1.28a17.3 17.3 0 0 0-1.97 2.33c-.67 1-1.44 2.23-1.33 3.48l.5-.26c.6-2.21 2.24-4.66 4.1-5.99.19-.13.78-.55.7-.84"/><path fill="#202124" d="M116.47 105.45l-.02 10.82c0 .37.04.74-.17 1.15-.99-.27-1.86-.87-2.88-1.13l-.3.4c.82.58 1.79.77 2.67 1.26-.72.4-1.36.75-2 1.12-1.14.64-10.6 5.94-11.97 6.85-1 .68-19.43 11.58-19.97 11.9-1.25.74-11.12 6.36-11.18 6.4-1.15.68-7.91 4.74-8.2 4.78-1.3.86-7.64 4.36-9 5.18-.7.43-1.4.84-2.1 1.25-1.16.67-2.28 1.4-3.45 2.04-1.86 1.02-8.7 5.09-10.39 5.86-.05.03-.13 0-.24 0-.1-.14-.15-18.6-.16-19.35 0-2.3-.05-8.77-.06-9.13l-.11-4.2c.03-.18 0-2.97 0-3.84l18.3-9.14.4 29.34c-.28.13-.56.27-.86.39-.9.35-1.75.81-2.59 1.3-.9.52-9.36 5.24-10.37 6.04l-2.22 1.28-.12.36h.3l10.85-6.06 9.33-5.06c.09-.1 2.4-1.48 2.4-1.48l2.16-1.21c.07-.04 11.82-6.58 12.1-6.77.12-.08 11.63-6.78 13.12-7.6.69-.37 1.36-.78 2.06-1.11.35-.16 10.98-6.28 11.54-6.57.8-.4 7.1-3.97 7.86-4.4v-.01l.64-.41v-4.27c.03-4.16.12-17.71.17-23.05.01-1.87.02-3.74-.01-5.6a167.6 167.6 0 0 1-.02-5.63c.03-1.5-.18-10.35-.13-13.29.06-3.17 0-6.37-.02-9.55a940.9 940.9 0 0 1 0-11.88c.02-3.5.01-6.98 0-10.47 0-1.7-.02-3.39 0-5.08v-.08l4.56-2c.07.83.07 8.72.04 10.43-.01.81.05 37.73.05 40l.02 23.58-.03 6.64zM36.94 124.2c.04-2.48.12-7.44.1-8.19 0-.26.06-9.7.06-13.23 0-2.31.02-4.62.03-6.92V94.1c1.04-.44 2-.86 2.96-1.24 2.42-.98 9.15-4.44 10.2-4.99 1.3-.66 2.58-1.33 3.87-2l1.07-.53c.26.11.2.31.2.48-.02 1.19-.13 24.66-.17 25.28 0 .12.19 4.28.07 5.52-.14.1-.3.24-.5.34a409.9 409.9 0 0 1-7.52 3.81c-1.54.81-3.03 1.7-4.64 2.37-1.06.44-2.06 1.02-3.09 1.52-.83.4-1.67.78-2.58 1.2l-.06-.25v-1.43zm0-63.65c.34-.33.83-.44 1.28-.58.92-.3 6.68-3.38 8.8-4.27.35-.15.66-.35 1-.5 2.15-1.03 7.2-3.34 7.62-3.46v14.14c-.03 1.2-.05 2.4 0 3.58v.11s-.17 12.2-.14 12.64c.05.62.03 1.23.02 1.85 0 .14-.1.27-.2.52-.98.5-10.3 5.33-11.32 5.78l-6.36 2.94c-.13.06-.27.1-.41.14-.12-.23-.23-9.79-.3-17.57V60.54zm19.47 56.61a118 118 0 0 1 8-4.4c.17-.06.33-.17.49-.25l1.66-.91a269.15 269.15 0 0 1 8.05-4.41l.04 28.27c-.01.18-.02.37 0 .55-.5.48-11.02 6.3-11.24 6.44l-.75.45-.39.22a9.8 9.8 0 0 0-.82.5l-5.04 3.04v-29.5zm0-32.36c.21-.13.43-.26.66-.38l3.3-1.59a48.25 48.25 0 0 1 4.01-1.67c1.15-.41 2.22-1.03 3.33-1.54 2.08-.97 4.17-1.92 6.27-2.88.16-.08.34-.14.63-.25 0 0-.23 16.22-.1 16.55.04.1.1 10.93.1 10.93v.84c-.02.51-.12 1.02-.19 1.55-.75.46-1.45.96-2.21 1.33-1.57.77-3.05 1.7-4.6 2.5-1.1.6-2.19 1.24-3.3 1.83-1.88.98-3.77 1.92-5.65 2.9-.76.39-1.5.82-2.25 1.23V84.8zm.1-10.46l.1-9c.04-.5.12-12.48.12-12.48v-.3l.01-1.21c.2-.13.38-.31.6-.42 1.21-.57 2.44-1.12 3.65-1.68l1.31-.6c.94-.45 1.88-.9 2.82-1.33.78-.36 1.56-.7 2.32-1.1 1.72-.88 3.47-1.7 5.27-2.4.64-.26 1.27-.54 1.9-.82v11.53l-.04 1.62c-.03.63.03 1.25.02 1.88v1.9l.02 3.01v5.78c0 .53 0 1.07-.03 1.6a91.5 91.5 0 0 0 0 5.16c-.07.1-.1.2-.15.23l-3.02 1.44-2.59 1.26c-.43.22-5.97 2.62-6.83 2.96-1.37.56-2.71 1.2-4.06 1.83-.5.23-.97.53-1.52.83l.1-9.7zm18.89 1.75c1.39-.91 2.99-1.46 4.44-2.27 1.49-.84 3.08-1.49 4.61-2.23 1.51-.72 3-1.5 4.51-2.2 1.52-.7 3.06-1.33 4.67-2.02l-.1 13.86-.03 3.69-.12 11.28c-1.45.8-2.84 1.57-4.25 2.32l-4.34 2.29c-.3.15-.58.32-.87.5-1.05.62-2.08 1.3-3.2 1.8-1.44.61-2.76 1.46-4.13 2.2-.36.19-.7.37-1.18.43a412.8 412.8 0 0 1-.14-7.85s.02-21.16.13-21.8zm-.13-18.04l.01-1.22v-.07l.03-5.44c.02-.55-.04-8.61-.04-8.61l2.23-1c.92-.4 1.86-.75 2.77-1.17 1.58-.74 3.2-1.42 4.8-2.1 1.37-.58 2.74-1.13 4.12-1.7l.61-.24 3.48-1.5c.06-.04.14-.01.28-.01.03.29.09.57.09.86l-.01 4.01v7.93l.02 1.51v13.2l-.04 3.54c0 .1-.03.22-.04.3-.17.3-.42.45-.7.56a365.84 365.84 0 0 0-3.47 1.5c-1.48.7-3 1.3-4.42 2.1-1.43.82-2.98 1.36-4.41 2.15-1.01.55-2.05 1.05-3.09 1.56-.69.34-1.4.66-2.04.97a.7.7 0 0 1-.18-.1V58.04zm.09 52.15c.06-1-.06-2-.02-3 0-.07.04-.14.1-.37.23-.14.46-.33.72-.47 1.4-.76 2.78-1.58 4.22-2.26 1.28-.61 2.48-1.35 3.7-2.05.42-.24.8-.53 1.23-.76.38-.22.78-.4 1.15-.65.54-.37 1.2-.59 1.8-.86.27-.12.56-.21.81-.35l4.2-2.27c.06-.04.14-.03.27-.05.06.1.1.2.12.3v4.93a30.3 30.3 0 0 0 0 2.35v4.7c-.02.4-.01.8 0 1.2v.79c0 .13 0 .27-.02.4-.06.81-.03 1.63-.02 2.44 0 .6-.09 2.57-.06 2.97 0 .19.09 5.02.1 7.26 0 .14-.02.3-.04.5-.2.16-.42.37-.67.51-1.5.89-2.93 1.91-4.56 2.56-2.43 1.38-4.94 2.6-7.26 4.15-.52.35-2.97 2-3.68 2.29-.64.27-1.23.65-1.88 1.01l-.12-.13c.03-.5.07-.94.07-1.38.02-3.84-.18-23.48-.16-23.76zm19.05-1.87l.05-10.13a3 3 0 0 0-.05-.59v-.4l.18-.63c1.26-.81 2.66-1.32 4-1.96 1.2-.58 2.4-1.16 3.61-1.72.61-.28 1.24-.5 1.85-.77.72-.3 1.45-.58 2.15-.93.92-.47 1.82-1 2.74-1.48l.98-.45c.3-.13.73-.5 1.07-.5l-.1 18.01v.05l-.04 7.1c0 .14-.01.78.02.96.04.17-.28.82-.5.94-.85.46-1.71.9-2.55 1.37-.86.5-1.7 1.03-2.55 1.55a27.46 27.46 0 0 1-3.32 1.8c-.37.16-.72.37-1.19.62-.13.01-5.16 2.55-6.02 3.2-.09-.17-.17-.25-.18-.35-.08-.75-.15-15.7-.15-15.7zm0-37.1V67.7c.04-.28.13-.55.24-.8.6-.28 1.17-.56 1.76-.8 1.5-.66 6.17-2.83 6.78-3.1.13-.05 1.8-.88 2.56-1.2.82-.35 1.58-.84 2.42-1.14.91-.33 1.78-.73 2.66-1.13.05-.02.13.04.2.05v.6c-.01.05-.03.1-.02.16 0 0 0 .02.02.03l-.02 15.8c-.03.3-.03 2.01 0 2.35l-.02 9.45c-.49.18-.9.29-1.3.48-1.32.66-2.66 1.3-3.95 2.03-1.43.81-2.96 1.4-4.42 2.11-1.3.64-2.67 1.1-3.96 1.76-.83.42-1.68.8-2.52 1.19-.12.05-.26.07-.38.1l-.05-.12v-24.3zm0-10.31a3 3 0 0 0 0-.61v-.89c.04-.11.03-.25.03-.37l-.03-.59v-1.33c0-.13.02-.26.04-.39.03-.1-.02-.24-.04-.36v-.59c.1-.3 0-.9 0-.9v-20.4l1.64-.8c.47-.23.92-.49 1.4-.69 1.75-.73 3.5-1.45 5.26-2.16.96-.38 1.9-.81 2.84-1.27a94.4 94.4 0 0 1 4.97-2.2c.08-.04.19 0 .27 0l.07 9.03v.4l.04 5.9c0 .39 0 .78-.02 1.17l.08 7.04.02 2.06-.03.49.03.12.03 3.57c-.02.13-.01.6 0 .71v.34c0 .1-.04.18-.06.27l-1.62.87-.1.06c-2.26.97-7.12 3.24-7.31 3.36-1.31.77-2.7 1.4-4.08 2.03-.98.45-1.98.84-2.98 1.25-.13.05-.27.07-.45.11v-5.23zm22.88 15.96c-.02-1.35-.04-11.18-.01-14.75 0-1.05.02-2.09.06-3.13.12-3.62 0-7.27-.03-10.9l-.05-3.22c-.1-4.34-.11-8.68-.08-13.03v-3.83c0-1.03-.02-2.06-.04-3.09 0-.23-.02-1-.21-1.13-.31-.22-24.94 10.91-25.08 10.98-.92.39-14.62 6.26-16.45 7.07l-2.04.9-4.39 1.9c-.94.42-1.83.96-2.79 1.37-.88.38-1.74.82-2.6 1.26-1.26.62-27 12.43-27.16 12.3-.08.21-.2.37-.2.54-.03.52 0 1.04 0 1.56-.01 1.67 0 3.34-.04 5.02-.01.7.03 3.12.03 3.64l.12 26.97s-.05 5.7-.07 5.87c.02.08.06 8.7.05 8.74.01.1-.02 4.52-.05 4.57.04.08-.1 7.52-.09 8.16.02 1 0 2 .03 3.01.03 1 .1 3.81.04 4.2-.08.49.12.95 0 1.44-.04.16-.05 24.83-.05 25.7 0 1.08.06 3.97.14 4.34.04.2.1.4.18.6l.5.45c1-.55 21.95-12.8 22.32-12.95.33-.14 33.83-19.26 34.9-19.96 1.03-.66 2.04-1.34 3.1-1.94.33-.18.64-.37.96-.56.8-.46 1.53-1.04 2.35-1.48.67-.36 16.24-9.69 16.45-9.75.07-.7.08-2.81.08-3.21-.03-2.47.02-4.93-.03-7.4-.05-2.22.21-20.73.2-22.7l-.05-7.56z"/></g></g></svg>