<svg xmlns="http://www.w3.org/2000/svg" xmlns:xlink="http://www.w3.org/1999/xlink" width="200" height="200" version="1.1" viewBox="0 0 640 640"><defs><path id="a2TCfmDqly" d="m325.25 0.21 2.58 0.26 2.55 0.37 2.52 0.46 2.48 0.56 2.44 0.65 2.41 0.75 2.36 0.84 2.32 0.93 2.28 1.01 2.22 1.1 2.18 1.19 2.12 1.26 2.07 1.34 2.02 1.42 1.95 1.49 1.9 1.57 1.83 1.63 1.78 1.7 1.7 1.78 1.63 1.83 1.57 1.9 1.49 1.95 1.42 2.02 1.34 2.07 1.26 2.12 1.19 2.18 1.1 2.22 1.01 2.28 0.93 2.32 0.84 2.36 0.75 2.41 0.65 2.44 0.56 2.48 0.46 2.52 0.37 2.55 0.26 2.58 0.16 2.61 0.05 2.64-0.06 2.64-0.16 2.61-0.26 2.58-0.37 2.55-0.46 2.51-0.56 2.48-0.66 2.45-0.75 2.4-0.84 2.36-0.93 2.32-1.01 2.27-1.1 2.23-1.18 2.17-1.27 2.13-1.34 2.07-1.42 2.01-1.49 1.96-1.56 1.89-1.64 1.84-1.7 1.77-1.77 1.7-1.84 1.64-1.89 1.56-1.96 1.49-2.01 1.42-2.07 1.34-2.13 1.27-2.17 1.18-2.23 1.1-2.27 1.01-2.32 0.93-2.36 0.84-2.4 0.75-2.45 0.66-2.48 0.56-2.51 0.46-2.55 0.37-2.58 0.26-2.61 0.16-2.64 0.06-2.64-0.05-2.61-0.16-2.58-0.26-2.55-0.37-2.52-0.46-2.48-0.56-2.44-0.65-2.41-0.75-2.36-0.84-2.32-0.93-2.28-1.01-2.22-1.1-2.18-1.19-2.12-1.26-2.07-1.34-2.02-1.42-1.95-1.49-1.9-1.57-1.83-1.63-1.77-1.7-1.71-1.78-1.63-1.83-1.57-1.9-1.49-1.95-1.42-2.02-1.34-2.07-1.26-2.12-1.19-2.18-1.1-2.22-1.01-2.28-0.93-2.32-0.84-2.36-0.75-2.41-0.65-2.44-0.56-2.48-0.46-2.52-0.37-2.55-0.26-2.58-0.16-2.61-0.05-2.64 0.05-2.64 0.16-2.61 0.26-2.58 0.37-2.55 0.46-2.52 0.56-2.48 0.65-2.44 0.75-2.41 0.84-2.36 0.93-2.32 1.01-2.28 1.1-2.22 1.19-2.18 1.26-2.12 1.34-2.07 1.42-2.02 1.49-1.95 1.57-1.9 1.63-1.83 1.71-1.78 1.77-1.7 1.83-1.63 1.9-1.57 1.95-1.49 2.02-1.42 2.07-1.34 2.12-1.26 2.18-1.19 2.22-1.1 2.28-1.01 2.32-0.93 2.36-0.84 2.41-0.75 2.44-0.65 2.48-0.56 2.52-0.46 2.55-0.37 2.58-0.26 2.61-0.16 2.64-0.05 2.64 0.05 2.61 0.16zm-8.75 21.26-1.72 0.18-1.7 0.24-1.68 0.31-1.65 0.37-1.63 0.44-1.61 0.5-1.57 0.56-1.55 0.62-1.51 0.67-1.49 0.74-1.45 0.78-1.41 0.85-1.39 0.89-1.34 0.95-1.3 0.99-1.27 1.04-1.22 1.09-1.18 1.14-1.14 1.18-1.09 1.22-1.04 1.27-0.99 1.3-0.95 1.34-0.89 1.39-0.85 1.41-0.78 1.45-0.74 1.49-0.67 1.51-0.62 1.55-0.56 1.57-0.5 1.61-0.44 1.63-0.37 1.65-0.31 1.68-0.24 1.7-0.18 1.72-0.1 1.74-0.04 1.76 0.04 1.76 0.1 1.74 0.18 1.72 0.24 1.7 0.31 1.68 0.37 1.65 0.44 1.63 0.5 1.61 0.56 1.57 0.62 1.55 0.67 1.51 0.74 1.49 0.78 1.45 0.85 1.41 0.89 1.39 0.95 1.34 0.99 1.3 1.04 1.27 1.09 1.22 1.14 1.18 1.18 1.14 1.22 1.09 1.27 1.04 1.3 0.99 1.34 0.95 1.39 0.89 1.41 0.85 1.45 0.78 1.49 0.74 1.51 0.67 1.55 0.62 1.57 0.56 1.61 0.5 1.63 0.44 1.65 0.37 1.68 0.31 1.7 0.24 1.72 0.18 1.74 0.1 1.76 0.04 1.76-0.04 1.74-0.1 1.72-0.18 1.7-0.24 1.68-0.31 1.65-0.37 1.63-0.44 1.61-0.5 1.57-0.56 1.55-0.62 1.51-0.67 1.49-0.74 1.45-0.78 1.41-0.85 1.39-0.89 1.34-0.95 1.3-0.99 1.27-1.04 1.22-1.09 1.18-1.14 1.14-1.18 1.09-1.22 1.04-1.27 0.99-1.3 0.95-1.34 0.89-1.39 0.85-1.41 0.78-1.45 0.74-1.49 0.67-1.51 0.62-1.55 0.56-1.57 0.5-1.61 0.44-1.63 0.37-1.65 0.31-1.68 0.24-1.7 0.18-1.72 0.1-1.74 0.04-1.76-0.04-1.76-0.1-1.74-0.18-1.72-0.24-1.7-0.31-1.68-0.37-1.65-0.44-1.63-0.5-1.61-0.56-1.57-0.62-1.55-0.67-1.51-0.74-1.49-0.78-1.45-0.85-1.41-0.89-1.39-0.95-1.34-0.99-1.3-1.04-1.27-1.09-1.22-1.14-1.18-1.18-1.14-1.22-1.09-1.27-1.04-1.3-0.99-1.34-0.95-1.39-0.89-1.41-0.85-1.45-0.78-1.49-0.74-1.51-0.67-1.55-0.62-1.57-0.56-1.61-0.5-1.63-0.44-1.65-0.37-1.68-0.31-1.7-0.24-1.72-0.18-1.74-0.1-1.76-0.04-1.76 0.04-1.74 0.1z"/><path id="a1AOxaLswq" d="m283.9 140.66 1.81 0.82 1.83 0.78 1.84 0.74 1.85 0.69 1.87 0.64 1.87 0.6 1.89 0.56 1.89 0.51 1.91 0.47 1.91 0.42 1.92 0.38 1.92 0.34 1.93 0.29 1.94 0.24 1.94 0.2 1.94 0.16 1.95 0.11 1.94 0.07 1.95 0.02 1.95-0.02 1.94-0.07 1.95-0.11 1.94-0.16 1.94-0.2 1.94-0.24 1.93-0.29 1.92-0.34 1.92-0.38 1.91-0.42 1.91-0.47 1.89-0.51 1.89-0.56 1.87-0.6 1.87-0.64 1.85-0.69 1.84-0.74 1.83-0.78 1.81-0.82 1.8-0.87 2.25-1.12h2.52l2.19 0.04 2.18 0.14 2.15 0.22 2.12 0.3 2.1 0.39 2.07 0.47 2.03 0.55 2 0.62 1.97 0.7 1.94 0.77 1.89 0.85 1.85 0.92 1.82 0.98 1.77 1.06 1.72 1.11 1.68 1.19 1.63 1.24 1.58 1.3 1.53 1.37 1.47 1.42 1.42 1.47 1.36 1.53 1.31 1.58 1.24 1.63 1.18 1.68 1.12 1.72 1.05 1.77 0.99 1.81 0.92 1.86 0.84 1.89 0.78 1.93 0.7 1.97 0.62 2 0.55 2.04 0.47 2.07 0.38 2.09 0.31 2.13 0.22 2.15 0.13 2.17 0.05 2.2v64l-0.03 1.32-0.08 1.3-0.13 1.3-0.18 1.27-0.23 1.26-0.28 1.24-0.33 1.22-0.37 1.2-0.42 1.19-0.46 1.16-0.51 1.13-0.55 1.12-0.59 1.08-0.63 1.07-0.68 1.03-0.7 1.01-0.75 0.98-0.78 0.95-0.82 0.91-0.85 0.89-0.89 0.85-0.91 0.82-0.95 0.78-0.98 0.75-1.01 0.7-1.03 0.68-1.07 0.63-1.08 0.59-1.12 0.55-1.13 0.51-1.16 0.46-1.19 0.42-1.2 0.37-1.22 0.33-1.24 0.28-1.26 0.23-1.27 0.18-1.3 0.13-1.3 0.08-1.32 0.03h-128l-1.32-0.03-1.3-0.08-1.3-0.13-1.27-0.18-1.26-0.23-1.24-0.28-1.22-0.33-1.2-0.37-1.19-0.42-1.16-0.46-1.13-0.51-1.12-0.55-1.08-0.59-1.07-0.63-1.03-0.68-1.01-0.7-0.98-0.75-0.95-0.78-0.91-0.82-0.89-0.85-0.85-0.89-0.82-0.91-0.78-0.95-0.75-0.98-0.7-1.01-0.68-1.03-0.63-1.07-0.59-1.08-0.55-1.12-0.51-1.13-0.46-1.16-0.42-1.19-0.37-1.2-0.33-1.22-0.28-1.24-0.23-1.26-0.18-1.27-0.13-1.3-0.08-1.3-0.03-1.32v-64l0.05-2.2 0.13-2.17 0.22-2.15 0.31-2.13 0.38-2.09 0.47-2.07 0.55-2.04 0.62-2 0.7-1.97 0.78-1.93 0.84-1.89 0.92-1.86 0.99-1.81 1.05-1.77 1.12-1.72 1.18-1.68 1.24-1.63 1.31-1.58 1.36-1.53 1.42-1.47 1.47-1.42 1.53-1.37 1.58-1.3 1.63-1.24 1.68-1.19 1.72-1.11 1.77-1.06 1.82-0.98 1.85-0.92 1.89-0.85 1.94-0.77 1.97-0.7 2-0.62 2.03-0.55 2.07-0.47 2.1-0.39 2.12-0.3 2.15-0.22 2.18-0.14 2.19-0.04h2.52l2.25 1.12 1.8 0.87zm76.73 21.31-2.17 0.87-2.19 0.82-2.21 0.77-2.21 0.71-2.23 0.67-2.24 0.62-2.24 0.57-2.26 0.53-2.26 0.47-2.28 0.42-2.27 0.37-2.29 0.32-2.29 0.28-2.29 0.22-2.3 0.17-2.3 0.13-2.3 0.07-2.3 0.03-2.3-0.03-2.3-0.07-2.3-0.13-2.3-0.17-2.29-0.22-2.29-0.28-2.28-0.32-2.28-0.37-2.27-0.42-2.27-0.47-2.26-0.53-2.24-0.57-2.24-0.62-2.23-0.67-2.21-0.71-2.21-0.77-2.19-0.82-2.17-0.87-2.16-0.92-2.15-0.96-1.25 0.11-1.23 0.16-1.22 0.2-1.2 0.26-1.18 0.29-1.17 0.34-1.15 0.38-1.12 0.42-1.11 0.46-1.08 0.5-1.06 0.54-1.04 0.58-1.01 0.62-0.98 0.65-0.96 0.68-0.94 0.72-0.9 0.75-0.88 0.78-0.85 0.82-0.81 0.84-0.79 0.88-0.75 0.9-0.72 0.93-0.68 0.96-0.66 0.98-0.61 1-0.58 1.03-0.54 1.06-0.5 1.07-0.47 1.1-0.42 1.11-0.38 1.14-0.34 1.15-0.3 1.17-0.26 1.19-0.21 1.2-0.16 1.21-0.12 1.23-0.07 1.25-0.03 1.25v64l0.01 0.44 0.03 0.43 0.04 0.44 0.06 0.42 0.08 0.42 0.09 0.41 0.11 0.41 0.13 0.4 0.14 0.4 0.15 0.38 0.17 0.38 0.18 0.37 0.2 0.36 0.21 0.36 0.46 0.68 0.25 0.33 0.26 0.31 0.27 0.31 0.58 0.58 0.31 0.27 0.31 0.26 0.33 0.25 0.68 0.46 0.36 0.21 0.36 0.2 0.37 0.18 0.38 0.17 0.38 0.15 0.4 0.14 0.4 0.13 0.41 0.11 0.41 0.09 0.42 0.08 0.42 0.06 0.44 0.04 0.43 0.03 0.44 0.01h128l0.29-0.01 0.3-0.02 0.29-0.03 0.29-0.05 0.29-0.06 0.28-0.07 0.29-0.09 0.28-0.1 0.28-0.11 0.29-0.13 0.28-0.14 0.27-0.15 0.28-0.17 0.28-0.18 0.27-0.19 0.27-0.21 0.28-0.22 0.27-0.23 0.26-0.25 0.27-0.26 0.27-0.27 0.26-0.29 0.27-0.3 0.26-0.31 0.26-0.33 0.26-0.34 0.25-0.35 0.26-0.37 0.26-0.38 0.25-0.39 0.25-0.41 0.25-0.42 0.25-0.43 0.25-0.45 0.25-0.46 0.24-0.47 0.24-0.49 0.25-0.5 0.24-0.51 0.24-0.53v-64l-0.03-1.25-0.07-1.25-0.12-1.23-0.16-1.21-0.21-1.2-0.26-1.19-0.3-1.17-0.34-1.15-0.38-1.14-0.42-1.11-0.47-1.1-0.5-1.07-0.54-1.06-0.58-1.03-0.62-1-0.65-0.98-0.68-0.96-0.72-0.93-0.75-0.9-0.79-0.88-0.81-0.84-0.85-0.82-0.88-0.78-0.9-0.75-0.94-0.72-0.96-0.68-0.98-0.65-1.02-0.62-1.03-0.58-1.06-0.54-1.08-0.5-1.11-0.46-1.12-0.42-1.15-0.38-1.17-0.34-1.18-0.29-1.2-0.26-1.22-0.2-1.23-0.16-1.25-0.11-2.15 0.96-2.16 0.92z"/><path id="a60NscwvMY" d="m549.25 352.22 2.58 0.26 2.55 0.37 2.51 0.46 2.48 0.56 2.45 0.66 2.4 0.75 2.36 0.84 2.32 0.93 2.27 1.01 2.23 1.1 2.17 1.18 2.13 1.27 2.07 1.34 2.01 1.42 1.96 1.49 1.89 1.56 1.84 1.64 1.77 1.7 1.7 1.77 1.64 1.84 1.56 1.89 1.49 1.96 1.42 2.01 1.34 2.07 1.27 2.13 1.18 2.17 1.1 2.23 1.01 2.27 0.93 2.32 0.84 2.36 0.75 2.4 0.66 2.45 0.56 2.48 0.46 2.51 0.37 2.55 0.26 2.58 0.16 2.61 0.06 2.64-0.05 2.64-0.16 2.61-0.26 2.58-0.37 2.55-0.46 2.52-0.56 2.48-0.65 2.44-0.75 2.41-0.84 2.36-0.93 2.32-1.01 2.28-1.1 2.22-1.19 2.18-1.26 2.12-1.34 2.07-1.42 2.02-1.49 1.95-1.57 1.9-1.63 1.83-1.7 1.78-1.78 1.7-1.83 1.63-1.9 1.57-1.95 1.49-2.02 1.42-2.07 1.34-2.12 1.26-2.18 1.19-2.22 1.1-2.28 1.01-2.32 0.93-2.36 0.84-2.41 0.75-2.44 0.65-2.48 0.56-2.52 0.46-2.55 0.37-2.58 0.26-2.61 0.16-2.64 0.05-2.64-0.05-2.61-0.16-2.58-0.26-2.55-0.37-2.52-0.46-2.48-0.56-2.44-0.65-2.41-0.75-2.36-0.84-2.32-0.93-2.28-1.01-2.22-1.1-2.18-1.19-2.12-1.26-2.07-1.34-2.02-1.42-1.95-1.49-1.9-1.57-1.83-1.63-1.77-1.7-1.71-1.78-1.63-1.83-1.57-1.9-1.49-1.95-1.42-2.02-1.34-2.07-1.26-2.12-1.19-2.18-1.1-2.22-1.01-2.28-0.93-2.32-0.84-2.36-0.75-2.41-0.65-2.44-0.56-2.48-0.46-2.52-0.37-2.55-0.26-2.58-0.16-2.61-0.05-2.64 0.05-2.64 0.16-2.61 0.26-2.58 0.37-2.55 0.46-2.52 0.56-2.48 0.65-2.44 0.75-2.41 0.84-2.36 0.93-2.32 1.01-2.28 1.1-2.22 1.19-2.18 1.26-2.12 1.34-2.07 1.42-2.02 1.49-1.95 1.57-1.9 1.63-1.83 1.71-1.77 1.77-1.71 1.83-1.63 1.9-1.57 1.95-1.49 2.02-1.42 2.07-1.34 2.12-1.26 2.18-1.19 2.22-1.1 2.28-1.01 2.32-0.93 2.36-0.84 2.41-0.75 2.44-0.65 2.48-0.56 2.52-0.46 2.55-0.37 2.58-0.26 2.61-0.16 2.64-0.05 2.64 0.06 2.61 0.16zm-8.75 21.25-1.72 0.18-1.7 0.24-1.68 0.31-1.65 0.37-1.63 0.44-1.61 0.5-1.57 0.56-1.55 0.62-1.51 0.67-1.49 0.74-1.45 0.78-1.41 0.85-1.39 0.89-1.34 0.95-1.3 0.99-1.27 1.04-1.22 1.09-1.18 1.14-1.14 1.18-1.09 1.22-1.04 1.27-0.99 1.3-0.95 1.34-0.89 1.39-0.85 1.41-0.78 1.45-0.74 1.49-0.67 1.51-0.62 1.55-0.56 1.57-0.5 1.61-0.44 1.63-0.37 1.65-0.31 1.68-0.24 1.7-0.18 1.72-0.1 1.74-0.04 1.76 0.04 1.76 0.1 1.74 0.18 1.72 0.24 1.7 0.31 1.68 0.37 1.65 0.44 1.63 0.5 1.61 0.56 1.57 0.62 1.55 0.67 1.51 0.74 1.49 0.78 1.45 0.85 1.41 0.89 1.39 0.95 1.34 0.99 1.3 1.04 1.27 1.09 1.22 1.14 1.18 1.18 1.14 1.22 1.09 1.27 1.04 1.3 0.99 1.34 0.95 1.39 0.89 1.41 0.85 1.45 0.78 1.49 0.74 1.51 0.67 1.55 0.62 1.57 0.56 1.61 0.5 1.63 0.44 1.65 0.37 1.68 0.31 1.7 0.24 1.72 0.18 1.74 0.1 1.76 0.04 1.76-0.04 1.74-0.1 1.72-0.18 1.7-0.24 1.68-0.31 1.65-0.37 1.63-0.44 1.61-0.5 1.57-0.56 1.55-0.62 1.51-0.67 1.49-0.74 1.45-0.78 1.41-0.85 1.39-0.89 1.34-0.95 1.3-0.99 1.27-1.04 1.22-1.09 1.18-1.14 1.14-1.18 1.09-1.22 1.04-1.27 0.99-1.3 0.95-1.34 0.89-1.39 0.85-1.41 0.78-1.45 0.74-1.49 0.67-1.51 0.62-1.55 0.56-1.57 0.5-1.61 0.44-1.63 0.37-1.65 0.31-1.68 0.24-1.7 0.18-1.72 0.1-1.74 0.04-1.76-0.04-1.76-0.1-1.74-0.18-1.72-0.24-1.7-0.31-1.68-0.37-1.65-0.44-1.63-0.5-1.61-0.56-1.57-0.62-1.55-0.67-1.51-0.74-1.49-0.78-1.45-0.85-1.41-0.89-1.39-0.95-1.34-0.99-1.3-1.04-1.27-1.09-1.22-1.14-1.18-1.18-1.14-1.22-1.09-1.27-1.04-1.3-0.99-1.34-0.95-1.39-0.89-1.41-0.85-1.45-0.78-1.49-0.74-1.51-0.67-1.55-0.62-1.57-0.56-1.61-0.5-1.63-0.44-1.65-0.37-1.68-0.31-1.7-0.24-1.72-0.18-1.74-0.1-1.76-0.04-1.76 0.04-1.74 0.1z"/><path id="bHCdjPb" d="m507.9 492.6 1.81 0.83 1.83 0.78 1.84 0.73 1.85 0.69 1.87 0.65 1.87 0.6 1.89 0.56 1.89 0.51 1.91 0.47 1.91 0.42 1.92 0.38 1.92 0.33 1.93 0.29 1.94 0.25 1.94 0.2 1.94 0.15 1.95 0.12 1.94 0.06 1.95 0.03 1.95-0.03 1.94-0.06 1.95-0.12 1.94-0.15 1.94-0.2 1.94-0.25 1.93-0.29 1.92-0.33 1.92-0.38 1.91-0.42 1.91-0.47 1.89-0.51 1.89-0.56 1.87-0.6 1.87-0.65 1.85-0.69 1.84-0.73 1.83-0.78 1.81-0.83 1.8-0.87 2.25-1.06h2.52l2.19 0.04 2.18 0.14 2.15 0.22 2.12 0.3 2.1 0.39 2.07 0.47 2.03 0.55 2 0.62 1.97 0.7 1.94 0.77 1.89 0.85 1.85 0.92 1.82 0.98 1.77 1.06 1.72 1.11 1.68 1.19 1.63 1.24 1.58 1.3 1.53 1.37 1.47 1.42 1.42 1.47 1.36 1.53 1.31 1.58 1.24 1.63 1.18 1.68 1.12 1.72 1.05 1.77 0.99 1.81 0.92 1.86 0.84 1.89 0.78 1.93 0.7 1.97 0.62 2 0.55 2.04 0.47 2.07 0.38 2.09 0.31 2.13 0.22 2.15 0.13 2.17 0.05 2.2v64l-0.03 1.32-0.08 1.3-0.13 1.3-0.18 1.27-0.23 1.26-0.28 1.24-0.33 1.22-0.37 1.2-0.42 1.19-0.46 1.16-0.51 1.13-0.55 1.12-0.59 1.08-0.63 1.07-0.68 1.03-0.7 1.01-0.75 0.98-0.78 0.95-0.82 0.91-0.85 0.89-0.89 0.85-0.91 0.82-0.95 0.78-0.98 0.75-1.01 0.7-1.03 0.68-1.07 0.63-1.08 0.59-1.12 0.55-1.13 0.51-1.16 0.46-1.19 0.42-1.2 0.37-1.22 0.33-1.24 0.28-1.26 0.23-1.27 0.18-1.3 0.13-1.3 0.08-1.32 0.03h-128l-1.32-0.03-1.3-0.08-1.3-0.13-1.27-0.18-1.26-0.23-1.24-0.28-1.22-0.33-1.2-0.37-1.19-0.42-1.16-0.46-1.13-0.51-1.12-0.55-1.08-0.59-1.07-0.63-1.03-0.68-1.01-0.7-0.98-0.75-0.95-0.78-0.91-0.82-0.89-0.85-0.85-0.89-0.82-0.91-0.78-0.95-0.75-0.98-0.7-1.01-0.68-1.03-0.63-1.07-0.59-1.08-0.55-1.12-0.51-1.13-0.46-1.16-0.42-1.19-0.37-1.2-0.33-1.22-0.28-1.24-0.23-1.26-0.18-1.27-0.13-1.3-0.08-1.3-0.03-1.32v-64l0.05-2.2 0.13-2.17 0.22-2.15 0.31-2.13 0.38-2.09 0.47-2.07 0.55-2.04 0.62-2 0.7-1.97 0.78-1.93 0.84-1.89 0.92-1.86 0.99-1.81 1.05-1.77 1.12-1.72 1.18-1.68 1.24-1.63 1.31-1.58 1.36-1.53 1.42-1.47 1.47-1.42 1.53-1.37 1.58-1.3 1.63-1.24 1.68-1.19 1.72-1.11 1.77-1.06 1.82-0.98 1.85-0.92 1.89-0.85 1.94-0.77 1.97-0.7 2-0.62 2.03-0.55 2.07-0.47 2.1-0.39 2.12-0.3 2.15-0.22 2.18-0.14 2.19-0.04h2.52l2.25 1.06 1.8 0.87zm76.73 21.37-2.17 0.87-2.19 0.82-2.21 0.77-2.21 0.71-2.23 0.67-2.24 0.62-2.24 0.57-2.26 0.53-2.26 0.47-2.28 0.42-2.28 0.37-2.28 0.32-2.29 0.28-2.29 0.22-2.3 0.17-2.3 0.13-2.3 0.07-2.3 0.03-2.3-0.03-2.3-0.07-2.3-0.13-2.3-0.17-2.29-0.22-2.29-0.28-2.28-0.32-2.28-0.37-2.28-0.42-2.26-0.47-2.26-0.53-2.24-0.57-2.24-0.62-2.23-0.67-2.21-0.71-2.21-0.77-2.19-0.82-2.17-0.87-2.16-0.92-2.15-0.96-1.25 0.11-1.23 0.16-1.22 0.2-1.2 0.26-1.18 0.29-1.17 0.34-1.15 0.38-1.12 0.42-1.11 0.46-1.08 0.5-1.06 0.54-1.04 0.58-1.01 0.62-0.98 0.65-0.96 0.68-0.94 0.72-0.9 0.75-0.88 0.78-0.85 0.82-0.81 0.84-0.79 0.88-0.75 0.9-0.72 0.93-0.68 0.96-0.66 0.98-0.61 1-0.58 1.03-0.54 1.06-0.5 1.07-0.47 1.1-0.42 1.11-0.38 1.14-0.34 1.15-0.3 1.17-0.26 1.19-0.21 1.2-0.16 1.21-0.12 1.23-0.07 1.25-0.03 1.25v64l0.01 0.44 0.03 0.43 0.04 0.44 0.06 0.42 0.08 0.42 0.09 0.41 0.11 0.41 0.13 0.4 0.14 0.4 0.15 0.38 0.17 0.38 0.18 0.37 0.2 0.36 0.21 0.36 0.46 0.68 0.25 0.33 0.26 0.31 0.27 0.31 0.58 0.58 0.31 0.27 0.31 0.26 0.33 0.25 0.68 0.46 0.36 0.21 0.36 0.2 0.37 0.18 0.38 0.17 0.38 0.15 0.4 0.14 0.4 0.13 0.41 0.11 0.41 0.09 0.42 0.08 0.42 0.06 0.44 0.04 0.43 0.03 0.44 0.01h128l0.29-0.01 0.3-0.02 0.29-0.03 0.29-0.05 0.29-0.06 0.28-0.07 0.29-0.09 0.28-0.1 0.28-0.11 0.29-0.13 0.28-0.14 0.27-0.15 0.28-0.17 0.28-0.18 0.27-0.19 0.27-0.21 0.28-0.22 0.27-0.23 0.26-0.25 0.27-0.26 0.27-0.27 0.26-0.29 0.27-0.3 0.26-0.31 0.26-0.33 0.26-0.34 0.25-0.35 0.26-0.37 0.26-0.38 0.25-0.39 0.25-0.41 0.25-0.42 0.25-0.43 0.25-0.45 0.25-0.46 0.24-0.47 0.24-0.49 0.25-0.5 0.24-0.51 0.24-0.53v-64l-0.03-1.25-0.07-1.25-0.12-1.23-0.16-1.21-0.21-1.2-0.26-1.19-0.3-1.17-0.34-1.15-0.38-1.14-0.42-1.11-0.47-1.1-0.5-1.07-0.54-1.06-0.58-1.03-0.61-1-0.66-0.98-0.68-0.96-0.72-0.93-0.75-0.9-0.79-0.88-0.81-0.84-0.85-0.82-0.88-0.78-0.9-0.75-0.94-0.72-0.96-0.68-0.98-0.65-1.01-0.62-1.04-0.58-1.06-0.54-1.08-0.5-1.11-0.46-1.12-0.42-1.15-0.38-1.17-0.34-1.18-0.29-1.2-0.26-1.22-0.2-1.23-0.16-1.25-0.11-2.15 0.96-2.16 0.92z"/><path id="f6dzv0uuF" d="m101.25 352.22 2.58 0.26 2.55 0.37 2.51 0.46 2.48 0.56 2.45 0.66 2.4 0.75 2.36 0.84 2.32 0.93 2.27 1.01 2.23 1.1 2.17 1.18 2.13 1.27 2.07 1.34 2.01 1.42 1.96 1.49 1.89 1.56 1.84 1.64 1.77 1.7 1.7 1.77 1.64 1.84 1.56 1.89 1.49 1.96 1.42 2.01 1.34 2.07 1.27 2.13 1.18 2.17 1.1 2.23 1.01 2.27 0.93 2.32 0.84 2.36 0.75 2.4 0.66 2.45 0.56 2.48 0.46 2.51 0.37 2.55 0.26 2.58 0.16 2.61 0.06 2.64-0.05 2.64-0.16 2.61-0.26 2.58-0.37 2.55-0.46 2.52-0.56 2.48-0.65 2.44-0.75 2.41-0.84 2.36-0.93 2.32-1.01 2.28-1.1 2.22-1.19 2.18-1.26 2.12-1.34 2.07-1.42 2.02-1.49 1.95-1.57 1.9-1.63 1.83-1.7 1.78-1.78 1.7-1.83 1.63-1.9 1.57-1.95 1.49-2.02 1.42-2.07 1.34-2.12 1.26-2.18 1.19-2.22 1.1-2.28 1.01-2.32 0.93-2.36 0.84-2.41 0.75-2.44 0.65-2.48 0.56-2.52 0.46-2.55 0.37-2.58 0.26-2.61 0.16-2.64 0.05-2.64-0.05-2.61-0.16-2.58-0.26-2.55-0.37-2.52-0.46-2.48-0.56-2.44-0.65-2.41-0.75-2.36-0.84-2.32-0.93-2.28-1.01-2.22-1.1-2.18-1.19-2.12-1.26-2.07-1.34-2.02-1.42-1.95-1.49-1.9-1.57-1.83-1.63-1.77-1.7-1.71-1.78-1.63-1.83-1.57-1.9-1.49-1.95-1.42-2.02-1.34-2.07-1.26-2.12-1.19-2.18-1.1-2.22-1.01-2.28-0.93-2.32-0.84-2.36-0.75-2.41-0.65-2.44-0.56-2.48-0.46-2.52-0.37-2.55-0.26-2.58-0.16-2.61-0.05-2.64 0.05-2.64 0.16-2.61 0.26-2.58 0.37-2.55 0.46-2.52 0.56-2.48 0.65-2.44 0.75-2.41 0.84-2.36 0.93-2.32 1.01-2.28 1.1-2.22 1.19-2.18 1.26-2.12 1.34-2.07 1.42-2.02 1.49-1.95 1.57-1.9 1.63-1.83 1.71-1.77 1.77-1.71 1.83-1.63 1.9-1.57 1.95-1.49 2.02-1.42 2.07-1.34 2.12-1.26 2.18-1.19 2.22-1.1 2.28-1.01 2.32-0.93 2.36-0.84 2.41-0.75 2.44-0.65 2.48-0.56 2.52-0.46 2.55-0.37 2.58-0.26 2.61-0.16 2.64-0.05 2.64 0.06 2.61 0.16zm-8.75 21.25-1.72 0.18-1.7 0.24-1.68 0.31-1.65 0.37-1.63 0.44-1.61 0.5-1.57 0.56-1.55 0.62-1.51 0.67-1.49 0.74-1.45 0.78-1.41 0.85-1.39 0.89-1.34 0.95-1.3 0.99-1.27 1.04-1.22 1.09-1.18 1.14-1.14 1.18-1.09 1.22-1.04 1.27-0.99 1.3-0.95 1.34-0.89 1.39-0.85 1.41-0.78 1.45-0.74 1.49-0.67 1.51-0.62 1.55-0.56 1.57-0.5 1.61-0.44 1.63-0.37 1.65-0.31 1.68-0.24 1.7-0.18 1.72-0.1 1.74-0.04 1.76 0.04 1.76 0.1 1.74 0.18 1.72 0.24 1.7 0.31 1.68 0.37 1.65 0.44 1.63 0.5 1.61 0.56 1.57 0.62 1.55 0.67 1.51 0.74 1.49 0.78 1.45 0.85 1.41 0.89 1.39 0.95 1.34 0.99 1.3 1.04 1.27 1.09 1.22 1.14 1.18 1.18 1.14 1.22 1.09 1.27 1.04 1.3 0.99 1.34 0.95 1.39 0.89 1.41 0.85 1.45 0.78 1.49 0.74 1.51 0.67 1.55 0.62 1.57 0.56 1.61 0.5 1.63 0.44 1.65 0.37 1.68 0.31 1.7 0.24 1.72 0.18 1.74 0.1 1.76 0.04 1.76-0.04 1.74-0.1 1.72-0.18 1.7-0.24 1.68-0.31 1.65-0.37 1.63-0.44 1.61-0.5 1.57-0.56 1.55-0.62 1.51-0.67 1.49-0.74 1.45-0.78 1.41-0.85 1.39-0.89 1.34-0.95 1.3-0.99 1.27-1.04 1.22-1.09 1.18-1.14 1.14-1.18 1.09-1.22 1.04-1.27 0.99-1.3 0.95-1.34 0.89-1.39 0.85-1.41 0.78-1.45 0.74-1.49 0.67-1.51 0.62-1.55 0.56-1.57 0.5-1.61 0.44-1.63 0.37-1.65 0.31-1.68 0.24-1.7 0.18-1.72 0.1-1.74 0.04-1.76-0.04-1.76-0.1-1.74-0.18-1.72-0.24-1.7-0.31-1.68-0.37-1.65-0.44-1.63-0.5-1.61-0.56-1.57-0.62-1.55-0.67-1.51-0.74-1.49-0.78-1.45-0.85-1.41-0.89-1.39-0.95-1.34-0.99-1.3-1.04-1.27-1.09-1.22-1.14-1.18-1.18-1.14-1.22-1.09-1.27-1.04-1.3-0.99-1.34-0.95-1.39-0.89-1.41-0.85-1.45-0.78-1.49-0.74-1.51-0.67-1.55-0.62-1.57-0.56-1.61-0.5-1.63-0.44-1.65-0.37-1.68-0.31-1.7-0.24-1.72-0.18-1.74-0.1-1.76-0.04-1.76 0.04-1.74 0.1z"/><path id="e23cn8SmOL" d="m59.9 492.6 1.81 0.83 1.83 0.78 1.84 0.73 1.85 0.69 1.87 0.65 1.87 0.6 1.89 0.56 1.89 0.51 1.91 0.47 1.91 0.42 1.92 0.38 1.92 0.33 1.93 0.29 1.94 0.25 1.94 0.2 1.94 0.15 1.95 0.12 1.94 0.06 1.95 0.03 1.95-0.03 1.94-0.06 1.95-0.12 1.94-0.15 1.94-0.2 1.94-0.25 1.93-0.29 1.92-0.33 1.92-0.38 1.91-0.42 1.91-0.47 1.89-0.51 1.89-0.56 1.87-0.6 1.87-0.65 1.85-0.69 1.84-0.73 1.83-0.78 1.81-0.83 1.8-0.87 2.25-1.06h2.52l2.19 0.04 2.18 0.14 2.15 0.22 2.12 0.3 2.1 0.39 2.07 0.47 2.03 0.55 2 0.62 1.97 0.7 1.94 0.77 1.89 0.85 1.85 0.92 1.82 0.98 1.77 1.06 1.72 1.11 1.68 1.19 1.63 1.24 1.58 1.3 1.53 1.37 1.47 1.42 1.42 1.47 1.36 1.53 1.31 1.58 1.24 1.63 1.18 1.68 1.12 1.72 1.05 1.77 0.99 1.81 0.92 1.86 0.84 1.89 0.78 1.93 0.7 1.97 0.62 2 0.55 2.04 0.47 2.07 0.38 2.09 0.31 2.13 0.22 2.15 0.13 2.17 0.05 2.2v64l-0.03 1.32-0.08 1.3-0.13 1.3-0.18 1.27-0.23 1.26-0.28 1.24-0.33 1.22-0.37 1.2-0.42 1.19-0.46 1.16-0.51 1.13-0.55 1.12-0.59 1.08-0.63 1.07-0.68 1.03-0.7 1.01-0.75 0.98-0.78 0.95-0.82 0.91-0.85 0.89-0.89 0.85-0.91 0.82-0.95 0.78-0.98 0.75-1.01 0.7-1.03 0.68-1.07 0.63-1.08 0.59-1.12 0.55-1.13 0.51-1.16 0.46-1.19 0.42-1.2 0.37-1.22 0.33-1.24 0.28-1.26 0.23-1.27 0.18-1.3 0.13-1.3 0.08-1.32 0.03h-128l-1.32-0.03-1.3-0.08-1.3-0.13-1.27-0.18-1.26-0.23-1.24-0.28-1.22-0.33-1.2-0.37-1.19-0.42-1.16-0.46-1.13-0.51-1.12-0.55-1.08-0.59-1.07-0.63-1.03-0.68-1.01-0.7-0.98-0.75-0.95-0.78-0.91-0.82-0.89-0.85-0.85-0.89-0.82-0.91-0.78-0.95-0.75-0.98-0.7-1.01-0.68-1.03-0.63-1.07-0.59-1.08-0.55-1.12-0.51-1.13-0.46-1.16-0.42-1.19-0.37-1.2-0.33-1.22-0.28-1.24-0.23-1.26-0.18-1.27-0.13-1.3-0.08-1.3-0.03-1.32v-64l0.05-2.2 0.13-2.17 0.22-2.15 0.31-2.13 0.38-2.09 0.47-2.07 0.55-2.04 0.62-2 0.7-1.97 0.78-1.93 0.84-1.89 0.92-1.86 0.99-1.81 1.05-1.77 1.12-1.72 1.18-1.68 1.24-1.63 1.31-1.58 1.36-1.53 1.42-1.47 1.47-1.42 1.53-1.37 1.58-1.3 1.63-1.24 1.68-1.19 1.72-1.11 1.77-1.06 1.82-0.98 1.85-0.92 1.89-0.85 1.94-0.77 1.97-0.7 2-0.62 2.03-0.55 2.07-0.47 2.1-0.39 2.12-0.3 2.15-0.22 2.18-0.14 2.19-0.04h2.52l2.25 1.06 1.8 0.87zm76.73 21.37-2.17 0.87-2.19 0.82-2.21 0.77-2.21 0.71-2.23 0.67-2.24 0.62-2.24 0.57-2.26 0.53-2.26 0.47-2.28 0.42-2.28 0.37-2.28 0.32-2.29 0.28-2.29 0.22-2.3 0.17-2.3 0.13-2.3 0.07-2.3 0.03-2.3-0.03-2.3-0.07-2.3-0.13-2.3-0.17-2.29-0.22-2.29-0.28-2.28-0.32-2.28-0.37-2.28-0.42-2.26-0.47-2.26-0.53-2.24-0.57-2.24-0.62-2.23-0.67-2.21-0.71-2.21-0.77-2.19-0.82-2.17-0.87-2.16-0.92-2.15-0.96-1.25 0.11-1.23 0.16-1.22 0.2-1.2 0.26-1.18 0.29-1.17 0.34-1.15 0.38-1.12 0.42-1.11 0.46-1.08 0.5-1.06 0.54-1.04 0.58-1.01 0.62-0.98 0.65-0.96 0.68-0.94 0.72-0.9 0.75-0.88 0.78-0.85 0.82-0.81 0.84-0.79 0.88-0.75 0.9-0.72 0.93-0.68 0.96-0.66 0.98-0.61 1-0.58 1.03-0.54 1.06-0.5 1.07-0.47 1.1-0.42 1.11-0.38 1.14-0.34 1.15-0.3 1.17-0.26 1.19-0.21 1.2-0.16 1.21-0.12 1.23-0.07 1.25-0.03 1.25v64l0.01 0.44 0.03 0.43 0.04 0.44 0.06 0.42 0.08 0.42 0.09 0.41 0.11 0.41 0.13 0.4 0.14 0.4 0.15 0.38 0.17 0.38 0.18 0.37 0.2 0.36 0.21 0.36 0.46 0.68 0.25 0.33 0.26 0.31 0.27 0.31 0.58 0.58 0.31 0.27 0.31 0.26 0.33 0.25 0.68 0.46 0.36 0.21 0.36 0.2 0.37 0.18 0.38 0.17 0.38 0.15 0.4 0.14 0.4 0.13 0.41 0.11 0.41 0.09 0.42 0.08 0.42 0.06 0.44 0.04 0.43 0.03 0.44 0.01h128l0.29-0.01 0.3-0.02 0.29-0.03 0.29-0.05 0.29-0.06 0.28-0.07 0.29-0.09 0.28-0.1 0.28-0.11 0.29-0.13 0.28-0.14 0.27-0.15 0.28-0.17 0.28-0.18 0.27-0.19 0.27-0.21 0.28-0.22 0.27-0.23 0.26-0.25 0.27-0.26 0.27-0.27 0.26-0.29 0.27-0.3 0.26-0.31 0.26-0.33 0.26-0.34 0.25-0.35 0.26-0.37 0.26-0.38 0.25-0.39 0.25-0.41 0.25-0.42 0.25-0.43 0.25-0.45 0.25-0.46 0.24-0.47 0.24-0.49 0.25-0.5 0.24-0.51 0.24-0.53v-64l-0.03-1.25-0.07-1.25-0.12-1.23-0.16-1.21-0.21-1.2-0.26-1.19-0.3-1.17-0.34-1.15-0.38-1.14-0.42-1.11-0.47-1.1-0.5-1.07-0.54-1.06-0.58-1.03-0.61-1-0.66-0.98-0.68-0.96-0.72-0.93-0.75-0.9-0.79-0.88-0.81-0.84-0.85-0.82-0.88-0.78-0.9-0.75-0.94-0.72-0.96-0.68-0.98-0.65-1.01-0.62-1.04-0.58-1.06-0.54-1.08-0.5-1.11-0.46-1.12-0.42-1.15-0.38-1.17-0.34-1.18-0.29-1.2-0.26-1.22-0.2-1.23-0.16-1.25-0.11-2.15 0.96-2.16 0.92z"/><path id="a2vMB2SSZd" d="m425.81 541.66c-2.31-5.42-8.57-7.94-13.99-5.63-48.17 20.19-101.66 23.87-152.14 10.48 1-0.3 8.99-2.64 9.99-2.94 5.65-1.65 8.89-7.58 7.24-13.23-1.66-5.66-7.58-8.9-13.24-7.25-4.27 1.25-38.4 11.26-42.67 12.52-0.16 0-0.27 0.18-0.42 0.23-0.99 0.37-1.92 0.88-2.75 1.53-0.38 0.2-0.73 0.42-1.07 0.67-1.13 1-2.02 2.24-2.61 3.62-0.58 1.4-0.86 2.9-0.82 4.41 0.26 1.44 0.62 2.87 1.07 4.27 0.07 0.15 0 0.32 0.12 0.47 2.13 4.08 19.2 36.73 21.33 40.82 2.73 5.22 9.18 7.25 14.4 4.52 5.23-2.73 7.25-9.18 4.52-14.4-0.86-1.66-7.81-14.94-8.68-16.6 57.35 17.24 118.93 13.89 174.07-9.47 5.43-2.29 7.96-8.55 5.67-13.98-0.01-0.01-0.01-0.02-0.02-0.04z"/><path id="c11LIQHpzz" d="m589.79 280.46-15.09 15.09c-8.83-93.42-68.15-174.5-154.52-211.2-5.42-2.31-11.68 0.21-13.99 5.63s0.21 11.69 5.63 14c77.48 32.93 131.34 104.89 141.09 188.51-1.21-1.2-10.83-10.83-12.04-12.03-4.23-4.09-10.98-3.98-15.08 0.26-3.99 4.13-3.99 10.69 0 14.82l32 32c4.16 4.17 10.92 4.18 15.09 0.02 0-0.01 0.01-0.01 0.02-0.02l32-32c4.15-4.17 4.15-10.92-0.03-15.08-4.16-4.17-10.91-4.17-15.08 0z"/><path id="bL7oMSSa" d="m234.08 90.52c0-0.1-0.12-0.16-0.16-0.27s0-0.18 0-0.27c-0.29-0.51-0.63-1.01-1-1.47-0.35-0.62-0.76-1.21-1.22-1.76-0.63-0.56-1.33-1.03-2.08-1.42-0.37-0.32-0.77-0.6-1.19-0.86-4.27-1.95-38.4-17.54-42.67-19.49-5.45-2.24-11.68 0.37-13.92 5.82-2.11 5.15 0.09 11.07 5.07 13.57 2.21 1.01 19.88 9.09 22.09 10.1-83.17 44.51-135.06 131.2-135 225.53 0 5.89 4.78 10.67 10.67 10.67s10.66-4.78 10.66-10.67c-0.05-83.06 43.87-159.94 115.45-202.07-0.77 1.61-6.94 14.51-7.71 16.12-2.55 5.3-0.32 11.66 4.98 14.22 1.44 0.7 3.02 1.06 4.62 1.06 4.09 0 7.82-2.35 9.6-6.04 2.13-4.46 19.2-40.07 21.33-44.52 0-0.1 0-0.22 0.09-0.33 0.27-0.73 0.47-1.49 0.57-2.26 0.18-0.57 0.32-1.16 0.41-1.76-0.04-0.69-0.14-1.38-0.31-2.06-0.04-0.62-0.13-1.24-0.28-1.84z"/></defs><use fill="#a334b7" xlink:href="#a2TCfmDqly"/><use fill="#a334b7" xlink:href="#a1AOxaLswq"/><use fill="#4285f4" xlink:href="#a60NscwvMY"/><use fill="#4285f4" xlink:href="#bHCdjPb"/><use fill="#77c800" xlink:href="#f6dzv0uuF"/><use fill="#77c800" xlink:href="#e23cn8SmOL"/><use fill="#4285f4" xlink:href="#a2vMB2SSZd"/><use fill="#a334b7" xlink:href="#c11LIQHpzz"/><use fill="#77c800" xlink:href="#bL7oMSSa"/></svg>