<svg xmlns="http://www.w3.org/2000/svg" xmlns:xlink="http://www.w3.org/1999/xlink" width="200" height="200" version="1.1" viewBox="0 0 640 640"><defs><path id="hhEA9r9YJ" d="m320 0.5c-176.46 0-319.5 143.04-319.5 319.5s143.04 319.5 319.5 319.5 319.5-143.04 319.5-319.5-143.04-319.5-319.5-319.5z"/><path id="cUZ4AA7NF" d="m521.68 536.66 41.94-46.93h65.9c-15.98-26.95-45.93-45.92-79.88-45.92-38.94 0-72.89 23.96-85.87 58.9h-287.55c-13.97-33.94-46.92-58.9-85.86-58.9-33.95 0-63.9 17.97-79.88 45.92h65.9l41.94 46.93-41.94 46.93h-65.9c15.98 26.96 45.93 45.93 79.88 45.93 38.94 0 72.88-23.97 85.86-58.91h287.55c13.98 33.95 46.93 58.91 85.87 58.91 33.95 0 63.9-17.97 79.88-45.93h-65.9l-41.94-46.93z"/><path id="a4iTUzF6zX" d="m176.22 502.71c-13.97-33.94-46.92-58.9-85.86-58.9-33.95 0-63.9 17.97-79.88 45.92h65.9l41.94 46.93-41.94 46.93h-65.9c15.98 26.96 45.93 45.93 79.88 45.93 38.94 0 72.89-23.97 85.86-58.91"/><path id="b3IoUy6Ade" d="m463.78 570.61c13.97 33.95 46.92 58.91 85.86 58.91 33.95 0 63.9-17.98 79.88-45.93h-65.9l-41.94-46.93 41.94-46.93h65.9c-15.98-26.96-45.93-45.93-79.88-45.93-38.94 0-72.89 23.97-85.86 58.91"/><path id="blrE6gv6P" d="m234.13 341.97c-1.19-23.97-1.86-37.28-1.99-39.94 11.98-4.99 22.96-11.98 32.95-20.97 2.33 1.26 13.97 7.59 34.94 18.97l30.95-43.93c-17.97-16.18-27.95-25.16-29.95-26.96 4.99-11.98 7.99-24.96 8.98-37.94 2.53-0.73 15.18-4.39 37.95-10.98l-8.99-52.92c-23.96 1.2-37.28 1.86-39.94 2-3.99-12.98-10.98-23.97-19.97-33.95 1.27-2.33 7.59-13.98 18.97-34.95l-43.93-30.95c-16.17 17.98-25.16 27.96-26.96 29.96-11.98-4.99-24.96-7.99-37.94-8.99-0.73-2.53-4.39-15.17-10.98-37.94l-52.92 8.99c1.2 23.96 1.87 37.27 2 39.94-11.98 4.99-22.96 11.98-32.95 19.96-2.39-1.26-14.38-7.58-35.94-18.97l-30.95 43.93c17.97 16.18 27.95 25.16 29.95 26.96-4.99 11.98-7.99 24.96-8.98 37.94-2.53 0.73-15.18 4.4-37.94 10.99l8.98 52.91c23.96-1.19 37.28-1.86 39.94-1.99 4.99 11.98 11.98 22.96 20.97 32.95-1.27 2.33-7.59 13.97-18.97 34.94l43.93 30.95c16.17-17.97 25.16-27.96 26.96-29.95 11.98 4.99 24.96 7.99 37.94 8.98 0.73 2.67 4.39 15.98 10.98 39.94l52.91-8.98z"/><path id="a8g1ExqFyR" d="m180.22 78.38c-56.8 0-102.84 46.04-102.84 102.84 0 56.79 46.04 102.84 102.84 102.84 56.79 0 102.84-46.05 102.84-102.84 0-56.8-46.05-102.84-102.84-102.84z"/><path id="bNH8YFMYR" d="m180.22 134.29c-25.92 0-46.93 21.01-46.93 46.93 0 25.91 21.01 46.92 46.93 46.92 25.91 0 46.92-21.01 46.92-46.92 0-25.92-21.01-46.93-46.92-46.93z"/><path id="e2gMrbTBdM" d="m485.74 390.89c6.59-17.97 10.25-27.96 10.98-29.95 10.99 0 20.97-2 30.95-5 1.34 1.67 7.99 9.99 19.97 24.97l35.95-21.97c-7.79-17.37-12.12-27.02-12.98-28.95 6.99-6.99 12.98-15.98 17.97-24.97 2.06 0.27 12.38 1.6 30.95 4l9.98-40.94c-17.97-6.59-27.95-10.25-29.95-10.98 0-10.98-2-20.97-4.99-30.95 1.66-1.33 9.98-7.99 24.96-19.97l-21.97-35.94c-17.37 7.78-27.02 12.11-28.95 12.98-6.99-6.99-15.97-12.98-24.96-17.98 0.27-2.06 1.6-12.38 3.99-30.95l-40.93-9.98c-6.59 17.97-10.25 27.96-10.99 29.95-10.98 0-20.96 2-30.95 4.99-1.33-1.66-7.98-9.98-19.97-24.96l-35.94 21.97c7.79 17.37 12.12 27.02 12.98 28.95-6.99 6.99-12.98 15.98-17.97 24.96-2.06-0.26-12.38-1.59-30.95-3.99l-9.99 40.94c17.98 6.59 27.96 10.25 29.96 10.98 0 10.98 1.99 20.97 4.99 30.95-1.67 1.33-9.99 7.99-24.96 19.97l21.96 35.94c17.38-7.79 27.03-12.11 28.96-12.98 6.99 6.99 15.97 12.98 24.96 17.97-0.27 2.07-1.6 12.38-4 30.96l40.94 9.98z"/><path id="a1sjqjQcqC" d="m496.22 182.21c-41.9 0-75.88 33.98-75.88 75.89 0 41.9 33.98 75.88 75.88 75.88 41.91 0 75.89-33.98 75.89-75.88 0-41.91-33.98-75.89-75.89-75.89z"/><path id="a5EEQHE4qH" d="m495.72 221.15c-20.4 0-36.94 16.54-36.94 36.95 0 20.4 16.54 36.94 36.94 36.94 20.41 0 36.95-16.54 36.95-36.94 0-20.41-16.54-36.95-36.95-36.95z"/></defs><use fill="#ccc" xlink:href="#hhEA9r9YJ"/><use fill-opacity="0" stroke="#000" stroke-opacity="0" xlink:href="#hhEA9r9YJ"/><use fill="#e1e6e7" xlink:href="#cUZ4AA7NF"/><use fill-opacity="0" stroke="#000" stroke-width="4" xlink:href="#cUZ4AA7NF"/><use fill="#e1e6e7" xlink:href="#a4iTUzF6zX"/><use fill-opacity="0" stroke="#000" stroke-width="4" xlink:href="#a4iTUzF6zX"/><use fill="#e1e6e7" xlink:href="#b3IoUy6Ade"/><use fill-opacity="0" stroke="#000" stroke-width="4" xlink:href="#b3IoUy6Ade"/><use fill="#fff" xlink:href="#blrE6gv6P"/><use fill-opacity="0" stroke="#000" stroke-width="5" xlink:href="#blrE6gv6P"/><use fill="#600060" xlink:href="#a8g1ExqFyR"/><use fill-opacity="0" stroke="#000" stroke-width="5" xlink:href="#a8g1ExqFyR"/><use fill="#fff" xlink:href="#bNH8YFMYR"/><use fill-opacity="0" stroke="#000" stroke-width="3" xlink:href="#bNH8YFMYR"/><use fill="#fff" xlink:href="#e2gMrbTBdM"/><use fill-opacity="0" stroke="#000" stroke-width="5" xlink:href="#e2gMrbTBdM"/><use fill="#600060" xlink:href="#a1sjqjQcqC"/><use fill-opacity="0" stroke="#000" stroke-width="5" xlink:href="#a1sjqjQcqC"/><use fill="#fff" xlink:href="#a5EEQHE4qH"/><use fill-opacity="0" stroke="#000" stroke-width="3" xlink:href="#a5EEQHE4qH"/></svg>