<svg xmlns="http://www.w3.org/2000/svg" xmlns:xlink="http://www.w3.org/1999/xlink" width="405.37" height="355.11" version="1.1" viewBox="117.22 145.67 409.37 359.11"><defs><path id="bHwhCcjNn" d="m482.22 299.11c0-40.89-32.44-74.67-73.33-76-14.22-45.33-56.45-76.44-104.45-76.44-57.77 0-105.77 44.89-109.77 101.77-42.67 4-76.45 40.45-76.45 84.45 0 46.67 37.78 84.44 84.45 84.44h8.44v-16.89h-8.44c-37.34 0-67.56-30.22-67.56-67.55 0-34.67 26.22-63.11 59.56-67.11 0.89 8.89 2.66 18.22 5.33 26.66 1.6-0.53 14.4-4.8 16-5.33-3.11-9.78-4.89-20-4.89-30.22 0-51.11 41.78-92.89 92.89-92.89 39.11 0 73.78 24.44 87.11 60.44-14.22 2.67-27.11 9.34-37.78 19.12 1.16 1.24 10.4 11.2 11.56 12.44 9.78-8.89 21.78-14.67 35.11-16h4 1.33c32.45 0 59.11 26.67 59.11 59.11 0 2.22 0 4.89-0.44 8-0.09 0.56-0.53 3.38-1.33 8.45 4.8 0.8 7.46 1.24 8 1.33 20.44 3.11 36 20.89 36 41.78 0 23.11-19.11 42.22-42.23 42.22h-33.77v16.89h33.77c32.45 0 59.12-26.67 59.12-59.11 0.88-27.11-16.45-49.78-41.34-56.89v-2.67z"/><path id="c1pNiuxaiq" d="m245.33 358.22v101.34h152v-101.34h-50.66v-16.89h51.11l0.69 0.02 0.69 0.04 0.69 0.07 0.67 0.09 0.66 0.13 0.66 0.14 0.64 0.18 0.64 0.19 0.62 0.23 0.61 0.24 0.6 0.27 0.59 0.29 0.58 0.31 0.56 0.33 0.54 0.36 0.53 0.37 0.52 0.39 0.5 0.42 0.49 0.43 0.46 0.45 0.45 0.46 0.43 0.49 0.42 0.5 0.39 0.52 0.37 0.53 0.36 0.54 0.33 0.56 0.31 0.58 0.29 0.59 0.27 0.6 0.24 0.61 0.23 0.62 0.19 0.64 0.18 0.64 0.14 0.66 0.13 0.66 0.09 0.67 0.07 0.69 0.04 0.69 0.02 0.69v101.78h8.44l0.67 0.01 0.66 0.05 0.65 0.06 0.65 0.1 0.65 0.12 0.64 0.15 0.63 0.17 0.62 0.2 0.62 0.22 0.6 0.24 0.59 0.26 0.59 0.29 0.57 0.31 0.56 0.33 0.55 0.35 0.54 0.37 0.52 0.39 0.5 0.4 0.49 0.43 0.48 0.44 0.46 0.46 0.44 0.47 0.42 0.49 0.41 0.51 0.38 0.52 0.36 0.53 0.35 0.54 0.32 0.56 0.3 0.57 0.28 0.59 0.26 0.59 0.23 0.6 0.2 0.61 0.18 0.63 0.16 0.63 0.13 0.63 0.1 0.65 0.07 0.65 0.05 0.66 0.01 0.66v8.45l-0.01 0.7-0.05 0.68-0.07 0.69-0.09 0.67-0.12 0.66-0.15 0.66-0.17 0.64-0.2 0.64-0.22 0.62-0.25 0.62-0.26 0.6-0.29 0.58-0.32 0.58-0.33 0.56-0.35 0.54-0.38 0.54-0.39 0.51-0.41 0.5-0.43 0.49-0.45 0.46-0.47 0.45-0.49 0.43-0.5 0.42-0.51 0.39-0.53 0.37-0.55 0.36-0.56 0.33-0.57 0.31-0.59 0.29-0.6 0.27-0.61 0.25-0.63 0.22-0.63 0.19-0.65 0.18-0.65 0.14-0.67 0.13-0.67 0.09-0.68 0.07-0.69 0.04-0.7 0.02h-203.11l-0.7-0.02-0.69-0.04-0.68-0.07-0.67-0.09-0.67-0.13-0.65-0.14-0.65-0.18-0.63-0.19-0.62-0.22-0.62-0.25-0.6-0.27-0.58-0.29-0.58-0.31-0.56-0.33-0.55-0.36-0.53-0.37-0.51-0.39-0.5-0.42-0.49-0.43-0.46-0.45-0.45-0.46-0.44-0.49-0.41-0.5-0.39-0.51-0.38-0.54-0.35-0.54-0.33-0.56-0.31-0.58-0.29-0.58-0.27-0.6-0.25-0.62-0.22-0.62-0.2-0.64-0.17-0.64-0.15-0.66-0.12-0.66-0.09-0.67-0.07-0.69-0.04-0.68-0.02-0.7v-8.45l0.02-0.69 0.04-0.69 0.07-0.68 0.09-0.68 0.12-0.66 0.15-0.66 0.17-0.64 0.2-0.64 0.22-0.62 0.25-0.61 0.27-0.6 0.29-0.59 0.31-0.57 0.33-0.56 0.35-0.55 0.38-0.53 0.39-0.52 0.41-0.5 0.44-0.48 0.45-0.47 0.46-0.45 0.49-0.43 0.5-0.41 0.51-0.4 0.53-0.37 0.55-0.36 0.56-0.33 0.58-0.31 0.58-0.29 0.6-0.27 0.62-0.24 0.62-0.22 0.63-0.2 0.65-0.17 0.65-0.15 0.67-0.12 0.67-0.1 0.68-0.07 0.69-0.04 0.7-0.01h8.44v-101.34l0.02-0.69 0.04-0.69 0.07-0.69 0.1-0.67 0.12-0.66 0.14-0.66 0.18-0.64 0.19-0.64 0.23-0.62 0.24-0.61 0.27-0.6 0.29-0.59 0.31-0.58 0.33-0.56 0.36-0.54 0.37-0.53 0.4-0.52 0.41-0.5 0.43-0.49 0.45-0.46 0.47-0.45 0.48-0.43 0.5-0.42 0.52-0.39 0.53-0.37 0.54-0.36 0.57-0.33 0.57-0.31 0.59-0.29 0.6-0.27 0.61-0.24 0.62-0.23 0.64-0.19 0.64-0.18 0.66-0.14 0.66-0.13 0.68-0.09 0.68-0.07 0.69-0.04 0.69-0.02h50.67v16.89h-50.67zm-25.33 127.11h203.11v-8.44h-203.11v8.44z"/><path id="b1n9qUkwqT" d="m355.56 301.33c-13.34-17.6-20.75-27.37-22.23-29.33-5.77-7.56-17.77-7.56-23.55 0-1.48 1.96-8.89 11.73-22.22 29.33l13.33 10.23 12.44-16v108.44l-12.44-16-13.33 10.22c13.33 17.6 20.74 27.38 22.22 29.34 3.11 4 7.11 6.22 12 6.22s8.89-2.22 12-6.22c1.48-1.96 8.89-11.74 22.22-29.34l-13.33-10.22-12.45 16v-108.44l12 16 13.34-10.23z"/></defs><use fill-opacity="1" fill="#600060" xlink:href="#bHwhCcjNn"/><use fill-opacity="1" fill="#600060" xlink:href="#c1pNiuxaiq"/><use fill-opacity="1" fill="#600060" xlink:href="#b1n9qUkwqT"/></svg>