<svg xmlns="http://www.w3.org/2000/svg" xmlns:xlink="http://www.w3.org/1999/xlink" width="640" height="640"><defs><path id="a" d="M294.91 458.2L16.44 433.99V31.2h359.29v171.64l70.05 175.1-70.05 56.05-43.66 24.21"/><path id="b" d="M407.88 433.98v104.36H16.44V433.98h391.44z"/><path id="c" d="M423.72 538.34h-47.99V202.83c0-13.13 10.64-23.77 23.77-23.77h101.39c67.76 0 122.67 54.91 122.67 122.65v236.63h-58.94"/><path id="d" d="M139.73 467.92c-38.91 0-70.45 31.54-70.45 70.44s31.54 70.44 70.45 70.44c38.9 0 70.44-31.54 70.44-70.44s-31.54-70.44-70.44-70.44z"/><path id="e" d="M494.17 467.92c-38.91 0-70.44 31.54-70.44 70.44s31.53 70.44 70.44 70.44c38.9 0 70.44-31.54 70.44-70.44s-31.54-70.44-70.44-70.44z"/><path id="f" d="M570.73 301.72c0-38.5-31.33-69.81-69.84-69.81-4.82-.01-28.93-.01-72.33 0v124.16h142.17v-54.35z"/><path id="g" d="M139.73 510.23c-15.54 0-28.13 12.59-28.13 28.13s12.59 28.13 28.13 28.13c15.53 0 28.13-12.59 28.13-28.13s-12.6-28.13-28.13-28.13z"/><path id="h" d="M494.17 510.23c-15.54 0-28.13 12.59-28.13 28.13s12.59 28.13 28.13 28.13c15.53 0 28.13-12.59 28.13-28.13s-12.6-28.13-28.13-28.13z"/><path id="i" d="M142.7 502.17l1.46.15 1.44.21 1.43.26 1.41.32 1.38.37 1.37.42 1.34.48 1.31.53 1.29.57 1.26.63 1.24.67 1.2.72 1.18.76 1.14.8 1.11.85 1.08.89 1.04.93 1 .97.97 1 .93 1.04.89 1.08.84 1.11.81 1.14.76 1.18.72 1.2.67 1.24.62 1.26.58 1.29.53 1.31.47 1.34.43 1.37.37 1.38.32 1.41.26 1.42.21 1.45.15 1.46.09 1.48.03 1.5-.03 1.49-.09 1.48-.15 1.46-.21 1.45-.26 1.42-.32 1.41-.37 1.38-.43 1.37-.47 1.34-.53 1.31-.58 1.29-.62 1.26-.67 1.24-.72 1.2-.76 1.18-.81 1.14-.84 1.11-.89 1.08-.93 1.04-.97 1-1 .97-1.04.93-1.08.89-1.11.85-1.14.8-1.18.76-1.2.72-1.24.67-1.26.63-1.29.57-1.31.53-1.34.48-1.37.42-1.38.37-1.41.32-1.43.26-1.44.21-1.46.15-1.48.09-1.5.03-1.49-.03-1.48-.09-1.46-.15-1.45-.21-1.43-.26-1.4-.32-1.39-.37-1.36-.42-1.34-.48-1.32-.53-1.29-.57-1.26-.63-1.23-.67-1.21-.72-1.17-.76-1.14-.8-1.12-.85-1.07-.89-1.04-.93-1.01-.97-.96-1-.93-1.04-.89-1.08-.85-1.11-.8-1.14-.77-1.18-.71-1.2-.67-1.24-.63-1.26-.57-1.29-.53-1.31-.48-1.34-.42-1.37-.38-1.38-.31-1.41-.27-1.42-.2-1.45-.15-1.46-.09-1.48-.03-1.49.03-1.5.09-1.48.15-1.46.2-1.45.27-1.42.31-1.41.38-1.38.42-1.37.48-1.34.52-1.31.58-1.29.63-1.26.67-1.24.71-1.2.77-1.18.8-1.14.85-1.11.89-1.08.93-1.04.96-1 1.01-.97 1.04-.93 1.07-.89 1.11-.85 1.15-.8 1.17-.76 1.21-.72 1.23-.67 1.26-.63 1.29-.57 1.32-.53 1.34-.48 1.36-.42 1.39-.37 1.4-.32 1.43-.26 1.45-.21 1.46-.15 1.48-.09 1.49-.03 1.5.03 1.48.09zm-5.58 16.4l-1.26.2-1.23.29-1.21.36-1.17.43-1.14.5-1.09.57-1.06.64-1.01.7-.97.75-.92.81-.87.87-.81.92-.76.97-.69 1.01-.64 1.06-.57 1.1-.5 1.13-.43 1.17-.36 1.21-.29 1.23-.2 1.27-.13 1.28-.04 1.31.04 1.31.13 1.29.2 1.26.29 1.24.36 1.2.43 1.18.5 1.13.57 1.1.64 1.06.69 1.01.76.97.81.92.87.86.92.82.97.75 1.01.7 1.06.63 1.09.57 1.14.51 1.17.43 1.21.36 1.23.28 1.26.21 1.29.12 1.31.05 1.31-.05 1.29-.12 1.26-.21 1.24-.28 1.2-.36 1.17-.43 1.14-.51 1.1-.57 1.06-.63 1.01-.7.97-.75.92-.82.86-.86.82-.92.75-.97.7-1.01.63-1.06.57-1.1.51-1.13.43-1.18.36-1.2.28-1.24.21-1.26.12-1.29.05-1.31-.05-1.31-.12-1.28-.21-1.27-.28-1.23-.36-1.21-.44-1.17-.5-1.13-.57-1.1-.63-1.06-.7-1.01-.75-.97-.82-.92-.86-.87-.92-.81-.97-.75-1.01-.7-1.06-.64-1.1-.57-1.14-.5-1.17-.43-1.2-.36-1.24-.29-1.26-.2-1.29-.13-1.31-.04-1.31.04-1.29.13z"/><path id="j" d="M497.14 502.17l1.46.15 1.45.21 1.42.26 1.41.32 1.38.37 1.37.42 1.34.48 1.31.53 1.29.57 1.26.63 1.24.67 1.2.72 1.18.76 1.14.8 1.11.85 1.08.89 1.04.93 1 .97.97 1 .93 1.04.89 1.08.85 1.11.8 1.14.76 1.18.72 1.2.67 1.24.63 1.26.57 1.29.53 1.31.47 1.34.43 1.37.37 1.38.32 1.41.26 1.42.21 1.45.15 1.46.09 1.48.03 1.5-.03 1.49-.09 1.48-.15 1.46-.21 1.45-.26 1.42-.32 1.41-.37 1.38-.43 1.37-.47 1.34-.53 1.31-.57 1.29-.63 1.26-.67 1.24-.72 1.2-.76 1.18-.8 1.14-.85 1.11-.89 1.08-.93 1.04-.97 1-1 .97-1.04.93-1.08.89-1.11.85-1.14.8-1.18.76-1.2.72-1.24.67-1.26.63-1.29.57-1.31.53-1.34.48-1.37.42-1.38.37-1.41.32-1.42.26-1.45.21-1.46.15-1.48.09-1.5.03-1.49-.03-1.48-.09-1.46-.15-1.45-.21-1.42-.26-1.41-.32-1.39-.37-1.36-.42-1.34-.48-1.31-.53-1.29-.57-1.27-.63-1.23-.67-1.21-.72-1.17-.76-1.14-.8-1.11-.85-1.08-.89-1.04-.93-1.01-.97-.96-1-.93-1.04-.89-1.08-.85-1.11-.8-1.14-.77-1.18-.71-1.2-.67-1.24-.63-1.26-.57-1.29-.53-1.31-.48-1.34-.42-1.37-.38-1.38-.31-1.41-.27-1.42-.2-1.45-.15-1.46-.09-1.48-.03-1.49.03-1.5.09-1.48.15-1.46.2-1.45.27-1.42.31-1.41.38-1.38.42-1.37.48-1.34.53-1.31.57-1.29.63-1.26.67-1.24.71-1.2.77-1.18.8-1.14.85-1.11.89-1.08.93-1.04.96-1 1.01-.97 1.04-.93 1.08-.89 1.11-.85 1.14-.8 1.17-.76 1.21-.72 1.23-.67 1.27-.63 1.29-.57 1.31-.53 1.34-.48 1.36-.42 1.39-.37 1.41-.32 1.42-.26 1.45-.21 1.46-.15 1.48-.09 1.49-.03 1.5.03 1.48.09zm-5.57 16.4l-1.27.2-1.23.29-1.21.36-1.17.43-1.13.5-1.1.57-1.06.64-1.01.7-.97.75-.92.81-.87.87-.81.92-.76.97-.69 1.01-.64 1.06-.57 1.1-.5 1.13-.43 1.17-.36 1.21-.29 1.23-.2 1.27-.13 1.28-.04 1.31.04 1.31.13 1.29.2 1.26.29 1.24.36 1.2.43 1.18.5 1.13.57 1.1.64 1.06.69 1.01.76.97.81.92.87.86.92.82.97.75 1.01.7 1.06.63 1.09.57 1.14.51 1.17.43 1.21.36 1.23.28 1.27.21 1.28.12 1.31.05 1.31-.05 1.29-.12 1.26-.21 1.24-.28 1.2-.36 1.18-.43 1.13-.51 1.1-.57 1.06-.63 1.01-.7.97-.75.92-.82.86-.86.82-.92.75-.97.7-1.01.63-1.06.57-1.1.51-1.13.43-1.18.36-1.2.28-1.24.21-1.26.12-1.29.05-1.31-.05-1.31-.12-1.28-.21-1.27-.28-1.23-.36-1.21-.43-1.17-.51-1.13-.57-1.1-.63-1.06-.7-1.01-.75-.97-.82-.92-.86-.87-.92-.81-.97-.75-1.01-.7-1.06-.64-1.1-.57-1.13-.5-1.18-.43-1.2-.36-1.24-.29-1.26-.2-1.29-.13-1.31-.04-1.31.04-1.28.13z"/><path id="k" d="M559.58 452.06v-33.47c0-6.15 4.99-11.15 11.15-11.15 6.15 0 11.14 5 11.14 11.15v33.47c0 6.15-4.99 11.14-11.14 11.14-6.16 0-11.15-4.99-11.15-11.14z"/><path id="l" d="M593.83 517.97c-6.16 0-11.15-4.99-11.15-11.15 0-6.15 4.99-11.15 11.15-11.15h35.02c6.16 0 11.15 5 11.15 11.15 0 6.16-4.99 11.15-11.15 11.15h-35.02z"/><path id="m" d="M11.15 517.97C4.99 517.97 0 512.98 0 506.82c0-6.15 4.99-11.15 11.15-11.15h27.59c6.15 0 11.14 5 11.14 11.15 0 6.16-4.99 11.15-11.14 11.15H11.15z"/><path id="n" d="M209.84 120.4l4.84.49 4.78.68 4.72.87 4.66 1.05 4.58 1.23 4.51 1.4 4.43 1.57 4.35 1.74 4.26 1.91 4.17 2.05 4.08 2.22 3.99 2.37 3.88 2.52 3.78 2.66 3.67 2.8 3.55 2.93 3.44 3.07 3.32 3.19 3.19 3.32 3.07 3.44 2.93 3.55 2.8 3.68 2.66 3.77 2.52 3.88 2.37 3.99 2.22 4.08 2.05 4.17 1.91 4.26 1.74 4.35 1.57 4.43 1.4 4.51 1.23 4.58 1.05 4.66.87 4.72.68 4.78.49 4.84.3 4.89.1 4.95-.1 4.95-.3 4.89-.49 4.85-.68 4.78-.87 4.71-1.05 4.66-1.23 4.58-1.4 4.51-1.57 4.43-1.74 4.35-1.91 4.27-2.05 4.17-2.22 4.08-2.37 3.98-2.52 3.89-2.66 3.77-2.8 3.67-2.93 3.56-3.07 3.44-3.19 3.32-3.32 3.19-3.44 3.07-3.55 2.93-3.67 2.8-3.78 2.66-3.88 2.51-3.99 2.37-4.08 2.22-4.17 2.06-4.26 1.9-4.35 1.74-4.43 1.57-4.51 1.4-4.58 1.23-4.66 1.05-4.72.87-4.78.68-4.84.49-4.89.3-4.95.1-4.95-.1-4.89-.3-4.84-.49-4.79-.68-4.71-.87-4.66-1.05-4.58-1.23-4.51-1.4-4.43-1.57-4.35-1.74-4.26-1.9-4.18-2.06-4.08-2.22-3.98-2.37-3.89-2.51-3.77-2.66-3.67-2.8-3.56-2.93-3.44-3.07-3.32-3.19-3.19-3.32-3.07-3.44-2.93-3.56-2.8-3.67-2.66-3.77-2.51-3.89-2.37-3.98-2.22-4.08-2.06-4.17-1.9-4.27-1.74-4.35-1.57-4.43-1.4-4.51-1.23-4.58-1.05-4.66-.87-4.71-.68-4.78-.49-4.85-.3-4.89L80 240l.1-4.95.3-4.89.49-4.84.68-4.78.87-4.72 1.05-4.66 1.23-4.58 1.4-4.51 1.57-4.43 1.74-4.35 1.9-4.26 2.06-4.17 2.22-4.08 2.37-3.99 2.51-3.88 2.66-3.77 2.8-3.68 2.93-3.55 3.07-3.44 3.19-3.32 3.32-3.19 3.44-3.07 3.56-2.93 3.67-2.8 3.77-2.66 3.89-2.52 3.98-2.37 4.08-2.22 4.18-2.05 4.26-1.91 4.35-1.74 4.43-1.57 4.51-1.4 4.58-1.23 4.66-1.05 4.71-.87 4.79-.68 4.84-.49 4.89-.3 4.95-.1 4.95.1 4.89.3zm-40.38 226.07l.74.21.75.2.75.21.76.19.75.19.76.19.76.18.76.18.77.16.76.17.77.16.77.15.77.15.77.15.78.14.78.13.77.13.79.12.78.12.78.11.79.1.79.1.79.1.79.09.79.08.8.08.79.07.8.07.8.06.8.05.8.05.81.05.81.03.8.04.81.02.81.02.81.02.82.01h1.78l.96-.02.96-.02.96-.02.96-.04.95-.05.96-.05.95-.06.95-.07.94-.08.95-.09.94-.09.94-.1.94-.11.94-.12.93-.12.93-.13.93-.14.92-.15.92-.16.93-.16.91-.17.92-.18.91-.19.91-.19.91-.2.9-.21.9-.21.9-.23.9-.23.89-.23.89-.25.89-.25.88-.26.88-.27.88-.27.87-.28.87-.29.87-.29.86-.31-.02-.03-.02-.03-.02-.04-.03-.03-.02-.04-.02-.04-.02-.03-.02-.04-.02-.03-.02-.04-.02-.03-.02-.04-.02-.04-.04-.07-.03-.04-.03-.07-.02-.04-.02-.04-.04-.07-.02-.04-.06-.12-.02-.03-.04-.08-.01-.04-.02-.04-.02-.04-.02-.04-.02-.04-.02-.04-.01-.04-.02-.04-.03-.08-.02-.04-34.04-93.26-33.24 96.55.75.22zM97.94 197l-.44 1.05-.42 1.05-.41 1.06-.41 1.06-.39 1.07-.38 1.07-.38 1.08-.36 1.08-.35 1.09-.34 1.09-.33 1.1-.32 1.1-.3 1.11-.3 1.11-.28 1.12-.27 1.12-.27 1.12-.25 1.13-.24 1.13-.22 1.14-.22 1.14-.2 1.15-.2 1.14-.17 1.16-.17 1.16-.16 1.16-.14 1.16-.14 1.17-.12 1.17-.1 1.18-.1 1.18-.08 1.18-.07 1.19-.06 1.19-.05 1.19-.03 1.2-.02 1.2v1.2l.05 3.28.14 3.25.23 3.23.33 3.2.41 3.17.51 3.15.59 3.11.68 3.09.77 3.05.85 3.01.93 2.98 1.01 2.95 1.09 2.91 1.17 2.86 1.25 2.83 1.32 2.78 1.4 2.75 1.47 2.69 1.54 2.65 1.62 2.61 1.68 2.55 1.75 2.51 1.82 2.45 1.88 2.4 1.95 2.35 2.01 2.29 2.07 2.24 2.13 2.18 2.19 2.11 2.24 2.06 2.31 2 2.35 1.93 2.41 1.87 2.47 1.81 2.51 1.73 2.56 1.67 2.62 1.6 2.66 1.53 2.7 1.45 2.75 1.38-52.83-144.73-.45 1.03-.45 1.04zm199.31-9.6l.03.26.03.27.07.54.03.27.09.82.03.28.02.27.03.28.03.28.02.28.02.28.03.28.02.28.02.28.02.29.04.57.05.86.01.29.02.59.02.29.02.59v.3l.01.29.01.3v.3l.01.3v.31l.01.3v.61l-.01.57-.01.6-.03.61-.04.64-.04.66-.06.68-.07.7-.08.72-.09.74-.1.77-.11.79-.12.81-.13.83-.15.85-.15.87-.16.9-.17.91-.19.94-.19.96-.21.98-.22 1-.22 1.03-.24 1.04-.25 1.07-.26 1.09-.26 1.11-.28 1.13-.3 1.15-.29 1.18-.32 1.19-.32 1.22-.33 1.24-.34 1.26-.35 1.28-.37 1.3-.37 1.33-.39 1.34-.39 1.37-.41 1.39-.42 1.41-33.82 97.8 2.45-1.47 2.41-1.53 2.36-1.59 2.32-1.65 2.28-1.71 2.23-1.76 2.18-1.82 2.14-1.87 2.09-1.93 2.03-1.97 1.99-2.04 1.93-2.07 1.88-2.13 1.83-2.18 1.77-2.22 1.71-2.27 1.66-2.32 1.6-2.36 1.53-2.4 1.48-2.44 1.42-2.48 1.35-2.53 1.29-2.56 1.23-2.6 1.15-2.63 1.1-2.68 1.02-2.7.95-2.74.89-2.77.81-2.8.74-2.83.67-2.86.59-2.89.52-2.92.44-2.94.36-2.97.29-2.99.2-3.01.12-3.03.04-3.06-.01-1.44-.02-1.44-.05-1.43-.06-1.43-.08-1.42-.1-1.42-.12-1.42-.14-1.41-.15-1.4-.17-1.4-.19-1.39-.2-1.39-.22-1.38-.24-1.37-.26-1.37-.27-1.37-.29-1.35-.3-1.36-.33-1.34-.33-1.34-.36-1.33-.37-1.33-.39-1.32-.4-1.31-.42-1.31-.43-1.29-.45-1.29-.47-1.29-.48-1.27-.49-1.27-.51-1.26-.53-1.26-.54-1.24-.55-1.24-.57-1.23-.59-1.22-.59-1.22-.62-1.2-.63-1.2-.64-1.18.04.26.04.27zm-68.39-9.36l.36.12.33.13.32.17.29.18.28.21.25.23.23.24.22.26.18.28.18.29.14.3.13.31.1.32.08.32.06.33.04.34.02.33-.01.34-.03.33-.05.34-.08.33-.1.32-.12.31-.15.31-.16.29-.2.28-.21.27-.24.25-.27.23-.28.22-.32.2-.33.17-.36.15-.39.12-.41.09-.43.07h-.01l-.04.01h-.05l-.08.01-.09.01-.12.02-.13.01-.16.02-.17.02-.19.02-.21.02-.23.02-.24.03-.26.03-.27.02-.29.03-.3.03-.32.03-.33.03-.34.03-.36.04-.37.03-.38.04-.39.03-.4.04-.41.03-.42.04-.43.03-.44.04-.44.03-.46.04-.46.03-.47.03-.47.04-.48.03-.49.03-.49.03-.49.03-.49.03-.5.03 40.02 119.04 11.05-36.9.42-1.08.4-1.06.4-1.06.38-1.05.38-1.04.36-1.02.35-1.03.34-1 .34-1.01.32-.99.31-.98.3-.97.29-.97.28-.95.26-.95.26-.94.25-.92.24-.92.22-.91.22-.9.21-.89.19-.88.19-.87.17-.86.17-.86.15-.84.14-.84.13-.82.12-.82.11-.81.11-.8.09-.78.07-.79.07-.77.06-.76.05-.75.03-.75.03-.73.02-.72v-.72l-.01-1.02-.02-1-.05-.99-.06-.97-.08-.96-.09-.94-.11-.93-.12-.92-.14-.9-.15-.88-.17-.87-.18-.86-.19-.85-.2-.83-.21-.82-.22-.8-.23-.8-.25-.78-.25-.77-.26-.75-.27-.75-.27-.73-.28-.72-.29-.71-.3-.7-.3-.69-.3-.68-.31-.66-.31-.66-.32-.65-.31-.63-.32-.63-.32-.62-.32-.61-.32-.6-.33-.59-.32-.58-.32-.57-.32-.57-.32-.56-.41-.68-.42-.67-.42-.67-.41-.67-.41-.66-.41-.66-.4-.66-.4-.65-.39-.65-.39-.65-.38-.64-.38-.64-.36-.64-.37-.63-.35-.64-.34-.64-.34-.63-.33-.63-.32-.63-.3-.64-.3-.63-.28-.63-.28-.63-.26-.64-.25-.63-.24-.64-.23-.63-.21-.64-.19-.64-.18-.65-.17-.64-.15-.66-.14-.65-.11-.65-.11-.66-.08-.67-.07-.67-.05-.67-.02-.68-.01-.68.01-.76.04-.76.08-.75.09-.75.13-.75.15-.73.18-.73.2-.72.23-.71.26-.7.28-.69.3-.68.33-.67.35-.65.38-.64.39-.62.42-.61.44-.59.47-.57.48-.56.5-.53.53-.52.54-.5.56-.47.58-.45.6-.43.62-.4.63-.39.66-.35.66-.33.69-.3.7-.27.72-.24.73-.22.74-.18.76-.15.77-.12.79-.08.8-.06.81-.02h.11l.03.01h.25l.07.01h.04l.11.01h.03l.22.02h.03l.21.02h.04l.28.03-1.49-1.34-1.51-1.32-1.54-1.29-1.56-1.25-1.58-1.24-1.61-1.2-1.63-1.18-1.65-1.14-1.67-1.12-1.7-1.09-1.71-1.05-1.74-1.03-1.75-.99-1.78-.97-1.79-.93-1.81-.9-1.84-.87-1.85-.84-1.87-.8-1.88-.77-1.9-.73-1.92-.7-1.94-.67-1.95-.63-1.97-.6-1.98-.56-2-.52-2.01-.49-2.03-.45-2.04-.42-2.06-.37-2.06-.34-2.08-.3-2.09-.26-2.11-.22-2.11-.18-2.13-.15-2.13-.1-2.15-.06-2.16-.02-2.89.04-2.88.11-2.85.18-2.84.26-2.81.32-2.79.4-2.77.46-2.75.54-2.72.6-2.69.66-2.67.73-2.64.8-2.62.86-2.58.93-2.55.98-2.53 1.05-2.49 1.1-2.46 1.17-2.42 1.22-2.39 1.28-2.36 1.34-2.32 1.39-2.28 1.44-2.24 1.5-2.21 1.56-2.16 1.6-2.13 1.65-2.08 1.71-2.04 1.76-2 1.8-1.95 1.85-1.91 1.9-1.85 1.94-1.82 1.99-1.76 2.03-1.72 2.07-1.67 2.12-1.62 2.15-1.56 2.2-1.51 2.24h.19l.2.01h.19l.2.01.38.01h.19l.19.01h.19l.19.01h.37l.19.01.37.01h.18l.55.01.53.01.18.01h.35l.17.01h.35l.33.01h1.31l.16.01h.16l.88-.01.9-.01.92-.01.94-.02.95-.02.97-.02.98-.03.98-.03.99-.04 1.98-.08 1-.04.99-.05.98-.05.97-.04.97-.05.95-.06.94-.05.92-.05.9-.05.88-.06.85-.05.83-.05.8-.06.77-.04.73-.05.7-.05.67-.05.62-.04.58-.04.54-.04.48-.04.44-.03.39-.03.34-.02.28-.02.22-.02.16-.01.1-.01h.03l.44-.01.42.02.39.06.38.08.36.12.33.13.32.17.29.18.28.21.25.23.24.24.21.26.19.28.17.29.15.3.12.31.11.32.08.32.06.33.04.34.01.33v.34l-.03.33-.05.34-.08.33-.1.32-.12.31-.14.31-.17.29-.19.28-.22.27-.24.25-.26.23-.29.22-.31.2-.33.17-.37.15-.38.12-.41.09-.44.07h-.01l-.03.01h-.06l-.07.01-.1.01-.12.02-.13.01-.16.02-.17.02-.19.02-.21.02-.23.02-.24.03-.26.03-.27.02-.29.03-.3.03-.32.03-.33.03-.35.03-.35.04-.37.03-.38.04-.39.03-.4.04-.42.03-.42.04-.43.03-.44.04-.44.03-.46.04-.46.03-.47.03-.47.04-.48.03-.49.03-.49.03-.49.03-.5.03-.49.03 40.33 119.95 24.23-72.67-17.23-47.28-.45-.03-.89-.06-.44-.03-.44-.03-.86-.07-.43-.03-.41-.03-.42-.04-.41-.03-.4-.04-.39-.03-.39-.04-.38-.03-.37-.04-.36-.03-.35-.04-.34-.03-.33-.04-.32-.03-.3-.03-.3-.03-.28-.03-.27-.03-.25-.02-.24-.03-.23-.03-.21-.02-.2-.02-.18-.02-.16-.02-.14-.02-.13-.01-.11-.02-.09-.01-.07-.01h-.05l-.03-.01h-.02l-.43-.04-.41-.07-.38-.11-.36-.13-.34-.15-.31-.18-.29-.21-.26-.22-.24-.24-.22-.27-.19-.27-.17-.29-.14-.31-.12-.31-.1-.32-.08-.34-.05-.33-.03-.34-.01-.34.02-.35.04-.34.06-.34.08-.33.1-.33.13-.32.14-.31.17-.29.19-.29.21-.27.24-.25.25-.24.28-.21.29-.19.32-.17.34-.15.35-.12.38-.08.4-.06.42-.03.43.01h.04l.1.01.16.01.23.02.28.02.34.02.4.03.44.03 1.04.08.59.04.63.04.66.05.71.05.74.05.78.04.8.06.83.05.86.05.88.06.89.05.92.05.93.05.95.06.96.05.96.04.97.05 1.95.09 1.95.08.96.04.96.03.95.03.93.02.92.02.89.02.88.01.86.01.83.01.88-.01.9-.01.92-.01.94-.02.95-.02.97-.02.97-.03.98-.03.99-.04 1.99-.08.99-.04.99-.05.98-.05.98-.04.96-.05.95-.06.94-.05.92-.05.9-.05.88-.06.85-.05.84-.05.79-.06.77-.04.74-.05.7-.05.66-.05.63-.04.58-.04.53-.04.49-.04.44-.03.39-.03.34-.02.28-.02.22-.02.16-.01.1-.01h.03l.44-.01.42.02.39.06.38.08z"/></defs><use fill-opacity="0" stroke="#600060" stroke-width="4" xlink:href="#a"/><use fill="#415e72" xlink:href="#b"/><use fill-opacity="0" stroke="#000" stroke-opacity="0" xlink:href="#b"/><use fill="#600060" xlink:href="#c"/><use fill="gray" xlink:href="#d"/><use fill-opacity="0" stroke="#000" stroke-opacity="0" xlink:href="#d"/><use fill="gray" xlink:href="#e"/><use fill-opacity="0" stroke="#000" stroke-opacity="0" xlink:href="#e"/><use fill="#fff" xlink:href="#f"/><use fill-opacity="0" stroke="#000" stroke-opacity="0" xlink:href="#f"/><use fill="#e6e6e6" xlink:href="#g"/><use fill-opacity="0" stroke="#000" stroke-opacity="0" xlink:href="#g"/><use fill="#e6e6e6" xlink:href="#h"/><use fill-opacity="0" stroke="#000" stroke-opacity="0" xlink:href="#h"/><g><use fill="#314a5f" xlink:href="#i"/><use fill-opacity="0" stroke="#000" stroke-opacity="0" xlink:href="#i"/></g><g><use fill="#314a5f" xlink:href="#j"/><use fill-opacity="0" stroke="#000" stroke-opacity="0" xlink:href="#j"/></g><g><use fill="#fff" xlink:href="#k"/><use fill-opacity="0" stroke="#000" stroke-opacity="0" xlink:href="#k"/></g><g><use fill="#cfdce5" xlink:href="#l"/><use fill-opacity="0" stroke="#000" stroke-opacity="0" xlink:href="#l"/></g><g><use fill="#cfdce5" xlink:href="#m"/><use fill-opacity="0" stroke="#000" stroke-opacity="0" xlink:href="#m"/></g><g><use fill="#600060" xlink:href="#n"/><use fill-opacity="0" stroke="#000" stroke-opacity="0" xlink:href="#n"/></g></svg>