<svg xmlns="http://www.w3.org/2000/svg" xmlns:xlink="http://www.w3.org/1999/xlink" width="640" height="640"><defs><path id="a" d="M147.29 94.86c0-5.88-4.83-10.72-10.75-10.72h-24.96c-5.92 0-10.76 4.84-10.76 10.72v58.82c0 5.89 4.84 10.69 10.76 10.69h85.12c5.92 0 10.78-4.8 10.78-10.69V106c0-5.89-4.86-10.72-10.78-10.72h-49.41v-.42z"/><path id="b" d="M317.06 94.86c0-5.88-4.83-10.72-10.75-10.72h-24.93c-5.92 0-10.78 4.84-10.78 10.72v58.82c0 5.89 4.86 10.69 10.78 10.69h85.09c5.92 0 10.79-4.8 10.79-10.69V106c0-5.89-4.87-10.72-10.79-10.72h-49.41v-.42z"/><path id="c" d="M317.06 94.86c0-5.88-4.83-10.72-10.75-10.72h-24.93c-5.92 0-10.78 4.84-10.78 10.72v58.82c0 5.89 4.86 10.69 10.78 10.69h85.09c5.92 0 10.79-4.8 10.79-10.69V106c0-5.89-4.87-10.72-10.79-10.72h-49.41v-.42z"/><path id="d" d="M486.06 94.86c0-5.88-4.83-10.72-10.75-10.72h-24.93c-5.95 0-10.78 4.84-10.78 10.72v58.79c0 5.89 4.83 10.72 10.78 10.72h85.09c5.92 0 10.79-4.83 10.79-10.72V106c0-5.89-4.87-10.72-10.79-10.72h-49.41v-.42z"/><path id="e" d="M47.77 341.21c0-3.94 3.23-7.17 7.2-7.17h191.55c3.97 0 7.2 3.23 7.2 7.17v127.55H47.77V341.21z"/><path id="f" d="M17.85 491.32v5.22c0 1.44 1.21 2.65 2.69 2.65H282.3c1.47 0 2.68-1.21 2.68-2.65v-5.22c0-1.47-1.21-2.69-2.68-2.69H20.54c-1.8.81-2.69 1.71-2.69 2.69z"/><path id="g" d="M17.85 491.32v5.22c0 1.44 1.21 2.65 2.69 2.65H282.3c1.47 0 2.68-1.21 2.68-2.65v-5.22c0-1.47-1.21-2.69-2.68-2.69H20.54c-1.8.81-2.69 1.71-2.69 2.69z"/><path id="h" d="M384.63 341.21c0-3.94 3.23-7.17 7.2-7.17h191.55c3.97 0 7.2 3.23 7.2 7.17v127.55H384.63V341.21z"/><path id="i" d="M354.71 491.32v5.22c0 1.44 1.22 2.65 2.69 2.65h261.76c1.47 0 2.69-1.21 2.69-2.65v-5.22a2.71 2.71 0 0 0-2.69-2.69H357.4c-1.79.81-2.69 1.71-2.69 2.69z"/><path id="j" d="M354.71 491.32v5.22c0 1.44 1.22 2.65 2.69 2.65h261.76c1.47 0 2.69-1.21 2.69-2.65v-5.22a2.71 2.71 0 0 0-2.69-2.69H357.4c-1.79.81-2.69 1.71-2.69 2.69z"/><path id="k" d="M498.39 374.58l3.91 1.64 3.55 2.2 3.17 2.69 2.72 3.14 2.2 3.55 1.64 3.87 1.05 4.16.35 4.39-.35 4.38-1.05 4.19-1.64 3.87-2.2 3.52-2.72 3.17-3.17 2.69-3.55 2.21-3.91 1.63-4.19 1.02-4.38.36-4.42-.36-4.19-1.02-3.91-1.63-3.55-2.21-3.17-2.69-2.72-3.17-2.2-3.52-1.64-3.87-1.05-4.19-.35-4.38.35-4.39 1.05-4.16 1.64-3.87 2.2-3.55 2.72-3.14 3.17-2.69 3.55-2.2 3.91-1.64 4.19-1.02 4.42-.35 4.38.35 4.19 1.02zm-13.95 50.02l1.73.32 1.79.19 1.86.07 2.14-.1 2.11-.26 2.08-.44 1.99-.61-.07-.1-.03-.06-.06-.1-.04-.09-7.71-21-7.52 21.76 1.73.42zm-19.17-29.63l-.41 2.59-.13 2.66 1.02 7.13 2.91 6.31 4.45 5.21 5.76 3.81-11.97-32.61-.92 2.4-.71 2.5zm46.69-4.83l.03.7-.13 1.5-.35 1.99-.61 2.46-.83 2.98-7.65 22.01 5.09-3.87 3.94-5.05 2.53-5.99.89-6.65-.19-3.2-.61-3.08-.96-2.91-1.31-2.78.1.61.06 1.28zm-26.43-14.5l-2.08.45-1.99.61-1.92.76-1.82.9-1.73 1.06-1.66 1.18-1.54 1.31-1.44 1.44-1.31 1.54-1.18 1.63h.28l.13.03h1.86l.73-.03h.74l.77-.03.73-.07.68-.03.64-.03.57-.03.48-.03.35-.04.26-.03h.06l.32.03.26.1.22.13.26.45.03.25v.23l-.06.25-.13.23-.19.19-.23.13-.32.06-.03.03h-.19l-.19.03h-.19l-.26.04-.58.06-.35.03h-.35l-.35.03-.39.04 9.16 27 5.47-16.35-3.91-10.65-.32-.04-.35-.03h-.29l-.32-.03-.28-.03-.26-.03-.22-.04h-.2l-.16-.03h-.12l-.1-.03-.32-.03-.22-.13-.2-.19-.12-.23-.07-.22v-.26l.03-.25.13-.26.13-.19.22-.16.26-.1.32-.03h.1l.22.03.35.04.48.03.58.03.64.03.7.03.74.07.73.03h.71l.7.03h1.35l.7-.03h.77l.73-.03.74-.07.7-.03.64-.03.55-.03.48-.03.35-.04.26-.03h.06l.32.03.26.1.22.13.16.22.1.23.03.25v.23l-.07.25-.12.23-.2.19-.22.13-.32.06-.03.03h-.19l-.2.03h-.19l-.25.04-.58.06-.35.03h-.32l-.39.03-.35.04 9.06 26.81 2.49-8.32.29-.8.29-.77.26-.76.22-.71.38-1.41.26-1.28.1-.64.06-.57.03-.58.03-.54-.03-.74-.06-.73-.1-.68-.16-.64-.16-.6-.19-.58-.19-.54-.23-.55-.22-.48-.26-.48-.25-.45-.23-.41-.32-.51-.32-.48-.28-.52-.29-.48-.26-.48-.22-.44-.23-.48-.19-.48-.16-.48-.09-.48-.07-.52-.03-.51.03-.57.1-.55.19-.54.22-.51.29-.45.35-.45.39-.38.45-.32.51-.29.51-.19.58-.13.6-.03h.32l-1.15-.96-1.21-.93-1.25-.83-1.31-.77-1.38-.71-1.41-.6-1.44-.52-1.5-.41-1.51-.35-1.56-.26-1.6-.16-1.6-.03-2.18.09-2.11.26z"/><path id="l" d="M161.14 379.35l.04-.06v-.19l.03-.07v-.06l.09-.19v-.07l.07-.13.03-.03.03-.06.1-.1.03-.06.06-.03.04-.07.12-.13.13-.06.1-.1h.06l.26-.12h.06l.07-.04h.06l.06-.03H169.91l.07.03h.06l.1.04h.06l.03.03.19.09h.07l.09.1.13.06.23.23.03.06.06.03.07.13.03.03.09.2v.06l.07.13v.06l.03.07v.12l.03.07v17.89l6.79 7.61h-6.79v23.65h-15.13v-16.8l-.04-.06v-.07l-.03-.06-.03-.1v-.06l-.16-.32-.03-.03-.03-.07-.07-.06-.03-.07-.29-.28-.13-.07-.03-.03-.32-.16h-.06l-.07-.03h-.06l-.1-.03h-.12l-.07-.04h-7.17l-.06.04h-.16l-.06.03h-.07l-.06.03h-.07l-.32.16-.03.03-.13.07-.35.35-.06.13-.03.03-.2.38v.1l-.03.06v.07l-.03.06v16.8h-15.14v-23.65h-6.78l27.17-30.43 10.17 11.39v-6.4z"/><path id="m" d="M298.15 144.88v-34.02h43.49v34.02h-43.49zm5.44-4.26l8.16-6.4 5.44 2.15 8.16-8.51 10.85 11.32v-24.06h-32.61v25.5z"/><path id="n" d="M139.9 114.06v27.91h24.03v-20.39h3.61v23.59h-31.23v-34.31h17.41v3.2H139.9z"/><path id="o" d="M513.55 116.72c0 3.07-2.49 5.54-5.53 5.54h-22.85c-3.07 0-5.54-2.47-5.54-5.54 0-3.04 2.47-5.5 5.54-5.5h22.85c3.69 1.64 5.53 3.47 5.53 5.5z"/><path id="p" d="M513.55 127.31c0 3.07-2.49 5.54-5.53 5.54h-22.85c-3.07 0-5.54-2.47-5.54-5.54 0-3.04 2.47-5.5 5.54-5.5h22.85c3.69 1.64 5.53 3.48 5.53 5.5z"/><path id="q" d="M513.55 138.8c0 3.07-2.49 5.54-5.53 5.54h-22.85c-3.07 0-5.54-2.47-5.54-5.54 0-3.04 2.47-5.5 5.54-5.5h22.85c3.69 1.64 5.53 3.47 5.53 5.5z"/><path id="r" d="M151.27 165.37l-1.53 168"/><path id="s" d="M324.14 164.37l-1.4 154"/><path id="t" d="M494.49 164.37l-1.56 170"/><path id="u" d="M321.43 316.78H148.24"/><path id="v" d="M493.74 316.78h-172"/></defs><use fill-opacity="0" xlink:href="#a"/><use fill-opacity="0" stroke="#600060" stroke-width="2" xlink:href="#a"/><use fill-opacity="0" xlink:href="#b"/><use fill-opacity="0" stroke="#000" stroke-opacity="0" xlink:href="#b"/><use fill-opacity="0" xlink:href="#c"/><use fill-opacity="0" stroke="#600060" stroke-width="2" xlink:href="#c"/><use fill-opacity="0" xlink:href="#d"/><use fill-opacity="0" stroke="#600060" stroke-width="2" xlink:href="#d"/><use fill-opacity="0" xlink:href="#e"/><use fill-opacity="0" stroke="#600060" stroke-width="2" xlink:href="#e"/><use fill="#600060" xlink:href="#f"/><use fill-opacity="0" stroke="#000" stroke-opacity="0" xlink:href="#f"/><use fill-opacity="0" xlink:href="#g"/><use fill-opacity="0" stroke="#000" stroke-opacity="0" xlink:href="#g"/><use fill-opacity="0" xlink:href="#h"/><use fill-opacity="0" stroke="#600060" stroke-width="2" xlink:href="#h"/><use fill="#600060" xlink:href="#i"/><use fill-opacity="0" stroke="#000" stroke-opacity="0" xlink:href="#i"/><use fill-opacity="0" xlink:href="#j"/><use fill-opacity="0" stroke="#000" stroke-opacity="0" xlink:href="#j"/><use fill="#600060" xlink:href="#k"/><use fill-opacity="0" stroke="#000" stroke-opacity="0" xlink:href="#k"/><g><use fill="#600060" xlink:href="#l"/><use fill-opacity="0" stroke="#000" stroke-opacity="0" xlink:href="#l"/></g><g><use fill="#600060" xlink:href="#m"/></g><g><use fill="#600060" xlink:href="#n"/><use fill-opacity="0" stroke="#000" stroke-opacity="0" xlink:href="#n"/></g><g><use fill-opacity="0" xlink:href="#o"/><use fill-opacity="0" stroke="#600060" stroke-width="2" xlink:href="#o"/></g><g><use fill-opacity="0" xlink:href="#p"/><use fill-opacity="0" stroke="#600060" stroke-width="2" xlink:href="#p"/></g><g><use fill-opacity="0" xlink:href="#q"/><use fill-opacity="0" stroke="#600060" stroke-width="2" xlink:href="#q"/></g><g><use fill-opacity="0" stroke="#600060" stroke-width="3" xlink:href="#r"/></g><g><use fill-opacity="0" stroke="#600060" stroke-width="3" xlink:href="#s"/></g><g><use fill-opacity="0" stroke="#600060" stroke-width="3" xlink:href="#t"/></g><g><use fill-opacity="0" stroke="#600060" stroke-width="3" xlink:href="#u"/></g><g><use fill-opacity="0" stroke="#600060" stroke-width="3" xlink:href="#v"/></g></svg>