<svg xmlns="http://www.w3.org/2000/svg" xmlns:xlink="http://www.w3.org/1999/xlink" width="640" height="387"><defs><path id="a" d="M617.08 57.37c7.46 0 12.88 7.11 10.91 14.31-9.99 36.42-34.96 127.49-74.91 273.19H78.84c54.95-146.71 89.29-238.4 103.02-275.08 2.8-7.47 9.94-12.42 17.92-12.42h417.3z"/><path id="b" d="M176.69 93.49H617.26l-67.5 249.28-467.61 2.1 94.54-251.38z"/><path id="c" d="M89.21 328.77h464.8l-4.7 15.16H82.15l7.06-15.16z"/><path id="d" d="M592.77 345.25H-11.6"/><path id="e" d="M619.83 93.49H170.59"/><path id="f" d="M199.5 77.03c0 2.97-2.42 5.38-5.39 5.38-2.97 0-5.39-2.41-5.39-5.38 0-2.98 2.42-5.39 5.39-5.39 2.97 0 5.39 2.41 5.39 5.39z"/><path id="g" d="M224.27 77.03c0 2.97-2.41 5.38-5.38 5.38a5.386 5.386 0 1 1 5.38-5.38z"/><path id="h" d="M247.98 77.03c0 2.97-2.42 5.38-5.39 5.38-2.97 0-5.39-2.41-5.39-5.38 0-2.98 2.42-5.39 5.39-5.39 2.97 0 5.39 2.41 5.39 5.39z"/><path id="i" d="M178.38 71.64h-40.74"/><path id="j" d="M122.93 71.64H98.49"/><path id="k" d="M169.94 94.92H67.6"/><path id="l" d="M420.57 127.38c40.45-.14 73.35 24.43 73.46 54.9.01 1.14-.03 2.29-.13 3.42 29.24 4.52 50.78 19.96 50.85 38.39.08 22.09-30.7 40.1-68.76 40.24-17.29.07-155.57.57-172.86.63-38.05.14-68.97-17.65-69.05-39.73-.07-19.26 23.32-35.42 54.53-39.33 2.72-20.89 26.07-37.27 54.53-37.38 6.26-.02 12.26.75 17.87 2.17 13.25-14.02 34.97-23.22 59.56-23.31z"/><path id="m" d="M44.29 95.34H19.85"/><path id="n" d="M45.84 327.69H21.4"/><path id="o" d="M286.42 311.26h-90.5"/><path id="p" d="M94.54 313.69h461.63l-2.93 15.15H87.53l7.01-15.15z"/><path id="q" d="M161.86 327.69H59.52"/><path id="r" d="M345.1 311.26h-24.44"/><path id="s" d="M106.4 271.36H4.06"/><path id="t" d="M427.09 145.73l2.17.22 2.15.3 2.11.39 2.09.47 2.06.55 2.02.63 1.99.71 1.95.78 1.92.86 1.87.92 1.83 1 1.79 1.06 1.74 1.13 1.7 1.19 1.65 1.26 1.59 1.32 1.55 1.37 1.49 1.44 1.43 1.49 1.38 1.54 1.31 1.6 1.26 1.64 1.19 1.7 1.13 1.74 1.07 1.79.99 1.83.93 1.87.85 1.92.78 1.95.71 1.99.63 2.02.55 2.06.47 2.09.39 2.12.31 2.14.22 2.18.13 2.19.05 2.22-.05 2.22-.13 2.2-.22 2.17-.31 2.15-.39 2.12-.47 2.09-.55 2.05-.63 2.03-.71 1.99-.78 1.95-.85 1.91-.93 1.88-.99 1.83-1.07 1.79-1.13 1.74-1.19 1.7-1.26 1.64-1.31 1.6-1.38 1.54-1.43 1.49-1.49 1.44-1.55 1.37-1.59 1.32-1.65 1.25-1.7 1.2-1.74 1.13-1.79 1.06-1.83 1-1.87.92-1.92.85-1.95.78-1.99.71-2.02.63-2.06.55-2.09.47-2.11.39-2.15.31-2.17.22-2.2.13-2.22.05-2.22-.05-2.2-.13-2.17-.22-2.15-.31-2.12-.39-2.09-.47-2.05-.55-2.03-.63-1.99-.71-1.95-.78-1.91-.85-1.88-.92-1.83-1-1.79-1.06-1.74-1.13-1.69-1.2-1.65-1.25-1.6-1.32-1.54-1.37-1.49-1.44-1.43-1.49-1.38-1.54-1.32-1.6-1.25-1.64-1.2-1.7-1.13-1.74-1.06-1.79-.99-1.83-.93-1.88-.85-1.91-.78-1.95-.71-1.99-.63-2.03-.55-2.05-.47-2.09-.39-2.12-.31-2.15-.22-2.17-.13-2.2-.05-2.22.05-2.22.13-2.19.22-2.18.31-2.14.39-2.12.47-2.09.55-2.06.63-2.02.71-1.99.78-1.95.85-1.92.93-1.87.99-1.83 1.06-1.79 1.13-1.74 1.2-1.7 1.25-1.64 1.32-1.6 1.38-1.54 1.43-1.49 1.49-1.44 1.54-1.37 1.6-1.32 1.65-1.26 1.69-1.19 1.74-1.13 1.79-1.06 1.83-1 1.88-.92 1.91-.86 1.95-.78 1.99-.71 2.03-.63 2.05-.55 2.09-.47 2.12-.39 2.15-.3 2.17-.22 2.2-.14 2.22-.04 2.22.04 2.2.14zm-17.91 101.54l.56.15.57.15.56.14.57.13.57.13.57.13.58.11.58.11.58.1.58.1.59.09.58.08.59.07.6.07.59.06.59.06.6.04.6.04.6.04.61.02.6.02.61.01h1.33l.72-.02.72-.02.71-.04.71-.04.71-.06.71-.07.7-.07.7-.09.7-.09.69-.11.7-.11.68-.13.69-.13.68-.14.68-.15.67-.17.67-.17.67-.17.66-.19.66-.2.66-.21.65-.21.65-.23-.02-.02-.02-.03-.01-.03-.02-.02-.01-.03-.02-.03-.02-.02-.01-.03-.02-.03-.01-.02-.02-.03-.01-.03-.02-.03-.01-.03-.01-.03-.02-.02-.01-.03-.02-.03-.01-.03-.01-.03-.02-.03-.01-.03-.01-.03-.02-.03-15.28-41.86-14.92 43.34.56.16zm-32.47-66.8l-.27.65-.25.66-.24.66-.24.66-.23.67-.22.67-.21.68-.2.68-.19.69-.18.68-.17.7-.16.69-.15.7-.14.71-.13.7-.12.72-.12.71-.1.72-.09.72-.08.72-.07.73-.06.73-.05.73-.04.74-.02.74-.02.74-.01.74.05 2.03.12 2 .19 1.99.28 1.96.35 1.93.43 1.91.5 1.88.56 1.85.64 1.81.71 1.79.77 1.75.83 1.71.9 1.68.96 1.64 1.02 1.59 1.08 1.56 1.14 1.51 1.19 1.47 1.24 1.41 1.3 1.37 1.35 1.32 1.39 1.27 1.45 1.22 1.49 1.16 1.53 1.1 1.58 1.05 1.62.99 1.66.93 1.69.86-23.71-64.97-.28.64-.27.65zm89.62-4.58l.02.17.02.16.02.17.02.17.02.17.02.17.01.17.02.17.02.18.01.17.01.17.02.18.01.18.01.17.01.18.01.18.01.18.01.18v.18l.01.18.01.19v.37l.01.18v.92l-.02.38-.02.39-.03.41-.04.43-.05.45-.06.47-.07.49-.07.5-.09.52-.09.54-.11.56-.11.58-.12.59-.13.62-.14.63-.15.65-.16.67-.16.69-.18.7-.18.73-.2.74-.2.76-.21.78-.22.8-.23.81-.24.84-.25.85-.25.87-15.19 43.9 1.52-.92 1.47-.97 1.44-1.02 1.4-1.07 1.36-1.11 1.32-1.16 1.28-1.21 1.23-1.25 1.19-1.3 1.14-1.33 1.1-1.38 1.05-1.41 1-1.46.95-1.49.89-1.52.84-1.56.79-1.59.74-1.63.67-1.65.62-1.68.55-1.72.5-1.73.44-1.77.37-1.78.3-1.81.24-1.83.18-1.86.1-1.87.04-1.89-.01-.89-.03-.89-.03-.88-.06-.88-.07-.88-.08-.87-.1-.87-.12-.86-.13-.86-.14-.85-.16-.85-.17-.84-.19-.84-.2-.83-.21-.83-.23-.82-.24-.82-.26-.81-.27-.8-.28-.8-.29-.79-.31-.78-.32-.78-.34-.77-.34-.77-.36-.76-.37-.75-.39-.74-.39-.74.02.17.02.16zm-46.25-26.12l-1.28.08-1.27.11-1.27.15-1.25.18-1.24.21-1.23.23-1.23.27-1.21.3-1.19.33-1.19.36-1.17.39-1.16.41-1.15.44-1.13.47-1.12.5-1.1.52-1.09.55-1.08.57-1.05.6-1.04.63-1.03.65-1 .67-.99.7-.98.72-.95.74-.93.77-.92.79-.9.8-.87.84-.86.85-.83.87-.82.89-.79.91-.77.93-.75.95-.72.97-.71.99-.68 1h.09l.09.01h.34l.09.01h.26l.08.01H382.5l.08.01h.4l.08.01h.62l.07.01H384.72l.41-.01h.41l.43-.01.42-.01.44-.01.43-.01.45-.02.44-.01.45-.02.44-.02.45-.02.44-.02.44-.02.44-.02.43-.03.43-.02.42-.02.41-.03.41-.02.39-.02.39-.03.37-.02.36-.02.34-.03.33-.02.32-.02.29-.02.28-.02.26-.02.24-.02.22-.01.2-.02.18-.01.15-.01.12-.01.1-.01h.07l.06-.01h.2l.19.01.17.02.17.04.16.05.15.07.15.07.13.08.12.09.12.11.1.11.1.11.08.13.08.13.06.13.06.14.05.14.03.15.03.15.02.15.01.15-.01.15-.01.15-.02.15-.04.15-.04.14-.06.14-.06.14-.08.13-.08.13-.1.12-.11.11-.11.11-.13.09-.14.09-.15.08-.17.06-.17.06-.18.04-.2.03-.04.01h-.04l-.04.01h-.05l-.06.01-.07.01h-.08l-.09.01-.09.01-.1.01-.11.02-.12.01-.12.01-.13.01-.14.02-.14.01-.15.01-.15.02-.16.01-.17.02-.17.01-.17.02-.18.02-.19.01-.19.02-.19.01-.2.02-.2.01-.2.02-.21.02-.21.01-.21.02-.22.01-.22.01-.21.02-.23.01-.22.01-.22.02 18.1 53.84 10.88-32.62-7.74-21.22-.2-.02-.2-.01-.2-.01-.19-.02-.2-.01-.2-.01-.19-.02-.19-.01-.19-.02-.18-.02-.19-.01-.18-.02-.17-.01-.18-.02-.17-.01-.16-.02-.16-.02-.16-.01-.16-.02-.14-.01-.15-.02-.13-.01-.14-.01-.12-.02-.12-.01-.12-.01-.11-.01-.1-.02-.09-.01-.09-.01-.08-.01h-.07l-.07-.01-.06-.01h-.04l-.04-.01h-.04l-.04-.01-.19-.02-.19-.03-.17-.05-.16-.05-.15-.07-.14-.09-.13-.09-.12-.1-.11-.11-.09-.11-.09-.13-.08-.13-.06-.14-.06-.14-.04-.14-.03-.15-.03-.15-.01-.15v-.31l.02-.15.03-.16.03-.15.05-.14.06-.15.06-.14.08-.13.08-.13.1-.12.1-.11.12-.11.12-.09.13-.09.15-.08.15-.06.16-.05.17-.04.18-.03.18-.01h.2l.06.01h.07l.1.01.13.01.15.01.18.01.2.02.22.01.25.02.26.02.28.02.3.02.32.02.33.02.35.03.36.02.37.02.39.03.39.02.41.02.41.03.42.02.42.02.43.03.43.02.44.02.44.02.44.02.43.02.44.02.43.01.43.02.43.01.41.01.42.01.4.01h.39l.39.01h.77l.4-.01h.41l.42-.01.43-.01.44-.01.43-.01.44-.02.45-.01.44-.02.45-.02.45-.02.44-.02.44-.02.44-.02.43-.03.43-.02.42-.02.41-.03.41-.02.39-.02.38-.03.38-.02.36-.02.34-.03.33-.02.32-.02.29-.02.28-.02.26-.02.24-.02.22-.01.2-.02.18-.01.15-.01.12-.01.1-.01h.07l.06-.01h.2l.19.01.17.02.17.04.16.05.15.07.15.07.13.08.12.09.12.11.1.11.1.11.08.13.08.13.06.13.06.14.05.14.03.15.03.15.02.15v.3l-.01.15-.03.15-.03.15-.05.14-.05.14-.07.14-.07.13-.09.13-.09.12-.11.11-.12.11-.13.09-.14.09-.15.08-.16.06-.18.06-.18.04-.19.03-.05.01h-.03l-.05.01h-.05l-.06.01-.07.01h-.08l-.08.01-.1.01-.1.01-.1.02-.12.01-.12.01-.13.01-.14.02-.14.01-.15.01-.15.02-.16.01-.17.02-.17.01-.17.02-.18.02-.19.01-.19.02-.19.01-.2.02-.2.01-.2.02-.21.02-.21.01-.21.02-.22.01-.21.01-.22.02-.23.01-.22.01-.22.02 17.96 53.43 4.97-16.56.18-.49.18-.47.18-.48.17-.47.17-.47.16-.46.16-.45.16-.46.14-.45.15-.44.14-.44.13-.44.13-.43.13-.43.12-.43.11-.42.12-.41.1-.42.1-.4.1-.41.09-.4.09-.39.08-.39.08-.39.08-.38.06-.38.07-.38.06-.37.05-.37.05-.36.05-.36.04-.35.03-.35.03-.35.03-.34.02-.34.02-.33.01-.33.01-.33v-.32l-.01-.45-.01-.45-.02-.45-.02-.43-.04-.43-.04-.43-.05-.41-.06-.42-.06-.4-.07-.4-.07-.39-.08-.38-.09-.38-.09-.38-.09-.36-.1-.37-.11-.35-.1-.35-.12-.35-.11-.34-.12-.33-.13-.33-.12-.32-.13-.32-.14-.32-.13-.3-.14-.31-.13-.3-.14-.29-.15-.29-.14-.29-.14-.28-.15-.28-.14-.27-.14-.27-.15-.27-.14-.26-.15-.25-.14-.26-.14-.25-.19-.3-.19-.31-.19-.3-.18-.3-.19-.3-.18-.29-.18-.3-.18-.29-.17-.29-.18-.29-.17-.29-.17-.29-.16-.28-.16-.29-.16-.28-.16-.29-.15-.28-.15-.29-.14-.28-.14-.28-.13-.29-.13-.28-.12-.29-.12-.28-.11-.28-.11-.29-.1-.29-.09-.28-.09-.29-.08-.29-.08-.29-.07-.29-.06-.3-.05-.29-.05-.3-.03-.29-.03-.3-.02-.31-.02-.3v-.65l.02-.34.04-.34.04-.33.06-.34.06-.33.08-.32.1-.33.1-.32.11-.31.13-.31.14-.31.14-.29.16-.3.17-.28.18-.28.19-.28.19-.26.21-.26.22-.25.22-.24.24-.23.24-.22.26-.22.26-.2.27-.19.27-.18.29-.17.29-.16.3-.15.31-.13.31-.13.32-.11.33-.09.34-.08.34-.07.34-.06.36-.03.35-.03.37-.01h.03l.02.01h.2l.04.01h.08l.03.01h.05l.06.01h.1l.03.01-.67-.61-.68-.59-.69-.57-.7-.57-.71-.55-.72-.54-.73-.53-.75-.51-.75-.51-.76-.48-.77-.48-.78-.46-.78-.45-.8-.43-.81-.42-.81-.4-.82-.39-.83-.38-.84-.36-.85-.34-.85-.33-.86-.32-.87-.3-.88-.28-.88-.27-.89-.25-.9-.23-.9-.22-.91-.2-.92-.19-.92-.17-.93-.15-.93-.13-.94-.12-.94-.1-.95-.08-.96-.07-.96-.04-.96-.03-.97-.01-1.3.02-1.29.05z"/><path id="u" d="M298.08 176.87H195.74"/><path id="v" d="M182.81 176.87h-24.44"/><path id="w" d="M262.87 211.18h-90.5"/><path id="x" d="M270.6 244.59h-90.5"/><path id="y" d="M167.1 244.59h-24.45"/></defs><use fill="#a434b7" xlink:href="#a"/><use fill-opacity="0" stroke="#222" stroke-width="7" xlink:href="#a"/><use fill="#fff" xlink:href="#b"/><use fill="#600060" xlink:href="#c"/><use fill-opacity="0" stroke="#222" stroke-width="7" xlink:href="#d"/><use fill-opacity="0" stroke="#222" stroke-width="5" xlink:href="#e"/><use fill="#fff" xlink:href="#f"/><use fill-opacity="0" stroke="#222" stroke-width="2" xlink:href="#f"/><use fill="#fff" xlink:href="#g"/><use fill-opacity="0" stroke="#222" stroke-width="2" xlink:href="#g"/><use fill="#fff" xlink:href="#h"/><use fill-opacity="0" stroke="#222" stroke-width="2" xlink:href="#h"/><use fill-opacity="0" stroke="#222" stroke-width="4" xlink:href="#i"/><use fill-opacity="0" stroke="#222" stroke-width="4" xlink:href="#j"/><use fill-opacity="0" stroke="#222" stroke-width="4" xlink:href="#k"/><use fill="#600060" fill-opacity=".53" xlink:href="#l"/><use fill-opacity="0" stroke="#222" stroke-width="4" xlink:href="#m"/><use fill-opacity="0" stroke="#222" stroke-width="4" xlink:href="#n"/><use fill-opacity="0" stroke="#222" stroke-width="4" xlink:href="#o"/><use fill="#600060" fill-opacity=".66" xlink:href="#p"/><use fill-opacity="0" stroke="#222" stroke-width="4" xlink:href="#q"/><use fill-opacity="0" stroke="#222" stroke-width="4" xlink:href="#r"/><use fill-opacity="0" stroke="#222" stroke-width="4" xlink:href="#s"/><use fill="#fff" xlink:href="#t"/><use fill-opacity="0" stroke="#000" stroke-opacity="0" xlink:href="#t"/><g><use fill-opacity="0" stroke="#600060" stroke-width="4" xlink:href="#u"/></g><g><use fill-opacity="0" stroke="#600060" stroke-width="4" xlink:href="#v"/></g><g><use fill-opacity="0" stroke="#600060" stroke-width="4" xlink:href="#w"/></g><g><use fill-opacity="0" stroke="#600060" stroke-width="4" xlink:href="#x"/></g><g><use fill-opacity="0" stroke="#600060" stroke-width="4" xlink:href="#y"/></g></svg>