<svg xmlns="http://www.w3.org/2000/svg" xmlns:xlink="http://www.w3.org/1999/xlink" width="186.76" height="190.58" viewBox="0 0 280.14 285.87"><defs><path id="b" d="M161.47 107.13l.16.09.15.09.13.11.14.11.12.11.11.12.11.13.1.14.18.28.08.16.08.15.06.16.06.17.06.18.05.17.05.19.04.18.03.2.03.19.03.2.02.21.01.21.02.21.01.22v.91l-.01.23-.03.72-.02.25-.01.25-.02.25-.02.26-.02.25-2.14 15.84 1.02.85 2.18 1.98 2.1 2.07 2.01 2.14 1.91 2.22.16.19 15.51-2.37.75-.06.72-.06.24-.01.23-.02h.23l.23-.01h.66l.42.02.2.01.4.04.19.03.19.04.19.03.18.05.34.1.16.06.32.14.15.08.14.09.14.1.13.1.13.11.12.11.22.26.11.14.18.3.08.17.08.18 10.53 26.13.07.18.1.36.06.36.02.18v.35l-.01.18-.02.17-.03.18-.04.18-.1.34-.06.18-.07.17-.08.17-.18.34-.1.17-.22.34-.12.17-.13.16-.13.17-.14.16-.14.17-.15.16-.48.48-.34.32-.36.32-.19.15-.19.16-.19.15-.4.3-12.45 9.92.04.34.17 2.98.07 3-.05 3.01-.17 3.02-.13 1.35 12.33 9.47.2.15.2.14.38.3.54.45.34.3.16.16.16.15.3.32.28.32.13.16.24.32.11.17.11.16.1.17.09.17.16.34.07.17.06.17.1.34.03.18.03.17.02.18.01.17v.18l-.02.36-.03.17-.04.19-.05.18-.06.18-.07.18-10.79 26.5-.08.18-.08.17-.09.16-.1.15-.1.14-.11.14-.12.13-.12.12-.26.22-.14.1-.15.09-.3.16-.16.08-.51.18-.18.05-.57.12-.2.03-.2.02-.2.03-.21.01-.22.02-.21.01-.22.01h-.91l-.96-.04-.25-.01-.25-.02-.25-.01-15.44-1.84-.85 1.05-1.99 2.28-2.07 2.19-2.14 2.1-2.21 2.01-.24.2 1.97 15.76.08.5.06.48.06.72.01.24.02.46v.45l-.02.44-.06.63-.03.2-.08.4-.1.38-.12.36-.07.17-.08.17-.08.16-.09.16-.2.3-.11.14-.11.13-.12.13-.13.12-.14.12-.14.11-.15.1-.16.1-.17.09-.17.08-25.79 11.34-.18.07-.18.06-.17.05-.17.04-.17.03-.17.02-.17.01h-.17l-.17-.01-.16-.02-.17-.03-.16-.04-.16-.05-.17-.05-.32-.14-.32-.16-.16-.1-.15-.1-.32-.22-.16-.12-.15-.13-.16-.13-.32-.28-.31-.31-.16-.15-.16-.17-.15-.16-.16-.18-.16-.17-.32-.36-.16-.19-.16-.18-.16-.19-.17-.2-9.4-12.49-.31.04-2.92.25-2.93.13-2.95.01-2.95-.1-1.31-.1-9.54 12.82-.16.2-.17.19-.48.57-.17.19-.16.18-.16.17-.16.18-.15.16-.16.17-.16.16-.32.3-.32.28-.16.13-.15.13-.16.12-.32.22-.16.1-.32.18-.16.07-.17.07-.32.12-.17.04-.16.03-.17.03-.16.02h-.34l-.17-.01-.34-.06-.18-.04-.17-.06-.18-.07-25.68-10.46-.17-.07-.17-.08-.16-.1-.15-.09-.14-.11-.13-.11-.13-.12-.12-.12-.12-.13-.2-.28-.1-.15-.08-.15-.08-.16-.08-.17-.07-.17-.06-.18-.05-.18-.06-.18-.04-.19-.04-.2-.03-.19-.03-.21-.03-.2-.02-.21-.03-.66v-.22l.04-.92.02-.24.06-.48.03-.25.03-.24.08-.5 2.13-15.84-1.01-.84-2.18-1.99-2.1-2.07-2.01-2.14-1.92-2.22-.22-.28-15.4 2.35-.24.05-.25.04-.24.04-.23.03-.48.06-.46.04-.22.02-.23.01h-.22l-.22.01-.22-.01h-.21l-.21-.02-.2-.01-.21-.02-.2-.03-.19-.03-.19-.04-.19-.05-.36-.1-.17-.06-.17-.07-.16-.08-.15-.08-.16-.08-.42-.3-.13-.12-.12-.12-.12-.13-.11-.14-.1-.14-.1-.15-.09-.16-.08-.17-.08-.18-10.53-26.13-.07-.18-.1-.36-.03-.17-.03-.18-.02-.34.01-.18.01-.17.06-.34.04-.16.05-.17.06-.17.06-.16.16-.34.18-.32.1-.17.11-.16.12-.17.12-.16.13-.16.13-.17.14-.16.14-.17.3-.32.16-.17.17-.16.16-.17.17-.16.36-.34.18-.16.18-.17.57-.51 12.4-9.88-.03-.27-.18-2.99-.06-3 .05-3.01.17-3.02.13-1.34-12.33-9.48-.2-.16-.18-.17-.19-.16-.54-.48-.34-.32-.16-.16-.17-.16-.45-.48-.28-.32-.26-.32-.12-.16-.22-.32-.1-.16-.18-.32-.08-.16-.07-.17-.07-.16-.05-.16-.05-.17-.04-.17-.03-.17-.02-.16-.01-.17-.01-.18.01-.17.02-.17.02-.18.04-.18.05-.17.05-.18.07-.19 10.8-26.5.07-.17.09-.18.09-.16.1-.15.11-.15.11-.14.12-.14.12-.12.13-.12.28-.22.15-.1.15-.09.16-.09.16-.08.34-.14.18-.06.18-.05.38-.1.19-.04.2-.03.21-.03.2-.03.21-.02.21-.01.22-.01h.22l.22-.01.23.01h.22l.23.02.24.01.23.02.24.02.23.03.48.06.25.04 15.44 1.83.85-1.05 1.99-2.28 2.07-2.19 2.14-2.1 2.21-2.01.24-.2-1.98-15.76-.02-.25-.01-.26-.02-.25-.01-.25-.02-.24-.01-.25v-.24l-.01-.24-.01-.23v-.23l.01-.23v-.23l.02-.44.01-.21.02-.21.03-.21.02-.2.04-.2.03-.19.04-.19.1-.36.06-.18.06-.17.07-.16.16-.32.09-.15.09-.14.11-.14.1-.13.24-.24.14-.12.14-.11.14-.1.32-.18.18-.08 25.79-11.34.18-.08.18-.06.17-.05.18-.04.17-.03.18-.02.17-.01h.35l.17.02.34.06.34.1.17.06.16.07.17.07.17.09.16.09.16.1.17.1.48.36.16.13.32.28.31.31.3.32.16.17.45.54.14.19.3.38.28.4 9.41 12.49.3-.04 2.92-.24 2.94-.14 2.94-.01 2.95.11 1.32.1 9.54-12.82.14-.21.15-.2.14-.2.15-.2.3-.38.15-.18.16-.18.15-.18.16-.17.15-.16.32-.32.16-.15.32-.28.16-.13.32-.24.17-.11.16-.1.17-.1.16-.09.34-.16.34-.12.17-.05.34-.08.17-.02.17-.01.18-.01.17.01.18.01.17.03.18.03.17.05.18.05.17.07 25.69 10.46.17.08zm-36.54 43.17l-1.57-.45-1.58-.39-1.59-.32-1.59-.26-1.59-.18-1.59-.12-1.59-.06-1.59.01-1.58.07-1.57.13-1.56.19-1.56.26-1.54.32-1.53.37-1.51.44-1.49.49-1.48.55-1.46.61-1.43.66-1.41.72-1.38.77-1.35.83-1.33.88-1.29.93-1.26.98-1.23 1.03-1.19 1.08-1.16 1.13-1.11 1.18-1.07 1.23-1.03 1.27-.98 1.32-.94 1.37-.89 1.41-.84 1.45-.79 1.5-.74 1.54-.68 1.58-.61 1.6-.55 1.62-.48 1.62-.42 1.63-.35 1.63-.28 1.63-.22 1.63-.15 1.63-.09 1.63-.03 1.62.04 1.61.09 1.61.16 1.6.21 1.58.28 1.57.34 1.55.39 1.54.45 1.52.5 1.5.56 1.47.62 1.45.67 1.43.73 1.39.78 1.37.83 1.34.88 1.3.93 1.27.98 1.23 1.04 1.2 1.08 1.15 1.13 1.12 1.17 1.07 1.23 1.02 1.27.98 1.31.93 1.36.88 1.4.82 1.45.78 1.49.72 1.53.66 1.56.59 1.56.53 1.58.46 1.58.39 1.59.32 1.59.25 1.59.19 1.59.12 1.59.06 1.58-.01 1.58-.07 1.58-.14 1.56-.19 1.56-.26 1.54-.31 1.52-.38 1.52-.43 1.49-.5 1.48-.55 1.45-.6 1.43-.67 1.41-.72 1.39-.77 1.35-.82 1.33-.88 1.29-.93 1.26-.98 1.23-1.04 1.19-1.08 1.15-1.13 1.12-1.18 1.07-1.23 1.03-1.27.98-1.32.94-1.36.89-1.41.84-1.46.79-1.49.73-1.54.68-1.58.62-1.61.55-1.61.48-1.62.42-1.63.34-1.63.29-1.63.21-1.64.16-1.63.09-1.62.03-1.62-.04-1.62-.09-1.61-.16-1.59-.22-1.59-.27-1.57-.34-1.55-.39-1.54-.45-1.52-.51-1.49-.56-1.48-.61-1.45-.68-1.42-.72-1.4-.78-1.37-.83-1.33-.88-1.31-.93-1.27-.99-1.23-1.03-1.19-1.08-1.16-1.13-1.11-1.18-1.07-1.22-1.03-1.27-.97-1.31-.93-1.36-.88-1.41-.83-1.44-.77-1.49-.72-1.53-.66-1.56-.6z"/><path id="c" d="M179.13 190.07c0 38.27-29.94 69.33-66.81 69.33-36.87 0-66.81-31.06-66.81-69.33 0-38.26 29.94-69.33 66.81-69.33 36.87 0 66.81 31.07 66.81 69.33z"/><path id="e" d="M120.3 190.07c0 4.41-3.58 7.99-7.98 7.99-4.41 0-7.98-3.58-7.98-7.99 0-4.4 3.57-7.98 7.98-7.98 4.4 0 7.98 3.58 7.98 7.98z"/><path id="f" d="M111.32 123.89h2v10h-2z"/><path id="g" d="M111.32 246.57h2v10h-2z"/><path id="h" d="M175.51 189.07v2h-10v-2z"/><path id="i" d="M58.69 189.07v2h-10v-2z"/><path id="j" d="M147.99 136.51l1.68 1.08-5.39 8.42-1.69-1.08z"/><path id="k" d="M168.1 159.83l1.11 1.66-8.3 5.57-1.11-1.66z"/><path id="l" d="M168.17 222.13l-.95 1.76-8.8-4.75.95-1.76z"/><path id="m" d="M146.6 244.97l-1.52 1.3-6.5-7.6 1.52-1.3z"/><path id="n" d="M82.83 237.16l1.63 1.16-5.77 8.16-1.64-1.15z"/><path id="o" d="M65.21 217.2l1.03 1.72-8.57 5.15-1.03-1.72z"/><path id="p" d="M65.81 164.37l-.86 1.81-9.04-4.27.85-1.81z"/><path id="q" d="M84.59 141.85l-1.58 1.23-6.16-7.88 1.58-1.23z"/><path id="r" d="M118.69 190.07c0 3.52-2.85 6.38-6.37 6.38s-6.38-2.86-6.38-6.38 2.86-6.37 6.38-6.37 6.37 2.85 6.37 6.37z"/><path id="s" d="M111.32 136.51h2v47.19h-2z"/><path id="t" d="M146.13 191.08v-2l-27.44-.01v2z"/><path id="u" d="M111.9 189.24l1.42 1.41-37.56 37.67-1.41-1.41z"/><path id="w" d="M236.46 31.63l.1.02.2.06.18.08.18.1.16.12.07.06.07.07.07.08.07.07.07.08.18.27.06.1.1.2.2.44.04.12.05.12.04.13.04.12.12.39.03.14.04.13.04.14.03.14.04.15.03.14.04.14 1.66 9.09.73.29 1.6.71 1.56.77 1.53.84 1.48.88.13.08 8.36-3.99.13-.05.14-.06.14-.05.13-.06.13-.05.14-.05.26-.1.13-.04.12-.04.13-.04.12-.04.13-.04.36-.09.12-.02.11-.02.12-.02.11-.02.11-.01h.11l.11-.01h.1l.11.01.2.02.2.04.09.03.1.03.18.08.08.05.09.06.08.06.09.06.23.23 10.7 12.56.07.09.07.08.06.1.1.18.04.1.04.09.03.1.06.3.01.11v.31l-.02.22-.04.22-.09.33-.04.11-.04.12-.05.11-.04.11-.06.12-.05.12-.06.11-.06.12-.06.11-.21.36-.08.11-.24.36-.08.11-.09.12-5.25 7.61.08.18.64 1.61.58 1.64.52 1.67.45 1.69.17.76 8.71 3.08.14.05.14.04.26.1.14.05.13.05.12.05.13.05.48.24.22.12.1.06.11.07.1.07.09.07.1.07.09.07.08.08.08.07.16.16.07.08.06.08.12.18.1.18.04.09.04.1.03.09.03.1.02.1.02.11.01.1.01.11v.11l-.01.11-1.31 16.45-.01.11-.04.22-.03.1-.03.09-.04.1-.04.09-.05.09-.1.16-.07.08-.06.08-.14.14-.08.07-.08.06-.09.06-.09.07-.09.05-.1.06-.1.05-.1.06-.33.15-.11.04-.12.05-.24.08-.52.16-.14.04-.13.03-.28.08-.14.03-.15.04-.14.03-9.08 1.67-.29.72-.72 1.6-.77 1.56-.83 1.53-.89 1.49-.1.15 3.98 8.33.06.13.07.13.06.13.06.12.06.13.05.13.06.13.05.12.04.13.05.13.08.24.04.13.09.36.04.24.01.11.02.12v.11l.01.11v.11l-.01.11v.11l-.02.1-.01.11-.03.1-.02.1-.03.1-.04.09-.04.1-.15.27-.06.08-.07.08-.07.09-.08.07-.08.08-12.56 10.7-.09.08-.08.06-.09.06-.09.05-.1.04-.18.08-.1.03-.1.02-.09.02-.2.02h-.2l-.11-.01-.1-.01-.11-.02-.1-.02-.11-.02-.22-.06-.33-.12-.11-.05-.12-.04-.11-.06-.12-.05-.11-.06-.36-.18-.24-.14-.13-.07-.12-.07-.12-.08-.13-.07-.13-.08-.12-.08-7.6-5.24-.16.07-1.61.65-1.64.58-1.67.51-1.69.46-.76.17-3.08 8.7-.06.14-.05.14-.06.13-.06.14-.06.13-.05.13-.06.12-.06.13-.18.36-.06.11-.06.12-.07.1-.06.11-.06.1-.21.3-.06.09-.08.08-.14.16-.08.08-.08.07-.07.06-.09.06-.08.06-.08.05-.09.05-.27.12-.1.02-.1.03-.2.02-.11.01h-.11l-.11-.01-16.45-1.3-.11-.01-.22-.04-.1-.03-.1-.04-.1-.03-.09-.05-.09-.04-.09-.06-.08-.05-.09-.06-.08-.07-.07-.07-.08-.07-.14-.16-.07-.09-.12-.18-.18-.3-.2-.44-.08-.24-.05-.13-.03-.12-.08-.26-.03-.13-.03-.14-.03-.13-.06-.28-.02-.14-.03-.14-.02-.15-1.66-9.08-.73-.29-1.6-.71-1.56-.78-1.53-.83-1.49-.89-.18-.11-8.29 3.96-.13.06-.13.07-.39.18-.13.05-.12.06-.26.1-.12.04-.13.04-.24.08-.12.03-.13.03-.12.03-.11.02-.12.02-.12.01-.11.02h-.12l-.11.01h-.11l-.11-.01h-.1l-.11-.02-.1-.01-.11-.02-.1-.03-.09-.03-.1-.04-.09-.04-.1-.04-.09-.05-.08-.06-.09-.06-.16-.14-.08-.08-.07-.08-10.71-12.56-.07-.09-.06-.08-.06-.09-.05-.09-.05-.1-.04-.09-.03-.09-.03-.1-.03-.09-.03-.3v-.31l.02-.1.01-.1.02-.11.03-.11.02-.11.04-.1.03-.11.04-.12.04-.11.1-.22.1-.24.06-.11.12-.24.14-.24.06-.12.08-.12.07-.13.07-.12.08-.13.07-.12.08-.13 5.23-7.58-.06-.15-.64-1.61-.58-1.64-.52-1.66-.46-1.7-.17-.76-8.7-3.07-.28-.12-.13-.06-.13-.05-.52-.24-.36-.18-.33-.18-.11-.07-.1-.06-.1-.07-.1-.06-.27-.21-.08-.07-.15-.15-.14-.16-.12-.16-.1-.18-.08-.18-.03-.09-.03-.1-.04-.2-.01-.1-.01-.11v-.11l.01-.11 1.31-16.45.02-.22.03-.1.02-.11.04-.1.03-.09.05-.1.05-.09.05-.08.05-.09.07-.08.06-.08.07-.08.08-.07.07-.08.09-.07.08-.06.09-.07.09-.06.2-.12.1-.05.11-.06.22-.1.12-.04.11-.05.13-.04.24-.08.13-.04.13-.03.13-.04.14-.03.13-.03.14-.03.14-.02.14-.03.15-.02.14-.03 9.08-1.66.29-.73.72-1.59.77-1.57.83-1.52.89-1.49.1-.15-3.98-8.33-.06-.14-.05-.14-.06-.13-.05-.14-.2-.52-.08-.26-.05-.12-.03-.13-.04-.12-.09-.36-.02-.12-.03-.12-.01-.11-.02-.11-.01-.12v-.1l-.01-.11v-.11l.01-.1.01-.11.01-.1.02-.1.02-.09.03-.1.03-.09.08-.18.05-.09.06-.09.12-.16.07-.08.08-.08.08-.07 12.56-10.71.08-.07.18-.12.1-.06.09-.04.1-.05.09-.03.2-.06.1-.02.2-.02.11-.01h.1l.11.01h.11l.1.02.33.06.12.03.11.04.11.03.11.05.12.04.11.05.12.05.11.06.12.05.12.07.11.06.24.14.11.07.12.07.36.24.11.09.12.08 7.6 5.25.16-.08 1.61-.64 1.64-.58 1.67-.52 1.69-.45.76-.17 3.08-8.71.04-.14.05-.13.04-.14.15-.39.06-.13.05-.13.06-.12.05-.12.06-.12.06-.11.06-.12.07-.11.06-.1.07-.1.06-.1.07-.1.07-.09.08-.09.07-.09.16-.16.24-.21.09-.06.08-.06.18-.1.1-.04.09-.04.2-.06.2-.04.11-.01h.33l16.45 1.31.11.01zm-12.87 30.08l-.97.02-.97.06-.96.1-.95.14-.93.17-.92.21-.92.24-.89.28-.88.31-.87.35-.85.38-.84.41-.81.44-.8.47-.78.5-.75.53-.74.56-.71.58-.7.62-.66.64-.65.66-.61.69-.6.71-.56.74-.54.76-.5.78-.48.8-.45.82-.42.84-.38.86-.35.88-.32.9-.29.91-.24.93-.22.95-.17.96-.14.97-.1.99-.06.99-.01.98.02.98.06.96.1.96.13.95.17.93.21.93.25.91.28.89.31.89.34.86.38.85.41.84.44.81.47.8.51.78.53.76.55.73.59.72.61.69.64.67.67.64.68.62.72.59.73.56.76.54.78.51.8.48.83.44.84.42.86.38.88.36.89.31.92.29.93.25.94.21.96.17.98.14.98.1.99.06.99.02.97-.02.97-.07.96-.09.94-.14.94-.17.92-.21.91-.24.9-.28.88-.32.87-.34.85-.38.83-.41.82-.44.8-.47.78-.5.75-.53.74-.56.71-.59.69-.61.67-.64.64-.66.62-.69.59-.72.57-.73.54-.76.5-.78.48-.8.45-.82.42-.85.38-.86.35-.88.32-.89.28-.92.25-.93.22-.94.17-.96.14-.97.1-.99.05-.99.02-.99-.02-.97-.06-.97-.1-.95-.13-.95-.18-.94-.2-.92-.25-.91-.28-.9-.31-.88-.35-.87-.37-.85-.41-.83-.45-.82-.47-.8-.5-.77-.53-.76-.56-.74-.58-.71-.61-.69-.64-.67-.67-.64-.69-.62-.71-.59-.74-.57-.75-.53-.78-.51-.81-.48-.82-.45-.84-.41-.86-.39-.88-.35-.9-.32-.91-.28-.93-.25-.94-.21-.96-.18-.98-.14-.99-.09-.99-.06z"/><path id="x" d="M261.29 72.98c7.11 20.89-3.99 43.58-24.76 50.64-20.77 7.07-43.4-4.16-50.51-25.05-7.1-20.89 4-43.59 24.77-50.65 20.77-7.06 43.4 4.17 50.5 25.06z"/><path id="y" d="M248.15 61.07c13.34 13.98 13.06 36.4-.61 50.03-13.68 13.63-35.62 13.35-48.96-.63-13.34-13.97-13.07-36.39.61-50.02 13.68-13.64 35.61-13.35 48.96.62z"/><path id="z" d="M231.28 70.77l.01-.04v-.09l.01-.04.01-.05.02-.08.04-.08.01-.04.02-.03.03-.04.02-.04.02-.03.03-.04.09-.09.03-.04.04-.03.03-.02.08-.06.03-.02.04-.03.05-.02.08-.04.05-.02.04-.01.05-.02.04-.01.05-.02.1-.02h.05l.05-.01h.05l.05-.01H237.69l.05.01h.05l.05.01h.05l.1.02.05.02.05.01.04.02.05.01.04.02.05.02.08.04.04.03.04.02.04.03.03.03.04.02.03.03.03.04.09.09.03.04.02.03.03.04.02.04.02.03.02.04.01.04.02.04.02.08.01.05.01.04v.04l.01.05v11.25l5.08 4.81h-5.08v14.94h-11.32V91.22l-.01-.05v-.04l-.01-.05-.01-.04-.02-.05-.01-.04-.02-.04-.02-.05-.04-.08-.03-.04-.02-.03-.06-.08-.03-.03-.03-.04-.03-.03-.08-.06-.03-.03-.08-.06-.04-.02-.05-.03-.08-.04-.1-.04-.04-.02-.1-.02-.05-.02-.05-.01h-.05l-.06-.01-.05-.01h-5.46l-.06.01-.05.01h-.05l-.05.01-.05.02-.1.02-.05.02-.04.02-.05.02-.04.02-.05.02-.04.03-.04.02-.12.09-.03.03-.04.03-.03.03-.03.04-.03.03-.06.08-.03.03-.06.12-.02.05-.02.04-.01.04-.02.05-.01.04-.01.05-.01.04v.05l-.01.05V101.73h-11.31V86.79h-5.08l20.33-19.22 7.62 7.2z"/></defs><filter id="a" width="201.98" height="206.61" x="11.85" y="87.26" filterUnits="userSpaceOnUse"><feFlood/><feComposite in2="SourceAlpha" operator="in"/><feGaussianBlur stdDeviation="1"/><feOffset dx="1" dy="1" result="afterOffset"/><feFlood flood-color="#000" flood-opacity=".5"/><feComposite in2="afterOffset" operator="in"/><feMorphology operator="dilate" radius="1"/><feComposite in2="SourceAlpha" operator="out"/></filter><path fill="#fff" d="M140.62 77.84l.16.09.15.09.13.11.14.11.12.11.11.12.11.13.1.14.18.28.08.16.08.15.06.16.06.17.06.18.05.17.05.19.04.18.03.2.03.19.03.2.02.21.01.21.02.21.01.22v.91l-.01.23-.03.72-.02.25-.01.25-.02.25-.02.26-.02.25-2.14 15.84 1.02.85 2.18 1.98 2.1 2.07 2.01 2.14 1.91 2.22.16.19 15.51-2.37.75-.06.72-.06.24-.01.23-.02h.23l.23-.01h.66l.42.02.2.01.4.04.19.03.19.04.19.03.18.05.34.1.16.06.32.14.15.08.14.09.14.1.13.1.13.11.12.11.22.26.11.14.18.3.08.17.08.18 10.53 26.13.07.18.1.36.06.36.02.18v.35l-.01.18-.02.17-.03.18-.04.18-.1.34-.06.18-.07.17-.08.17-.18.34-.1.17-.22.34-.12.17-.13.16-.13.17-.14.16-.14.17-.15.16-.48.48-.34.32-.36.32-.19.15-.19.16-.19.15-.4.3-12.45 9.92.04.34.17 2.98.07 3-.05 3.01-.17 3.02-.13 1.35 12.33 9.47.2.15.2.14.38.3.54.45.34.3.16.16.16.15.3.32.28.32.13.16.24.32.11.17.11.16.1.17.09.17.16.34.07.17.06.17.1.34.03.18.03.17.02.18.01.17v.18l-.02.36-.03.17-.04.19-.05.18-.06.18-.07.18-10.79 26.5-.08.18-.08.17-.09.16-.1.15-.1.14-.11.14-.12.13-.12.12-.26.22-.14.1-.15.09-.3.16-.16.08-.51.18-.18.05-.57.12-.2.03-.2.02-.2.03-.21.01-.22.02-.21.01-.22.01h-.91l-.96-.04-.25-.01-.25-.02-.25-.01-15.44-1.84-.85 1.05-1.99 2.28-2.07 2.19-2.14 2.1-2.21 2.01-.24.2 1.97 15.76.08.5.06.48.06.72.01.24.02.46v.45l-.02.44-.06.63-.03.2-.08.4-.1.38-.12.36-.07.17-.08.17-.08.16-.09.16-.2.3-.11.14-.11.13-.12.13-.13.12-.14.12-.14.11-.15.1-.16.1-.17.09-.17.08-25.79 11.34-.18.07-.18.06-.17.05-.17.04-.17.03-.17.02-.17.01h-.17l-.17-.01-.16-.02-.17-.03-.16-.04-.16-.05-.17-.05-.32-.14-.32-.16-.16-.1-.15-.1-.32-.22-.16-.12-.15-.13-.16-.13-.32-.28-.31-.31-.16-.15-.16-.17-.15-.16-.16-.18-.16-.17-.32-.36-.16-.19-.16-.18-.16-.19-.17-.2-9.4-12.49-.31.04-2.92.25-2.93.13-2.95.01-2.95-.1-1.31-.1-9.54 12.82-.16.2-.17.19-.48.57-.17.19-.16.18-.16.17-.16.18-.15.16-.16.17-.16.16-.32.3-.32.28-.16.13-.15.13-.16.12-.32.22-.16.1-.32.18-.16.07-.17.07-.32.12-.17.04-.16.03-.17.03-.16.02h-.34l-.17-.01-.34-.06-.18-.04-.17-.06-.18-.07-25.68-10.46-.17-.07-.17-.08-.16-.1-.15-.09-.14-.11-.13-.11-.13-.12-.12-.12-.12-.13-.2-.28-.1-.15-.08-.15-.08-.16-.08-.17-.07-.17-.06-.18-.05-.18-.06-.18-.04-.19-.04-.2-.03-.19-.03-.21-.03-.2-.02-.21-.03-.66v-.22l.04-.92.02-.24.06-.48.03-.25.03-.24.08-.5 2.13-15.84-1.01-.84-2.18-1.99-2.1-2.07-2.01-2.14-1.92-2.22-.22-.28-15.4 2.35-.24.05-.25.04-.24.04-.23.03-.48.06-.46.04-.22.02-.23.01h-.22l-.22.01-.22-.01h-.21l-.21-.02-.2-.01-.21-.02-.2-.03-.19-.03-.19-.04-.19-.05-.36-.1-.17-.06-.17-.07-.16-.08-.15-.08-.16-.08-.42-.3-.13-.12-.12-.12-.12-.13-.11-.14-.1-.14-.1-.15-.09-.16-.08-.17-.08-.18L.25 185.47l-.07-.18-.1-.36-.03-.17-.03-.18-.02-.34.01-.18.01-.17.06-.34.04-.16.05-.17.06-.17.06-.16.16-.34.18-.32.1-.17.11-.16.12-.17.12-.16.13-.16.13-.17.14-.16.14-.17.3-.32.16-.17.17-.16.16-.17.17-.16.36-.34.18-.16.18-.17.57-.51 12.4-9.88-.03-.27-.18-2.99-.06-3 .05-3.01.17-3.02.13-1.34-12.33-9.48-.2-.16-.18-.17-.19-.16-.54-.48-.34-.32-.16-.16-.17-.16-.45-.48-.28-.32-.26-.32-.12-.16-.22-.32-.1-.16-.18-.32-.08-.16-.07-.17-.07-.16-.05-.16-.05-.17-.04-.17-.03-.17-.02-.16-.01-.17-.01-.18.01-.17.02-.17.02-.18.04-.18.05-.17.05-.18.07-.19 10.8-26.5.07-.17.09-.18.09-.16.1-.15.11-.15.11-.14.12-.14.12-.12.13-.12.28-.22.15-.1.15-.09.16-.09.16-.08.34-.14.18-.06.18-.05.38-.1.19-.04.2-.03.21-.03.2-.03.21-.02.21-.01.22-.01h.22l.22-.01.23.01h.22l.23.02.24.01.23.02.24.02.23.03.48.06.25.04 15.44 1.83.85-1.05 1.99-2.28 2.07-2.19 2.14-2.1 2.21-2.01.24-.2-1.98-15.76-.02-.25-.01-.26-.02-.25-.01-.25-.02-.24-.01-.25v-.24l-.01-.24-.01-.23v-.23l.01-.23v-.23l.02-.44.01-.21.02-.21.03-.21.02-.2.04-.2.03-.19.04-.19.1-.36.06-.18.06-.17.07-.16.16-.32.09-.15.09-.14.11-.14.1-.13.24-.24.14-.12.14-.11.14-.1.32-.18.18-.08L69.27 68l.18-.08.18-.06.17-.05.18-.04.17-.03.18-.02.17-.01h.35l.17.02.34.06.34.1.17.06.16.07.17.07.17.09.16.09.16.1.17.1.48.36.16.13.32.28.31.31.3.32.16.17.45.54.14.19.3.38.28.4 9.41 12.49.3-.04 2.92-.24 2.94-.14 2.94-.01 2.95.11 1.32.1L108.08 71l.14-.21.15-.2.14-.2.15-.2.3-.38.15-.18.16-.18.15-.18.16-.17.15-.16.32-.32.16-.15.32-.28.16-.13.32-.24.17-.11.16-.1.17-.1.16-.09.34-.16.34-.12.17-.05.34-.08.17-.02.17-.01.18-.01.17.01.18.01.17.03.18.03.17.05.18.05.17.07 25.69 10.46.17.08zm-36.54 43.17l-1.57-.45-1.58-.39-1.59-.32-1.59-.26-1.59-.18-1.59-.12-1.59-.06-1.59.01-1.58.07-1.57.13-1.56.19-1.56.26-1.54.32-1.53.37-1.51.44-1.49.49-1.48.55-1.46.61-1.43.66-1.41.72-1.38.77-1.35.83-1.33.88-1.29.93-1.26.98-1.23 1.03-1.19 1.08-1.16 1.13-1.11 1.18-1.07 1.23-1.03 1.27-.98 1.32-.94 1.37-.89 1.41-.84 1.45-.79 1.5-.74 1.54-.68 1.58-.61 1.6-.55 1.62-.48 1.62-.42 1.63-.35 1.63-.28 1.63-.22 1.63-.15 1.63-.09 1.63-.03 1.62.04 1.61.09 1.61.16 1.6.21 1.58.28 1.57.34 1.55.39 1.54.45 1.52.5 1.5.56 1.47.62 1.45.67 1.43.73 1.39.78 1.37.83 1.34.88 1.3.93 1.27.98 1.23 1.04 1.2 1.08 1.15 1.13 1.12 1.17 1.07 1.23 1.02 1.27.98 1.31.93 1.36.88 1.4.82 1.45.78 1.49.72 1.53.66 1.56.59 1.56.53 1.58.46 1.58.39 1.59.32 1.59.25 1.59.19 1.59.12 1.59.06 1.58-.01 1.58-.07 1.58-.14 1.56-.19 1.56-.26 1.54-.31 1.52-.38 1.52-.43 1.49-.5 1.48-.55 1.45-.6 1.43-.67 1.41-.72 1.39-.77 1.35-.82 1.33-.88 1.29-.93 1.26-.98 1.23-1.04 1.19-1.08 1.15-1.13 1.12-1.18 1.07-1.23 1.03-1.27.98-1.32.94-1.36.89-1.41.84-1.46.79-1.49.73-1.54.68-1.58.62-1.61.55-1.61.48-1.62.42-1.63.34-1.63.29-1.63.21-1.64.16-1.63.09-1.62.03-1.62-.04-1.62-.09-1.61-.16-1.59-.22-1.59-.27-1.57-.34-1.55-.39-1.54-.45-1.52-.51-1.49-.56-1.48-.61-1.45-.68-1.42-.72-1.4-.78-1.37-.83-1.33-.88-1.31-.93-1.27-.99-1.23-1.03-1.19-1.08-1.16-1.13-1.11-1.18-1.07-1.22-1.03-1.27-.97-1.31-.93-1.36-.88-1.41-.83-1.44-.77-1.49-.72-1.53-.66-1.56-.6z" filter="url(#a)"/><use width="100%" height="100%" fill="purple" transform="translate(-20.85 -29.29)" xlink:href="#b"/><use width="100%" height="100%" fill="#fff" transform="translate(-20.85 -29.29)" xlink:href="#c"/><use width="100%" height="100%" fill-opacity="0" stroke="#000" transform="translate(-20.85 -29.29)" xlink:href="#c"/><filter id="d" width="156.61" height="161.66" x="34.51" y="109.74" filterUnits="userSpaceOnUse"><feFlood/><feComposite in2="SourceAlpha" operator="out"/><feGaussianBlur stdDeviation="1"/><feOffset dx="1" dy="1" result="afterOffset"/><feFlood flood-color="#fff" flood-opacity=".8"/><feComposite in2="afterOffset" operator="in"/><feMorphology operator="dilate" radius="3"/><feComposite in2="SourceAlpha" operator="in"/></filter><path fill="#fff" d="M158.28 160.78c0 38.27-29.94 69.33-66.81 69.33-36.87 0-66.81-31.06-66.81-69.33 0-38.26 29.94-69.33 66.81-69.33 36.87 0 66.81 31.07 66.81 69.33z" filter="url(#d)"/><use width="100%" height="100%" transform="translate(-20.85 -29.29)" xlink:href="#e"/><use width="100%" height="100%" fill="#1d82b7" transform="translate(-20.85 -29.29)" xlink:href="#f"/><use width="100%" height="100%" transform="translate(-20.85 -29.29)" xlink:href="#g"/><use width="100%" height="100%" transform="translate(-20.85 -29.29)" xlink:href="#h"/><use width="100%" height="100%" transform="translate(-20.85 -29.29)" xlink:href="#i"/><use width="100%" height="100%" transform="translate(-20.85 -29.29)" xlink:href="#j"/><use width="100%" height="100%" transform="translate(-20.85 -29.29)" xlink:href="#k"/><use width="100%" height="100%" transform="translate(-20.85 -29.29)" xlink:href="#l"/><use width="100%" height="100%" transform="translate(-20.85 -29.29)" xlink:href="#m"/><use width="100%" height="100%" transform="translate(-20.85 -29.29)" xlink:href="#n"/><use width="100%" height="100%" transform="translate(-20.85 -29.29)" xlink:href="#o"/><use width="100%" height="100%" transform="translate(-20.85 -29.29)" xlink:href="#p"/><use width="100%" height="100%" transform="translate(-20.85 -29.29)" xlink:href="#q"/><use width="100%" height="100%" fill="#fff" transform="translate(-20.85 -29.29)" xlink:href="#r"/><use width="100%" height="100%" transform="translate(-20.85 -29.29)" xlink:href="#s"/><use width="100%" height="100%" transform="translate(-20.85 -29.29)" xlink:href="#t"/><use width="100%" height="100%" fill="#a434b7" transform="translate(-20.85 -29.29)" xlink:href="#u"/><filter id="v" width="129.97" height="129.97" x="159.17" y="21.29" filterUnits="userSpaceOnUse"><feFlood/><feComposite in2="SourceAlpha" operator="in"/><feGaussianBlur stdDeviation="1"/><feOffset dx="1" dy="1" result="afterOffset"/><feFlood flood-color="#000" flood-opacity=".5"/><feComposite in2="afterOffset" operator="in"/><feMorphology operator="dilate" radius="1"/><feComposite in2="SourceAlpha" operator="out"/></filter><path fill="#fff" d="M215.61 2.34l.1.02.2.06.18.08.18.1.16.12.07.06.07.07.07.08.07.07.07.08.18.27.06.1.1.2.2.44.04.12.05.12.04.13.04.12.12.39.03.14.04.13.04.14.03.14.04.15.03.14.04.14 1.66 9.09.73.29 1.6.71 1.56.77 1.53.84 1.48.88.13.08 8.36-3.99.13-.05.14-.06.14-.05.13-.06.13-.05.14-.05.26-.1.13-.04.12-.04.13-.04.12-.04.13-.04.36-.09.12-.02.11-.02.12-.02.11-.02.11-.01h.11l.11-.01h.1l.11.01.2.02.2.04.09.03.1.03.18.08.08.05.09.06.08.06.09.06.23.23 10.7 12.56.07.09.07.08.06.1.1.18.04.1.04.09.03.1.06.3.01.11v.31l-.02.22-.04.22-.09.33-.04.11-.04.12-.05.11-.04.11-.06.12-.05.12-.06.11-.06.12-.06.11-.21.36-.08.11-.24.36-.08.11-.09.12-5.25 7.61.08.18.64 1.61.58 1.64.52 1.67.45 1.69.17.76 8.71 3.08.14.05.14.04.26.1.14.05.13.05.12.05.13.05.48.24.22.12.1.06.11.07.1.07.09.07.1.07.09.07.08.08.08.07.16.16.07.08.06.08.12.18.1.18.04.09.04.1.03.09.03.1.02.1.02.11.01.1.01.11v.11l-.01.11-1.31 16.45-.01.11-.04.22-.03.1-.03.09-.04.1-.04.09-.05.09-.1.16-.07.08-.06.08-.14.14-.08.07-.08.06-.09.06-.09.07-.09.05-.1.06-.1.05-.1.06-.33.15-.11.04-.12.05-.24.08-.52.16-.14.04-.13.03-.28.08-.14.03-.15.04-.14.03-9.08 1.67-.29.72-.72 1.6-.77 1.56-.83 1.53-.89 1.49-.1.15 3.98 8.33.06.13.07.13.06.13.06.12.06.13.05.13.06.13.05.12.04.13.05.13.08.24.04.13.09.36.04.24.01.11.02.12v.11l.01.11v.11l-.01.11v.11l-.02.1-.01.11-.03.1-.02.1-.03.1-.04.09-.04.1-.15.27-.06.08-.07.08-.07.09-.08.07-.08.08-12.56 10.7-.09.08-.08.06-.09.06-.09.05-.1.04-.18.08-.1.03-.1.02-.09.02-.2.02h-.2l-.11-.01-.1-.01-.11-.02-.1-.02-.11-.02-.22-.06-.33-.12-.11-.05-.12-.04-.11-.06-.12-.05-.11-.06-.36-.18-.24-.14-.13-.07-.12-.07-.12-.08-.13-.07-.13-.08-.12-.08-7.6-5.24-.16.07-1.61.65-1.64.58-1.67.51-1.69.46-.76.17-3.08 8.7-.06.14-.05.14-.06.13-.06.14-.06.13-.05.13-.06.12-.06.13-.18.36-.06.11-.06.12-.07.1-.06.11-.06.1-.21.3-.06.09-.08.08-.14.16-.08.08-.08.07-.07.06-.09.06-.08.06-.08.05-.09.05-.27.12-.1.02-.1.03-.2.02-.11.01h-.11l-.11-.01-16.45-1.3-.11-.01-.22-.04-.1-.03-.1-.04-.1-.03-.09-.05-.09-.04-.09-.06-.08-.05-.09-.06-.08-.07-.07-.07-.08-.07-.14-.16-.07-.09-.12-.18-.18-.3-.2-.44-.08-.24-.05-.13-.03-.12-.08-.26-.03-.13-.03-.14-.03-.13-.06-.28-.02-.14-.03-.14-.02-.15-1.66-9.08-.73-.29-1.6-.71-1.56-.78-1.53-.83-1.49-.89-.18-.11-8.29 3.96-.13.06-.13.07-.39.18-.13.05-.12.06-.26.1-.12.04-.13.04-.24.08-.12.03-.13.03-.12.03-.11.02-.12.02-.12.01-.11.02h-.12l-.11.01h-.11l-.11-.01h-.1l-.11-.02-.1-.01-.11-.02-.1-.03-.09-.03-.1-.04-.09-.04-.1-.04-.09-.05-.08-.06-.09-.06-.16-.14-.08-.08-.07-.08-10.71-12.56-.07-.09-.06-.08-.06-.09-.05-.09-.05-.1-.04-.09-.03-.09-.03-.1-.03-.09-.03-.3v-.31l.02-.1.01-.1.02-.11.03-.11.02-.11.04-.1.03-.11.04-.12.04-.11.1-.22.1-.24.06-.11.12-.24.14-.24.06-.12.08-.12.07-.13.07-.12.08-.13.07-.12.08-.13 5.23-7.58-.06-.15-.64-1.61-.58-1.64-.52-1.66-.46-1.7-.17-.76-8.7-3.07-.28-.12-.13-.06-.13-.05-.52-.24-.36-.18-.33-.18-.11-.07-.1-.06-.1-.07-.1-.06-.27-.21-.08-.07-.15-.15-.14-.16-.12-.16-.1-.18-.08-.18-.03-.09-.03-.1-.04-.2-.01-.1-.01-.11v-.11l.01-.11 1.31-16.45.02-.22.03-.1.02-.11.04-.1.03-.09.05-.1.05-.09.05-.08.05-.09.07-.08.06-.08.07-.08.08-.07.07-.08.09-.07.08-.06.09-.07.09-.06.2-.12.1-.05.11-.06.22-.1.12-.04.11-.05.13-.04.24-.08.13-.04.13-.03.13-.04.14-.03.13-.03.14-.03.14-.02.14-.03.15-.02.14-.03 9.08-1.66.29-.73.72-1.59.77-1.57.83-1.52.89-1.49.1-.15-3.98-8.33-.06-.14-.05-.14-.06-.13-.05-.14-.2-.52-.08-.26-.05-.12-.03-.13-.04-.12-.09-.36-.02-.12-.03-.12-.01-.11-.02-.11-.01-.12v-.1l-.01-.11v-.11l.01-.1.01-.11.01-.1.02-.1.02-.09.03-.1.03-.09.08-.18.05-.09.06-.09.12-.16.07-.08.08-.08.08-.07L173.4 9.28l.08-.07.18-.12.1-.06.09-.04.1-.05.09-.03.2-.06.1-.02.2-.02.11-.01h.1l.11.01h.11l.1.02.33.06.12.03.11.04.11.03.11.05.12.04.11.05.12.05.11.06.12.05.12.07.11.06.24.14.11.07.12.07.36.24.11.09.12.08 7.6 5.25.16-.08 1.61-.64 1.64-.58 1.67-.52 1.69-.45.76-.17 3.08-8.71.04-.14.05-.13.04-.14.15-.39.06-.13.05-.13.06-.12.05-.12.06-.12.06-.11.06-.12.07-.11.06-.1.07-.1.06-.1.07-.1.07-.09.08-.09.07-.09.16-.16.24-.21.09-.06.08-.06.18-.1.1-.04.09-.04.2-.06.2-.04.11-.01h.33l16.45 1.31.11.01zm-12.87 30.08l-.97.02-.97.06-.96.1-.95.14-.93.17-.92.21-.92.24-.89.28-.88.31-.87.35-.85.38-.84.41-.81.44-.8.47-.78.5-.75.53-.74.56-.71.58-.7.62-.66.64-.65.66-.61.69-.6.71-.56.74-.54.76-.5.78-.48.8-.45.82-.42.84-.38.86-.35.88-.32.9-.29.91-.24.93-.22.95-.17.96-.14.97-.1.99-.06.99-.01.98.02.98.06.96.1.96.13.95.17.93.21.93.25.91.28.89.31.89.34.86.38.85.41.84.44.81.47.8.51.78.53.76.55.73.59.72.61.69.64.67.67.64.68.62.72.59.73.56.76.54.78.51.8.48.83.44.84.42.86.38.88.36.89.31.92.29.93.25.94.21.96.17.98.14.98.1.99.06.99.02.97-.02.97-.07.96-.09.94-.14.94-.17.92-.21.91-.24.9-.28.88-.32.87-.34.85-.38.83-.41.82-.44.8-.47.78-.5.75-.53.74-.56.71-.59.69-.61.67-.64.64-.66.62-.69.59-.72.57-.73.54-.76.5-.78.48-.8.45-.82.42-.85.38-.86.35-.88.32-.89.28-.92.25-.93.22-.94.17-.96.14-.97.1-.99.05-.99.02-.99-.02-.97-.06-.97-.1-.95-.13-.95-.18-.94-.2-.92-.25-.91-.28-.9-.31-.88-.35-.87-.37-.85-.41-.83-.45-.82-.47-.8-.5-.77-.53-.76-.56-.74-.58-.71-.61-.69-.64-.67-.67-.64-.69-.62-.71-.59-.74-.57-.75-.53-.78-.51-.81-.48-.82-.45-.84-.41-.86-.39-.88-.35-.9-.32-.91-.28-.93-.25-.94-.21-.96-.18-.98-.14-.99-.09-.99-.06z" filter="url(#v)"/><use width="100%" height="100%" fill-opacity="0" stroke="#000" stroke-width="2" transform="translate(-20.85 -29.29)" xlink:href="#w"/><use width="100%" height="100%" fill="#77c800" transform="translate(-20.85 -29.29)" xlink:href="#x"/><use width="100%" height="100%" fill-opacity="0" stroke="#000" transform="translate(-20.85 -29.29)" xlink:href="#x"/><use width="100%" height="100%" fill="#77c800" transform="translate(-20.85 -29.29)" xlink:href="#y"/><use width="100%" height="100%" fill-opacity="0" stroke="#000" transform="translate(-20.85 -29.29)" xlink:href="#y"/><use width="100%" height="100%" fill-opacity=".75" transform="translate(-20.85 -29.29)" xlink:href="#z"/></svg>