<svg xmlns="http://www.w3.org/2000/svg" xmlns:xlink="http://www.w3.org/1999/xlink" width="300" height="300" version="1.1" viewBox="0 0 640 640"><defs><path id="a25tuEaVrD" d="m320 24.77c-163.05 0-295.23 132.18-295.23 295.23s132.18 295.23 295.23 295.23 295.23-132.18 295.23-295.23-132.18-295.23-295.23-295.23z"/><path id="a1j7qjApdG" d="m427.35 546.68s-32.2-9.08-32.2-99.09c0-26.43-142.04-26.02-142.04 2.06 0 86.71-33.03 96.62-33.03 96.62h-4.54c-4.13 0-8.26 2.07-8.26 6.19v3.72c0 4.13 4.54 8.67 8.26 8.67h217.18c4.13 0 7.43-4.95 7.43-8.67v-3.72c0-3.3-3.3-5.78-7.43-5.78h-5.37z"/><path id="a8LS7uojw" d="m71.02 98.27c-9.91 0-19.82 3.3-19.82 13.21v352.21c0 9.91 9.91 24.77 19.82 24.77h504.98c9.91 0 13.21-14.86 13.21-24.77v-352.21c0.42-9.91-3.3-13.21-13.21-13.21h-504.98z"/><path id="d46LFynrKh" d="m77.63 127.59h485.57v277.47h-485.57v-277.47z"/><path id="d3xaHtn5NR" d="m323.72 467.82c-11.98 0-21.89-9.91-21.89-21.88 0-11.98 9.91-21.89 21.89-21.89 11.97-0.41 21.88 9.5 21.88 21.89 0 12.38-9.91 21.88-21.88 21.88z"/><path id="aF0u2VVyJ" d="m87.12 135.43h467.82v40.88h-467.82v-40.88z"/><path id="aDs6cmPfr" d="m95.79 149.47v-5.37h23.54v5.37h-23.54z"/><path id="cxSUUNGK" d="m89.6 188.7h460.39v43.78h-460.39v-43.78z"/><path id="b29PhBzn0S" d="m516.27 228.28c0 17.33-14.05 31.38-31.38 31.38s-31.38-14.05-31.38-31.38 14.05-31.38 31.38-31.38 31.38 14.05 31.38 31.38z"/><path id="b24UENsMTy" d="m87.12 337.9v-29.73h149.47v29.73h-149.47z"/><path id="aMd2LBdEJ" d="m241.52 273.03h100v100h-100v-100z"/><path id="a4Hokr8r8N" d="m87.12 302.76v-29.73h149.47v29.73h-149.47z"/><path id="a1Jpw14oXc" d="m87.12 373.03v-29.73h149.47v29.73h-149.47z"/><path id="a7uXdGFqpL" d="m345.6 273.03h100v100h-100v-100z"/><path id="a1HCuAwOQE" d="m449.99 273.03h100v100h-100v-100z"/><path id="bFfJnjHHd" d="m587.13 564.85h-130.06c-6.35 0-11.47-4.42-11.47-9.8v-252.39c0-5.39 5.12-9.81 11.47-9.81h130.06c6.35 0 11.47 4.42 11.47 9.81v252.39c-3.41 6.53-7.24 9.8-11.47 9.8z"/><path id="a4OZeBQ3w5" d="m454.41 305.15h134.97v248.72h-134.97v-248.72z"/><path id="aRNs1e86Q" d="m463.62 400.69v-1.54h1.64v1.54h-1.64z"/><path id="b2Muf0PnXV" d="m516.26 383.97v0z"/><path id="a2Sly4vl9c" d="m454.41 318.8h134.97v24.61h-134.97v-24.61z"/><path id="au7QKGMpB" d="m462.8 327.26v-3.27h14.96v3.27h-14.96z"/><path id="axRNRSo7U" d="m454.41 385.5v-33.44h134.76l0.21 33.44h-134.97zm1.7-1.34h131.58v-30.76h-131.58v30.76z"/><path id="ap2bYv6FA" d="m521.88 362.63c-11.19 0-20.27 8.52-20.27 19.03s9.08 19.03 20.27 19.03c11.2 0 20.28-8.52 20.28-19.03s-9.08-19.03-20.28-19.03z"/><path id="dYXkyibji" d="m524.65 362.03 1.34 0.2 1.31 0.28 1.27 0.36 1.24 0.43 1.2 0.49 1.17 0.57 1.11 0.62 1.07 0.69 1.03 0.75 0.97 0.81 0.91 0.86 0.86 0.91 0.8 0.96 0.73 1 0.67 1.05 0.6 1.09 0.53 1.13 0.46 1.16 0.38 1.2 0.3 1.23 0.21 1.25 0.14 1.29 0.04 1.3-0.04 1.28-0.14 1.27-0.21 1.24-0.3 1.21-0.38 1.19-0.46 1.16-0.53 1.13-0.6 1.08-0.67 1.05-0.73 1.01-0.8 0.96-0.86 0.92-0.91 0.86-0.97 0.81-1.03 0.76-1.07 0.7-1.11 0.63-1.17 0.57-1.2 0.51-1.24 0.43-1.27 0.37-1.31 0.28-1.34 0.21-1.37 0.13-1.38 0.04-1.39-0.04-1.37-0.13-1.34-0.2-1.31-0.28-1.27-0.36-1.24-0.43-1.2-0.49-1.17-0.57-1.11-0.62-1.07-0.69-1.03-0.75-0.97-0.81-0.91-0.86-0.86-0.91-0.8-0.96-0.73-1-0.67-1.05-0.6-1.09-0.53-1.13-0.46-1.16-0.38-1.2-0.3-1.23-0.21-1.25-0.14-1.29-0.04-1.3 0.04-1.3 0.14-1.29 0.21-1.25 0.3-1.23 0.38-1.2 0.46-1.16 0.53-1.13 0.6-1.09 0.67-1.05 0.73-1 0.8-0.96 0.86-0.91 0.91-0.86 0.97-0.81 1.03-0.75 1.07-0.69 1.11-0.62 1.17-0.57 1.2-0.49 1.24-0.43 1.27-0.36 1.31-0.28 1.34-0.2 1.37-0.13 1.39-0.04 1.38 0.04 1.37 0.13zm-5.49 1.55-1.32 0.23-1.3 0.3-1.26 0.39-1.22 0.47-1.18 0.54-1.14 0.61-1.08 0.68-1.04 0.75-0.98 0.81-0.92 0.86-0.86 0.92-0.79 0.97-0.73 1.02-0.65 1.07-0.58 1.11-0.5 1.14-0.41 1.19-0.33 1.21-0.24 1.25-0.14 1.27-0.05 1.29 0.05 1.29 0.14 1.27 0.24 1.25 0.33 1.21 0.41 1.19 0.5 1.14 0.58 1.11 0.65 1.07 0.73 1.02 0.79 0.97 0.86 0.92 0.92 0.86 0.98 0.81 1.04 0.75 1.08 0.68 1.14 0.61 1.18 0.54 1.22 0.47 1.26 0.39 1.3 0.3 1.32 0.23 1.36 0.14 1.38 0.04 1.37-0.04 1.36-0.14 1.32-0.23 1.3-0.3 1.26-0.39 1.22-0.47 1.18-0.54 1.14-0.61 1.08-0.68 1.04-0.75 0.98-0.81 0.92-0.86 0.86-0.92 0.79-0.97 0.73-1.02 0.65-1.07 0.58-1.11 0.5-1.14 0.41-1.19 0.33-1.21 0.24-1.25 0.14-1.27 0.05-1.29-0.05-1.29-0.14-1.27-0.23-1.25-0.32-1.21-0.41-1.19-0.49-1.14-0.57-1.11-0.64-1.07-0.72-1.02-0.78-0.97-0.86-0.92-0.91-0.86-0.98-0.81-1.03-0.75-1.08-0.68-1.14-0.61-1.18-0.54-1.23-0.47-1.27-0.39-1.31-0.3-1.34-0.23-1.37-0.14-1.4-0.04-1.38 0.04-1.36 0.14z"/><path id="caqZG0Dvx" d="m584.19 308.51v5.96h-4.51v-5.96h1.02v-0.58h2.46v0.58h1.03zm-1.23 3.46 0.82-0.96h-0.21l-0.61 0.96zm-2.67-0.77h0.21v0.58h-0.21v0.19h0.62l-0.21-0.96h-0.2l-0.21 0.19zm3.28 0.77 0.21-0.19-0.12-0.11-0.06-0.01-0.03 0.09v0.22zm-2.66-0.19h0.61l0.03-0.01 0.07-0.02 0.08-0.06 0.03-0.11v0.2h0.61l0.03-0.01 0.07-0.02 0.07-0.06 0.04-0.11v-0.57h-1.64v0.77zm1.87-0.48 0.07 0.02 0.07-0.09 0.04-0.22-0.21 0.19 0.03 0.1z"/><path id="a6qgTCRSdp" d="m454.41 553.25v-24.6h134.97v24.6h-134.97z"/><path id="b3W035Yus" d="m462.78 533.36 0.06 0.05 0.05 0.06 0.06 0.08 0.05 0.09 0.06 0.1 0.06 0.12 0.05 0.13 0.06 0.14 0.05 0.16 0.02 0.1 0.03 0.05 0.03 0.06 0.03 0.05 0.04 0.05 0.05 0.05 0.05 0.06 0.05 0.05 0.06 0.05 0.05 0.05 0.1 0.12 0.03 0.08 0.04 0.07 0.02 0.08 0.03 0.08 0.03 0.07 0.03 0.08 0.08 0.14 0.1 0.1 0.05 0.06 0.03 0.05 0.04 0.05 0.02 0.05 0.03 0.06 0.06 0.1 0.04 0.05 0.04 0.06 0.05 0.05v0.02l0.01 0.01v0.03l0.01 0.02 0.02 0.03 0.02 0.02 0.02 0.03 0.04 0.01 0.04 0.02h0.05l0.15 0.15 0.02 0.03 0.01 0.03 0.01 0.02 0.01 0.03v0.04 0.04 0.05 0.38 0.05l-0.02 0.05-0.02 0.06-0.06 0.1-0.05 0.05-0.04 0.06-0.05 0.05-0.06 0.05-0.11 0.11-0.06 0.05-0.14 0.1-0.08 0.06-0.08 0.05-0.09 0.05-0.08 0.05-0.08 0.06-0.08 0.05-0.07 0.05-0.12 0.11-0.14 0.1-0.08 0.05-0.08 0.06-0.09 0.05-0.16 0.1-0.08 0.06-0.06 0.05-0.07 0.05-0.05 0.05-0.06 0.05-0.05 0.06-0.1 0.1-0.04 0.05-0.03 0.06-0.06 0.1-0.01 0.05-0.01 0.06v0.38l0.01 0.01v0.01 0.02 0.02l0.01 0.02 0.04 0.06 0.02 0.02 0.04 0.02 0.04 0.01h0.05v0.05l0.02 0.04 0.04 0.06 0.03 0.01 0.03 0.02 0.02 0.01h0.03 0.02l0.01 0.01 0.36 0.52 0.19 0.26 0.2 0.25 0.2 0.26 0.21 0.25 0.21 0.24 0.22 0.24 0.22 0.23 0.22 0.22 0.23 0.22 0.46 0.4 0.5 0.38 0.26 0.18 0.27 0.19 0.27 0.18 0.27 0.19 0.28 0.19 0.56 0.4 0.2 0.19 0.05 0.01 0.04 0.01 0.04 0.02 0.02 0.02 0.02 0.03 0.02 0.02v0.03l0.01 0.02v0.02 0.01 0.01h0.41 0.06l0.04-0.01h0.04 0.04l0.03-0.01 0.05-0.02 0.04-0.01 0.06-0.03 0.07-0.03 0.09-0.04 0.1-0.05 0.05-0.05 0.06-0.05 0.06-0.06 0.05-0.06 0.06-0.06 0.05-0.06 0.06-0.07 0.06-0.08 0.05-0.08 0.06-0.1 0.05-0.1 0.06-0.05 0.05-0.07 0.12-0.14 0.05-0.08 0.06-0.08 0.05-0.08 0.12-0.14 0.05-0.07 0.06-0.05 0.05-0.06 0.12-0.1 0.05-0.04 0.06-0.05 0.05-0.04 0.06-0.03 0.05-0.03 0.06-0.02 0.06-0.01 0.05-0.01h0.21l0.05 0.01 0.04 0.01 0.04 0.02 0.06 0.04 0.03 0.03 0.02 0.03 0.04 0.02 0.03 0.02 0.05 0.01h0.05l0.2 0.2 0.06 0.04 0.05 0.04 0.06 0.04 0.05 0.03 0.06 0.02 0.06 0.03 0.05 0.03 0.06 0.03 0.05 0.03 0.06 0.04 0.12 0.1 0.07 0.04 0.07 0.03 0.16 0.06 0.09 0.03 0.08 0.02 0.08 0.03 0.08 0.04 0.06 0.04 0.07 0.04 0.06 0.05 0.06 0.04 0.08 0.04 0.07 0.03 0.07 0.02 0.14 0.06 0.05 0.03 0.04 0.03 0.03 0.04 0.01 0.05 0.16 0.06 0.14 0.06 0.12 0.07 0.1 0.07 0.08 0.07 0.07 0.06 0.06 0.06 0.04 0.05 0.03 0.04 0.01 0.03 0.01 0.01 0.3 0.09 0.25 0.08 0.36 0.12 0.12 0.05 0.14 0.07 0.03 0.04 0.02 0.03 0.01 0.04v0.05 0.06 0.06l-0.01 0.07v0.08l-0.01 0.08-0.02 0.08-0.01 0.07-0.03 0.08-0.03 0.07-0.1 0.12v0.1l-0.01 0.09-0.02 0.09-0.06 0.14-0.02 0.07-0.03 0.06-0.02 0.06-0.02 0.05-0.02 0.06v0.05l-0.06 0.11-0.08 0.1-0.08 0.11-0.1 0.11-0.23 0.23-0.14 0.12-0.16 0.13-0.18 0.14-0.19 0.14-0.22 0.16-0.21 0.1-0.21 0.09-0.21 0.08-0.2 0.07-0.19 0.06-0.4 0.1-0.2 0.03-0.2 0.02-0.21 0.02h-0.22-0.61-0.06-0.05-0.06l-0.06-0.01-0.05-0.01-0.06-0.01-0.05-0.02-0.06-0.02-0.06-0.03-0.05-0.04-0.06-0.05h-0.05l-0.06-0.02-0.06-0.01-0.05-0.03-0.06-0.02-0.05-0.03-0.06-0.02-0.05-0.03-0.06-0.02-0.06-0.01-0.11-0.01-0.05-0.01-0.12-0.04-0.05-0.02-0.06-0.03-0.05-0.03-0.06-0.02-0.05-0.02-0.06-0.01h-0.06l-0.1-0.05-0.1-0.04-0.09-0.03-0.07-0.03-0.07-0.02-0.1-0.02h-0.04l-0.02-0.01h-0.02l-0.22-0.05-0.21-0.07-0.2-0.07-0.2-0.08-0.4-0.18-0.19-0.1-0.4-0.2-0.22-0.1-0.21-0.11-0.29-0.16-0.29-0.19-0.3-0.2-0.3-0.21-0.62-0.46-0.3-0.25-0.31-0.25-0.29-0.25-0.3-0.26-0.28-0.27-0.28-0.26-0.28-0.28-0.54-0.56-0.26-0.29-0.25-0.29-0.24-0.29-0.23-0.28-0.21-0.28-0.2-0.28-0.17-0.26-0.12-0.16-0.11-0.17-0.1-0.18-0.11-0.19-0.1-0.19-0.1-0.2-0.18-0.4-0.08-0.21-0.07-0.21-0.06-0.21v-0.02-0.02l-0.01-0.03-0.02-0.1-0.02-0.06-0.03-0.07-0.03-0.08-0.04-0.09-0.1-0.2-0.05-0.09-0.03-0.08-0.02-0.08-0.02-0.06-0.02-0.05-0.01-0.04v-0.04l-0.01-0.02v-0.02-0.05l-0.02-0.04-0.01-0.04-0.03-0.03-0.03-0.04-0.02-0.04-0.03-0.04-0.04-0.12-0.02-0.08v-0.1-0.05-0.07l-0.01-0.07v-0.06l-0.01-0.07-0.02-0.07-0.01-0.06-0.03-0.05-0.03-0.04-0.05-0.02-0.05-0.01v-0.58l0.02-0.42 0.03-0.21 0.03-0.2 0.05-0.2 0.06-0.2 0.06-0.19 0.16-0.36 0.1-0.17 0.11-0.16 0.11-0.21 0.11-0.19 0.11-0.18 0.11-0.17 0.12-0.15 0.11-0.13 0.11-0.11 0.11-0.09 0.11-0.07 0.11-0.04 0.12-0.01h0.06l0.14-0.04 0.16-0.04 0.09-0.03 0.08-0.02 0.08-0.03 0.08-0.02 0.07-0.01h0.06l0.2-0.02 0.09-0.02 0.08-0.02 0.08-0.03 0.07-0.02 0.06-0.03 0.12-0.04 0.06-0.01h0.05 0.21 0.06l0.05 0.03z"/><path id="e2KEXbkSrN" d="m531.06 296.68c1.29 0 2.35 1.06 2.35 2.35v0c0 1.3-1.06 2.36-2.35 2.36h-14.84c-1.3 0-2.35-1.06-2.35-2.36v0c0-1.29 1.05-2.35 2.35-2.35h14.84z"/><path id="e1zrZGwB05" d="m458.98 409.07h59.09v46.56h-59.09v-46.56z"/><path id="a1rmz93i1G" d="m525.09 409.07h59.1v46.56h-59.1v-46.56z"/><path id="a1IlGgFCYp" d="m458.98 460.24h59.09v46.55h-59.09v-46.55z"/><path id="bkfDh9n2" d="m525.09 460.24h59.1v46.55h-59.1v-46.55z"/><path id="b1yHdxCeMl" d="m525.23 534.92v-0.02-0.02-0.02l0.01-0.02v-0.01l0.01-0.02v-0.02l0.01-0.02 0.01-0.01v-0.02l0.01-0.02 0.01-0.01 0.01-0.02 0.04-0.04 0.01-0.02 0.04-0.04 0.02-0.01 0.01-0.01 0.06-0.03 0.01-0.01 0.08-0.04h0.02l0.04-0.02h0.02 0.02l0.03-0.01h0.02 0.02 0.02 0.03 2.22 0.02 0.03 0.02 0.02l0.02 0.01h0.02 0.02l0.03 0.01 0.02 0.01h0.02l0.04 0.02 0.01 0.01 0.06 0.03 0.01 0.01 0.04 0.02 0.01 0.01 0.02 0.01 0.01 0.02 0.02 0.01 0.01 0.02 0.01 0.01 0.01 0.02 0.01 0.01 0.01 0.02 0.01 0.01 0.02 0.04 0.01 0.01v0.02l0.01 0.02v0.02l0.01 0.01v0.02 0.02l0.01 0.02v0.02 4.87l2.22 2.09h-2.22v6.49h-4.95v-0.02-4.51-0.02l-0.01-0.02v-0.02-0.02l-0.01-0.02v-0.02l-0.01-0.02v-0.01l-0.04-0.08-0.01-0.01-0.02-0.04-0.07-0.07-0.02-0.01-0.01-0.02-0.08-0.04-0.01-0.01-0.06-0.03h-0.02l-0.03-0.01-0.02-0.01h-0.02l-0.02-0.01h-0.02-0.03-0.02l-0.02-0.01h-0.03-2.29-0.03l-0.02 0.01h-0.02-0.03-0.02l-0.02 0.01h-0.02l-0.04 0.02h-0.03l-0.06 0.03-0.01 0.01-0.08 0.04-0.01 0.02-0.02 0.01-0.07 0.07-0.02 0.04-0.01 0.01-0.04 0.08v0.01l-0.01 0.02v0.02l-0.01 0.02v0.02 0.02l-0.01 0.02v0.02 4.51 0.02h-4.95v-6.49h-2.22l8.9-8.35 3.33 3.13v-1.74z"/><path id="a156UwS07P" d="m566.15 548.37v-13.27h18.04v13.27h-18.04zm8.9-4.42-7.21-5.45v8.1h14.65v-8.31l-7.42 5.61-0.02 0.05zm-0.02-2.57 5.97-4.51h-11.94l5.97 4.51z"/><path id="b5Vo3HY7YM" d="m542.16 541.29c0-3.79 4.15-6.86 9.27-6.86s9.27 3.07 9.27 6.86-4.15 6.87-9.27 6.87c-1.24 0-2.43-0.18-3.51-0.51-0.23 0.12-1.37 0.73-3.43 1.82l0.53-3.22c-1.9-2-2.86-3.66-2.86-4.96z"/><path id="a5MZ8ZaSf" d="m491.18 532.88h0.03 0.03l0.04 0.01h0.03l0.03 0.01h0.03l0.06 0.02h0.02l0.06 0.02 0.02 0.01 0.06 0.02 0.02 0.02 0.02 0.01 0.03 0.01 0.02 0.02 0.04 0.02 0.02 0.02 0.02 0.01 0.02 0.02 0.01 0.02 0.02 0.01 0.01 0.02 0.02 0.02 0.03 0.06 0.01 0.01 0.02 0.04v0.02l0.01 0.02v0.02 0.03 0.02 0.83h1.87v-0.83-0.02-0.03-0.02l0.01-0.02v-0.02l0.02-0.04 0.01-0.01 0.03-0.06 0.02-0.02 0.01-0.02 0.02-0.01 0.01-0.02 0.02-0.02 0.02-0.01 0.02-0.02 0.04-0.02 0.02-0.02 0.03-0.01 0.02-0.01 0.02-0.02 0.03-0.01 0.02-0.01 0.09-0.03h0.02l0.06-0.02h0.03l0.03-0.01h0.03l0.04-0.01h0.03 0.03 0.03 0.03 0.04 0.03 0.03 0.03l0.04 0.01h0.03l0.03 0.01h0.03l0.06 0.02h0.02l0.09 0.03 0.02 0.01 0.03 0.01 0.02 0.02 0.02 0.01 0.03 0.01 0.02 0.02 0.04 0.02 0.02 0.02 0.02 0.01 0.02 0.02 0.01 0.02 0.02 0.01 0.01 0.02 0.02 0.02 0.03 0.06 0.01 0.01 0.02 0.04v0.02l0.01 0.02v0.02 0.03 0.02 0.83h1.87v-0.83-0.02-0.03-0.02l0.01-0.02v-0.02l0.02-0.04 0.01-0.01 0.03-0.06 0.02-0.02 0.01-0.02 0.02-0.01 0.01-0.02 0.02-0.02 0.02-0.01 0.02-0.02 0.04-0.02 0.02-0.02 0.03-0.01 0.02-0.01 0.02-0.02 0.03-0.01 0.02-0.01 0.09-0.03h0.02l0.06-0.02h0.03l0.03-0.01h0.03l0.04-0.01h0.03 0.03 0.03 0.04 0.03 0.03 0.03 0.03l0.04 0.01h0.03l0.03 0.01h0.03l0.06 0.02h0.02l0.09 0.03 0.02 0.01 0.03 0.01 0.02 0.02 0.02 0.01 0.03 0.01 0.02 0.02 0.04 0.02 0.02 0.02 0.02 0.01 0.02 0.02 0.01 0.02 0.02 0.01 0.01 0.02 0.02 0.02 0.03 0.06 0.01 0.01 0.02 0.04v0.02l0.01 0.02v0.02 0.03 0.02 0.83h4.26v14.8h-17.03v-14.8h4.26v-0.83-0.02-0.03-0.02l0.01-0.02v-0.02l0.02-0.04 0.01-0.01 0.03-0.06 0.02-0.02 0.01-0.02 0.02-0.01 0.01-0.02 0.02-0.02 0.02-0.01 0.02-0.02 0.04-0.02 0.02-0.02 0.02-0.01 0.03-0.01 0.02-0.02 0.03-0.01 0.02-0.01 0.09-0.03h0.02l0.06-0.02h0.03l0.03-0.01h0.03l0.03-0.01h0.04 0.03 0.03 0.03 0.04 0.03zm-3.53 14.61h13.85v-11.74h-2.67v0.7 0.02 0.02 0.02l-0.01 0.02v0.02l-0.05 0.1-0.03 0.03-0.01 0.02-0.07 0.07-0.04 0.02-0.02 0.02-0.02 0.01-0.03 0.02-0.04 0.02-0.03 0.01-0.02 0.01-0.09 0.03-0.02 0.01-0.03 0.01h-0.03l-0.03 0.01h-0.03l-0.03 0.01h-0.04-0.03l-0.03 0.01h-0.03-0.03-0.04-0.03l-0.03-0.01h-0.03-0.04l-0.03-0.01h-0.03l-0.03-0.01h-0.03l-0.03-0.01-0.02-0.01-0.09-0.03-0.02-0.01-0.03-0.01-0.04-0.02-0.03-0.02-0.02-0.01-0.02-0.02-0.04-0.02-0.07-0.07-0.01-0.02-0.03-0.03-0.05-0.1v-0.02l-0.01-0.02v-0.02-0.02-0.02-0.7h-1.87v0.7 0.02 0.02 0.02l-0.01 0.02v0.02l-0.05 0.1-0.03 0.03-0.01 0.02-0.07 0.07-0.04 0.02-0.02 0.02-0.02 0.01-0.03 0.02-0.04 0.02-0.03 0.01-0.02 0.01-0.09 0.03-0.02 0.01-0.03 0.01h-0.03l-0.03 0.01h-0.03l-0.03 0.01h-0.04-0.03l-0.03 0.01h-0.03-0.04-0.03-0.03l-0.03-0.01h-0.03-0.04l-0.03-0.01h-0.03l-0.03-0.01h-0.03l-0.03-0.01-0.02-0.01-0.09-0.03-0.02-0.01-0.03-0.01-0.04-0.02-0.03-0.02-0.02-0.01-0.02-0.02-0.04-0.02-0.07-0.07-0.01-0.02-0.03-0.03-0.05-0.1v-0.02l-0.01-0.02v-0.02-0.02-0.02-0.7h-1.87v0.7 0.02 0.02 0.02l-0.01 0.02v0.02l-0.05 0.1-0.03 0.03-0.01 0.02-0.07 0.07-0.04 0.02-0.02 0.02-0.02 0.01-0.03 0.02-0.04 0.02-0.06 0.02-0.02 0.01-0.06 0.02-0.02 0.01-0.03 0.01h-0.03l-0.03 0.01h-0.03l-0.03 0.01h-0.04-0.03l-0.03 0.01h-0.03-0.04-0.03-0.03l-0.03-0.01h-0.04-0.03l-0.03-0.01h-0.03l-0.03-0.01h-0.03l-0.03-0.01-0.02-0.01-0.09-0.03-0.02-0.01-0.03-0.01-0.02-0.01-0.03-0.01-0.02-0.02-0.02-0.01-0.02-0.02-0.04-0.02-0.07-0.07-0.01-0.02-0.03-0.03-0.05-0.1v-0.02l-0.01-0.02v-0.02-0.02-0.02-0.7h-2.67v11.74zm9.59-1.35v-1.96h2.05v1.96h-2.05zm-7.46 0v-1.96h2.06v1.96h-2.06zm3.81 0v-1.96h2.05v1.96h-2.05zm0-3.13v-1.97h2.05v1.97h-2.05zm-3.81 0v-1.97h2.06v1.97h-2.06zm7.46 0v-1.97h2.05v1.97h-2.05zm-3.65-3.06v-1.97h2.05v1.97h-2.05zm-3.81 0v-1.97h2.06v1.97h-2.06zm7.46 0v-1.97h2.05v1.97h-2.05z"/><path id="aLKrs8kph" d="m570.69 307.93-1.51 4.94h1.51l-1.08 3.56 4.08-4.94h-2.15l1.51-3.56h-2.36z"/></defs><use fill="#ebecf0" xlink:href="#a25tuEaVrD"/><use fill-opacity="0" stroke="#000" stroke-opacity="0" xlink:href="#a25tuEaVrD"/><use fill="#fff" xlink:href="#a1j7qjApdG"/><use fill-opacity="0" stroke="#8c91a5" xlink:href="#a1j7qjApdG"/><use fill="#fff" xlink:href="#a8LS7uojw"/><use fill-opacity="0" stroke="#8c91a5" xlink:href="#a8LS7uojw"/><use fill="#fff" xlink:href="#d46LFynrKh"/><use fill-opacity="0" stroke="#8c91a5" xlink:href="#d46LFynrKh"/><use fill="#fff" xlink:href="#d3xaHtn5NR"/><use fill-opacity="0" stroke="#8c91a5" stroke-width=".25" xlink:href="#d3xaHtn5NR"/><use fill="#600060" xlink:href="#aF0u2VVyJ"/><use fill-opacity="0" stroke="#000" stroke-opacity="0" xlink:href="#aF0u2VVyJ"/><use fill="#8c91a5" xlink:href="#aDs6cmPfr"/><use fill-opacity="0" stroke="#000" stroke-opacity="0" xlink:href="#aDs6cmPfr"/><use fill="#000" fill-opacity="0" xlink:href="#cxSUUNGK"/><use fill-opacity="0" stroke="#c9cedf" stroke-width=".75" xlink:href="#cxSUUNGK"/><use fill="#600060" xlink:href="#b29PhBzn0S"/><use fill-opacity="0" stroke="#c9cedf" stroke-width=".75" xlink:href="#b29PhBzn0S"/><use fill="#600060" xlink:href="#b24UENsMTy"/><use fill-opacity="0" stroke="#000" stroke-opacity="0" xlink:href="#b24UENsMTy"/><use fill="#600060" xlink:href="#aMd2LBdEJ"/><use fill="#600060" xlink:href="#a4Hokr8r8N"/><use fill-opacity="0" stroke="#000" stroke-opacity="0" xlink:href="#a4Hokr8r8N"/><use fill="#600060" xlink:href="#a1Jpw14oXc"/><use fill-opacity="0" stroke="#000" stroke-opacity="0" xlink:href="#a1Jpw14oXc"/><use fill="#600060" xlink:href="#a7uXdGFqpL"/><use fill="#600060" xlink:href="#a1HCuAwOQE"/><use fill="#fff" xlink:href="#bFfJnjHHd"/><use fill-opacity="0" stroke="#8c91a5" xlink:href="#bFfJnjHHd"/><use fill="#fdfdfc" xlink:href="#a4OZeBQ3w5"/><use fill-opacity="0" stroke="#8c91a5" stroke-width=".75" xlink:href="#a4OZeBQ3w5"/><use fill="#bfbfbe" xlink:href="#aRNs1e86Q"/><use fill-opacity="0" stroke="#000" stroke-opacity="0" xlink:href="#aRNs1e86Q"/><use fill="#eed3b7" xlink:href="#b2Muf0PnXV"/><use fill-opacity="0" stroke="#000" stroke-opacity="0" xlink:href="#b2Muf0PnXV"/><use fill="#c7cbdb" xlink:href="#a2Sly4vl9c"/><use fill-opacity="0" stroke="#000" stroke-opacity="0" xlink:href="#a2Sly4vl9c"/><use fill="#898da1" xlink:href="#au7QKGMpB"/><use fill-opacity="0" stroke="#000" stroke-opacity="0" xlink:href="#au7QKGMpB"/><use fill="#c7cbdb" xlink:href="#axRNRSo7U"/><use fill-opacity="0" stroke="#000" stroke-opacity="0" xlink:href="#axRNRSo7U"/><use fill="#600060" xlink:href="#ap2bYv6FA"/><use fill-opacity="0" stroke="#000" stroke-opacity="0" xlink:href="#ap2bYv6FA"/><use fill="#c7cbdb" xlink:href="#dYXkyibji"/><use fill-opacity="0" stroke="#600060" stroke-opacity="0" stroke-width="6" xlink:href="#dYXkyibji"/><use fill="#3a3e4b" xlink:href="#caqZG0Dvx"/><use fill-opacity="0" stroke="#000" stroke-opacity="0" xlink:href="#caqZG0Dvx"/><use fill="#c7cbdb" xlink:href="#a6qgTCRSdp"/><use fill-opacity="0" stroke="#000" stroke-opacity="0" xlink:href="#a6qgTCRSdp"/><use fill="#898da1" xlink:href="#b3W035Yus"/><use fill-opacity="0" stroke="#000" stroke-opacity="0" xlink:href="#b3W035Yus"/><use fill="#ccc" xlink:href="#e2KEXbkSrN"/><use fill="#600060" xlink:href="#e1zrZGwB05"/><use fill="#600060" xlink:href="#a1rmz93i1G"/><use fill="#600060" xlink:href="#a1IlGgFCYp"/><use fill="#600060" xlink:href="#bkfDh9n2"/><use fill="#898da1" xlink:href="#b1yHdxCeMl"/><use fill="#898da1" xlink:href="#a156UwS07P"/><use fill="#898da1" xlink:href="#b5Vo3HY7YM"/><use fill="#898da1" xlink:href="#a5MZ8ZaSf"/><use fill="#3a3e4b" xlink:href="#aLKrs8kph"/></svg>