<svg xmlns="http://www.w3.org/2000/svg" xmlns:xlink="http://www.w3.org/1999/xlink" width="300" height="300" version="1.1" viewBox="0 0 640 640"><defs><path id="aFsi2Dajn" d="m17.04 494.48c-9.37 0-17.04-7.67-17.04-17.04v-398.65c0-9.37 7.67-17.03 17.04-17.03h605.92c9.37 0 17.04 7.66 17.04 17.03v398.65c0 9.37-7.67 17.04-17.04 17.04h-605.92z"/><path id="a1xc9R4psJ" d="m612.74 88.73v326.82h-585.77v-326.82h585.77z"/><path id="acs5RJSkP" d="m162.98 560.35c0-9.37 7.67-17.03 17.04-17.03h279.96c9.37 0 17.04 7.66 17.04 17.03v17.89h-314.04v-17.89z"/><path id="aNbLM5Gkm" d="m373.95 494.2v51.39h-110.17v-51.39h110.17z"/><path id="arAZINIX" d="m339.31 223.6c-1.71 0-2.84 1.14-2.84 2.84v55.37c0 1.7 1.13 2.84 2.84 2.84h59.34c1.7 0 2.84-1.14 2.84-2.84v-55.37c0-1.42-1.42-2.84-2.84-2.84h-59.34z"/><path id="c2fM59xSHr" d="m424.77 176.47c-1.7 0-2.84 1.13-2.84 2.84v102.78c0 1.71 1.14 2.84 2.84 2.84h59.35c1.7 0 2.84-1.13 2.84-2.84v-102.78c0-1.42-1.14-2.84-2.84-2.84h-59.35z"/><path id="ap5NDtqdy" d="m510.24 125.08c-1.7 0-2.84 1.13-2.84 2.83v154.18c0 1.71 1.14 2.84 2.84 2.84h59.34c1.71 0 2.84-1.13 2.84-2.84v-154.18c0-1.7-1.13-2.83-2.84-2.83h-59.34z"/><path id="a1iNzcowU" d="m188.41 128.46 3.16 0.32 3.11 0.44 3.07 0.56 3.03 0.69 2.98 0.79 2.94 0.92 2.88 1.02 2.83 1.13 2.78 1.24 2.71 1.34 2.66 1.44 2.59 1.54 2.53 1.64 2.46 1.72 2.38 1.82 2.32 1.91 2.23 2 2.16 2.08 2.08 2.15 1.99 2.24 1.91 2.32 1.82 2.38 1.73 2.46 1.64 2.53 1.54 2.59 1.44 2.65 1.34 2.72 1.24 2.77 1.13 2.83 1.02 2.89 0.91 2.93 0.8 2.99 0.68 3.03 0.57 3.07 0.44 3.11 0.32 3.15 0.19 3.19 0.07 3.22-0.07 3.22-0.19 3.19-0.32 3.15-0.44 3.12-0.57 3.07-0.68 3.03-0.8 2.98-0.91 2.94-1.02 2.88-1.13 2.83-1.24 2.77-1.34 2.72-1.44 2.66-1.54 2.59-1.64 2.52-1.73 2.46-1.82 2.39-1.91 2.31-1.99 2.24-2.08 2.16-2.16 2.08-2.23 1.99-2.32 1.91-2.38 1.82-2.46 1.73-2.53 1.64-2.59 1.54-2.66 1.44-2.71 1.34-2.78 1.23-2.83 1.14-2.88 1.02-2.94 0.91-2.98 0.8-3.03 0.68-3.07 0.56-3.11 0.45-3.16 0.32-3.18 0.19-3.22 0.07-3.23-0.07-3.18-0.19-3.16-0.32-3.11-0.45-3.07-0.56-3.03-0.68-2.98-0.8-2.94-0.91-2.88-1.02-2.83-1.14-2.78-1.23-2.71-1.34-2.66-1.44-2.59-1.54-2.53-1.64-2.45-1.73-2.39-1.82-2.31-1.91-2.24-1.99-2.16-2.08-2.08-2.16-1.99-2.24-1.91-2.31-1.82-2.39-1.73-2.46-1.64-2.52-1.54-2.59-1.44-2.66-1.34-2.72-1.24-2.77-1.13-2.83-1.02-2.88-0.91-2.94-0.8-2.98-0.68-3.03-0.57-3.07-0.44-3.12-0.32-3.15-0.19-3.19-0.07-3.22 0.07-3.22 0.19-3.19 0.32-3.15 0.44-3.11 0.57-3.07 0.68-3.03 0.8-2.99 0.91-2.93 1.02-2.89 1.13-2.83 1.24-2.77 1.34-2.72 1.44-2.65 1.54-2.59 1.64-2.53 1.73-2.46 1.82-2.38 1.91-2.32 1.99-2.24 2.08-2.15 2.16-2.08 2.24-2 2.31-1.91 2.39-1.82 2.45-1.72 2.53-1.64 2.59-1.54 2.66-1.44 2.71-1.34 2.78-1.24 2.83-1.13 2.88-1.02 2.94-0.92 2.98-0.79 3.03-0.69 3.07-0.56 3.11-0.44 3.16-0.32 3.18-0.2 3.23-0.06 3.22 0.06 3.18 0.2zm-9.65 38.2-1.6 0.16-1.58 0.23-1.56 0.28-1.54 0.34-1.51 0.41-1.49 0.46-1.47 0.52-1.44 0.57-1.41 0.62-1.38 0.68-1.35 0.73-1.32 0.78-1.29 0.83-1.25 0.87-1.22 0.93-1.18 0.96-1.14 1.02-1.1 1.05-1.06 1.1-1.02 1.13-0.97 1.18-0.93 1.21-0.88 1.25-0.84 1.29-0.79 1.32-0.73 1.35-0.69 1.38-0.63 1.42-0.58 1.44-0.52 1.47-0.47 1.5-0.41 1.53-0.34 1.55-0.29 1.57-0.23 1.59-0.16 1.62-0.1 1.63-0.04 1.65 0.04 1.63 0.09 1.62 0.17 1.6 0.22 1.58 0.28 1.56 0.35 1.54 0.4 1.51 0.46 1.49 0.52 1.47 0.57 1.44 0.63 1.41 0.67 1.38 0.73 1.35 0.78 1.32 0.83 1.29 0.88 1.25 0.92 1.22 0.97 1.17 1.01 1.15 1.05 1.1 1.1 1.06 1.14 1.01 1.17 0.98 1.22 0.93 1.24 0.88 1.29 0.84 1.32 0.78 1.35 0.74 1.39 0.68 1.41 0.64 1.44 0.58 1.48 0.52 1.5 0.46 1.52 0.41 1.55 0.35 1.57 0.29 1.59 0.23 1.62 0.16 1.63 0.1 1.66 0.03 1.63-0.03 1.61-0.1 1.6-0.16 1.58-0.23 1.56-0.29 1.54-0.35 1.51-0.41 1.5-0.46 1.46-0.52 1.44-0.58 1.41-0.64 1.38-0.68 1.35-0.74 1.32-0.78 1.29-0.84 1.25-0.88 1.22-0.93 1.18-0.98 1.14-1.01 1.1-1.06 1.06-1.1 1.02-1.15 0.97-1.17 0.93-1.22 0.88-1.25 0.84-1.29 0.79-1.32 0.73-1.35 0.69-1.38 0.63-1.41 0.58-1.44 0.52-1.47 0.47-1.49 0.41-1.51 0.35-1.54 0.28-1.56 0.23-1.58 0.16-1.6 0.1-1.62 0.04-1.63-0.04-1.63-0.09-1.62-0.16-1.59-0.23-1.58-0.28-1.56-0.35-1.54-0.4-1.52-0.46-1.49-0.52-1.46-0.57-1.44-0.63-1.41-0.67-1.39-0.73-1.35-0.78-1.32-0.83-1.28-0.88-1.26-0.92-1.21-0.97-1.18-1.01-1.14-1.05-1.1-1.1-1.06-1.14-1.02-1.17-0.97-1.21-0.93-1.25-0.89-1.29-0.83-1.32-0.79-1.35-0.74-1.39-0.68-1.41-0.63-1.44-0.58-1.48-0.52-1.49-0.47-1.53-0.41-1.55-0.35-1.57-0.29-1.59-0.22-1.62-0.17-1.63-0.1-1.65-0.03-1.64 0.03-1.61 0.1z"/><path id="a2yfez44wK" d="m182.29 246.32c-22.15 0-39.75-17.89-39.75-39.75 0-22.15 17.89-39.76 39.75-39.76h1.14v-38.61h-1.14c-43.16 0-78.08 34.92-78.08 78.08s34.92 78.09 78.08 78.09c21.58 0 40.89-8.81 55.08-22.72-1.79-1.8-10.79-10.79-26.97-26.97-11.36 7.76-20.73 11.64-28.11 11.64z"/><path id="diy8vUBRw" d="m344.99 377.78c-4.83 0-8.52-3.69-8.52-8.52 0-4.82 3.69-8.51 8.52-8.51h148.5c4.54 0 8.52 3.69 8.52 8.51 0 4.55-3.98 8.52-8.52 8.52h-148.5z"/><path id="bD5yp0BAy" d="m306.65 461.54c-4.82 0-8.51-3.97-8.51-8.51 0-4.55 3.69-8.52 8.51-8.52h24.14c4.83 0 8.52 3.69 8.52 8.52 0.28 4.82-3.69 8.51-8.24 8.51h-24.42z"/><path id="fUfHecm7R" d="m344.7 335.19c-4.82 0-8.52-3.69-8.52-8.52 0-4.54 3.7-8.52 8.52-8.52h220.06c4.54 0 8.51 3.7 8.51 8.52 0 4.55-3.69 8.52-8.51 8.52h-220.06z"/><path id="b1wR4T57EN" d="m71.84 377.78c-4.55 0-8.52-3.69-8.52-8.52 0-4.82 3.69-8.51 8.52-8.51h156.45c4.82 0 8.52 3.69 8.52 8.51 0 4.55-3.7 8.52-8.52 8.52h-156.45z"/><path id="b2KManUZ6V" d="m71.84 335.19c-4.55 0-8.52-3.69-8.52-8.52 0-4.54 3.69-8.52 8.52-8.52h220.05c4.83 0 8.52 3.7 8.52 8.52 0 4.55-3.69 8.52-8.52 8.52h-220.05z"/></defs><use fill="#e7e7e7" xlink:href="#aFsi2Dajn"/><use fill-opacity="0" stroke="#000" stroke-opacity="0" xlink:href="#aFsi2Dajn"/><use fill="#fff" xlink:href="#a1xc9R4psJ"/><use fill-opacity="0" stroke="#000" stroke-opacity="0" xlink:href="#a1xc9R4psJ"/><use fill="#d1d1d1" xlink:href="#acs5RJSkP"/><use fill-opacity="0" stroke="#000" stroke-opacity="0" xlink:href="#acs5RJSkP"/><use fill="#d1d1d1" xlink:href="#aNbLM5Gkm"/><use fill-opacity="0" stroke="#000" stroke-opacity="0" xlink:href="#aNbLM5Gkm"/><use fill="#600060" xlink:href="#arAZINIX"/><use fill-opacity="0" stroke="#000" stroke-opacity="0" xlink:href="#arAZINIX"/><use fill="#600060" xlink:href="#c2fM59xSHr"/><use fill-opacity="0" stroke="#000" stroke-opacity="0" xlink:href="#c2fM59xSHr"/><use fill="#600060" xlink:href="#ap5NDtqdy"/><use fill-opacity="0" stroke="#000" stroke-opacity="0" xlink:href="#ap5NDtqdy"/><use fill="#ffca28" xlink:href="#a1iNzcowU"/><use fill-opacity="0" stroke="#000" stroke-opacity="0" xlink:href="#a1iNzcowU"/><use fill="#77c800" xlink:href="#a2yfez44wK"/><use fill-opacity="0" stroke="#000" stroke-opacity="0" xlink:href="#a2yfez44wK"/><use fill="#e7e7e7" xlink:href="#diy8vUBRw"/><use fill-opacity="0" stroke="#000" stroke-opacity="0" xlink:href="#diy8vUBRw"/><use fill="#fff" xlink:href="#bD5yp0BAy"/><use fill-opacity="0" stroke="#000" stroke-opacity="0" xlink:href="#bD5yp0BAy"/><use fill="#e7e7e7" xlink:href="#fUfHecm7R"/><use fill-opacity="0" stroke="#000" stroke-opacity="0" xlink:href="#fUfHecm7R"/><use fill="#e7e7e7" xlink:href="#b1wR4T57EN"/><use fill-opacity="0" stroke="#000" stroke-opacity="0" xlink:href="#b1wR4T57EN"/><use fill="#e7e7e7" xlink:href="#b2KManUZ6V"/><use fill-opacity="0" stroke="#000" stroke-opacity="0" xlink:href="#b2KManUZ6V"/></svg>