<svg xmlns="http://www.w3.org/2000/svg" xmlns:xlink="http://www.w3.org/1999/xlink" width="200" height="200" version="1.1" viewBox="0 0 640 640"><defs><path id="cmZlKKjUW" d="m23.49 267.76h368.78v-20.56h-368.78v-30.83c0-5.66 4.59-10.28 10.24-10.28h243c10.88-32.78 16.93-50.99 18.14-54.63 1.4-4.21 5.31-7.03 9.72-7.03h200.36c5.65 0 10.24 4.61 10.24 10.27v92.5h20.49v-92.5c0-17-13.79-30.83-30.73-30.83h-200.36c-13.25 0-24.97 8.47-29.15 21.08-0.9 2.71-5.4 16.24-13.49 40.59h-228.22c-16.94 0-30.73 13.83-30.73 30.83v246.67c0 17 13.79 30.83 30.73 30.83h235.61v-20.55h-235.61c-5.65 0-10.24-4.62-10.24-10.28v-195.28z"/><path id="c2r5cMRv6X" d="m454.19 24.65v82.58h20.65v-103.23h-412.9v165.16h20.64v-144.51h371.61z"/><path id="a3RRYLejEA" d="m123.87 45.29v20.65h-20.64v-20.65h20.64z"/><path id="aTSkhgzzl" d="m433.55 45.29v20.65h-289.03v-20.65h289.03z"/><path id="b8f2giQxb" d="m392.26 86.58v20.65h-289.03v-20.65h289.03z"/><path id="bH00xFJ9R" d="m433.55 86.58v20.65h-20.65v-20.65h20.65z"/><path id="d3cRNfKIRg" d="m468.96 247.4 2.39 1.29 2.47 1.26 2.55 1.26 2.61 1.23 2.69 1.23 2.77 1.2 2.84 1.19 2.91 1.18 2.98 1.16 3.06 1.14 3.14 1.13 3.2 1.11 3.28 1.1 3.36 1.09 3.42 1.06 3.5 1.06 3.58 1.03 3.65 1.02 3.72 1.01 3.8 0.99 3.87 0.98 3.94 0.95 4.02 0.95 4.09 0.93 4.16 0.91 4.24 0.9 4.31 0.88 4.38 0.87 4.46 0.85 4.54 0.84 4.6 0.82 4.68 0.8 4.76 0.79 4.82 0.78 4.9 0.76 4.98 0.74 5.05 0.73 5.12 0.71 5.19 0.7h20.01v175.49l-0.15 7.22-0.43 7.15-0.72 7.07-1 6.98-1.27 6.9-1.54 6.8-1.8 6.69-2.05 6.59-2.3 6.48-2.55 6.36-2.79 6.23-3.02 6.1-3.24 5.97-3.47 5.83-3.68 5.67-3.89 5.53-4.1 5.36-4.29 5.21-4.49 5.03-4.68 4.85-4.85 4.68-5.03 4.49-5.21 4.29-5.36 4.1-5.53 3.89-5.67 3.68-5.83 3.47-5.97 3.24-6.1 3.02-6.23 2.79-6.36 2.55-6.48 2.3-6.59 2.05-6.69 1.8-6.8 1.54-6.9 1.27-6.98 1-7.07 0.72-7.15 0.43-7.22 0.15-7.23-0.15-7.15-0.43-7.07-0.72-6.98-1-6.9-1.27-6.79-1.54-6.7-1.8-6.59-2.05-6.48-2.3-6.36-2.55-6.23-2.79-6.1-3.02-5.97-3.24-5.82-3.47-5.68-3.68-5.53-3.89-5.36-4.1-5.2-4.29-5.04-4.49-4.85-4.68-4.68-4.85-4.48-5.03-4.3-5.21-4.1-5.36-3.89-5.53-3.68-5.67-3.47-5.83-3.24-5.97-3.02-6.1-2.79-6.23-2.54-6.36-2.31-6.48-2.05-6.59-1.8-6.69-1.54-6.8-1.27-6.9-0.99-6.98-0.72-7.07-0.44-7.15-0.15-7.22v-175.49h20.01l3.94-0.02 3.95-0.08 3.94-0.13 3.94-0.18 3.93-0.23 3.92-0.28 3.93-0.34 3.91-0.38 3.91-0.44 3.9-0.48 3.9-0.54 3.88-0.58 3.88-0.64 3.86-0.69 3.86-0.73 3.85-0.79 3.84-0.83 3.82-0.89 3.81-0.93 3.8-0.98 3.79-1.04 3.78-1.08 3.76-1.13 3.74-1.17 3.73-1.23 3.72-1.28 3.69-1.32 3.69-1.37 3.66-1.42 3.65-1.46 3.63-1.52 3.61-1.56 3.59-1.61 3.57-1.66 3.55-1.7 3.53-1.75 3.51-1.8 3.48-1.84 3.47-1.89 3.44-1.94 5.12-2.93 5.12 2.93 2.32 1.3zm-14.6 23.29-3.6 1.83-3.63 1.79-3.65 1.74-3.67 1.69-3.69 1.64-3.71 1.6-3.73 1.55-3.74 1.51-3.77 1.46-3.78 1.41-3.79 1.36-3.82 1.31-3.82 1.27-3.85 1.22-3.85 1.17-3.88 1.13-3.88 1.07-3.9 1.03-3.91 0.98-3.92 0.93-3.94 0.88-3.94 0.84-3.96 0.78-3.96 0.73-3.98 0.69-3.98 0.64-3.99 0.58-4.01 0.54-4 0.49-4.02 0.44-4.02 0.38-4.03 0.34-4.03 0.29-4.04 0.24-4.04 0.18-4.05 0.14-4.05 0.08-4.05 0.04v154.84l0.13 6.37 0.38 6.31 0.64 6.23 0.88 6.17 1.12 6.08 1.36 6 1.58 5.91 1.81 5.81 2.04 5.72 2.24 5.61 2.46 5.5 2.67 5.38 2.86 5.27 3.06 5.14 3.25 5.01 3.43 4.87 3.62 4.74 3.79 4.59 3.96 4.44 4.12 4.28 4.28 4.13 4.44 3.96 4.59 3.79 4.74 3.61 4.87 3.43 5.01 3.25 5.14 3.06 5.27 2.87 5.38 2.66 5.5 2.46 5.61 2.25 5.72 2.03 5.81 1.81 5.91 1.59 6 1.35 6.08 1.12 6.17 0.89 6.24 0.63 6.3 0.39 6.38 0.12 4.26-0.09 4.23-0.29 4.22-0.49 4.2-0.67 4.18-0.87 4.16-1.07 4.14-1.26 4.12-1.45 4.1-1.64 4.08-1.84 4.06-2.03 4.04-2.23 4.02-2.42 4-2.61 3.98-2.81 3.96-3 3.94-3.19 3.92-3.39 3.9-3.58 3.88-3.77 3.87-3.97 3.84-4.16 3.82-4.36 3.8-4.55 3.78-4.74 3.76-4.93 3.74-5.13 3.73-5.33 3.7-5.51 3.68-5.71 3.66-5.91 3.64-6.09 3.63-6.29 3.6-6.49 3.58-6.67 3.56-6.87 3.55-7.07 3.52-7.26 3.5-7.45 3.48-7.64v-154.84l-4.05-0.04-4.05-0.08-4.05-0.14-4.04-0.18-4.04-0.24-4.03-0.29-4.03-0.34-4.02-0.38-4.01-0.44-4.01-0.49-4-0.54-4-0.58-3.98-0.64-3.97-0.69-3.97-0.73-3.96-0.78-3.94-0.84-3.94-0.88-3.92-0.93-3.91-0.98-3.9-1.03-3.88-1.07-3.87-1.13-3.86-1.17-3.84-1.22-3.83-1.27-3.81-1.31-3.8-1.36-3.78-1.41-3.76-1.46-3.75-1.51-3.73-1.55-3.7-1.6-3.69-1.64-3.67-1.69-3.65-1.74-3.63-1.79-3.61-1.83-3.59-1.87-3.56-1.93-3.57 1.93-3.59 1.87z"/><path id="i2COeG9Cd1" d="m467.05 454.3 1.25 0.12 1.23 0.18 1.22 0.22 1.2 0.28 1.18 0.31 1.16 0.37 1.15 0.4 1.12 0.45 1.1 0.49 1.07 0.54 1.06 0.57 1.03 0.61 1 0.65 0.97 0.69 0.95 0.72 0.92 0.76 0.89 0.79 0.85 0.82 0.83 0.86 0.79 0.89 0.76 0.92 0.72 0.94 0.69 0.98 0.65 1 0.61 1.03 0.57 1.05 0.53 1.08 0.5 1.1 0.45 1.12 0.4 1.14 0.36 1.17 0.32 1.18 0.27 1.2 0.23 1.22 0.17 1.23 0.13 1.25 0.08 1.26 0.02 1.27-0.01 1.01-0.05 0.99-0.08 0.99-0.11 0.98-0.14 0.96-0.17 0.96-0.2 0.95-0.23 0.94-0.26 0.92-0.29 0.91-0.31 0.9-0.34 0.89-0.37 0.87-0.39 0.86-0.42 0.85-0.44 0.83-0.47 0.81-0.49 0.8-0.52 0.79-0.53 0.76-0.57 0.75-0.58 0.73-0.6 0.72-0.63 0.69-0.64 0.68-0.67 0.65-0.68 0.64-0.71 0.62-0.72 0.59-0.74 0.57-0.76 0.56-0.77 0.53-0.79 0.5-0.81 0.49-0.82 0.45-0.84 0.44-0.85 0.41-0.87 0.39-0.88 0.36-0.89 0.33v22.54h-20.65v-22.54l-0.89-0.33-0.88-0.36-0.86-0.39-0.86-0.41-0.83-0.44-0.83-0.45-0.8-0.49-0.8-0.5-0.77-0.53-0.76-0.56-0.74-0.57-0.72-0.59-0.7-0.62-0.69-0.64-0.67-0.65-0.64-0.68-0.63-0.69-0.6-0.72-0.58-0.73-0.56-0.75-0.54-0.76-0.52-0.79-0.49-0.8-0.47-0.81-0.44-0.83-0.42-0.85-0.39-0.86-0.37-0.87-0.34-0.89-0.31-0.9-0.29-0.91-0.26-0.92-0.22-0.94-0.21-0.95-0.17-0.96-0.14-0.96-0.11-0.98-0.08-0.99-0.05-0.99-0.01-1.01 0.02-1.27 0.08-1.26 0.13-1.25 0.17-1.23 0.23-1.22 0.27-1.2 0.32-1.18 0.36-1.17 0.41-1.14 0.45-1.12 0.49-1.1 0.53-1.08 0.57-1.05 0.62-1.03 0.64-1 0.69-0.98 0.72-0.94 0.76-0.92 0.79-0.89 0.83-0.86 0.86-0.82 0.88-0.79 0.92-0.76 0.95-0.72 0.97-0.69 1.01-0.65 1.02-0.61 1.06-0.57 1.07-0.54 1.1-0.49 1.13-0.45 1.14-0.4 1.16-0.37 1.18-0.31 1.2-0.28 1.22-0.22 1.23-0.18 1.25-0.12 1.26-0.08 1.28-0.03 1.27 0.03 1.26 0.08zm-5.28 20.91-1.27 0.44-1.19 0.6-1.1 0.74-0.99 0.88-0.87 0.99-0.75 1.1-0.59 1.19-0.45 1.27-0.27 1.34-0.1 1.4 0.1 1.4 0.27 1.34 0.45 1.27 0.59 1.2 0.75 1.09 0.87 1 0.99 0.87 1.1 0.74 1.19 0.6 1.27 0.44 1.35 0.28 1.4 0.09 1.4-0.09 1.34-0.28 1.27-0.44 1.19-0.6 1.1-0.74 0.99-0.87 0.88-1 0.74-1.09 0.6-1.2 0.44-1.27 0.27-1.34 0.1-1.4-0.1-1.4-0.27-1.34-0.44-1.27-0.6-1.19-0.74-1.1-0.88-0.99-0.99-0.88-1.1-0.74-1.19-0.6-1.27-0.44-1.34-0.28-1.4-0.09-1.4 0.09-1.35 0.28z"/><path id="d4GZQg9MqS" d="m470.43 309.92 2.91 0.29 2.88 0.41 2.84 0.53 2.8 0.63 2.75 0.74 2.72 0.85 2.66 0.95 2.62 1.04 2.57 1.15 2.51 1.24 2.46 1.34 2.4 1.43 2.33 1.51 2.28 1.61 2.21 1.68 2.14 1.77 2.07 1.85 2 1.92 1.93 2 1.85 2.08 1.76 2.14 1.69 2.21 1.6 2.27 1.52 2.34 1.43 2.4 1.34 2.46 1.24 2.51 1.15 2.57 1.04 2.61 0.95 2.67 0.85 2.71 0.74 2.76 0.63 2.8 0.53 2.84 0.41 2.88 0.29 2.91 0.18 2.94 0.06 2.98v32.86l0.9 0.34 0.88 0.36 0.86 0.38 0.85 0.41 0.84 0.44 0.82 0.46 0.81 0.48 0.79 0.51 0.78 0.53 0.76 0.55 0.74 0.57 0.72 0.6 0.7 0.61 0.69 0.64 0.66 0.65 0.65 0.68 0.62 0.69 0.61 0.72 0.58 0.73 0.56 0.75 0.54 0.77 0.51 0.78 0.5 0.8 0.46 0.81 0.45 0.83 0.42 0.85 0.39 0.86 0.37 0.87 0.34 0.89 0.31 0.9 0.28 0.91 0.26 0.93 0.23 0.93 0.2 0.95 0.17 0.96 0.14 0.97 0.12 0.97 0.08 0.99 0.04 1 0.02 1v103.23l-0.03 1.27-0.07 1.26-0.13 1.25-0.18 1.23-0.22 1.22-0.27 1.2-0.32 1.18-0.36 1.16-0.41 1.15-0.45 1.12-0.49 1.1-0.53 1.08-0.58 1.05-0.61 1.03-0.65 1-0.68 0.97-0.73 0.95-0.75 0.92-0.8 0.89-0.82 0.85-0.86 0.83-0.89 0.79-0.91 0.76-0.95 0.72-0.98 0.69-1 0.65-1.03 0.61-1.05 0.57-1.08 0.54-1.1 0.49-1.12 0.45-1.14 0.4-1.16 0.37-1.19 0.31-1.2 0.27-1.21 0.23-1.24 0.17-1.24 0.13-1.26 0.08-1.28 0.02h-123.87l-1.27-0.02-1.27-0.08-1.24-0.13-1.24-0.17-1.21-0.23-1.2-0.27-1.18-0.31-1.17-0.37-1.14-0.4-1.12-0.45-1.1-0.49-1.08-0.54-1.05-0.57-1.03-0.61-1-0.65-0.98-0.69-0.94-0.72-0.92-0.76-0.89-0.79-0.86-0.83-0.82-0.85-0.79-0.89-0.76-0.92-0.72-0.95-0.69-0.97-0.65-1-0.61-1.03-0.57-1.05-0.54-1.08-0.49-1.1-0.45-1.12-0.41-1.15-0.36-1.16-0.32-1.18-0.27-1.2-0.22-1.22-0.18-1.23-0.12-1.25-0.08-1.26-0.03-1.27v-103.23l0.02-1 0.05-1 0.08-0.99 0.11-0.97 0.14-0.97 0.17-0.96 0.2-0.95 0.23-0.93 0.26-0.93 0.28-0.91 0.32-0.9 0.34-0.89 0.36-0.87 0.4-0.86 0.42-0.85 0.44-0.83 0.47-0.81 0.49-0.8 0.51-0.78 0.54-0.77 0.56-0.75 0.58-0.73 0.61-0.72 0.62-0.69 0.65-0.68 0.66-0.65 0.69-0.64 0.7-0.61 0.73-0.6 0.74-0.57 0.75-0.55 0.78-0.53 0.79-0.51 0.81-0.48 0.82-0.46 0.84-0.44 0.85-0.41 0.87-0.38 0.88-0.36 0.89-0.34v-32.86l0.06-2.98 0.18-2.94 0.29-2.91 0.42-2.88 0.52-2.84 0.63-2.8 0.74-2.76 0.85-2.71 0.95-2.67 1.05-2.61 1.14-2.57 1.25-2.51 1.33-2.46 1.43-2.4 1.52-2.34 1.6-2.27 1.69-2.21 1.77-2.14 1.84-2.08 1.93-2 2-1.92 2.07-1.85 2.14-1.77 2.21-1.68 2.28-1.61 2.34-1.51 2.39-1.43 2.46-1.34 2.51-1.24 2.57-1.15 2.62-1.04 2.66-0.95 2.72-0.85 2.76-0.74 2.79-0.63 2.84-0.53 2.88-0.41 2.91-0.29 2.94-0.18 2.98-0.06 2.97 0.06 2.94 0.18zm-68.27 123.64-0.43 0.02-0.82 0.1-0.41 0.08-0.4 0.09-0.39 0.11-0.39 0.12-0.38 0.13-0.38 0.15-0.72 0.34-0.35 0.19-0.35 0.21-0.33 0.21-0.32 0.23-0.32 0.24-0.31 0.26-0.29 0.26-0.29 0.28-0.27 0.28-0.27 0.3-0.25 0.3-0.24 0.32-0.23 0.33-0.21 0.33-0.21 0.34-0.19 0.35-0.18 0.36-0.16 0.37-0.15 0.37-0.14 0.38-0.12 0.39-0.1 0.39-0.09 0.4-0.08 0.41-0.06 0.41-0.04 0.42-0.02 0.42-0.01 0.42v103.23l0.01 0.42 0.02 0.42 0.04 0.42 0.06 0.41 0.08 0.4 0.09 0.4 0.1 0.4 0.12 0.38 0.14 0.39 0.15 0.37 0.16 0.37 0.18 0.35 0.19 0.36 0.21 0.34 0.21 0.33 0.23 0.33 0.24 0.31 0.25 0.31 0.27 0.3 0.27 0.28 0.29 0.28 0.29 0.26 0.31 0.25 0.32 0.24 0.32 0.23 0.33 0.22 0.35 0.2 0.35 0.19 0.36 0.18 0.36 0.17 0.38 0.15 0.38 0.13 0.39 0.12 0.39 0.11 0.4 0.09 0.41 0.07 0.41 0.06 0.41 0.05 0.43 0.02 0.42 0.01h123.87l0.43-0.01 0.42-0.02 0.41-0.05 0.42-0.06 0.4-0.07 0.4-0.09 0.4-0.11 0.38-0.12 0.38-0.13 0.38-0.15 0.37-0.17 0.35-0.18 0.36-0.19 0.34-0.2 0.33-0.22 0.33-0.23 0.31-0.24 0.31-0.25 0.29-0.26 0.29-0.28 0.27-0.28 0.27-0.3 0.25-0.31 0.24-0.31 0.23-0.33 0.22-0.33 0.2-0.34 0.19-0.36 0.18-0.35 0.16-0.37 0.15-0.37 0.14-0.39 0.12-0.38 0.1-0.4 0.09-0.4 0.08-0.4 0.06-0.41 0.04-0.42 0.03-0.42v-0.42-103.23-0.42l-0.03-0.42-0.04-0.42-0.06-0.41-0.08-0.41-0.09-0.4-0.1-0.39-0.12-0.39-0.14-0.38-0.15-0.37-0.16-0.37-0.18-0.36-0.19-0.35-0.2-0.34-0.22-0.33-0.23-0.33-0.24-0.32-0.25-0.3-0.27-0.3-0.27-0.28-0.29-0.28-0.29-0.26-0.31-0.26-0.31-0.24-0.33-0.23-0.33-0.21-0.34-0.21-0.36-0.19-0.35-0.17-0.37-0.17-0.38-0.15-0.38-0.13-0.38-0.12-0.4-0.11-0.4-0.09-0.4-0.08-0.42-0.05-0.41-0.05-0.42-0.02-0.43-0.01h-123.87l-0.42 0.01zm58.13-103.07-2.08 0.22-2.05 0.29-2.03 0.37-2 0.46-1.97 0.52-1.94 0.61-1.9 0.68-1.87 0.75-1.84 0.81-1.79 0.89-1.76 0.96-1.71 1.02-1.67 1.08-1.63 1.14-1.57 1.21-1.53 1.26-1.48 1.32-1.43 1.38-1.38 1.43-1.32 1.48-1.26 1.52-1.21 1.58-1.14 1.63-1.08 1.67-1.02 1.71-0.96 1.76-0.88 1.79-0.82 1.83-0.75 1.87-0.68 1.91-0.61 1.94-0.52 1.97-0.46 2-0.37 2.02-0.29 2.06-0.22 2.08-0.12 2.1-0.05 2.13v30.96h103.23v-30.96l-0.04-2.13-0.13-2.1-0.21-2.08-0.3-2.06-0.37-2.02-0.45-2-0.53-1.97-0.61-1.94-0.67-1.91-0.75-1.87-0.82-1.83-0.89-1.79-0.96-1.76-1.01-1.71-1.09-1.67-1.14-1.63-1.21-1.58-1.26-1.52-1.32-1.48-1.38-1.43-1.42-1.38-1.48-1.32-1.53-1.26-1.58-1.21-1.63-1.14-1.67-1.08-1.71-1.02-1.75-0.96-1.8-0.89-1.83-0.82-1.87-0.74-1.91-0.68-1.94-0.61-1.97-0.52-2-0.46-2.02-0.37-2.06-0.29-2.08-0.22-2.1-0.12-2.12-0.05-2.13 0.05-2.1 0.12z"/><path id="b7CYhef79" d="m495.48 165.16v20.65h-185.8v-20.65h185.8z"/></defs><use fill="#4285f4" xlink:href="#cmZlKKjUW"/><use fill="#a434b7" xlink:href="#c2r5cMRv6X"/><use fill="#a434b7" xlink:href="#a3RRYLejEA"/><use fill="#a434b7" xlink:href="#aTSkhgzzl"/><use fill="#a434b7" xlink:href="#b8f2giQxb"/><use fill="#a434b7" xlink:href="#bH00xFJ9R"/><use fill="#ffca28" xlink:href="#d3cRNfKIRg"/><use fill="#ffca28" xlink:href="#i2COeG9Cd1"/><use fill="#ffca28" xlink:href="#d4GZQg9MqS"/><use fill="#4285f4" xlink:href="#b7CYhef79"/></svg>