<svg xmlns="http://www.w3.org/2000/svg" xmlns:xlink="http://www.w3.org/1999/xlink" width="640" height="640"><defs><path id="a" d="M320 0C143.27 0 0 143.27 0 320s143.27 320 320 320 320-143.27 320-320S496.73 0 320 0z"/><path id="b" d="M639.08 295.66c-9.29-9.3-55.78-55.78-139.45-139.45l-355.46 93.01 84.05 82.84-13.42.08-80.47-80.47v10.75l12.75 70.14L250.11 435.5l-8.07 4.77-107.71-107.71v11.35l25.54 144.89-39.73-3.69c85.31 89.82 132.71 139.72 142.19 149.7 18.71 3.4 37.98 5.19 57.67 5.19 176.73 0 320-143.27 320-320 0-8.19-.31-16.31-.92-24.34z"/><path id="c" d="M319.7 113.33h-.12c-102.35.07-185.25 25.77-185.25 57.45v59.93c0 31.73 83.13 57.46 185.67 57.46 102.54 0 185.67-25.73 185.67-57.46v-59.93c0-31.73-83.13-57.45-185.67-57.45h-.3z"/><path id="d" d="M505.66 170.79c0 31.73-83.12 57.45-185.66 57.45-102.54 0-185.66-25.72-185.66-57.45 0-31.73 83.12-57.45 185.66-57.45 102.54 0 185.66 25.72 185.66 57.45z"/><path id="e" d="M319.58 113.33v114.9h.42c102.54 0 185.67-25.72 185.67-57.45 0-31.73-83.13-57.45-185.67-57.45h-.42z"/><path id="f" d="M319.58 228.23v59.93c.14 0 .28.01.42.01 102.54 0 185.67-25.73 185.67-57.46v-59.93c0 31.73-83.13 57.46-185.67 57.46-.14 0-.28-.01-.42-.01z"/><path id="g" d="M320 369.06c102.54 0 185.67-25.73 185.67-57.46v-59.93c0 31.73-83.13 57.46-185.67 57.46-102.54 0-185.67-25.73-185.67-57.46v59.93c55.42 38.31 117.31 57.46 185.67 57.46z"/><path id="h" d="M319.58 309.12v59.94h.42c102.54 0 185.67-25.73 185.67-57.46v-59.93c0 31.73-83.13 57.46-185.67 57.46-.14 0-.28-.01-.42-.01z"/><path id="i" d="M320 449.95c102.54 0 185.67-25.73 185.67-57.46v-59.93c0 31.73-83.13 57.46-185.67 57.46-102.54 0-185.67-25.73-185.67-57.46v59.93c55.42 38.31 117.31 57.46 185.67 57.46z"/><path id="j" d="M319.58 390.01v59.94h.42c102.54 0 185.67-25.73 185.67-57.46v-59.93c0 31.73-83.13 57.46-185.67 57.46-.14 0-.28-.01-.42-.01z"/><path id="k" d="M320 530.84c102.54 0 185.67-25.72 185.67-57.45v-59.94c0 31.73-83.13 57.46-185.67 57.46-102.54 0-185.67-25.73-185.67-57.46v59.94c55.42 38.3 117.31 57.45 185.67 57.45z"/><path id="l" d="M319.58 470.91v59.93h.42c102.54 0 185.67-25.72 185.67-57.45v-59.94c0 31.73-83.13 57.46-185.67 57.46h-.42z"/><path id="m" d="M169.08 185.04l3.39.35 3.35.48 3.31.6 3.26.74 3.21.86 3.16.98 3.1 1.11 3.05 1.21 2.99 1.34 2.92 1.44 2.86 1.56 2.79 1.65 2.72 1.77 2.65 1.86 2.57 1.96 2.49 2.06 2.41 2.15 2.33 2.24 2.24 2.32 2.15 2.41 2.05 2.49 1.96 2.57 1.87 2.65 1.76 2.72 1.66 2.79 1.55 2.86 1.45 2.93 1.33 2.98 1.22 3.05 1.1 3.11.98 3.16.86 3.21.74 3.26.61 3.31.47 3.35.35 3.39.21 3.43.07 3.47-.03 2.32-.1 2.31-.15 2.3-.22 2.27-.28 2.26-.34 2.24-.39 2.22-.45 2.2-.51 2.18-.57 2.15-.62 2.14-.68 2.11-.72 2.08-.79 2.06-.83 2.03-.89 2.01-.93 1.98-.99 1.95-1.03 1.92-1.08 1.89-1.13 1.86-1.18 1.82-1.22 1.8-1.26 1.76-1.31 1.72-1.35 1.69-1.4 1.66-1.43 1.62-1.48 1.58-1.52 1.54-1.55 1.5-1.6 1.47-1.63 1.42-1.66 1.38-1.71 1.34-1.73 1.29-1.78 1.25-1.8 1.21-1.84 1.16-1.87 1.12v143.45l-43.2 30.14-40.88-30.14v-19.2l23.95-23.95-23.95-16.58v-25.34l23.95-17.04-23.95-16.58v-24.77l-1.87-1.11-1.84-1.16-1.8-1.21-1.78-1.25-1.73-1.29-1.71-1.34-1.66-1.38-1.63-1.42-1.6-1.47-1.55-1.5-1.52-1.54-1.48-1.58-1.43-1.62-1.4-1.66-1.35-1.69-1.31-1.72-1.26-1.76-1.22-1.8-1.18-1.83-1.13-1.85-1.08-1.89-1.03-1.92-.99-1.95-.93-1.98-.89-2.01-.83-2.03-.79-2.06-.72-2.08-.68-2.11-.62-2.14-.57-2.15-.51-2.18-.45-2.2-.39-2.22-.34-2.24-.28-2.26-.22-2.28-.15-2.29-.1-2.31-.03-2.33.07-3.46.21-3.43.35-3.39.47-3.36.61-3.3.74-3.26.86-3.21.98-3.16 1.1-3.11 1.22-3.05 1.33-2.98 1.45-2.93 1.55-2.86 1.66-2.79 1.76-2.72 1.87-2.65 1.96-2.57 2.05-2.49 2.15-2.41 2.24-2.32 2.33-2.24 2.41-2.15 2.49-2.06 2.57-1.96 2.65-1.86 2.72-1.77 2.79-1.65 2.86-1.56 2.92-1.44 2.99-1.34 3.05-1.21 3.1-1.11 3.16-.98 3.21-.86 3.26-.74 3.31-.6 3.35-.48 3.39-.35 3.43-.2 3.47-.07 3.47.07 3.43.2zm-9.59 19.68l-1.31.18-1.29.25-1.26.31-1.24.38-1.21.43-1.18.5-1.15.56-1.11.62-1.08.66-1.04.73-1 .77-.95.82-.92.87-.87.91-.82.96-.77 1-.72 1.04-.67 1.08-.62 1.11-.55 1.15-.5 1.18-.44 1.21-.38 1.23-.31 1.27-.24 1.29-.18 1.31-.11 1.33-.04 1.36.04 1.35.11 1.33.18 1.31.24 1.29.31 1.27.38 1.24.44 1.21.5 1.18.55 1.14.62 1.12.67 1.07.72 1.04.77 1 .82.96.87.91.92.87.95.82 1 .78 1.04.72 1.08.67 1.11.61 1.15.56 1.18.5 1.21.44 1.24.37 1.26.31 1.29.25 1.31.18 1.34.11 1.35.03 1.35-.03 1.34-.11 1.31-.18 1.29-.25 1.26-.31 1.24-.37 1.21-.44 1.18-.5 1.15-.56 1.11-.61 1.08-.67 1.04-.72 1-.78.95-.82.92-.87.87-.91.82-.96.77-1 .72-1.04.67-1.07.62-1.12.55-1.14.5-1.18.44-1.21.38-1.24.31-1.27.24-1.29.18-1.31.11-1.33.04-1.35-.04-1.36-.11-1.33-.18-1.31-.24-1.29-.31-1.27-.38-1.23-.44-1.21-.5-1.18-.55-1.15-.62-1.11-.67-1.08-.72-1.04-.77-1-.82-.96-.87-.91-.92-.87-.95-.82-1-.77-1.04-.73-1.08-.66-1.11-.62-1.15-.56-1.18-.5-1.21-.43-1.24-.38-1.26-.31-1.29-.25-1.31-.18-1.34-.1-1.35-.04-1.35.04-1.34.1z"/><path id="n" d="M161.02 184.8v19.84c.38-.02.77-.06 1.16-.06 13.61 0 24.65 11.04 24.65 24.65s-11.04 24.64-24.65 24.64c-.39 0-.78-.04-1.16-.05v261.44l43.2-30.14V341.67c25.13-14.55 42.05-41.7 42.05-72.81 0-46.45-37.65-84.09-84.09-84.09-.39 0-.78.02-1.16.03z"/></defs><use fill="#dbdadb" xlink:href="#a"/><use fill-opacity="0" stroke="#000" stroke-opacity="0" xlink:href="#a"/><use fill="#600060" xlink:href="#b"/><use fill-opacity="0" stroke="#000" stroke-opacity="0" xlink:href="#b"/><use fill="#e0e0e0" xlink:href="#c"/><use fill-opacity="0" stroke="#000" stroke-opacity="0" xlink:href="#c"/><use fill="#fff" xlink:href="#d"/><use fill-opacity="0" stroke="#000" stroke-opacity="0" xlink:href="#d"/><use fill="#e0e0e0" xlink:href="#e"/><use fill-opacity="0" stroke="#000" stroke-opacity="0" xlink:href="#e"/><use fill="silver" xlink:href="#f"/><use fill-opacity="0" stroke="#000" stroke-opacity="0" xlink:href="#f"/><use fill="#e0e0e0" xlink:href="#g"/><use fill-opacity="0" stroke="#000" stroke-opacity="0" xlink:href="#g"/><g><use fill="silver" xlink:href="#h"/><use fill-opacity="0" stroke="#000" stroke-opacity="0" xlink:href="#h"/></g><g><use fill="#e0e0e0" xlink:href="#i"/><use fill-opacity="0" stroke="#000" stroke-opacity="0" xlink:href="#i"/></g><g><use fill="silver" xlink:href="#j"/><use fill-opacity="0" stroke="#000" stroke-opacity="0" xlink:href="#j"/></g><g><use fill="#e0e0e0" xlink:href="#k"/><use fill-opacity="0" stroke="#000" stroke-opacity="0" xlink:href="#k"/></g><g><use fill="silver" xlink:href="#l"/><use fill-opacity="0" stroke="#000" stroke-opacity="0" xlink:href="#l"/></g><g><use fill="#8d008d" xlink:href="#m"/><use fill-opacity="0" stroke="#000" stroke-opacity="0" xlink:href="#m"/></g><g><use fill="#600060" xlink:href="#n"/><use fill-opacity="0" stroke="#000" stroke-opacity="0" xlink:href="#n"/></g></svg>