<svg xmlns="http://www.w3.org/2000/svg" xmlns:xlink="http://www.w3.org/1999/xlink" width="640" height="640"><defs><path id="a" d="M320 10.32c-90.32 0-144.52 82.58-144.52 165.16 0 16.19 2.98 34.25 8.01 51.49.08-2.7 3.95-113.42 136.51-113.42s136.43 110.72 136.51 113.42c5.03-17.24 8.01-35.3 8.01-51.49 0-82.58-54.2-165.16-144.52-165.16z"/><path id="b" d="M529.04 310.97c-4.3-2.15-25.81-12.91-64.52-32.26-15.82-5.27-24.61-8.2-26.37-8.78-4.6 7.57-9.62 14.14-14.92 19.1-6.89 2.07-41.29 12.39-103.23 30.97-61.94-18.58-96.34-28.9-103.23-30.97-5.3-4.96-10.32-11.53-14.92-19.1-1.76.58-10.55 3.51-26.37 8.78-38.71 19.35-60.22 30.11-64.52 32.26a82.56 82.56 0 0 0-44.82 62.18c-.97 6.78-5.81 40.68-14.53 101.69h536.78l-14.53-101.69c-13.72-33.38-28.66-54.1-44.82-62.18z"/><path id="c" d="M295.41 237.42h-55.73l-16.84-67.36 91.07 30.36-18.5 37zm-12.76-20.65l2.15-4.29-32.81-10.93 3.81 15.22h26.85z"/><path id="d" d="M344.59 237.42l-18.5-37 91.07-30.36-16.84 67.36h-55.73zm12.76-20.65h26.85l3.81-15.22-32.81 10.93 2.15 4.29z"/><path id="e" d="M639.96 528.58l-.13 2.1-.21 2.08-.3 2.05-.37 2.03-.45 2-.53 1.97-.61 1.94-.67 1.9-.75 1.87-.82 1.84-.89 1.79-.95 1.76-1.02 1.71-1.09 1.67-1.14 1.62-1.21 1.58-1.26 1.53-1.32 1.48-1.37 1.43-1.43 1.38-1.48 1.32-1.53 1.26-1.58 1.2-1.63 1.15-1.67 1.08-1.71 1.02-1.75.95-1.8.89-1.83.82-1.87.75-1.91.68-1.93.6-1.97.53-2 .45-2.03.38-2.06.29-2.08.21-2.1.13-2.12.04H433.55v41.29h41.29V640H165.16v-20.65h41.29v-41.29H51.61l-1.42-.03-1.41-.09-1.41-.17-1.4-.22-1.39-.29-1.39-.36-1.38-.42-1.37-.48-1.37-.55-1.36-.61-1.35-.68-1.35-.74-1.34-.81-1.33-.87-1.33-.93-1.32-1-1.31-1.07-1.31-1.13-1.3-1.19-1.29-1.26-1.29-1.32-1.28-1.39-1.27-1.45-1.27-1.52-1.26-1.58-1.25-1.64-1.25-1.71-1.24-1.78-1.23-1.83-1.23-1.91-1.22-1.97-1.22-2.03-1.2-2.09-1.2-2.17-1.2-2.22-1.19-2.29-1.18-2.36-1.17-2.42L1.16 529 0 526.45v-30.97h640v30.97l-.04 2.13zM227.1 619.35h185.8v-41.29H227.1v41.29zm-206.45-92.9l.02 1.28.08 1.26.13 1.24.17 1.24.23 1.21.27 1.2.31 1.19.37 1.16.4 1.14.45 1.12.49 1.1.54 1.08.57 1.05.61 1.03.65 1 .69.98.72.95.76.91.79.89.83.86.85.82.89.8.92.75.95.73.97.68 1 .65 1.03.61 1.05.58 1.08.53 1.1.49 1.12.45 1.15.41 1.16.36 1.18.32 1.2.27 1.22.22 1.23.18 1.25.13 1.26.07 1.27.03h536.78l1.27-.03 1.26-.07 1.25-.13 1.23-.18 1.22-.22 1.2-.27 1.18-.32 1.16-.36 1.15-.41 1.12-.45 1.1-.49 1.08-.53 1.05-.58 1.03-.61 1-.65.97-.68.95-.73.92-.75.89-.8.85-.82.83-.86.79-.89.76-.91.72-.95.69-.98.65-1 .61-1.03.57-1.05.54-1.08.49-1.1.45-1.12.4-1.14.37-1.16.31-1.19.27-1.2.23-1.21.17-1.24.13-1.24.08-1.26.02-1.28v-10.32H20.65v10.32z"/><path id="f" d="M516.13 92.9v20.65h72.26c17.07 0 30.96 13.89 30.96 30.97v330.32H640V144.52c0-28.46-23.15-51.62-51.61-51.62h-72.26z"/><path id="g" d="M51.61 113.55h72.26V92.9H51.61C23.15 92.9 0 116.06 0 144.52v330.32h20.65V144.52c9.26-20.65 19.58-30.97 30.96-30.97z"/><path id="h" d="M426.49 350.43l-6.53-19.57-68.99 22.99v79.7h20.64v-64.82l54.88-18.3z"/><path id="i" d="M371.61 454.19v20.65h-20.64v-20.65h20.64z"/><path id="j" d="M220.04 330.86l-6.53 19.57 54.88 18.3v64.82h20.64v-79.7l-68.99-22.99z"/><path id="k" d="M289.03 454.19v20.65h-20.64v-20.65h20.64z"/></defs><use fill="#600060" xlink:href="#a"/><use fill="#600060" xlink:href="#b"/><use fill="#a434b7" xlink:href="#c"/><use fill-opacity="0" stroke="#000" stroke-opacity="0" xlink:href="#c"/><use fill="#a434b7" xlink:href="#d"/><use fill-opacity="0" stroke="#000" stroke-opacity="0" xlink:href="#d"/><use fill-opacity="0" stroke="#000" stroke-width="2" xlink:href="#e"/><use fill-opacity="0" stroke="#000" stroke-width="2" xlink:href="#f"/><use fill-opacity="0" stroke="#000" stroke-width="2" xlink:href="#g"/><use fill="#a434b7" xlink:href="#h"/><use fill="#a434b7" xlink:href="#i"/><use fill-opacity="0" stroke="#000" stroke-opacity="0" xlink:href="#i"/><g><use fill="#a434b7" xlink:href="#j"/></g><g><use fill="#a434b7" xlink:href="#k"/><use fill-opacity="0" stroke="#000" stroke-opacity="0" xlink:href="#k"/></g></svg>